<svg enable-background="new 0 0 256 256" height="512" viewBox="0 0 256 256" width="512" xmlns="http://www.w3.org/2000/svg"><g id="Layer_61"><g><g><g><g><path d="m116.112 182.656c-34.71 0-62.949-28.239-62.949-62.949s28.239-62.949 62.949-62.949 62.949 28.239 62.949 62.949-28.239 62.949-62.949 62.949z" fill="#5290db"/></g></g></g><g><g><circle cx="116.112" cy="119.706" fill="#3a70bf" r="49.749"/></g></g><g><g><circle cx="116.112" cy="119.706" fill="#edf4fc" r="39.601"/></g></g><g><g><circle cx="116.112" cy="119.706" fill="#c7d7e5" r="8.999"/></g></g><g><g><path d="m136.918 114.705h-13.329c.961 1.431 1.523 3.152 1.523 5.001s-.562 3.568-1.521 4.999h13.328c2.761 0 5-2.238 5-5s-2.24-5-5.001-5z" fill="#fc657e"/></g></g><g><g><path d="m116.112 110.707c1.858 0 3.586.566 5.021 1.535v-13.322c0-2.762-2.239-5-5-5s-5 2.238-5 5v13.296c1.427-.951 3.139-1.509 4.979-1.509z" fill="#3a70bf"/></g></g><g><g><path d="m116.112 21.651c-54.068 0-98.055 43.988-98.055 98.055 0 32.497 15.895 61.347 40.313 79.198h-55.87v18.857h113.141v-.006c.157.001.314.006.471.006 54.068 0 98.055-43.988 98.055-98.055s-43.987-98.055-98.055-98.055zm0 177.254c-43.67 0-79.198-35.529-79.198-79.198s35.528-79.198 79.198-79.198 79.198 35.529 79.198 79.198-35.527 79.198-79.198 79.198z" fill="#fcdd86"/></g></g><g><g><path d="m250.587 201.225-17.581-17.581c-3.884-3.883-10.181-3.883-14.065 0-3.883 3.884-3.883 10.181 0 14.065l1.196 1.196h-46.284c-16.209 11.85-36.171 18.857-57.742 18.857h103.873l-1.044 1.044c-3.883 3.884-3.883 10.181 0 14.065 1.942 1.941 4.487 2.912 7.033 2.912 2.545 0 5.091-.971 7.032-2.912l17.581-17.581c3.885-3.884 3.885-10.181.001-14.065z" fill="#f5c84c"/></g></g><g><g><path d="m116.112 220.262-.333-.004c-.046.003-.092.004-.139.004h-113.14c-1.381 0-2.5-1.119-2.5-2.5v-18.856c0-1.381 1.119-2.5 2.5-2.5h48.665c-22.417-19.039-35.607-47.2-35.607-76.699 0-55.446 45.109-100.555 100.555-100.555s100.554 45.108 100.554 100.554-45.108 100.556-100.555 100.556zm-.471-5.006h.016l.456.006c52.689 0 95.555-42.866 95.555-95.556s-42.866-95.555-95.555-95.555-95.555 42.865-95.555 95.555c0 30.342 14.688 59.195 39.289 77.181.873.639 1.237 1.767.901 2.795s-1.295 1.724-2.376 1.724h-53.372v13.856h110.47c.057-.004.114-.006.171-.006zm.471-13.851c-45.049 0-81.699-36.65-81.699-81.699s36.65-81.698 81.699-81.698c45.048 0 81.698 36.649 81.698 81.698s-36.649 81.699-81.698 81.699zm0-158.397c-42.292 0-76.699 34.406-76.699 76.698s34.407 76.699 76.699 76.699 76.698-34.407 76.698-76.699-34.406-76.698-76.698-76.698z"/></g></g><g><g><path d="m115.112 201.405h-56.742c-1.381 0-2.5-1.119-2.5-2.5s1.119-2.5 2.5-2.5h56.742c1.381 0 2.5 1.119 2.5 2.5s-1.119 2.5-2.5 2.5z"/></g></g><g><g><path d="m225.974 238.283c-3.323 0-6.449-1.295-8.8-3.646-3.883-3.883-4.658-9.715-2.327-14.376h-98.735c-1.381 0-2.5-1.119-2.5-2.5s1.119-2.5 2.5-2.5h103.874c1.011 0 1.923.609 2.31 1.543.387.935.173 2.01-.542 2.725l-1.044 1.044c-2.902 2.903-2.902 7.626 0 10.529 1.406 1.406 3.276 2.181 5.264 2.181s3.858-.774 5.265-2.181l17.581-17.58c2.902-2.903 2.902-7.627 0-10.53l-17.58-17.58c-2.903-2.902-7.626-2.9-10.53 0-2.902 2.903-2.902 7.626 0 10.529l1.196 1.196c.715.715.929 1.79.542 2.725-.387.934-1.298 1.543-2.31 1.543h-45.731c-1.381 0-2.5-1.119-2.5-2.5s1.119-2.5 2.5-2.5h40.519c-2.425-4.686-1.676-10.604 2.249-14.528 4.854-4.852 12.748-4.852 17.601 0l17.581 17.58c4.852 4.853 4.852 12.748 0 17.601l-17.581 17.58c-2.353 2.35-5.478 3.645-8.802 3.645z"/></g></g><g><g><path d="m116.112 160.808c-1.381 0-2.5-1.119-2.5-2.5v-5c0-1.381 1.119-2.5 2.5-2.5s2.5 1.119 2.5 2.5v5c0 1.38-1.119 2.5-2.5 2.5z"/></g></g><g><g><path d="m116.112 88.605c-1.381 0-2.5-1.119-2.5-2.5v-5c0-1.381 1.119-2.5 2.5-2.5s2.5 1.119 2.5 2.5v5c0 1.381-1.119 2.5-2.5 2.5z"/></g></g><g><g><path d="m135.415 155.636c-.864 0-1.705-.448-2.167-1.25l-2.5-4.33c-.69-1.195-.281-2.725.915-3.415 1.195-.691 2.725-.28 3.415.915l2.5 4.33c.69 1.195.281 2.725-.915 3.415-.394.227-.824.335-1.248.335z"/></g></g><g><g><path d="m99.314 93.107c-.864 0-1.705-.448-2.167-1.25l-2.5-4.33c-.69-1.195-.281-2.725.915-3.415 1.196-.692 2.725-.28 3.415.915l2.5 4.33c.69 1.195.281 2.725-.915 3.415-.394.228-.824.335-1.248.335z"/></g></g><g><g><path d="m149.539 141.507c-.424 0-.854-.107-1.248-.335l-4.33-2.5c-1.196-.69-1.605-2.22-.915-3.415s2.218-1.607 3.415-.915l4.33 2.5c1.196.69 1.605 2.22.915 3.415-.462.802-1.303 1.25-2.167 1.25z"/></g></g><g><g><path d="m87.01 105.406c-.424 0-.854-.107-1.248-.335l-4.33-2.5c-1.196-.69-1.605-2.22-.915-3.415.689-1.195 2.218-1.607 3.415-.915l4.33 2.5c1.196.69 1.605 2.22.915 3.415-.462.802-1.302 1.25-2.167 1.25z"/></g></g><g><g><path d="m154.713 122.206h-5c-1.381 0-2.5-1.119-2.5-2.5s1.119-2.5 2.5-2.5h5c1.381 0 2.5 1.119 2.5 2.5s-1.119 2.5-2.5 2.5z"/></g></g><g><g><path d="m82.511 122.206h-5c-1.381 0-2.5-1.119-2.5-2.5s1.119-2.5 2.5-2.5h5c1.381 0 2.5 1.119 2.5 2.5s-1.119 2.5-2.5 2.5z"/></g></g><g><g><path d="m145.214 105.406c-.864 0-1.705-.448-2.167-1.25-.69-1.195-.281-2.725.915-3.415l4.33-2.5c1.196-.692 2.725-.28 3.415.915s.281 2.725-.915 3.415l-4.33 2.5c-.394.228-.824.335-1.248.335z"/></g></g><g><g><path d="m82.685 141.507c-.864 0-1.705-.448-2.167-1.25-.69-1.195-.281-2.725.915-3.415l4.33-2.5c1.195-.692 2.725-.28 3.415.915s.281 2.725-.915 3.415l-4.33 2.5c-.394.227-.824.335-1.248.335z"/></g></g><g><g><path d="m132.91 93.107c-.424 0-.854-.107-1.248-.335-1.196-.69-1.605-2.22-.915-3.415l2.5-4.33c.689-1.195 2.218-1.607 3.415-.915 1.196.69 1.605 2.22.915 3.415l-2.5 4.33c-.462.802-1.303 1.25-2.167 1.25z"/></g></g><g><g><path d="m96.809 155.636c-.424 0-.854-.107-1.248-.335-1.196-.69-1.605-2.22-.915-3.415l2.5-4.33c.689-1.195 2.218-1.606 3.415-.915 1.196.69 1.605 2.22.915 3.415l-2.5 4.33c-.462.802-1.303 1.25-2.167 1.25z"/></g></g><g><g><g><path d="m116.112 185.155c-36.088 0-65.449-29.36-65.449-65.449s29.36-65.449 65.449-65.449 65.449 29.36 65.449 65.449-29.36 65.449-65.449 65.449zm0-125.898c-33.332 0-60.449 27.117-60.449 60.449s27.117 60.449 60.449 60.449 60.449-27.117 60.449-60.449-27.117-60.449-60.449-60.449z"/></g></g></g><g><g><path d="m116.112 171.956c-28.81 0-52.249-23.439-52.249-52.25s23.439-52.249 52.249-52.249 52.249 23.438 52.249 52.249-23.439 52.25-52.249 52.25zm0-99.499c-26.053 0-47.249 21.196-47.249 47.249 0 26.054 21.196 47.25 47.249 47.25s47.249-21.196 47.249-47.25c0-26.053-21.195-47.249-47.249-47.249z"/></g></g><g><g><path d="m116.112 161.808c-23.214 0-42.101-18.887-42.101-42.102 0-23.214 18.886-42.101 42.101-42.101s42.101 18.887 42.101 42.101c0 23.215-18.886 42.102-42.101 42.102zm0-79.203c-20.458 0-37.101 16.644-37.101 37.101 0 20.458 16.643 37.102 37.101 37.102s37.101-16.644 37.101-37.102c0-20.457-16.643-37.101-37.101-37.101z"/></g></g><g><g><path d="m116.112 131.206c-6.341 0-11.499-5.159-11.499-11.5s5.158-11.499 11.499-11.499 11.499 5.158 11.499 11.499-5.158 11.5-11.499 11.5zm0-17.999c-3.583 0-6.499 2.915-6.499 6.499s2.916 6.5 6.499 6.5 6.499-2.916 6.499-6.5-2.915-6.499-6.499-6.499z"/></g></g><g><g><path d="m136.918 127.205h-12.876c-1.381 0-2.5-1.119-2.5-2.5s1.119-2.5 2.5-2.5h12.876c1.378 0 2.5-1.121 2.5-2.5s-1.122-2.5-2.5-2.5h-12.949c-1.381 0-2.5-1.119-2.5-2.5s1.119-2.5 2.5-2.5h12.949c4.136 0 7.5 3.364 7.5 7.5s-3.364 7.5-7.5 7.5z"/></g></g><g><g><path d="m121.133 114.559c-1.381 0-2.5-1.119-2.5-2.5v-13.139c0-1.379-1.122-2.5-2.5-2.5s-2.5 1.121-2.5 2.5v13.021c0 1.381-1.119 2.5-2.5 2.5s-2.5-1.119-2.5-2.5v-13.021c0-4.136 3.364-7.5 7.5-7.5s7.5 3.364 7.5 7.5v13.139c0 1.38-1.119 2.5-2.5 2.5z"/></g></g><g><g><path d="m20.705 169.599c-4.498-.838-8.043-4.31-8.898-8.716-.043-.221-.352-.221-.395 0-.855 4.406-4.4 7.879-8.898 8.716-.226.042-.226.345 0 .387 4.498.838 8.043 4.31 8.898 8.717.043.221.352.221.395 0 .855-4.406 4.4-7.879 8.898-8.717.226-.042.226-.344 0-.387z" fill="#fc657e"/></g></g><g><g><path d="m158.121 232.1c-2.726-.508-4.874-2.612-5.392-5.282-.026-.134-.213-.134-.239 0-.518 2.67-2.666 4.775-5.392 5.282-.137.026-.137.209 0 .234 2.726.508 4.874 2.612 5.392 5.282.026.134.213.134.239 0 .518-2.67 2.666-4.775 5.392-5.282.137-.025.137-.209 0-.234z" fill="#87d147"/></g></g><g><g><path d="m185.442 23.204h2.33v-2.33c0-1.744 1.413-3.157 3.157-3.157s3.157 1.413 3.157 3.157v2.33h2.329c1.744 0 3.157 1.413 3.157 3.157s-1.413 3.157-3.157 3.157h-2.329v2.33c0 1.744-1.413 3.157-3.157 3.157s-3.157-1.413-3.157-3.157v-2.33h-2.33c-1.744 0-3.157-1.413-3.157-3.157s1.413-3.157 3.157-3.157z" fill="#70d6f9"/></g></g><g><g><circle cx="206.721" cy="48.34" fill="#f5c84c" r="3.377"/></g></g><g><g><circle cx="3.377" cy="142.34" fill="#70d6f9" r="3.377"/></g></g></g></g></svg>