<svg enable-background="new 0 0 256 256" height="512" viewBox="0 0 256 256" width="512" xmlns="http://www.w3.org/2000/svg"><g id="Layer_57"><g><g><g><path d="m161.78 208.672-32.751-16.219c-.649-.322-1.411-.322-2.059 0l-32.75 16.219c-1.721.852-1.721 3.306 0 4.158l32.751 16.219c.649.321 1.411.321 2.059 0l32.751-16.219c1.72-.852 1.72-3.306-.001-4.158z" fill="#fcdd86"/></g></g><g><g><g><path d="m82.23 232.074h-5.975c-2.417 0-4.376-1.959-4.376-4.376s1.959-4.376 4.376-4.376h5.975c2.417 0 4.376 1.959 4.376 4.376s-1.96 4.376-4.376 4.376z" fill="#fc657e"/></g></g></g><g><g><g><path d="m179.745 232.074h-5.975c-2.417 0-4.376-1.959-4.376-4.376s1.959-4.376 4.376-4.376h5.975c2.417 0 4.376 1.959 4.376 4.376s-1.959 4.376-4.376 4.376z" fill="#b2e26d"/></g></g></g><g><g><path d="m166.197 136.5h-76.394c-3.757 0-6.803 3.046-6.803 6.803v18.394c0 3.757 3.046 6.803 6.803 6.803h76.394c3.757 0 6.803-3.046 6.803-6.803v-18.394c0-3.757-3.046-6.803-6.803-6.803z" fill="#70d6f9"/></g></g><g><g><path d="m166.197 83.667h-76.394c-3.757 0-6.803 3.046-6.803 6.803v18.394c0 3.757 3.046 6.803 6.803 6.803h76.394c3.757 0 6.803-3.046 6.803-6.803v-18.394c0-3.757-3.046-6.803-6.803-6.803z" fill="#70d6f9"/></g></g><g><g><path d="m166.197 30.833h-76.394c-3.757 0-6.803 3.046-6.803 6.803v18.394c0 3.757 3.046 6.803 6.803 6.803h76.394c3.757 0 6.803-3.046 6.803-6.803v-18.393c0-3.758-3.046-6.804-6.803-6.804z" fill="#70d6f9"/></g></g><g><g><path d="m240.61 197.861h-33.725c-7.119 0-12.89 5.771-12.89 12.89 0 7.119 5.771 12.89 12.89 12.89h33.725c7.119 0 12.89-5.771 12.89-12.89 0-7.119-5.771-12.89-12.89-12.89z" fill="#5290db"/></g></g><g><g><path d="m49.115 33.944h-33.725c-7.119 0-12.89 5.771-12.89 12.89 0 7.119 5.771 12.89 12.89 12.89h33.725c7.119 0 12.89-5.771 12.89-12.89 0-7.119-5.771-12.89-12.89-12.89z" fill="#5290db"/></g></g><g><g><path d="m209.705 46.654c-4.498-.838-8.043-4.31-8.898-8.716-.043-.221-.352-.221-.395 0-.855 4.406-4.4 7.879-8.898 8.716-.226.042-.226.345 0 .387 4.498.838 8.043 4.31 8.898 8.717.043.221.352.221.395 0 .855-4.406 4.4-7.879 8.898-8.717.226-.043.226-.345 0-.387z" fill="#f5c84c"/></g></g><g><g><path d="m185.738 188.712c-3.611-.672-6.456-3.46-7.143-6.997-.035-.178-.282-.178-.317 0-.686 3.537-3.532 6.325-7.143 6.997-.181.034-.181.277 0 .31 3.611.672 6.456 3.46 7.143 6.997.034.178.282.178.317 0 .686-3.537 3.532-6.325 7.143-6.997.181-.033.181-.276 0-.31z" fill="#87d147"/></g></g><g><g><path d="m18.442 137.487h2.33v-2.33c0-1.744 1.413-3.157 3.157-3.157s3.157 1.413 3.157 3.157v2.33h2.329c1.744 0 3.157 1.413 3.157 3.157s-1.413 3.157-3.157 3.157h-2.329v2.33c0 1.744-1.413 3.157-3.157 3.157s-3.157-1.413-3.157-3.157v-2.33h-2.33c-1.744 0-3.157-1.413-3.157-3.157s1.413-3.157 3.157-3.157z" fill="#70d6f9"/></g></g><g><g><circle cx="31.721" cy="166.377" fill="#f5c84c" r="3.377"/></g></g><g><g><circle cx="189.721" cy="73.377" fill="#fc657e" r="3.377"/></g></g><g><g><path d="m128 231.787c-.735 0-1.469-.165-2.139-.497l-32.75-16.22c-1.653-.818-2.681-2.473-2.681-4.317 0-1.846 1.027-3.502 2.681-4.321l32.751-16.219c1.338-.664 2.939-.665 4.281.001l32.748 16.218c1.654.819 2.681 2.476 2.681 4.321s-1.028 3.499-2.682 4.317l-32.75 16.22c-.671.332-1.405.497-2.14.497zm-32.345-21.036 32.345 16.019 32.345-16.019-32.345-16.018z"/></g></g><g><g><path d="m82.417 49.333h-19.667c-1.381 0-2.5-1.119-2.5-2.5s1.119-2.5 2.5-2.5h19.667c1.381 0 2.5 1.119 2.5 2.5s-1.119 2.5-2.5 2.5z"/></g></g><g><g><path d="m140.674 213.251h-25.348c-1.381 0-2.5-1.119-2.5-2.5s1.119-2.5 2.5-2.5h25.348c1.381 0 2.5 1.119 2.5 2.5s-1.119 2.5-2.5 2.5z"/></g></g><g><g><g><path d="m82.229 234.574h-5.975c-3.792 0-6.876-3.085-6.876-6.876s3.084-6.875 6.876-6.875h5.975c3.792 0 6.876 3.084 6.876 6.875s-3.084 6.876-6.876 6.876zm-5.974-8.751c-1.034 0-1.876.841-1.876 1.875s.842 1.876 1.876 1.876h5.975c1.034 0 1.876-.842 1.876-1.876s-.842-1.875-1.876-1.875z"/></g></g></g><g><g><g><path d="m179.745 234.574h-5.975c-3.792 0-6.876-3.085-6.876-6.876s3.084-6.875 6.876-6.875h5.975c3.792 0 6.876 3.084 6.876 6.875s-3.084 6.876-6.876 6.876zm-5.974-8.751c-1.034 0-1.876.841-1.876 1.875s.842 1.876 1.876 1.876h5.975c1.034 0 1.876-.842 1.876-1.876s-.842-1.875-1.876-1.875z"/></g></g></g><g><g><path d="m193.167 213.251h-29.48c-1.381 0-2.5-1.119-2.5-2.5s1.119-2.5 2.5-2.5h29.48c1.381 0 2.5 1.119 2.5 2.5s-1.119 2.5-2.5 2.5z"/></g></g><g><g><path d="m128 194c-1.381 0-2.5-1.119-2.5-2.5v-22.375c0-1.381 1.119-2.5 2.5-2.5s2.5 1.119 2.5 2.5v22.375c0 1.381-1.119 2.5-2.5 2.5z"/></g></g><g><g><path d="m128 138.25c-1.381 0-2.5-1.119-2.5-2.5v-19.562c0-1.381 1.119-2.5 2.5-2.5s2.5 1.119 2.5 2.5v19.562c0 1.381-1.119 2.5-2.5 2.5z"/></g></g><g><g><path d="m128 85.5c-1.381 0-2.5-1.119-2.5-2.5v-19.167c0-1.381 1.119-2.5 2.5-2.5s2.5 1.119 2.5 2.5v19.167c0 1.381-1.119 2.5-2.5 2.5z"/></g></g><g><g><path d="m166.197 171h-76.394c-5.13 0-9.303-4.173-9.303-9.303v-18.395c0-5.13 4.173-9.303 9.303-9.303h76.394c5.13 0 9.303 4.173 9.303 9.303v18.395c0 5.13-4.173 9.303-9.303 9.303zm-76.394-32c-2.373 0-4.303 1.931-4.303 4.303v18.395c0 2.372 1.93 4.303 4.303 4.303h76.394c2.373 0 4.303-1.931 4.303-4.303v-18.395c0-2.372-1.93-4.303-4.303-4.303z"/></g></g><g><g><path d="m140.674 155h-25.348c-1.381 0-2.5-1.119-2.5-2.5s1.119-2.5 2.5-2.5h25.348c1.381 0 2.5 1.119 2.5 2.5s-1.119 2.5-2.5 2.5z"/></g></g><g><g><path d="m166.197 118.167h-76.394c-5.13 0-9.303-4.174-9.303-9.304v-18.393c0-5.13 4.173-9.303 9.303-9.303h76.394c5.13 0 9.303 4.173 9.303 9.303v18.394c0 5.129-4.173 9.303-9.303 9.303zm-76.394-32c-2.373 0-4.303 1.931-4.303 4.303v18.394c0 2.373 1.93 4.304 4.303 4.304h76.394c2.373 0 4.303-1.931 4.303-4.304v-18.394c0-2.372-1.93-4.303-4.303-4.303z"/></g></g><g><g><path d="m140.674 102.167h-25.348c-1.381 0-2.5-1.119-2.5-2.5s1.119-2.5 2.5-2.5h25.348c1.381 0 2.5 1.119 2.5 2.5s-1.119 2.5-2.5 2.5z"/></g></g><g><g><path d="m92.375 213.251h-46.915c-1.381 0-2.5-1.119-2.5-2.5v-111.084c0-1.381 1.119-2.5 2.5-2.5h36.214c1.381 0 2.5 1.119 2.5 2.5s-1.119 2.5-2.5 2.5h-33.714v106.084h44.415c1.381 0 2.5 1.119 2.5 2.5s-1.119 2.5-2.5 2.5z"/></g></g><g><g><path d="m166.197 65.333h-76.394c-5.13 0-9.303-4.173-9.303-9.303v-18.393c0-5.13 4.173-9.304 9.303-9.304h76.394c5.13 0 9.303 4.174 9.303 9.304v18.393c0 5.13-4.173 9.303-9.303 9.303zm-76.394-32c-2.373 0-4.303 1.931-4.303 4.304v18.393c0 2.372 1.93 4.303 4.303 4.303h76.394c2.373 0 4.303-1.931 4.303-4.303v-18.393c0-2.373-1.93-4.304-4.303-4.304z"/></g></g><g><g><path d="m140.674 49.333h-25.348c-1.381 0-2.5-1.119-2.5-2.5s1.119-2.5 2.5-2.5h25.348c1.381 0 2.5 1.119 2.5 2.5s-1.119 2.5-2.5 2.5z"/></g></g><g><g><path d="m240.61 226.141h-33.725c-8.486 0-15.39-6.903-15.39-15.39s6.904-15.39 15.39-15.39h33.725c8.486 0 15.39 6.903 15.39 15.39s-6.904 15.39-15.39 15.39zm-33.725-25.78c-5.729 0-10.39 4.661-10.39 10.39s4.661 10.39 10.39 10.39h33.725c5.729 0 10.39-4.661 10.39-10.39s-4.661-10.39-10.39-10.39z"/></g></g><g><g><path d="m236.893 213.251h-26.29c-1.381 0-2.5-1.119-2.5-2.5s1.119-2.5 2.5-2.5h26.29c1.381 0 2.5 1.119 2.5 2.5s-1.12 2.5-2.5 2.5z"/></g></g><g><g><path d="m49.115 62.223h-33.725c-8.486 0-15.39-6.904-15.39-15.39s6.904-15.39 15.39-15.39h33.725c8.486 0 15.39 6.903 15.39 15.39s-6.904 15.39-15.39 15.39zm-33.725-25.78c-5.729 0-10.39 4.661-10.39 10.39s4.661 10.39 10.39 10.39h33.725c5.729 0 10.39-4.661 10.39-10.39s-4.661-10.39-10.39-10.39z"/></g></g><g><g><path d="m45.397 49.333h-26.29c-1.381 0-2.5-1.119-2.5-2.5s1.119-2.5 2.5-2.5h26.29c1.381 0 2.5 1.119 2.5 2.5s-1.119 2.5-2.5 2.5z"/></g></g></g></g></svg>