<svg enable-background="new 0 0 256 256" height="512" viewBox="0 0 256 256" width="512" xmlns="http://www.w3.org/2000/svg"><g id="Layer_81"><g><g><g><path d="m163.895 10.387h-90.812l-45.604 45.603v143.87c0 6.142 5.025 11.166 11.166 11.166h41.007c-10.429-4.287-17.775-14.542-17.775-26.517 0-15.83 12.833-28.663 28.663-28.663 3.65 0 7.137.689 10.348 1.934 3.211-1.244 6.698-1.934 10.348-1.934s7.137.689 10.348 1.934c3.211-1.244 6.698-1.934 10.348-1.934 13.057 0 24.067 8.734 27.527 20.676h15.602c0-31.076 0-89.232 0-154.969-.001-6.141-5.025-11.166-11.166-11.166z" fill="#edf4fc"/></g></g><g><g><path d="m27.479 55.99h34.437c6.141 0 11.166-5.024 11.166-11.166v-34.437z" fill="#70d6f9"/></g></g><g><g><path d="m111.236 155.846c-3.65 0-7.137.689-10.348 1.934 10.714 4.151 18.315 14.549 18.315 26.729s-7.601 22.579-18.315 26.729c3.211 1.244 6.698 1.934 10.348 1.934 15.83 0 28.663-12.833 28.663-28.663s-12.833-28.663-28.663-28.663z" fill="#fcdd86"/></g></g><g><g><g><path d="m131.932 155.846c-3.65 0-7.137.689-10.348 1.934 10.714 4.151 18.315 14.549 18.315 26.729s-7.601 22.579-18.315 26.729c3.211 1.244 6.698 1.934 10.348 1.934 15.83 0 28.663-12.833 28.663-28.663s-12.833-28.663-28.663-28.663z" fill="#fcdd86"/></g></g></g><g><g><path d="m111.236 164.058c-.199 0-.392.024-.589.029 5.28 5.199 8.557 12.427 8.557 20.422s-3.277 15.223-8.557 20.422c.198.005.39.03.589.03 11.295 0 20.451-9.157 20.451-20.452s-9.156-20.451-20.451-20.451z" fill="#f5c84c"/></g></g><g><g><g><path d="m131.932 164.058c-.199 0-.392.024-.589.029 5.28 5.199 8.557 12.427 8.557 20.422s-3.277 15.223-8.557 20.422c.198.005.39.03.589.03 11.295 0 20.451-9.157 20.451-20.452s-9.156-20.451-20.451-20.451z" fill="#f5c84c"/></g></g></g><g><g><path d="m224.946 176.522h-37.649-27.839c.735 2.536 1.136 5.214 1.136 7.987 0 15.83-12.833 28.663-28.663 28.663-3.65 0-7.137-.689-10.348-1.934-3.211 1.244-6.698 1.934-10.348 1.934-1.875 0-3.705-.186-5.479-.529v37.282c0 1.966 1.608 3.575 3.574 3.575h115.615c1.966 0 3.574-1.608 3.574-3.575 0-23.141 0-46.409 0-69.829.002-1.965-1.607-3.574-3.573-3.574z" fill="#87d147"/></g></g><g><g><path d="m217.445 199.83c-5.855-1.759-10.471-6.375-12.231-12.231-.188-.625-.768-1.048-1.42-1.048h-36.921-6.358c-1.048 14.876-13.44 26.622-28.583 26.622-3.65 0-7.137-.689-10.348-1.934-1.849.716-3.788 1.25-5.8 1.571v15.963c0 .652.424 1.232 1.048 1.42 5.855 1.76 10.471 6.376 12.231 12.231.188.625.768 1.049 1.42 1.049h73.31c.652 0 1.232-.424 1.42-1.049 1.76-5.855 6.376-10.471 12.231-12.231.625-.188 1.048-.768 1.048-1.42 0-9.336 0-17.149 0-27.523.001-.652-.422-1.233-1.047-1.42z" fill="#b2e26d"/></g></g><g><g><path d="m167.139 194.983c-3.494 0-6.777.899-9.636 2.472-2.131 4.201-5.264 7.804-9.088 10.498-.83 2.198-1.304 4.571-1.304 7.059 0 11.062 8.967 20.028 20.028 20.028s20.028-8.967 20.028-20.028c0-11.062-8.967-20.029-20.028-20.029z" fill="#87d147"/></g></g><g><g><path d="m169.585 226.348h-7.827c-1.381 0-2.5-1.119-2.5-2.5s1.119-2.5 2.5-2.5h7.827c1.058 0 1.918-.86 1.918-1.918s-.861-1.918-1.918-1.918h-4.894c-3.815 0-6.918-3.104-6.918-6.919 0-3.814 3.104-6.918 6.918-6.918h6.936c1.381 0 2.5 1.119 2.5 2.5s-1.119 2.5-2.5 2.5h-6.936c-1.058 0-1.918.86-1.918 1.918s.861 1.919 1.918 1.919h4.894c3.815 0 6.918 3.104 6.918 6.918s-3.103 6.918-6.918 6.918z"/></g></g><g><g><path d="m167.139 229.371c-1.381 0-2.5-1.119-2.5-2.5v-23.719c0-1.381 1.119-2.5 2.5-2.5s2.5 1.119 2.5 2.5v23.719c0 1.381-1.119 2.5-2.5 2.5z"/></g></g><g><g><path d="m224.946 256h-115.615c-3.349 0-6.074-2.725-6.074-6.074v-37.004c0-1.381 1.119-2.5 2.5-2.5s2.5 1.119 2.5 2.5v37.004c0 .582.492 1.074 1.074 1.074h115.615c.583 0 1.074-.492 1.074-1.074v-69.829c0-.582-.492-1.074-1.074-1.074h-64.791c-1.381 0-2.5-1.119-2.5-2.5s1.119-2.5 2.5-2.5h64.791c3.349 0 6.074 2.725 6.074 6.074v69.829c.001 3.349-2.725 6.074-6.074 6.074z"/></g></g><g><g><path d="m201.276 217.512h-4.216c-1.381 0-2.5-1.119-2.5-2.5s1.119-2.5 2.5-2.5h4.216c1.381 0 2.5 1.119 2.5 2.5s-1.119 2.5-2.5 2.5z"/></g></g><g><g><path d="m203.793 245.973h-73.31c-1.745 0-3.313-1.163-3.814-2.829-1.527-5.082-5.473-9.028-10.556-10.556-1.665-.5-2.829-2.068-2.829-3.814v-15.278c0-1.381 1.119-2.5 2.5-2.5s2.5 1.119 2.5 2.5v14.539c6.1 2.079 10.86 6.84 12.938 12.938h71.831c2.08-6.1 6.84-10.859 12.939-12.938v-26.045c-6.1-2.079-10.86-6.84-12.938-12.938h-41.741c-1.381 0-2.5-1.119-2.5-2.5s1.119-2.5 2.5-2.5h42.48c1.774 0 3.307 1.137 3.815 2.829 1.527 5.082 5.473 9.028 10.556 10.556 1.665.5 2.829 2.068 2.829 3.814v27.523c0 1.746-1.164 3.314-2.83 3.814-5.082 1.527-9.028 5.474-10.555 10.556-.5 1.665-2.068 2.829-3.815 2.829z"/></g></g><g><g><path d="m167.139 237.539c-12.422 0-22.528-10.105-22.528-22.527 0-2.647.477-5.276 1.417-7.813.48-1.295 1.917-1.956 3.213-1.475 1.294.479 1.955 1.918 1.475 3.213-.733 1.979-1.105 4.021-1.105 6.074 0 9.665 7.863 17.527 17.528 17.527s17.528-7.862 17.528-17.527c0-9.666-7.863-17.529-17.528-17.529-2.901 0-5.779.728-8.324 2.104-1.215.656-2.731.203-3.388-1.01-.657-1.214-.205-2.731 1.009-3.389 3.273-1.771 6.974-2.706 10.703-2.706 12.422 0 22.528 10.106 22.528 22.529 0 12.424-10.106 22.529-22.528 22.529z"/></g></g><g><g><path d="m79.653 213.525h-41.007c-7.536 0-13.666-6.131-13.666-13.666v-143.869c0-.663.263-1.299.732-1.768l45.603-45.603c.469-.469 1.104-.732 1.768-.732h90.812c7.536 0 13.666 6.131 13.666 13.666v154.409c0 1.381-1.119 2.5-2.5 2.5s-2.5-1.119-2.5-2.5v-154.409c0-4.778-3.888-8.666-8.666-8.666h-89.777l-44.139 44.138v142.834c0 4.778 3.888 8.666 8.666 8.666h41.007c1.381 0 2.5 1.119 2.5 2.5s-1.118 2.5-2.499 2.5z"/></g></g><g><g><circle cx="90.541" cy="184.509" fill="#fcdd86" r="28.663"/></g></g><g><g><circle cx="90.541" cy="184.509" fill="#f5c84c" r="20.451"/></g></g><g><g><path d="m93.08 196.062h-8.123c-1.381 0-2.5-1.119-2.5-2.5s1.119-2.5 2.5-2.5h8.123c1.15 0 2.086-.936 2.086-2.085 0-1.15-.936-2.086-2.086-2.086h-5.079c-3.907 0-7.085-3.179-7.085-7.086s3.179-7.086 7.085-7.086h7.199c1.381 0 2.5 1.119 2.5 2.5s-1.119 2.5-2.5 2.5h-7.199c-1.15 0-2.085.936-2.085 2.086s.936 2.086 2.085 2.086h5.079c3.907 0 7.086 3.179 7.086 7.086 0 3.906-3.179 7.085-7.086 7.085z"/></g></g><g><g><path d="m90.541 199.199c-1.381 0-2.5-1.119-2.5-2.5v-24.617c0-1.381 1.119-2.5 2.5-2.5s2.5 1.119 2.5 2.5v24.617c0 1.381-1.12 2.5-2.5 2.5z"/></g></g><g><g><path d="m90.541 215.673c-17.184 0-31.163-13.979-31.163-31.163s13.979-31.163 31.163-31.163 31.163 13.979 31.163 31.163-13.98 31.163-31.163 31.163zm0-57.326c-14.426 0-26.163 11.736-26.163 26.163s11.737 26.163 26.163 26.163 26.163-11.736 26.163-26.163-11.737-26.163-26.163-26.163z"/></g></g><g><g><path d="m90.541 207.461c-12.655 0-22.951-10.296-22.951-22.951 0-12.656 10.296-22.952 22.951-22.952 12.656 0 22.952 10.296 22.952 22.952-.001 12.655-10.297 22.951-22.952 22.951zm0-40.903c-9.898 0-17.951 8.054-17.951 17.952s8.053 17.951 17.951 17.951 17.952-8.053 17.952-17.951-8.054-17.952-17.952-17.952z"/></g></g><g><g><path d="m111.236 207.461c-1.381 0-2.5-1.119-2.5-2.5s1.119-2.5 2.5-2.5c9.898 0 17.951-8.053 17.951-17.951s-8.053-17.951-17.951-17.951c-1.381 0-2.5-1.119-2.5-2.5s1.119-2.5 2.5-2.5c12.655 0 22.951 10.296 22.951 22.951s-10.295 22.951-22.951 22.951z"/></g></g><g><g><path d="m111.236 215.672c-3.821 0-7.565-.691-11.128-2.055-1.29-.493-1.935-1.938-1.441-3.229.494-1.289 1.938-1.935 3.229-1.441 2.99 1.145 6.133 1.725 9.341 1.725 14.426 0 26.163-11.736 26.163-26.162 0-14.427-11.737-26.164-26.163-26.164-3.191 0-6.321.575-9.302 1.71-1.293.495-2.735-.157-3.226-1.446-.491-1.29.156-2.734 1.447-3.226 3.551-1.353 7.279-2.038 11.081-2.038 17.184 0 31.163 13.98 31.163 31.164-.001 17.182-13.98 31.162-31.164 31.162z"/></g></g><g><g><g><path d="m131.932 207.461c-1.381 0-2.5-1.119-2.5-2.5s1.119-2.5 2.5-2.5c9.898 0 17.951-8.053 17.951-17.951s-8.053-17.951-17.951-17.951c-1.381 0-2.5-1.119-2.5-2.5s1.119-2.5 2.5-2.5c12.655 0 22.951 10.296 22.951 22.951s-10.296 22.951-22.951 22.951z"/></g></g></g><g><g><g><path d="m131.932 215.672c-3.758 0-7.444-.669-10.955-1.989-1.292-.485-1.946-1.927-1.46-3.22s1.927-1.948 3.22-1.46c2.946 1.107 6.04 1.669 9.195 1.669 14.426 0 26.163-11.736 26.163-26.162 0-14.427-11.736-26.164-26.163-26.164-3.142 0-6.225.558-9.163 1.657-1.294.484-2.734-.172-3.218-1.464-.484-1.294.172-2.734 1.465-3.218 3.5-1.312 7.173-1.976 10.916-1.976 17.183 0 31.163 13.98 31.163 31.164 0 17.183-13.98 31.163-31.163 31.163z"/></g></g></g><g><g><path d="m61.917 58.49h-33.584c-1.381 0-2.5-1.119-2.5-2.5s1.119-2.5 2.5-2.5h33.584c4.778 0 8.666-3.888 8.666-8.666v-33.91c0-1.381 1.119-2.5 2.5-2.5s2.5 1.119 2.5 2.5v33.91c0 7.535-6.131 13.666-13.666 13.666z"/></g></g><g><g><path d="m197.705 8.882c-4.498-.838-8.043-4.31-8.898-8.716-.043-.221-.352-.221-.395 0-.855 4.406-4.4 7.879-8.898 8.716-.226.042-.226.345 0 .387 4.498.838 8.043 4.31 8.898 8.717.043.221.352.221.395 0 .855-4.406 4.4-7.879 8.898-8.717.226-.042.226-.344 0-.387z" fill="#f5c84c"/></g></g><g><g><path d="m210.195 153.478c-2.268-.422-4.055-2.173-4.486-4.395-.022-.112-.177-.112-.199 0-.431 2.221-2.218 3.972-4.486 4.395-.114.021-.114.174 0 .195 2.268.422 4.055 2.173 4.486 4.395.022.112.177.112.199 0 .431-2.221 2.218-3.972 4.486-4.395.114-.021.114-.173 0-.195z" fill="#fc657e"/></g></g><g><g><path d="m73.442 229.487h2.33v-2.33c0-1.744 1.413-3.157 3.157-3.157s3.157 1.413 3.157 3.157v2.33h2.329c1.744 0 3.157 1.413 3.157 3.157s-1.413 3.157-3.157 3.157h-2.329v2.33c0 1.744-1.413 3.157-3.157 3.157s-3.157-1.413-3.157-3.157v-2.33h-2.33c-1.744 0-3.157-1.413-3.157-3.157s1.413-3.157 3.157-3.157z" fill="#70d6f9"/></g></g><g><g><circle cx="198.721" cy="34.623" fill="#87d147" r="3.377"/></g></g><g><g><circle cx="51.721" cy="225.623" fill="#f5c84c" r="3.377"/></g></g><g><g><path d="m157.135 78.726h-110.628c-1.381 0-2.5-1.119-2.5-2.5s1.119-2.5 2.5-2.5h110.627c1.381 0 2.5 1.119 2.5 2.5s-1.118 2.5-2.499 2.5z"/></g></g><g><g><path d="m157.135 91.292h-110.628c-1.381 0-2.5-1.119-2.5-2.5s1.119-2.5 2.5-2.5h110.627c1.381 0 2.5 1.119 2.5 2.5s-1.118 2.5-2.499 2.5z"/></g></g><g><g><path d="m157.135 103.858h-110.628c-1.381 0-2.5-1.119-2.5-2.5s1.119-2.5 2.5-2.5h110.627c1.381 0 2.5 1.119 2.5 2.5s-1.118 2.5-2.499 2.5z"/></g></g><g><g><path d="m157.135 116.425h-110.628c-1.381 0-2.5-1.119-2.5-2.5s1.119-2.5 2.5-2.5h110.627c1.381 0 2.5 1.119 2.5 2.5s-1.118 2.5-2.499 2.5z"/></g></g><g><g><path d="m157.135 128.991h-110.628c-1.381 0-2.5-1.119-2.5-2.5s1.119-2.5 2.5-2.5h110.627c1.381 0 2.5 1.119 2.5 2.5s-1.118 2.5-2.499 2.5z"/></g></g><g><g><path d="m157.135 141.558h-110.628c-1.381 0-2.5-1.119-2.5-2.5s1.119-2.5 2.5-2.5h110.627c1.381 0 2.5 1.119 2.5 2.5s-1.118 2.5-2.499 2.5z"/></g></g></g></g></svg>