<svg enable-background="new 0 0 256 256" height="512" viewBox="0 0 256 256" width="512" xmlns="http://www.w3.org/2000/svg"><g id="Layer_9"><g><g><g><path d="m129.414 66.764c.264.045.527.092.791.14 21.044 3.853 28.846 30.045 13.718 45.173l-63.405 63.405c-11.141-11.141-17.945-24.969-20.425-39.397-2.3-13.384 2.123-27.046 11.725-36.649l20.947-20.947c9.603-9.602 23.266-14.025 36.649-11.725z" fill="#fca265"/></g></g><g><g><g><circle cx="166.157" cy="59.039" fill="#5290db" r="11.158"/></g></g></g><g><g><g><circle cx="196.961" cy="89.843" fill="#5290db" r="11.158"/></g></g></g><g><g><path d="m158.267 66.929c4.358 4.358 11.423 4.358 15.78 0 1.841-1.841 2.895-4.166 3.18-6.565 4.092 1.524 7.94 3.89 11.23 7.179 3.289 3.289 5.655 7.138 7.179 11.23-2.399.285-4.725 1.339-6.566 3.18-4.358 4.358-4.358 11.423 0 15.78 1.832 1.832 4.144 2.884 6.53 3.175-1.522 4.05-3.884 7.855-7.143 11.115-1.196 1.196-2.483 2.241-3.81 3.204-9.031-12.6-28.437-15.367-40.668-3.202-.001-.001-.001-.001-.002-.002s-.001-.001-.001-.001c12.164-12.232 9.397-31.638-3.203-40.669.963-1.327 2.008-2.614 3.204-3.81 3.26-3.26 7.065-5.621 11.115-7.143.292 2.386 1.343 4.697 3.175 6.529z" fill="#3a70bf"/></g></g><g><g><path d="m178.521 60.883c5.639-9.219 9.405-19.712 11.207-31.265.377-2.417 2.642-4.07 5.059-3.693 2.415.376 4.07 2.641 3.693 5.058-1.98 12.692-6.134 24.256-12.363 34.456-2.348-1.911-4.91-3.422-7.596-4.556z" fill="#3a70bf"/></g></g><g><g><path d="m195.118 77.482c-1.134-2.686-2.644-5.248-4.555-7.596 10.2-6.229 21.762-10.384 34.452-12.363 2.417-.377 4.684 1.278 5.058 3.693.377 2.417-1.276 4.682-3.693 5.059-11.552 1.801-22.044 5.567-31.262 11.207z" fill="#3a70bf"/></g></g><g><g><path d="m131.4 10.4c2.375-.727 4.89.609 5.62 2.987l4.54 14.844c.329 1.077.243 2.238-.242 3.254l-11.778 24.685 1.079 10.826c-.139-.028-.273-.065-.413-.091-.263-.048-.527-.095-.791-.14-2.641-.454-5.292-.636-7.921-.578l-1.034-10.374c-.081-.818.062-1.642.416-2.384l11.564-24.238-4.028-13.17c-.726-2.378.612-4.894 2.988-5.621z" fill="#3a70bf"/></g></g><g><g><path d="m39.312 66.341 14.338 7.099 24.792-4.671c1.616-.305 3.277.307 4.312 1.569l8.184 9.98-6.395 6.395-7.056-8.604-23.651 4.455c-.96.181-1.953.045-2.83-.389l-15.687-7.767c-.452-.224-.849-.513-1.187-.85-1.327-1.328-1.728-3.404-.849-5.179 1.103-2.23 3.802-3.141 6.029-2.038z" fill="#3a70bf"/></g></g><g><g><path d="m13.981 147.115 10.859-1.766 12.616-20.517c.673-1.096 1.783-1.851 3.049-2.074l20.196-3.574c-.747 3.049-1.161 6.184-1.202 9.352l-15.436 2.732-12.636 20.55c-.685 1.114-1.82 1.875-3.111 2.085l-12.892 2.097c-1.485.242-2.919-.273-3.907-1.262-.644-.644-1.099-1.489-1.257-2.457-.398-2.455 1.267-4.767 3.721-5.166z" fill="#3a70bf"/></g></g><g><g><path d="m124.733 211.936 2.732-15.436c3.168-.041 6.303-.456 9.352-1.202l-3.575 20.196c-.223 1.266-.979 2.376-2.074 3.049l-20.517 12.616-1.766 10.859c-.398 2.453-2.711 4.118-5.164 3.72-.968-.158-1.813-.613-2.457-1.257-.989-.989-1.504-2.422-1.262-3.907l2.097-12.892c.21-1.291.971-2.426 2.085-3.111z" fill="#3a70bf"/></g></g><g><g><path d="m242.613 118.981-14.844-4.54c-1.077-.329-2.238-.243-3.254.242l-17.863 8.522c3.162 1.537 6.073 3.511 8.653 5.844l11.505-5.489 13.17 4.028c2.377.726 4.892-.611 5.62-2.987.727-2.378-.613-4.894-2.987-5.62z" fill="#3a70bf"/></g></g><g><g><path d="m153.5 156.5c0-19.316 14.804-35.166 33.683-36.844-7.303-16.275-29.713-21.126-43.26-7.578l-63.405 63.405c11.141 11.141 24.969 17.945 39.397 20.425 13.384 2.3 27.046-2.123 36.649-11.725l4.84-4.84c-4.946-6.292-7.904-14.22-7.904-22.843z" fill="#fc8c48"/></g></g><g><g><path d="m182.56 202.35 1.766-9.373c-3.032-.51-5.937-1.386-8.671-2.585l-2.218 11.773c-.181.96-.044 1.953.39 2.83l7.767 15.687c.224.452.513.849.85 1.187 1.327 1.327 3.404 1.728 5.179.849 2.227-1.103 3.138-3.802 2.036-6.03z" fill="#3a70bf"/></g></g><g><g><circle cx="190.5" cy="156.5" fill="#fc657e" r="37"/></g></g><g><g><path d="m192.641 169.032h-4.283c-2.001 0-3.639 1.637-3.639 3.638v4.283c0 2.001 1.637 3.638 3.639 3.638h4.283c2.001 0 3.639-1.637 3.639-3.638v-4.283c0-2.001-1.637-3.638-3.639-3.638z" fill="#edf4fc"/></g></g><g><g><path d="m194.511 132.908h-8.022c-1.958 0-3.487 1.692-3.289 3.64l2.218 21.806c.172 1.687 1.593 2.971 3.289 2.971h3.587c1.696 0 3.117-1.284 3.289-2.971l2.218-21.806c.197-1.948-1.332-3.64-3.29-3.64z" fill="#edf4fc"/></g></g><g><g><path d="m95.705 207.654c-4.498-.838-8.043-4.31-8.898-8.716-.043-.221-.352-.221-.395 0-.855 4.406-4.4 7.879-8.898 8.716-.226.042-.226.345 0 .387 4.498.838 8.043 4.31 8.898 8.717.043.221.352.221.395 0 .855-4.406 4.4-7.879 8.898-8.717.226-.043.226-.345 0-.387z" fill="#f5c84c"/></g></g><g><g><path d="m216.238 206.245c-3.278-.61-5.861-3.141-6.485-6.353-.031-.161-.256-.161-.288 0-.623 3.211-3.207 5.742-6.485 6.353-.165.031-.165.251 0 .282 3.278.61 5.861 3.141 6.485 6.353.031.161.256.161.288 0 .623-3.211 3.207-5.742 6.485-6.353.165-.031.165-.252 0-.282z" fill="#87d147"/></g></g><g><g><path d="m167.941 5.487h-2.33v-2.33c0-1.744-1.413-3.157-3.157-3.157s-3.157 1.413-3.157 3.157v2.33h-2.329c-1.744 0-3.157 1.413-3.157 3.157s1.413 3.157 3.157 3.157h2.329v2.33c0 1.744 1.413 3.157 3.157 3.157s3.157-1.413 3.157-3.157v-2.33h2.33c1.744 0 3.157-1.413 3.157-3.157s-1.413-3.157-3.157-3.157z" fill="#70d6f9"/></g></g><g><g><circle cx="108.662" cy="32.377" fill="#f5c84c" r="3.377"/></g></g><g><g><circle cx="130.662" cy="252.623" fill="#fc657e" r="3.377"/></g></g><g><g><path d="m80.519 177.982c-.663 0-1.299-.263-1.768-.732-11.155-11.154-18.459-25.243-21.122-40.741-2.426-14.117 2.218-28.636 12.422-38.84l20.947-20.947c10.205-10.204 24.721-14.848 38.84-12.421l.818.146c10.693 1.958 19.024 9.371 22.284 19.83 3.271 10.497.493 21.827-7.25 29.57l-63.404 63.403c-.469.469-1.104.732-1.767.732zm41.9-109.315c-10.33 0-20.41 4.114-27.886 11.589l-20.947 20.947c-9.058 9.058-13.181 21.939-11.029 34.458 2.347 13.654 8.551 26.137 17.992 36.254l61.606-61.606c6.522-6.522 8.77-15.699 6.012-24.547-2.696-8.651-9.58-14.782-18.412-16.399l-.765-.136c-2.186-.375-4.385-.56-6.571-.56z"/></g></g><g><g><g><path d="m166.157 72.698c-3.647 0-7.078-1.421-9.657-4.001-5.325-5.325-5.325-13.99 0-19.315 5.325-5.327 13.992-5.325 19.315 0 5.325 5.326 5.325 13.991 0 19.315-2.579 2.58-6.009 4.001-9.658 4.001zm-6.122-19.781c-3.375 3.376-3.376 8.869 0 12.245 1.636 1.635 3.81 2.536 6.122 2.536 2.313 0 4.487-.901 6.123-2.536 3.376-3.376 3.375-8.869 0-12.245-3.376-3.376-8.869-3.375-12.245 0z"/></g></g></g><g><g><g><path d="m196.961 103.494c-3.498 0-6.995-1.331-9.657-3.994-2.58-2.58-4.001-6.01-4.001-9.658s1.421-7.079 4.001-9.658 6.01-4 9.657-4c3.648 0 7.078 1.421 9.658 4 5.325 5.325 5.325 13.99 0 19.316-2.663 2.663-6.16 3.994-9.658 3.994zm0-22.31c-2.313 0-4.486.901-6.122 2.536-1.636 1.635-2.536 3.809-2.536 6.122s.9 4.487 2.536 6.122c3.375 3.377 8.868 3.375 12.245 0 3.375-3.375 3.376-8.869 0-12.245-1.636-1.634-3.811-2.535-6.123-2.535zm-7.89.769h.01z"/></g></g></g><g><g><path d="m185.347 117.21c-.756 0-1.502-.341-1.994-.99-.834-1.1-.618-2.668.481-3.502 1.091-.827 2.025-1.633 2.857-2.463 2.699-2.7 4.808-5.88 6.266-9.451.521-1.278 1.979-1.893 3.26-1.369 1.278.522 1.892 1.981 1.369 3.26-1.711 4.188-4.187 7.922-7.36 11.096-.994.994-2.097 1.946-3.37 2.912-.453.341-.983.507-1.509.507z"/></g></g><g><g><path d="m195.289 80.377c-.987 0-1.922-.588-2.317-1.559-1.466-3.606-3.579-6.806-6.282-9.508-2.735-2.736-5.977-4.866-9.634-6.333-1.281-.514-1.903-1.969-1.39-3.251.514-1.281 1.968-1.905 3.251-1.39 4.288 1.72 8.093 4.222 11.308 7.438 3.178 3.177 5.66 6.932 7.38 11.161.52 1.279-.096 2.737-1.375 3.257-.309.126-.627.185-.941.185z"/></g></g><g><g><path d="m141.086 73.425c-.519 0-1.042-.161-1.49-.495-1.108-.824-1.338-2.39-.514-3.498 1.039-1.396 2.062-2.592 3.128-3.658 3.126-3.126 6.799-5.578 10.915-7.286 1.275-.529 2.737.076 3.268 1.351.528 1.275-.076 2.738-1.352 3.267-3.508 1.456-6.636 3.542-9.296 6.203-.893.893-1.76 1.909-2.651 3.108-.491.66-1.244 1.008-2.008 1.008z"/></g></g><g><g><path d="m186.453 67.382c-.438 0-.882-.115-1.285-.357-1.184-.711-1.567-2.247-.856-3.43 5.873-9.784 9.809-20.885 11.699-32.997.079-.509-.045-1.018-.349-1.435-.305-.416-.752-.689-1.26-.768-.511-.078-1.021.045-1.437.348-.416.304-.688.751-.769 1.26-1.813 11.631-5.588 22.279-11.219 31.648-.71 1.184-2.247 1.567-3.431.855-1.184-.711-1.566-2.247-.854-3.43 5.296-8.813 8.851-18.854 10.564-29.843.588-3.774 4.136-6.365 7.914-5.778 1.827.285 3.436 1.265 4.527 2.759 1.092 1.495 1.536 3.326 1.251 5.154-1.989 12.752-6.146 24.461-12.352 34.8-.466.781-1.294 1.214-2.143 1.214z"/></g></g><g><g><path d="m195.639 79.668c-.848 0-1.676-.432-2.145-1.212-.712-1.183-.329-2.719.854-3.431 9.367-5.632 20.015-9.407 31.646-11.221 1.051-.164 1.771-1.152 1.608-2.204-.079-.51-.352-.956-.767-1.26-.417-.304-.93-.426-1.437-.349-12.125 1.891-23.237 5.834-33.031 11.722-1.184.711-2.72.329-3.431-.854-.712-1.184-.329-2.719.854-3.431 10.351-6.222 22.071-10.386 34.836-12.377 1.833-.282 3.662.16 5.158 1.252 1.494 1.092 2.474 2.701 2.757 4.528.284 1.826-.159 3.657-1.25 5.151-1.092 1.495-2.7 2.476-4.529 2.761-10.989 1.713-21.029 5.269-29.84 10.565-.401.245-.845.36-1.283.36z"/></g></g><g><g><path d="m130.533 68.666c-1.27 0-2.356-.962-2.484-2.252l-.996-9.996c-.046-.455.034-.913.23-1.325l11.776-24.684c.217-.453.255-.967.108-1.447l-4.539-14.843c-.322-1.053-1.438-1.651-2.498-1.328-1.055.323-1.65 1.443-1.328 2.498l4.028 13.169c.183.598.135 1.243-.135 1.808l-11.564 24.239c-.157.33-.221.696-.185 1.061l.955 9.583c.138 1.374-.865 2.599-2.239 2.736-1.361.138-2.599-.866-2.735-2.24l-.956-9.584c-.127-1.275.098-2.558.648-3.71l11.146-23.359-3.744-12.239c-1.128-3.691.956-7.612 4.646-8.742 3.682-1.127 7.609.955 8.741 4.645l4.54 14.846c.514 1.68.38 3.478-.377 5.063l-11.476 24.054.927 9.301c.138 1.374-.865 2.599-2.239 2.736-.083.006-.167.01-.25.01z"/></g></g><g><g><path d="m84.053 88.614c-.723 0-1.439-.312-1.935-.915l-5.625-6.861-22.194 4.182c-1.485.281-3.048.065-4.403-.606l-15.687-7.768c-.686-.34-1.306-.784-1.844-1.321-2.126-2.127-2.657-5.365-1.322-8.059 1.712-3.458 5.918-4.878 9.378-3.167l13.589 6.729 23.969-4.516c2.516-.474 5.083.461 6.707 2.439l7.525 9.176c.876 1.068.721 2.643-.348 3.519-1.066.875-2.641.721-3.518-.348l-7.524-9.175c-.457-.557-1.208-.831-1.916-.698l-24.792 4.671c-.533.104-1.086.026-1.572-.216l-14.338-7.1c-.988-.49-2.191-.083-2.68.905-.382.771-.23 1.696.377 2.303.151.152.33.279.528.378l15.687 7.767c.387.191.832.251 1.258.173l23.65-4.456c.899-.167 1.817.166 2.396.872l6.565 8.006c.875 1.068.72 2.643-.349 3.519-.463.381-1.024.567-1.582.567z"/></g></g><g><g><path d="m14.709 158.556c-1.841 0-3.636-.729-4.959-2.052-1.042-1.043-1.719-2.364-1.957-3.822-.3-1.848.137-3.7 1.229-5.217 1.093-1.518 2.712-2.519 4.558-2.818l9.729-1.583 12.017-19.543c1.046-1.702 2.775-2.879 4.745-3.227l19.353-3.425c1.358-.24 2.656.667 2.897 2.026.24 1.359-.667 2.657-2.026 2.897l-19.354 3.425c-.563.099-1.057.435-1.354.92l-12.617 20.522c-.381.619-1.012 1.042-1.729 1.158l-10.859 1.766c-1.089.177-1.83 1.207-1.653 2.295.067.416.261.794.558 1.091.461.462 1.096.664 1.737.562l12.892-2.098c.574-.093 1.078-.431 1.383-.926l12.636-20.55c.374-.608.991-1.028 1.694-1.152l14.842-2.627c1.361-.242 2.656.667 2.897 2.026.24 1.359-.667 2.657-2.026 2.897l-13.736 2.431-12.047 19.593c-1.066 1.734-2.83 2.917-4.841 3.243l-12.891 2.097c-.373.062-.746.091-1.118.091z"/></g></g><g><g><path d="m104.458 248.299c-.378 0-.758-.031-1.139-.092-1.458-.238-2.78-.914-3.823-1.956-1.59-1.589-2.323-3.862-1.962-6.078l2.097-12.891c.327-2.01 1.51-3.774 3.244-4.839l19.593-12.048 2.406-13.6c.241-1.36 1.535-2.266 2.897-2.026 1.359.241 2.267 1.538 2.026 2.897l-2.603 14.706c-.125.704-.544 1.32-1.152 1.694l-20.55 12.636c-.496.305-.834.809-.927 1.383l-2.097 12.892c-.105.643.1 1.276.562 1.738.297.296.674.489 1.092.558.528.085 1.056-.04 1.489-.352s.719-.774.805-1.302l1.767-10.86c.117-.717.539-1.348 1.158-1.728l20.518-12.616c.487-.299.822-.792.922-1.355l3.434-19.403c.241-1.36 1.537-2.268 2.897-2.026 1.359.241 2.267 1.538 2.026 2.897l-3.434 19.403c-.348 1.969-1.524 3.698-3.228 4.744l-19.542 12.016-1.583 9.73c-.3 1.845-1.301 3.464-2.818 4.557-1.203.867-2.619 1.321-4.075 1.321z"/></g></g><g><g><path d="m215.952 131.243c-.934 0-1.829-.525-2.258-1.424-.595-1.246-.066-2.738 1.18-3.333l10.861-5.182c.564-.269 1.21-.317 1.808-.134l13.169 4.028c1.05.32 2.175-.273 2.498-1.329.322-1.054-.273-2.174-1.328-2.497l-14.844-4.54c-.478-.146-.992-.108-1.445.107l-17.223 8.216c-1.245.593-2.738.065-3.333-1.18-.594-1.247-.065-2.739 1.181-3.333l17.222-8.216c1.582-.756 3.382-.89 5.061-.377l14.845 4.54c3.69 1.129 5.774 5.05 4.646 8.741-1.13 3.691-5.055 5.771-8.741 4.648l-12.239-3.744-9.984 4.763c-.348.167-.715.246-1.076.246z"/></g></g><g><g><path d="m186.91 121.563c-.932 0-1.826-.523-2.256-1.419-3.293-6.866-9.896-11.756-17.665-13.083-7.883-1.344-15.641 1.128-21.299 6.785-.977.977-2.559.977-3.535 0-.977-.976-.977-2.559 0-3.535 6.82-6.819 16.178-9.8 25.675-8.178 9.365 1.599 17.34 7.524 21.332 15.85.598 1.245.072 2.738-1.173 3.335-.348.165-.717.245-1.079.245z"/></g></g><g><g><path d="m126.908 199.003c-2.468 0-4.948-.208-7.417-.632-15.499-2.664-29.587-9.967-40.74-21.121-.977-.976-.977-2.559 0-3.535.977-.977 2.559-.977 3.535 0 10.419 10.419 23.577 17.241 38.053 19.729 12.517 2.153 25.4-1.972 34.458-11.029l4.287-4.288c.977-.977 2.559-.976 3.535 0 .977.977.977 2.56 0 3.536l-4.287 4.288c-8.42 8.418-19.778 13.052-31.424 13.052z"/></g></g><g><g><path d="m185.625 225.687c-1.815 0-3.604-.706-4.948-2.05-.541-.542-.984-1.162-1.322-1.845l-7.768-15.687c-.672-1.355-.887-2.919-.605-4.404l2.091-11.101c.256-1.356 1.563-2.253 2.92-1.994 1.356.255 2.25 1.563 1.994 2.919l-2.092 11.103c-.082.431-.021.865.173 1.257l7.768 15.688c.099.198.227.377.381.532.604.604 1.529.754 2.299.373.988-.489 1.394-1.692.904-2.681l-7.099-14.336c-.241-.487-.317-1.039-.217-1.572l1.667-8.851c.256-1.356 1.562-2.248 2.92-1.994 1.356.256 2.249 1.563 1.994 2.92l-1.513 8.028 6.729 13.587c1.711 3.46.29 7.667-3.167 9.379-.991.49-2.054.729-3.109.729z"/></g></g><g><g><path d="m190.5 196c-21.78 0-39.5-17.72-39.5-39.5s17.72-39.5 39.5-39.5 39.5 17.72 39.5 39.5-17.72 39.5-39.5 39.5zm0-74c-19.023 0-34.5 15.477-34.5 34.5s15.477 34.5 34.5 34.5 34.5-15.477 34.5-34.5-15.477-34.5-34.5-34.5z"/></g></g><g><g><path d="m192.642 183.092h-4.283c-3.385 0-6.139-2.754-6.139-6.139v-4.283c0-3.385 2.754-6.138 6.139-6.138h4.283c3.385 0 6.139 2.753 6.139 6.138v4.283c-.001 3.385-2.755 6.139-6.139 6.139zm-4.284-11.56c-.617 0-1.139.521-1.139 1.138v4.283c0 .617.521 1.139 1.139 1.139h4.283c.617 0 1.139-.521 1.139-1.139v-4.283c0-.617-.521-1.138-1.139-1.138z"/></g></g><g><g><path d="m192.294 163.826h-3.588c-2.989 0-5.473-2.243-5.775-5.218l-2.218-21.807c-.165-1.632.37-3.265 1.47-4.48 1.099-1.215 2.668-1.913 4.307-1.913h8.021c1.64 0 3.21.698 4.309 1.914s1.634 2.849 1.468 4.479l-2.218 21.806c-.303 2.976-2.787 5.219-5.776 5.219zm-5.805-28.418c-.312 0-.508.167-.598.266s-.235.312-.204.623l2.218 21.805c.042.413.387.724.801.724h3.588c.414 0 .759-.312.801-.725l2.218-21.806c.031-.31-.114-.522-.203-.622-.09-.099-.287-.266-.599-.266h-8.022z"/></g></g></g></g></svg>