<svg enable-background="new 0 0 256 256" height="512" viewBox="0 0 256 256" width="512" xmlns="http://www.w3.org/2000/svg"><g id="Layer_72"><g><g><g><path d="m36.5 43.25v185.18c0 2.938 2.382 5.32 5.32 5.32h172.36c2.938 0 5.32-2.382 5.32-5.32v-185.18z" fill="#edf4fc"/></g></g><g><g><path d="m214.18 22.25h-172.36c-2.938 0-5.32 2.382-5.32 5.32v15.68h183v-15.68c0-2.938-2.382-5.32-5.32-5.32z" fill="#5290db"/></g></g><g><g><path d="m59 22.25h-17.18c-2.938 0-5.32 2.382-5.32 5.32v15.68h22.5z" fill="#fc657e"/></g></g><g><g><path d="m29.332 178.883c-2.473-.46-4.421-2.37-4.891-4.792-.024-.122-.193-.122-.217 0-.47 2.422-2.419 4.331-4.892 4.792-.124.023-.124.189 0 .213 2.473.461 4.421 2.37 4.892 4.792.024.122.193.122.217 0 .47-2.422 2.419-4.331 4.891-4.792.124-.023.124-.19 0-.213z" fill="#fc657e"/></g></g><g><g><circle cx="233.384" cy="76.627" fill="#87d147" r="3.377"/></g></g><g><g><path d="m146.952 249.159c-3.464.645-6.194 3.319-6.852 6.713-.033.17-.271.17-.304 0-.659-3.393-3.388-6.068-6.852-6.713-.174-.032-.174-.265 0-.298 3.464-.645 6.194-3.32 6.852-6.713.033-.17.271-.17.304 0 .658 3.393 3.388 6.068 6.852 6.713.174.033.174.266 0 .298z" fill="#f5c84c"/></g></g><g><g><path d="m120.089 9.242h-1.824v1.824c0 1.366-1.107 2.473-2.473 2.473s-2.473-1.107-2.473-2.473v-1.824h-1.824c-1.366 0-2.473-1.107-2.473-2.473s1.107-2.473 2.473-2.473h1.824v-1.823c0-1.366 1.107-2.473 2.473-2.473s2.473 1.107 2.473 2.473v1.824h1.824c1.366 0 2.473 1.107 2.473 2.473s-1.108 2.472-2.473 2.472z" fill="#70d6f9"/></g></g><g><g><circle cx="147" cy="8.373" fill="#fc657e" r="3.377"/></g></g><g><g><path d="m219.5 45.75h-183c-1.381 0-2.5-1.119-2.5-2.5v-15.681c0-4.312 3.508-7.819 7.82-7.819h172.36c4.312 0 7.82 3.508 7.82 7.819v15.681c0 1.381-1.119 2.5-2.5 2.5zm-180.5-5h178v-13.181c0-1.555-1.265-2.819-2.82-2.819h-172.36c-1.555 0-2.82 1.265-2.82 2.819z"/></g></g><g><g><path d="m184 35.25h-111c-1.381 0-2.5-1.119-2.5-2.5s1.119-2.5 2.5-2.5h111c1.381 0 2.5 1.119 2.5 2.5s-1.119 2.5-2.5 2.5z"/></g></g><g><g><path d="m207.789 35.25h-10.885c-1.381 0-2.5-1.119-2.5-2.5s1.119-2.5 2.5-2.5h10.885c1.381 0 2.5 1.119 2.5 2.5s-1.12 2.5-2.5 2.5z"/></g></g><g><g><path d="m214.18 236.25h-172.36c-4.312 0-7.82-3.508-7.82-7.819v-185.181c0-1.381 1.119-2.5 2.5-2.5s2.5 1.119 2.5 2.5v185.181c0 1.555 1.265 2.819 2.82 2.819h172.36c1.555 0 2.82-1.265 2.82-2.819v-185.181c0-1.381 1.119-2.5 2.5-2.5s2.5 1.119 2.5 2.5v185.181c0 4.311-3.508 7.819-7.82 7.819z"/></g></g><g><g><path d="m59 45.28c-1.381 0-2.5-1.119-2.5-2.5v-20.113c0-1.381 1.119-2.5 2.5-2.5s2.5 1.119 2.5 2.5v20.113c0 1.381-1.119 2.5-2.5 2.5z"/></g></g><g><g><path d="m180.039 84.961c-28.694-28.695-75.383-28.694-104.079 0-13.9 13.9-21.555 32.381-21.555 52.039s7.655 38.14 21.555 52.039c14.347 14.348 33.193 21.521 52.04 21.521 18.846 0 37.692-7.174 52.039-21.521 13.9-13.899 21.555-32.381 21.555-52.039s-7.654-38.139-21.555-52.039zm-8.485 8.485c11.634 11.634 18.041 27.102 18.041 43.554 0 14.437-4.935 28.112-14.002 39.107l-86.695-86.694c11.32-9.315 25.209-13.979 39.102-13.979 15.773 0 31.546 6.004 43.554 18.012zm-87.108 87.108c-11.634-11.633-18.04-27.101-18.04-43.554 0-14.436 4.935-28.111 14.002-39.106l86.694 86.694c-24.171 19.891-60.071 18.55-82.656-4.034z" fill="#fc657e"/></g></g><g><g><path d="m152.274 139.393c-.019-.113-.039-.226-.06-.339-1.653-9.029-12.891-12.376-19.382-5.886l-.089.09 17.638 17.638c1.871-3.478 2.577-7.519 1.893-11.503z" fill="#fc8c48"/></g></g><g><g><path d="m142.438 159.923-18.18-18.18-18.63 18.629c4.78 4.78 10.713 7.7 16.903 8.763 5.742.987 11.604-.911 15.724-5.031z" fill="#fc8c48"/></g></g><g><g><path d="m152.203 127.014c-1.87-1.87-1.87-4.901 0-6.771.79-.79 1.788-1.242 2.817-1.365-.654-1.756-1.669-3.407-3.08-4.818s-3.063-2.426-4.818-3.08c-.122 1.029-.575 2.027-1.364 2.817-1.87 1.87-4.901 1.87-6.771 0-.786-.786-1.237-1.778-1.362-2.802-1.738.653-3.37 1.666-4.769 3.065-.513.513-.961 1.065-1.375 1.635 5.406 3.875 6.593 12.201 1.374 17.449l.001.001s.001 0 .001.001c5.248-5.219 13.574-4.032 17.449 1.374.569-.413 1.121-.861 1.635-1.375 1.399-1.399 2.412-3.031 3.065-4.769-1.026-.125-2.017-.576-2.803-1.362z" fill="#3a70bf"/></g></g><g><g><path d="m106.077 123.563-4.182 4.182c-4.12 4.12-6.017 9.982-5.031 15.725 1.064 6.19 3.983 12.124 8.763 16.903l18.63-18.629z" fill="#fca265"/></g></g><g><g><path d="m126.946 113.787c-.113-.021-.226-.041-.339-.06-3.984-.685-8.025.021-11.503 1.893l17.638 17.638.089-.09c6.491-6.49 3.144-17.728-5.885-19.381z" fill="#fca265"/></g></g><g><g><g><circle cx="155.588" cy="123.628" fill="#5290db" r="4.788"/></g></g></g><g><g><g><circle cx="142.372" cy="110.412" fill="#5290db" r="4.788"/></g></g></g><g><g><path d="m150.187 114.811c-.479 0-.964-.138-1.392-.425-1.146-.771-1.451-2.324-.68-3.47 2.304-3.428 3.709-7.528 4.175-12.187.138-1.373 1.369-2.378 2.737-2.238 1.374.138 2.376 1.362 2.239 2.736-.55 5.487-2.232 10.358-5.001 14.478-.483.718-1.273 1.106-2.078 1.106z"/></g></g><g><g><path d="m153.691 118.31c-.805 0-1.595-.388-2.077-1.105-.771-1.146-.466-2.699.68-3.47 4.118-2.768 8.99-4.451 14.479-5.001 1.373-.141 2.6.864 2.737 2.238.138 1.373-.864 2.599-2.238 2.736-4.661.468-8.762 1.873-12.189 4.177-.428.287-.913.425-1.392.425z"/></g></g><g><g><path d="m158.681 145.331c-.083 0-.166-.004-.248-.013l-5.424-.541c-1.374-.137-2.376-1.361-2.24-2.735.138-1.374 1.361-2.383 2.736-2.239l4.729.472 10.447-4.984c.564-.271 1.209-.319 1.808-.135l6.369 1.947c1.32.403 2.063 1.801 1.66 3.121s-1.802 2.063-3.122 1.66l-5.439-1.663-10.199 4.866c-.338.161-.705.244-1.077.244z"/></g></g><g><g><path d="m117.413 192.627c-.133 0-.269-.011-.404-.032-1.363-.222-2.288-1.506-2.066-2.869l.899-5.53c.117-.717.54-1.348 1.158-1.729l8.599-5.288 1.399-7.906c.241-1.359 1.534-2.273 2.897-2.026 1.36.241 2.267 1.538 2.026 2.897l-1.595 9.012c-.125.703-.544 1.32-1.152 1.694l-8.581 5.277-.716 4.401c-.199 1.227-1.26 2.099-2.464 2.099z"/></g></g><g><g><path d="m123.707 115.243c-1.27 0-2.356-.962-2.485-2.252l-.541-5.424c-.045-.454.035-.912.231-1.324l4.866-10.201-1.663-5.438c-.404-1.32.339-2.719 1.66-3.122 1.322-.403 2.718.34 3.122 1.659l1.947 6.368c.183.599.135 1.243-.134 1.808l-4.984 10.448.471 4.729c.137 1.374-.866 2.599-2.24 2.735-.084.01-.167.014-.25.014z"/></g></g><g><g><path d="m75.87 151.09c-1.204 0-2.265-.872-2.465-2.099-.221-1.363.704-2.647 2.066-2.869l4.402-.716 5.277-8.581c.374-.608.99-1.027 1.693-1.152l9.013-1.596c1.359-.248 2.657.666 2.898 2.026.241 1.359-.667 2.656-2.026 2.897l-7.907 1.399-5.288 8.6c-.38.619-1.011 1.041-1.728 1.158l-5.531.899c-.136.023-.271.034-.404.034z"/></g></g><g><g><path d="m150.472 153.221c-.391 0-.788-.093-1.158-.286-1.223-.642-1.695-2.152-1.054-3.375 1.566-2.988 2.116-6.448 1.55-9.742l-.054-.308c-.598-3.264-2.862-5.804-6.059-6.8-3.281-1.021-6.681-.19-9.097 2.226-.976.977-2.56.977-3.535 0-.977-.977-.977-2.559 0-3.535 3.698-3.698 9.107-5.025 14.121-3.464 5.003 1.56 8.55 5.547 9.487 10.667l.066.376c.75 4.36.022 8.945-2.05 12.9-.447.852-1.317 1.341-2.217 1.341z"/></g></g><g><g><path d="m131.63 117.989c-.521 0-1.046-.162-1.496-.498-1.105-.827-1.332-2.394-.504-3.499.482-.646.958-1.2 1.456-1.698 1.542-1.542 3.358-2.732 5.401-3.539 1.282-.509 2.736.122 3.244 1.406s-.123 2.736-1.407 3.244c-1.402.554-2.647 1.369-3.702 2.423-.326.327-.65.706-.988 1.158-.491.657-1.242 1.003-2.004 1.003z"/></g></g><g><g><path d="m154.877 121.011c-.988 0-1.924-.59-2.318-1.563-.557-1.375-1.36-2.593-2.387-3.619-.967-.968-2.107-1.738-3.388-2.292-1.268-.547-1.852-2.018-1.305-3.285.547-1.269 2.017-1.854 3.286-1.305 1.864.804 3.527 1.93 4.942 3.346 1.503 1.503 2.676 3.279 3.486 5.278.518 1.28-.099 2.737-1.379 3.256-.307.124-.624.184-.937.184z"/></g></g><g><g><path d="m150.511 136.869c-.762 0-1.514-.347-2.005-1.005-.826-1.105-.599-2.673.508-3.498.45-.336.829-.659 1.157-.988.983-.983 1.76-2.135 2.309-3.422.542-1.271 2.011-1.859 3.281-1.319 1.27.542 1.86 2.011 1.319 3.28-.801 1.879-1.936 3.56-3.372 4.995-.5.501-1.057.979-1.702 1.46-.45.336-.975.497-1.495.497z"/></g></g><g><g><path d="m106.25 162.25c-.64 0-1.28-.244-1.768-.732-.977-.977-.977-2.559 0-3.535l17.396-17.396c.976-.977 2.56-.977 3.535 0 .977.977.977 2.559 0 3.535l-17.396 17.396c-.487.488-1.127.732-1.767.732z"/></g></g><g><g><path d="m132.832 135.668c-.64 0-1.28-.244-1.768-.732-.977-.977-.977-2.559 0-3.535 2.416-2.416 3.248-5.817 2.226-9.098-.996-3.195-3.536-5.46-6.794-6.057l-.314-.056c-3.27-.563-6.709-.022-9.684 1.52-1.226.638-2.734.158-3.371-1.067-.636-1.226-.158-2.734 1.068-3.37 3.936-2.043 8.494-2.758 12.834-2.01l.382.068c5.104.935 9.092 4.481 10.651 9.484 1.562 5.011.235 10.422-3.464 14.12-.486.489-1.126.733-1.766.733z"/></g></g><g><g><g><path d="m155.588 130.912c-1.866 0-3.732-.71-5.153-2.131-1.376-1.377-2.135-3.207-2.135-5.153s.758-3.776 2.135-5.152c1.376-1.377 3.206-2.135 5.153-2.135s3.777.758 5.153 2.135c1.376 1.376 2.134 3.206 2.134 5.152s-.758 3.776-2.134 5.153c-1.421 1.421-3.287 2.131-5.153 2.131zm3.385-3.898h.01zm-3.385-5.673c-.611 0-1.185.237-1.617.67-.433.433-.67 1.007-.67 1.617 0 .611.238 1.186.67 1.618.892.891 2.342.891 3.235 0 .432-.433.67-1.007.67-1.618 0-.61-.238-1.185-.67-1.617-.433-.433-1.007-.67-1.618-.67z"/></g></g></g><g><g><g><path d="m142.372 117.699c-1.947 0-3.777-.758-5.153-2.135-1.376-1.376-2.134-3.206-2.134-5.152s.758-3.776 2.134-5.153c2.842-2.842 7.464-2.842 10.306 0 1.376 1.377 2.135 3.207 2.135 5.153s-.758 3.776-2.134 5.152c-1.378 1.377-3.208 2.135-5.154 2.135zm0-9.574c-.586 0-1.171.224-1.618.669-.432.433-.67 1.007-.67 1.618 0 .61.238 1.185.67 1.617.865.865 2.371.865 3.235 0 .432-.433.67-1.007.67-1.617 0-.611-.238-1.186-.67-1.618-.446-.445-1.031-.669-1.617-.669z"/></g></g></g><g><g><path d="m128 213.061c-20.348 0-39.458-7.903-53.807-22.254-14.372-14.371-22.288-33.481-22.288-53.807 0-20.325 7.916-39.435 22.288-53.807 14.351-14.35 33.46-22.254 53.807-22.254s39.457 7.904 53.807 22.255v-.001c14.373 14.372 22.288 33.481 22.288 53.807s-7.916 39.436-22.288 53.807c-14.349 14.35-33.459 22.254-53.807 22.254zm0-147.122c-19.012 0-36.866 7.384-50.272 20.789-13.428 13.429-20.823 31.283-20.823 50.272 0 18.99 7.395 36.844 20.823 50.271 13.405 13.406 31.259 20.789 50.271 20.789s36.866-7.383 50.271-20.789c13.43-13.427 20.825-31.281 20.825-50.271 0-18.989-7.395-36.843-20.823-50.271-13.406-13.407-31.259-20.79-50.272-20.79zm.009 135.124c-.979 0-1.959-.022-2.943-.066-16.017-.727-31.071-7.358-42.387-18.675-12.107-12.105-18.774-28.202-18.774-45.322 0-15.063 5.04-29.136 14.574-40.697.448-.543 1.105-.873 1.809-.906.71-.042 1.389.231 1.887.729l86.694 86.693c.499.498.764 1.185.729 1.889s-.364 1.361-.909 1.81c-11.465 9.435-25.812 14.545-40.68 14.545zm-41.795-22.276c10.432 10.432 24.311 16.546 39.079 17.215 13.737.625 27.147-3.498 38.048-11.641l-82.71-82.71c-7.681 10.226-11.726 22.389-11.726 35.349 0 15.785 6.147 30.625 17.309 41.787zm89.378-.18c-.662 0-1.298-.263-1.768-.732l-86.694-86.694c-.499-.498-.764-1.185-.729-1.889s.364-1.361.909-1.81c11.4-9.381 25.851-14.548 40.69-14.548 17.139 0 33.234 6.657 45.321 18.744 12.106 12.105 18.773 28.201 18.773 45.321 0 15.063-5.04 29.137-14.574 40.698-.448.543-1.105.873-1.809.906-.04.003-.08.004-.119.004zm-82.932-88.967 82.709 82.71c7.681-10.226 11.725-22.389 11.725-35.35 0-15.784-6.147-30.624-17.309-41.785v-.001c-11.142-11.143-25.982-17.279-41.785-17.279-12.756 0-25.199 4.138-35.34 11.705z"/></g></g><g><g><path d="m125.399 171.829c-1.28 0-2.587-.106-3.915-.321-6.259-1.013-12.683-4.427-17.624-9.368-4.937-4.936-8.35-11.356-9.364-17.617-1.162-7.167.838-13.753 5.63-18.546l3.964-3.963c.977-.977 2.559-.977 3.536 0 .976.977.976 2.56 0 3.535l-3.963 3.963c-4.646 4.647-4.865 10.293-4.23 14.211.85 5.247 3.753 10.671 7.963 14.882 4.215 4.215 9.641 7.119 14.887 7.968 3.916.633 9.558.412 14.205-4.235l3.717-3.716c.977-.978 2.559-.977 3.536 0 .976.977.976 2.56 0 3.535l-3.717 3.716c-3.905 3.903-8.999 5.956-14.625 5.956z"/></g></g></g></g></svg>