<svg enable-background="new 0 0 256 256" height="512" viewBox="0 0 256 256" width="512" xmlns="http://www.w3.org/2000/svg"><g id="Layer_11"><g><g><g><path d="m183.699 175.808c-4.876 4.876-4.876 12.782 0 17.658l48.158 48.158c4.876 4.876 12.782 4.876 17.658 0s4.876-12.782 0-17.658l-48.158-48.158c-4.876-4.876-12.782-4.876-17.658 0z" fill="#fc657e"/></g></g><g><g><path d="m163.897 165.638 16.421 16.421c.481-2.29 1.603-4.472 3.381-6.25s3.96-2.9 6.25-3.381l-16.421-16.421c-1.469 1.713-2.99 3.397-4.612 5.019s-3.306 3.143-5.019 4.612z" fill="#c7d7e5"/></g></g><g><g><path d="m189.674 187.458h24.972v13.621h-24.972z" fill="#f98fa6" transform="matrix(.707 -.707 .707 .707 -78.158 199.848)"/></g></g><g><g><circle cx="106.658" cy="98.767" fill="#edf4fc" r="88.048"/></g></g><g><g><circle cx="106.658" cy="98.767" fill="#fcdd86" r="74.898"/></g></g><g><g><path d="m138.028 99.186c-.023-.135-.047-.27-.072-.405-1.974-10.781-15.392-14.777-23.142-7.027l-32.482 32.482c5.707 5.707 12.791 9.193 20.183 10.463 6.856 1.178 13.856-1.087 18.775-6.007l10.731-10.731c4.92-4.92 7.186-11.919 6.007-18.775z" fill="#fc8c48"/></g></g><g><g><path d="m137.944 84.404c-2.232-2.232-2.232-5.852 0-8.084.943-.943 2.134-1.483 3.363-1.629-.781-2.096-1.993-4.068-3.678-5.753s-3.657-2.897-5.753-3.678c-.146 1.229-.686 2.42-1.629 3.363-2.232 2.232-5.852 2.232-8.084 0-.938-.938-1.477-2.123-1.627-3.345-2.075.78-4.024 1.99-5.694 3.659-.613.613-1.148 1.272-1.641 1.952 6.455 4.627 7.872 14.568 1.64 20.834 0 0 .001.001.001.001s.001.001.001.001c6.266-6.232 16.207-4.814 20.834 1.64.68-.493 1.339-1.028 1.952-1.641 1.67-1.67 2.88-3.619 3.659-5.694-1.222-.148-2.406-.687-3.344-1.626z" fill="#3a70bf"/></g></g><g><g><path d="m107.382 68.539c.135.023.27.047.405.072 10.781 1.974 14.777 15.392 7.027 23.142l-32.482 32.482c-5.707-5.707-9.193-12.791-10.463-20.183-1.178-6.856 1.087-13.856 6.007-18.775l10.731-10.731c4.92-4.919 11.919-7.185 18.775-6.007z" fill="#fca265"/></g></g><g><g><g><circle cx="141.986" cy="80.362" fill="#5290db" r="5.716"/></g></g></g><g><g><g><circle cx="126.205" cy="64.582" fill="#5290db" r="5.716"/></g></g></g><g><g><path d="m27.359 37.904c-4.498-.838-8.043-4.31-8.898-8.716-.043-.221-.352-.221-.395 0-.855 4.406-4.4 7.879-8.898 8.716-.226.042-.226.345 0 .387 4.498.838 8.043 4.31 8.898 8.717.043.221.352.221.395 0 .855-4.406 4.4-7.879 8.898-8.717.226-.043.226-.345 0-.387z" fill="#f5c84c"/></g></g><g><g><path d="m223.616 96.84c-3.959-.737-7.08-3.794-7.833-7.673-.038-.195-.31-.195-.348 0-.753 3.879-3.873 6.936-7.833 7.673-.199.037-.199.303 0 .34 3.959.737 7.08 3.794 7.833 7.673.038.195.31.195.348 0 .753-3.879 3.873-6.936 7.833-7.673.199-.036.199-.303 0-.34z" fill="#fc657e"/></g></g><g><g><path d="m157.941 201.737h-2.33v-2.33c0-1.744-1.413-3.157-3.157-3.157s-3.157 1.413-3.157 3.157v2.33h-2.329c-1.744 0-3.157 1.413-3.157 3.157s1.413 3.157 3.157 3.157h2.329v2.33c0 1.744 1.413 3.157 3.157 3.157s3.157-1.413 3.157-3.157v-2.33h2.33c1.744 0 3.157-1.413 3.157-3.157s-1.413-3.157-3.157-3.157z" fill="#87d147"/></g></g><g><g><circle cx="118.662" cy="202.627" fill="#f5c84c" r="3.377"/></g></g><g><g><circle cx="3.377" cy="72.627" fill="#70d6f9" r="3.377"/></g></g><g><g><path d="m240.686 247.774c-3.838 0-7.675-1.46-10.597-4.382l-48.158-48.158c-5.843-5.843-5.843-15.351 0-21.193 5.843-5.844 15.351-5.844 21.193 0l48.158 48.158c2.831 2.831 4.39 6.594 4.39 10.597s-1.559 7.767-4.39 10.597c-2.921 2.92-6.759 4.381-10.596 4.381zm-55.219-70.198c-3.894 3.894-3.894 10.229 0 14.123l48.157 48.158c3.893 3.893 10.229 3.894 14.123 0 1.886-1.886 2.925-4.394 2.925-7.062 0-2.667-1.039-5.175-2.925-7.062l-48.158-48.158c-3.893-3.892-10.229-3.893-14.122.001z"/></g></g><g><g><path d="m189.533 174.51c-.64 0-1.28-.244-1.768-.732l-15.476-15.476c-.977-.976-.977-2.559 0-3.535.976-.977 2.56-.977 3.535 0l15.476 15.476c.977.976.977 2.559 0 3.535-.487.488-1.128.732-1.767.732z"/></g></g><g><g><path d="m179.828 184.069c-.64 0-1.28-.244-1.768-.732l-15.439-15.439c-.977-.976-.977-2.559 0-3.535.976-.977 2.56-.977 3.535 0l15.439 15.439c.977.976.977 2.559 0 3.535-.487.488-1.127.732-1.767.732z"/></g></g><g><g><path d="m135.538 69.35c-.479 0-.964-.138-1.392-.426-1.146-.77-1.451-2.323-.68-3.469 2.795-4.16 4.5-9.13 5.066-14.774.138-1.374 1.365-2.382 2.737-2.238 1.374.138 2.376 1.363 2.238 2.737-.649 6.472-2.631 12.214-5.892 17.064-.482.717-1.272 1.106-2.077 1.106z"/></g></g><g><g><path d="m139.72 73.527c-.805 0-1.595-.388-2.077-1.106-.771-1.146-.466-2.699.68-3.469 4.852-3.261 10.594-5.243 17.067-5.892 1.366-.141 2.599.864 2.737 2.238.137 1.374-.865 2.599-2.239 2.736-5.644.566-10.616 2.271-14.776 5.066-.427.289-.912.427-1.392.427z"/></g></g><g><g><path d="m145.679 105.791c-.083 0-.166-.004-.248-.012l-6.476-.646c-1.374-.137-2.376-1.362-2.24-2.736s1.362-2.375 2.736-2.24l5.781.576 12.597-6.01c.564-.27 1.208-.318 1.808-.134l7.604 2.325c1.32.404 2.063 1.801 1.66 3.122-.403 1.32-1.801 2.066-3.122 1.66l-6.675-2.041-12.349 5.892c-.337.161-.705.244-1.076.244z"/></g></g><g><g><path d="m137.993 150.679c-.92 0-1.806-.51-2.242-1.391l-3.979-8.036c-.241-.487-.317-1.039-.216-1.572l2.262-12.002-5.329-4.37c-1.068-.875-1.224-2.451-.348-3.518.875-1.068 2.45-1.224 3.518-.348l6.475 5.31c.707.579 1.041 1.498.872 2.396l-2.381 12.637 3.608 7.286c.613 1.237.106 2.737-1.131 3.35-.358.174-.737.258-1.109.258z"/></g></g><g><g><path d="m96.404 162.263c-.133 0-.269-.011-.404-.033-1.363-.222-2.288-1.506-2.066-2.869l1.075-6.604c.117-.717.54-1.348 1.158-1.728l10.453-6.428 1.709-9.655c.241-1.36 1.537-2.265 2.897-2.026 1.36.241 2.267 1.538 2.026 2.897l-1.905 10.761c-.125.704-.544 1.32-1.152 1.694l-10.435 6.417-.891 5.475c-.2 1.227-1.261 2.099-2.465 2.099z"/></g></g><g><g><path d="m103.92 69.865c-1.269 0-2.356-.962-2.485-2.252l-.646-6.476c-.045-.455.035-.913.231-1.325l5.892-12.349-2.041-6.675c-.404-1.32.339-2.718 1.66-3.122 1.318-.405 2.718.339 3.122 1.66l2.326 7.604c.183.598.135 1.243-.134 1.808l-6.01 12.597.576 5.781c.137 1.374-.866 2.599-2.24 2.736-.085.009-.168.013-.251.013z"/></g></g><g><g><path d="m85.196 78.996c-.723 0-1.44-.312-1.935-.915l-4.37-5.329-12.002 2.261c-.533.102-1.085.025-1.572-.216l-8.036-3.979c-1.237-.612-1.744-2.112-1.131-3.35.612-1.238 2.111-1.745 3.35-1.131l7.286 3.607 12.637-2.38c.899-.171 1.816.165 2.396.872l5.31 6.475c.875 1.067.72 2.643-.348 3.518-.467.381-1.028.567-1.585.567z"/></g></g><g><g><path d="m46.802 112.667c-1.204 0-2.265-.872-2.465-2.099-.222-1.363.704-2.647 2.066-2.869l5.475-.891 6.417-10.436c.374-.608.99-1.028 1.694-1.152l10.761-1.904c1.355-.239 2.656.667 2.897 2.026.24 1.359-.667 2.657-2.026 2.897l-9.655 1.708-6.428 10.453c-.38.619-1.011 1.042-1.728 1.158l-6.604 1.075c-.135.024-.27.034-.404.034z"/></g></g><g><g><path d="m198.608 209.952c-.64 0-1.28-.244-1.768-.732-.977-.976-.977-2.559 0-3.535l16.87-16.87c.976-.977 2.56-.977 3.535 0 .977.976.977 2.559 0 3.535l-16.87 16.87c-.487.488-1.127.732-1.767.732z"/></g></g><g><g><path d="m188.883 200.414c-.64 0-1.28-.244-1.768-.732-.977-.976-.977-2.559 0-3.535l16.875-16.875c.976-.977 2.56-.977 3.535 0 .977.976.977 2.559 0 3.535l-16.875 16.875c-.487.487-1.128.732-1.767.732z"/></g></g><g><g><path d="m106.658 189.272c-23.188 0-46.375-8.826-64.027-26.479-35.305-35.304-35.305-92.749 0-128.053 35.304-35.304 92.75-35.305 128.053 0 35.305 35.304 35.305 92.749 0 128.053-17.652 17.653-40.839 26.479-64.026 26.479zm-.001-176.053c-22.85 0-44.333 8.898-60.491 25.056-16.158 16.159-25.056 37.642-25.056 60.492 0 22.851 8.898 44.333 25.056 60.492 16.158 16.158 37.641 25.056 60.491 25.056 22.851 0 44.333-8.898 60.492-25.056 16.158-16.158 25.056-37.641 25.056-60.492 0-22.85-8.898-44.333-25.056-60.491s-37.641-25.057-60.492-25.057z"/></g></g><g><g><path d="m106.658 176.128c-19.82 0-39.64-7.544-54.729-22.633-30.177-30.177-30.177-79.28 0-109.457 30.178-30.178 79.281-30.177 109.457 0 14.619 14.618 22.669 34.054 22.669 54.728s-8.051 40.11-22.669 54.729c-15.089 15.089-34.908 22.633-54.728 22.633zm0-149.725c-18.54 0-37.079 7.057-51.193 21.171-28.228 28.228-28.228 74.158 0 102.386 14.112 14.112 32.656 21.168 51.193 21.17 18.542.001 37.078-7.055 51.193-21.17 13.674-13.674 21.205-31.855 21.205-51.193s-7.531-37.519-21.205-51.193c-14.115-14.114-32.654-21.171-51.193-21.171z"/></g></g><g><g><path d="m106.098 137.503c-1.333 0-2.672-.112-4.005-.341-8.19-1.408-15.634-5.267-21.527-11.16-.977-.976-.977-2.559 0-3.535.976-.977 2.56-.977 3.535 0 5.159 5.158 11.673 8.536 18.839 9.768 6.023 1.036 12.223-.95 16.584-5.311l10.731-10.731c4.36-4.361 6.345-10.561 5.31-16.584l-.066-.376c-.738-4.027-3.525-7.188-7.457-8.456-4.036-1.302-8.256-.339-11.289 2.577-.996.958-2.579.925-3.535-.07-.957-.995-.926-2.578.07-3.535 4.317-4.149 10.558-5.579 16.289-3.731 5.713 1.843 9.765 6.445 10.839 12.312l.078.438c1.309 7.616-1.197 15.454-6.703 20.96l-10.731 10.731c-4.545 4.544-10.676 7.044-16.962 7.044z"/></g></g><g><g><path d="m113.489 73c-.528 0-1.06-.167-1.512-.511-1.099-.836-1.312-2.405-.475-3.503.521-.684 1.035-1.278 1.574-1.816 1.705-1.705 3.706-3.044 5.949-3.98 1.273-.532 2.738.07 3.27 1.344s-.07 2.738-1.344 3.27c-1.637.684-3.097 1.66-4.339 2.901-.378.378-.748.806-1.13 1.309-.494.647-1.239.986-1.993.986z"/></g></g><g><g><path d="m141.012 76.451c-.97 0-1.894-.568-2.299-1.517-.684-1.598-1.643-3.021-2.851-4.228-1.213-1.213-2.642-2.175-4.249-2.86-1.27-.542-1.861-2.01-1.319-3.28.542-1.271 2.01-1.86 3.28-1.319 2.198.937 4.157 2.257 5.824 3.924 1.66 1.659 2.976 3.609 3.912 5.796.543 1.269-.045 2.739-1.315 3.282-.321.137-.655.202-.983.202z"/></g></g><g><g><path d="m136.272 95.42c-.743 0-1.477-.329-1.97-.959-.852-1.087-.66-2.658.427-3.509.428-.335.799-.661 1.133-.995 1.261-1.261 2.248-2.746 2.933-4.415.525-1.277 1.985-1.888 3.262-1.363 1.277.524 1.887 1.985 1.363 3.262-.938 2.285-2.292 4.32-4.023 6.051-.478.478-.997.935-1.586 1.396-.457.359-1 .532-1.539.532z"/></g></g><g><g><path d="m82.333 126.734c-.64 0-1.28-.244-1.768-.732-5.894-5.893-9.752-13.337-11.16-21.527-1.31-7.622 1.196-15.459 6.703-20.966l10.732-10.731c5.507-5.507 13.345-8.012 20.966-6.703.001 0 .003 0 .005.001l.431.077c5.929 1.085 10.549 5.195 12.357 10.994 1.812 5.812.273 12.085-4.015 16.374l-32.482 32.481c-.489.488-1.129.732-1.769.732zm21.465-56.001c-4.972 0-9.824 1.981-13.423 5.58l-10.731 10.731c-4.36 4.361-6.346 10.56-5.311 16.584 1.09 6.343 3.861 12.175 8.062 17.009l30.652-30.652c3.015-3.015 4.053-7.258 2.777-11.351-1.244-3.991-4.417-6.819-8.488-7.564l-.382-.068c-1.05-.18-2.106-.269-3.156-.269z"/></g></g><g><g><g><path d="m141.986 88.575c-2.104 0-4.208-.801-5.81-2.403-3.204-3.203-3.204-8.416 0-11.619 3.203-3.204 8.416-3.204 11.619 0 3.204 3.203 3.204 8.416 0 11.619-1.601 1.602-3.705 2.403-5.809 2.403zm0-11.428c-.824 0-1.647.313-2.274.94-1.254 1.254-1.254 3.294 0 4.549 1.254 1.254 3.295 1.254 4.549 0s1.254-3.294 0-4.549c-.628-.626-1.451-.94-2.275-.94z"/></g></g></g><g><g><g><path d="m126.206 72.798c-2.195 0-4.258-.854-5.81-2.407-3.203-3.203-3.203-8.416 0-11.619 1.551-1.552 3.615-2.407 5.81-2.407 2.194 0 4.258.854 5.81 2.407 3.204 3.203 3.204 8.416 0 11.619-1.553 1.553-3.616 2.407-5.81 2.407zm0-11.432c-.859 0-1.667.334-2.274.942-1.254 1.254-1.254 3.294 0 4.549 1.214 1.214 3.332 1.215 4.549 0 1.254-1.254 1.254-3.294 0-4.549-.609-.608-1.417-.942-2.275-.942z"/></g></g></g></g></g></svg>