<svg enable-background="new 0 0 256 256" height="512" viewBox="0 0 256 256" width="512" xmlns="http://www.w3.org/2000/svg"><g id="Layer_16"><g><g><g><path d="m27.714 74.906v173.607c0 2.754 2.233 4.987 4.987 4.987h161.588c2.754 0 4.987-2.233 4.987-4.987v-173.607z" fill="#edf4fc"/></g></g><g><g><path d="m56.112 124.077c.183-1.511 2.018-2.159 3.094-1.082l11.51 11.51c.761.761 1.87 1.058 2.91.78l7.015-1.88c1.04-.279 1.851-1.09 2.13-2.13l1.88-7.015c.279-1.04-.019-2.149-.78-2.91l-11.51-11.51c-1.077-1.077-.427-2.911 1.085-3.094 6.072-.735 12.417 1.325 16.95 6.186 6.908 7.407 7.08 19.086.376 26.678-7.663 8.678-20.924 8.987-28.985.926-4.494-4.495-6.384-10.604-5.675-16.459z" fill="#fcdd86"/></g></g><g><g><path d="m153.547 221.511c1.511-.183 2.158-2.018 1.082-3.094l-11.51-11.51c-.761-.761-1.058-1.87-.78-2.91l1.88-7.015c.279-1.04 1.09-1.851 2.13-2.13l7.015-1.88c1.04-.279 2.149.019 2.91.78l11.51 11.51c1.077 1.077 2.911.427 3.094-1.085.735-6.072-1.325-12.417-6.186-16.95-7.407-6.908-19.086-7.08-26.678-.376-8.678 7.663-8.987 20.924-.926 28.985 4.494 4.495 10.604 6.385 16.459 5.675z" fill="#fcdd86"/></g></g><g><g><path d="m146.312 121.982 9.504 9.505 5.431-8.147-6.789-6.789z" fill="#fcdd86"/></g></g><g><g><path d="m146.312 121.982 9.504 9.505-8.146 5.431-6.789-6.789z" fill="#f5c84c"/></g></g><g><g><path d="m92.293 173.101 12.404 12.404c1.689 1.689 1.689 4.426 0 6.115l-26.201 26.201c-5.114 5.114-13.405 5.114-18.519 0-5.114-5.114-5.114-13.405 0-18.519l26.201-26.201c1.689-1.688 4.427-1.688 6.115 0z" fill="#fc657e"/></g></g><g><g><path d="m95.81 176.619 5.369 5.369c.731.731-.045 2.692-1.734 4.381l-26.2 26.201c-5.114 5.114-11.054 7.465-13.268 5.251-2.214-2.214.137-8.154 5.251-13.267l26.201-26.201c1.689-1.689 3.651-2.465 4.381-1.734z" fill="#f98fa6"/></g></g><g><g><path d="m93.226 174.034 2.898-2.898c1.428-1.428 3.743-1.428 5.17 0l5.368 5.368c1.428 1.428 1.428 3.743 0 5.17l-2.898 2.898z" fill="#fc657e"/></g></g><g><g><path d="m106.663 176.504-5.368-5.368c-.248-.248-.529-.437-.822-.599l40.408-40.408 6.789 6.789-40.408 40.408c-.162-.293-.351-.574-.599-.822z" fill="#fcdd86"/></g></g><g><g><path d="m111.281 173.307 21.317 21.317c1.11-2.883 2.913-5.561 5.417-7.772 1.803-1.592 3.842-2.784 5.994-3.602l-21.335-21.335z" fill="#f5c84c"/></g></g><g><g><path d="m115.884 155.125-21.51-21.51c-.818 2.153-2.01 4.191-3.602 5.994-2.211 2.504-4.888 4.306-7.772 5.417l21.492 21.492z" fill="#f5c84c"/></g></g><g><g><path d="m213.852 18.188h-161.589c-2.754 0-4.987 2.233-4.987 4.987v14.7h171.563v-14.7c0-2.755-2.233-4.987-4.987-4.987z" fill="#5290db"/></g></g><g><g><path d="m194.289 55.219h-161.588c-2.754 0-4.987 2.233-4.987 4.987v14.7h171.563v-14.7c-.001-2.754-2.234-4.987-4.988-4.987z" fill="#5290db"/></g></g><g><g><path d="m68.37 18.188h-16.107c-2.754 0-4.987 2.233-4.987 4.987v14.7h21.094z" fill="#fc657e"/></g></g><g><g><path d="m47.276 37.875v17.344h147.013c2.754 0 4.987 2.233 4.987 4.987v156.263h14.575c2.754 0 4.987-2.233 4.987-4.987v-173.607z" fill="#c7d7e5"/></g></g><g><g><path d="m48.807 55.219h-16.106c-2.754 0-4.987 2.233-4.987 4.987v14.7h21.094v-19.687z" fill="#fc657e"/></g></g><g><g><path d="m165.995 67.563h-104.062c-1.381 0-2.5-1.119-2.5-2.5s1.119-2.5 2.5-2.5h104.063c1.381 0 2.5 1.119 2.5 2.5s-1.12 2.5-2.501 2.5z"/></g></g><g><g><path d="m188.297 67.563h-10.205c-1.381 0-2.5-1.119-2.5-2.5s1.119-2.5 2.5-2.5h10.205c1.381 0 2.5 1.119 2.5 2.5s-1.119 2.5-2.5 2.5z"/></g></g><g><g><path d="m194.289 256h-161.588c-4.128 0-7.487-3.359-7.487-7.487v-173.607c0-1.381 1.119-2.5 2.5-2.5s2.5 1.119 2.5 2.5v173.606c0 1.372 1.116 2.487 2.487 2.487h161.588c1.372 0 2.487-1.116 2.487-2.487v-173.606c0-1.381 1.119-2.5 2.5-2.5s2.5 1.119 2.5 2.5v173.606c0 4.129-3.359 7.488-7.487 7.488z"/></g></g><g><g><path d="m218.839 40.375h-171.563c-1.381 0-2.5-1.119-2.5-2.5v-14.7c0-4.128 3.358-7.487 7.487-7.487h161.588c4.128 0 7.487 3.359 7.487 7.487v14.7c.001 1.381-1.118 2.5-2.499 2.5zm-169.063-5h166.563v-12.2c0-1.372-1.116-2.487-2.487-2.487h-161.589c-1.371 0-2.487 1.116-2.487 2.487z"/></g></g><g><g><path d="m185.558 30.531h-104.063c-1.381 0-2.5-1.119-2.5-2.5s1.119-2.5 2.5-2.5h104.063c1.381 0 2.5 1.119 2.5 2.5s-1.12 2.5-2.5 2.5z"/></g></g><g><g><path d="m207.859 30.531h-10.205c-1.381 0-2.5-1.119-2.5-2.5s1.119-2.5 2.5-2.5h10.205c1.381 0 2.5 1.119 2.5 2.5s-1.119 2.5-2.5 2.5z"/></g></g><g><g><path d="m238.608 91.883c-2.473-.46-4.421-2.37-4.891-4.792-.024-.122-.193-.122-.217 0-.47 2.422-2.419 4.331-4.891 4.792-.124.023-.124.189 0 .213 2.473.461 4.421 2.37 4.891 4.792.024.122.193.122.217 0 .47-2.422 2.419-4.331 4.891-4.792.124-.023.124-.19 0-.213z" fill="#70d6f9"/></g></g><g><g><path d="m226.23 248.181c-3.959.737-7.08 3.794-7.833 7.673-.038.195-.31.195-.348 0-.753-3.879-3.873-6.936-7.833-7.673-.199-.037-.199-.303 0-.34 3.959-.737 7.08-3.794 7.833-7.673.038-.195.31-.195.348 0 .753 3.879 3.873 6.936 7.833 7.673.199.036.199.303 0 .34z" fill="#f5c84c"/></g></g><g><g><path d="m28.365 27.242h-1.824v1.824c0 1.366-1.107 2.473-2.473 2.473s-2.473-1.107-2.473-2.473v-1.824h-1.824c-1.366 0-2.473-1.107-2.473-2.473s1.107-2.473 2.473-2.473h1.824v-1.824c0-1.366 1.107-2.473 2.473-2.473s2.473 1.107 2.473 2.473v1.824h1.824c1.366 0 2.473 1.107 2.473 2.473s-1.107 2.473-2.473 2.473z" fill="#87d147"/></g></g><g><g><circle cx="40.276" cy="3.377" fill="#f5c84c" r="3.377"/></g></g><g><g><circle cx="230.276" cy="226.373" fill="#fc657e" r="3.377"/></g></g><g><g><path d="m199.276 77.406h-171.562c-1.381 0-2.5-1.119-2.5-2.5v-14.7c0-4.128 3.358-7.487 7.487-7.487h161.588c4.128 0 7.487 3.359 7.487 7.487v14.7c0 1.381-1.119 2.5-2.5 2.5zm-169.062-5h166.563v-12.2c0-1.372-1.116-2.487-2.487-2.487h-161.589c-1.371 0-2.487 1.116-2.487 2.487z"/></g></g><g><g><path d="m68.37 39.667c-1.381 0-2.5-1.119-2.5-2.5v-18.334c0-1.381 1.119-2.5 2.5-2.5s2.5 1.119 2.5 2.5v18.334c0 1.381-1.119 2.5-2.5 2.5z"/></g></g><g><g><path d="m47.276 56.917c-1.381 0-2.5-1.119-2.5-2.5v-16.542c0-1.381 1.119-2.5 2.5-2.5s2.5 1.119 2.5 2.5v16.542c0 1.381-1.119 2.5-2.5 2.5z"/></g></g><g><g><path d="m213.852 218.969h-13.789c-1.381 0-2.5-1.119-2.5-2.5s1.119-2.5 2.5-2.5h13.789c1.372 0 2.487-1.116 2.487-2.487v-173.607c0-1.381 1.119-2.5 2.5-2.5s2.5 1.119 2.5 2.5v173.606c0 4.129-3.359 7.488-7.487 7.488z"/></g></g><g><g><path d="m48.808 76.438c-1.381 0-2.5-1.119-2.5-2.5v-18.105c0-1.381 1.119-2.5 2.5-2.5s2.5 1.119 2.5 2.5v18.105c0 1.381-1.12 2.5-2.5 2.5z"/></g></g><g><g><path d="m75.856 148.858c-5.911 0-11.649-2.367-15.837-6.555-4.894-4.893-7.223-11.646-6.389-18.527.201-1.661 1.308-3.031 2.887-3.577 1.573-.543 3.28-.148 4.456 1.028l11.509 11.509c.129.129.321.178.496.132l7.015-1.88c.177-.047.315-.186.363-.362l1.879-7.015c.047-.177-.003-.366-.132-.495l-11.51-11.51c-1.177-1.176-1.571-2.884-1.028-4.455.545-1.58 1.917-2.687 3.58-2.888 7.077-.858 14.213 1.745 19.079 6.963 7.761 8.322 7.947 21.516.422 30.038-4.147 4.696-9.866 7.39-16.104 7.583-.229.007-.458.011-.686.011zm-17.377-23.055c-.194 4.843 1.614 9.503 5.076 12.964 3.428 3.428 7.986 5.23 12.833 5.083 4.844-.15 9.287-2.244 12.511-5.895 5.84-6.614 5.695-16.856-.331-23.318-3.509-3.762-8.329-5.742-13.398-5.524l10.469 10.469c1.389 1.388 1.935 3.429 1.426 5.325l-1.879 7.015c-.509 1.897-2.003 3.39-3.899 3.898l-7.015 1.88c-1.898.506-3.937-.039-5.324-1.427zm.115-1.426v.003c0-.001 0-.002 0-.003z"/></g></g><g><g><path d="m151.103 224.159c-5.906 0-11.542-2.314-15.783-6.555-4.35-4.35-6.735-10.372-6.544-16.522.193-6.238 2.887-11.957 7.583-16.104 8.521-7.525 21.716-7.339 30.038.422 5.217 4.865 7.82 11.998 6.963 19.079-.202 1.663-1.309 3.034-2.889 3.58-1.573.542-3.279.149-4.455-1.028l-11.509-11.51c-.128-.128-.318-.18-.495-.132l-7.016 1.88c-.176.047-.315.186-.362.362l-1.88 7.015c-.047.176.004.366.132.494l11.51 11.511c1.177 1.176 1.57 2.884 1.028 4.456-.545 1.58-1.916 2.686-3.577 2.887-.918.11-1.834.165-2.744.165zm2.444-2.648h.01zm-2.414-37.072c-4.111 0-8.223 1.424-11.464 4.286-3.651 3.224-5.745 7.667-5.895 12.511-.15 4.848 1.654 9.405 5.082 12.833 3.461 3.461 8.119 5.264 12.965 5.076l-10.468-10.469c-1.388-1.387-1.935-3.427-1.427-5.324l1.88-7.015c.507-1.896 2-3.39 3.897-3.898l7.016-1.88c1.894-.509 3.936.038 5.324 1.427l10.47 10.469c.208-5.07-1.762-9.889-5.525-13.398-3.297-3.074-7.576-4.618-11.855-4.618z"/></g></g><g><g><path d="m155.816 133.986c-.66 0-1.297-.261-1.768-.732l-9.504-9.504c-.53-.529-.794-1.269-.72-2.014.074-.746.478-1.418 1.101-1.834l8.146-5.431c.991-.662 2.312-.531 3.154.313l6.789 6.789c.843.842.974 2.163.313 3.154l-5.431 8.146c-.416.623-1.088 1.027-1.834 1.101-.082.008-.165.012-.246.012zm-5.58-11.615 5.191 5.191 2.603-3.904-3.89-3.89z"/></g></g><g><g><path d="m140.878 132.629c-.477 0-.958-.136-1.384-.42-1.149-.766-1.459-2.318-.693-3.467l5.431-8.146c.766-1.149 2.318-1.459 3.467-.693s1.459 2.318.693 3.467l-5.431 8.146c-.482.722-1.274 1.113-2.083 1.113z"/></g></g><g><g><path d="m147.672 139.418c-.808 0-1.601-.391-2.083-1.114-.766-1.148-.456-2.701.693-3.467l8.146-5.431c1.149-.766 2.701-.456 3.467.693.766 1.148.456 2.701-.693 3.467l-8.146 5.431c-.426.285-.908.421-1.384.421z"/></g></g><g><g><path d="m69.237 224.149c-3.994 0-7.987-1.52-11.027-4.561-6.081-6.081-6.081-15.974 0-22.054l26.201-26.201c2.66-2.661 6.989-2.661 9.65 0l12.403 12.404c1.289 1.289 1.999 3.002 1.999 4.825s-.71 3.537-1.999 4.826l-26.201 26.201c-3.039 3.04-7.033 4.56-11.026 4.56zm19.999-49.813c-.467 0-.935.178-1.29.533l-26.201 26.201c-4.131 4.131-4.131 10.853 0 14.983 2.001 2.001 4.662 3.104 7.492 3.104s5.49-1.102 7.492-3.103l26.201-26.201c.345-.345.534-.803.534-1.29s-.189-.945-.534-1.289l-12.403-12.404c-.357-.356-.824-.534-1.291-.534z"/></g></g><g><g><path d="m62.306 221.16c-1.276 0-2.454-.316-3.458-1.031-1.125-.8-1.388-2.361-.587-3.486.8-1.125 2.362-1.387 3.486-.587.782.556 5.036-.56 9.73-5.253l26.201-26.201c.92-.921 1.226-1.666 1.274-1.871-.041-1.339.987-2.481 2.335-2.569 1.378-.082 2.568.953 2.658 2.331.112 1.711-.909 3.821-2.732 5.645l-26.201 26.201c-3.692 3.691-8.69 6.821-12.706 6.821zm36.651-38.342c0 .001 0 .001 0 0z"/></g></g><g><g><path d="m59.672 219.948c-.803 0-1.592-.386-2.075-1.102-2.823-4.184 1.061-11.258 5.863-16.06l26.201-26.201c1.983-1.984 4.239-2.991 6.036-2.687 1.362.229 2.28 1.518 2.052 2.879-.218 1.304-1.411 2.205-2.705 2.075-.234.064-.959.379-1.848 1.268l-26.202 26.201c-4.656 4.656-5.793 8.929-5.254 9.728.772 1.145.471 2.699-.674 3.471-.426.29-.913.428-1.394.428z"/></g></g><g><g><path d="m104.117 186.721c-.64 0-1.279-.244-1.768-.732-.977-.977-.977-2.559 0-3.536l2.546-2.546c.451-.451.451-1.185 0-1.635l-5.368-5.368c-.452-.451-1.185-.45-1.635 0l-2.51 2.51c-.976.977-2.56.977-3.535 0-.977-.976-.977-2.559 0-3.535l2.51-2.51c2.4-2.401 6.307-2.4 8.706 0l5.368 5.368c2.4 2.4 2.4 6.306 0 8.706l-2.545 2.546c-.49.488-1.13.732-1.769.732z"/></g></g><g><g><path d="m107.429 179.658c-.64 0-1.28-.244-1.768-.732-.977-.976-.977-2.559 0-3.535l38.473-38.473-3.253-3.253-38.449 38.449c-.976.977-2.56.977-3.535 0-.977-.976-.977-2.559 0-3.535l40.217-40.217c.976-.977 2.559-.976 3.535 0l6.789 6.789c.469.469.732 1.105.732 1.768s-.263 1.299-.732 1.768l-40.241 40.24c-.488.487-1.128.731-1.768.731z"/></g></g><g><g><path d="m143.505 185.246c-.64 0-1.28-.244-1.768-.732l-20.272-20.272c-.977-.976-.977-2.559 0-3.535.976-.977 2.56-.977 3.535 0l20.272 20.272c.977.976.977 2.559 0 3.535-.487.488-1.127.732-1.767.732z"/></g></g><g><g><path d="m131.965 196.492c-.64 0-1.28-.244-1.768-.732l-20.292-20.292c-.977-.976-.977-2.559 0-3.535.976-.977 2.56-.977 3.535 0l20.292 20.292c.977.976.977 2.559 0 3.535-.487.488-1.127.732-1.767.732z"/></g></g><g><g><path d="m115.414 157.155c-.64 0-1.28-.244-1.768-.732l-20.414-20.414c-.977-.976-.977-2.559 0-3.535.976-.977 2.56-.977 3.535 0l20.414 20.414c.977.976.977 2.559 0 3.535-.487.488-1.127.732-1.767.732z"/></g></g><g><g><path d="m103.967 168.493c-.64 0-1.28-.244-1.768-.732l-20.294-20.294c-.977-.976-.977-2.559 0-3.535.976-.977 2.56-.977 3.535 0l20.294 20.294c.977.976.977 2.559 0 3.535-.487.488-1.128.732-1.767.732z"/></g></g></g></g></svg>