<svg enable-background="new 0 0 256 256" height="512" viewBox="0 0 256 256" width="512" xmlns="http://www.w3.org/2000/svg"><g id="Layer_22"><g><g><g><path d="m77.62 50.504c2.299 1.531 5.402.91 6.934-1.388 9.717-14.58 25.935-23.285 43.383-23.285 14.455 0 28.053 5.988 37.822 16.328l-2.684-.059c-2.809-.044-5.048 2.129-5.109 4.889-.061 2.761 2.128 5.048 4.889 5.109l13.356.293c.038 0 .074.001.111.001 2.428 0 4.514-1.75 4.926-4.154l2.293-13.355c.467-2.722-1.36-5.307-4.082-5.774-2.724-.47-5.307 1.36-5.774 4.082l-.404 2.353c-11.658-12.485-27.987-19.711-45.346-19.711-20.8 0-40.128 10.37-51.704 27.739-1.53 2.296-.909 5.401 1.389 6.932z" fill="#70d6f9"/></g></g><g><g><path d="m181.387 209.72c-2.297-1.53-5.402-.91-6.934 1.388-9.717 14.58-25.935 23.285-43.383 23.285-14.455 0-28.053-5.988-37.822-16.328l2.684.059c2.767.029 5.048-2.129 5.109-4.889.061-2.761-2.128-5.048-4.889-5.109l-13.355-.293c-2.475-.012-4.619 1.712-5.038 4.153l-2.293 13.355c-.467 2.722 1.36 5.307 4.082 5.774.286.049.571.073.852.073 2.39 0 4.504-1.72 4.922-4.155l.404-2.352c11.658 12.485 27.987 19.711 45.345 19.711 20.8 0 40.129-10.37 51.705-27.739 1.53-2.297.909-5.402-1.389-6.933z" fill="#70d6f9"/></g></g><g><g><path d="m195.089 240.354h-1.824v1.824c0 1.366-1.107 2.473-2.473 2.473s-2.473-1.107-2.473-2.473v-1.824h-1.824c-1.366 0-2.473-1.107-2.473-2.473s1.107-2.473 2.473-2.473h1.824v-1.824c0-1.366 1.107-2.473 2.473-2.473s2.473 1.107 2.473 2.473v1.824h1.824c1.366 0 2.473 1.107 2.473 2.473s-1.108 2.473-2.473 2.473z" fill="#70d6f9"/></g></g><g><g><path d="m63.9 215.747c-2.654.494-4.745 2.543-5.249 5.143-.025.131-.208.131-.233 0-.504-2.6-2.596-4.648-5.249-5.143-.133-.025-.133-.203 0-.228 2.654-.494 4.745-2.543 5.249-5.143.025-.131.208-.131.233 0 .504 2.6 2.596 4.648 5.249 5.143.133.025.133.203 0 .228z" fill="#87d147"/></g></g><g><g><path d="m73.23 26.293c-3.959.737-7.08 3.794-7.833 7.673-.038.195-.31.195-.348 0-.753-3.879-3.873-6.936-7.833-7.673-.199-.037-.199-.303 0-.34 3.959-.737 7.08-3.794 7.833-7.673.038-.195.31-.195.348 0 .753 3.879 3.873 6.936 7.833 7.673.199.036.199.303 0 .34z" fill="#f5c84c"/></g></g><g><g><circle cx="90.276" cy="12.485" fill="#fc657e" r="3.377"/></g></g><g><g><circle cx="206.276" cy="219.485" fill="#f5c84c" r="3.377"/></g></g><g><g><path d="m137.484 82.635v111.278c0 2.684 2.176 4.86 4.86 4.86h106.296c2.684 0 4.86-2.176 4.86-4.86v-111.278z" fill="#edf4fc"/></g></g><g><g><path d="m248.64 63.451h-106.296c-2.684 0-4.86 2.176-4.86 4.86v14.324h116.016v-14.324c0-2.684-2.176-4.86-4.86-4.86z" fill="#5290db"/></g></g><g><g><path d="m158.038 63.451h-15.694c-2.684 0-4.86 2.176-4.86 4.86v14.324h20.554z" fill="#fc657e"/></g></g><g><g><path d="m221.07 75.543h-50.243c-1.381 0-2.5-1.119-2.5-2.5s1.119-2.5 2.5-2.5h50.243c1.381 0 2.5 1.119 2.5 2.5s-1.119 2.5-2.5 2.5z"/></g></g><g><g><path d="m242.801 75.543h-9.943c-1.381 0-2.5-1.119-2.5-2.5s1.119-2.5 2.5-2.5h9.943c1.381 0 2.5 1.119 2.5 2.5s-1.119 2.5-2.5 2.5z"/></g></g><g><g><path d="m248.641 201.273h-106.297c-4.058 0-7.36-3.302-7.36-7.36v-111.278c0-1.381 1.119-2.5 2.5-2.5s2.5 1.119 2.5 2.5v111.278c0 1.301 1.059 2.36 2.36 2.36h106.297c1.301 0 2.359-1.059 2.359-2.36v-111.278c0-1.381 1.119-2.5 2.5-2.5s2.5 1.119 2.5 2.5v111.278c0 4.058-3.301 7.36-7.359 7.36z"/></g></g><g><g><path d="m253.5 85.135h-116.016c-1.381 0-2.5-1.119-2.5-2.5v-14.324c0-4.058 3.302-7.36 7.36-7.36h106.297c4.058 0 7.359 3.302 7.359 7.36v14.324c0 1.381-1.119 2.5-2.5 2.5zm-113.516-5h111.016v-11.824c0-1.301-1.059-2.36-2.359-2.36h-106.297c-1.301 0-2.36 1.059-2.36 2.36z"/></g></g><g><g><path d="m158.038 84.25c-1.381 0-2.5-1.119-2.5-2.5v-17.375c0-1.381 1.119-2.5 2.5-2.5s2.5 1.119 2.5 2.5v17.375c0 1.381-1.119 2.5-2.5 2.5z"/></g></g><g><g><path d="m236.735 100.407h-61.799c-1.381 0-2.5-1.119-2.5-2.5s1.119-2.5 2.5-2.5h61.799c1.381 0 2.5 1.119 2.5 2.5s-1.119 2.5-2.5 2.5z"/></g></g><g><g><path d="m165.918 100.407h-11.45c-1.381 0-2.5-1.119-2.5-2.5s1.119-2.5 2.5-2.5h11.45c1.381 0 2.5 1.119 2.5 2.5s-1.119 2.5-2.5 2.5z"/></g></g><g><g><path d="m236.735 112.288h-36.627c-1.381 0-2.5-1.119-2.5-2.5s1.119-2.5 2.5-2.5h36.627c1.381 0 2.5 1.119 2.5 2.5s-1.119 2.5-2.5 2.5z"/></g></g><g><g><path d="m190.795 112.288h-36.327c-1.381 0-2.5-1.119-2.5-2.5s1.119-2.5 2.5-2.5h36.327c1.381 0 2.5 1.119 2.5 2.5s-1.119 2.5-2.5 2.5z"/></g></g><g><g><path d="m236.735 124.169h-11.202c-1.381 0-2.5-1.119-2.5-2.5s1.119-2.5 2.5-2.5h11.202c1.381 0 2.5 1.119 2.5 2.5s-1.119 2.5-2.5 2.5z"/></g></g><g><g><path d="m216.421 124.169h-61.953c-1.381 0-2.5-1.119-2.5-2.5s1.119-2.5 2.5-2.5h61.953c1.381 0 2.5 1.119 2.5 2.5s-1.119 2.5-2.5 2.5z"/></g></g><g><g><path d="m236.735 136.05h-52.295c-1.381 0-2.5-1.119-2.5-2.5s1.119-2.5 2.5-2.5h52.295c1.381 0 2.5 1.119 2.5 2.5s-1.119 2.5-2.5 2.5z"/></g></g><g><g><path d="m175.11 136.05h-20.642c-1.381 0-2.5-1.119-2.5-2.5s1.119-2.5 2.5-2.5h20.642c1.381 0 2.5 1.119 2.5 2.5s-1.119 2.5-2.5 2.5z"/></g></g><g><g><path d="m236.735 183.05h-36.627c-1.381 0-2.5-1.119-2.5-2.5s1.119-2.5 2.5-2.5h36.627c1.381 0 2.5 1.119 2.5 2.5s-1.119 2.5-2.5 2.5z"/></g></g><g><g><path d="m190.795 183.05h-36.327c-1.381 0-2.5-1.119-2.5-2.5s1.119-2.5 2.5-2.5h36.327c1.381 0 2.5 1.119 2.5 2.5s-1.119 2.5-2.5 2.5z"/></g></g><g><g><path d="m236.735 171.169h-11.202c-1.381 0-2.5-1.119-2.5-2.5s1.119-2.5 2.5-2.5h11.202c1.381 0 2.5 1.119 2.5 2.5s-1.119 2.5-2.5 2.5z"/></g></g><g><g><path d="m216.421 171.169h-61.953c-1.381 0-2.5-1.119-2.5-2.5s1.119-2.5 2.5-2.5h61.953c1.381 0 2.5 1.119 2.5 2.5s-1.119 2.5-2.5 2.5z"/></g></g><g><g><path d="m236.735 159.288h-52.295c-1.381 0-2.5-1.119-2.5-2.5s1.119-2.5 2.5-2.5h52.295c1.381 0 2.5 1.119 2.5 2.5s-1.119 2.5-2.5 2.5z"/></g></g><g><g><path d="m175.11 159.288h-20.642c-1.381 0-2.5-1.119-2.5-2.5s1.119-2.5 2.5-2.5h20.642c1.381 0 2.5 1.119 2.5 2.5s-1.119 2.5-2.5 2.5z"/></g></g><g><g><path d="m236.735 147.931h-36.627c-1.381 0-2.5-1.119-2.5-2.5s1.119-2.5 2.5-2.5h36.627c1.381 0 2.5 1.119 2.5 2.5s-1.119 2.5-2.5 2.5z"/></g></g><g><g><path d="m190.795 147.931h-36.327c-1.381 0-2.5-1.119-2.5-2.5s1.119-2.5 2.5-2.5h36.327c1.381 0 2.5 1.119 2.5 2.5s-1.119 2.5-2.5 2.5z"/></g></g><g><g><path d="m2.5 82.635v111.278c0 2.684 2.176 4.86 4.86 4.86h106.297c2.684 0 4.86-2.176 4.86-4.86v-111.278z" fill="#fcdd86"/></g></g><g><g><path d="m113.656 63.451h-106.296c-2.684 0-4.86 2.176-4.86 4.86v14.324h116.016v-14.324c0-2.684-2.176-4.86-4.86-4.86z" fill="#5290db"/></g></g><g><g><path d="m23.054 63.451h-15.694c-2.684 0-4.86 2.176-4.86 4.86v14.324h20.554z" fill="#fc657e"/></g></g><g><g><path d="m86.086 75.543h-50.243c-1.381 0-2.5-1.119-2.5-2.5s1.119-2.5 2.5-2.5h50.243c1.381 0 2.5 1.119 2.5 2.5s-1.119 2.5-2.5 2.5z"/></g></g><g><g><path d="m107.817 75.543h-9.943c-1.381 0-2.5-1.119-2.5-2.5s1.119-2.5 2.5-2.5h9.943c1.381 0 2.5 1.119 2.5 2.5s-1.119 2.5-2.5 2.5z"/></g></g><g><g><path d="m113.656 201.273h-106.297c-4.058 0-7.359-3.302-7.359-7.36v-111.278c0-1.381 1.119-2.5 2.5-2.5s2.5 1.119 2.5 2.5v111.278c0 1.301 1.059 2.36 2.359 2.36h106.297c1.301 0 2.36-1.059 2.36-2.36v-111.278c0-1.381 1.119-2.5 2.5-2.5s2.5 1.119 2.5 2.5v111.278c0 4.058-3.302 7.36-7.36 7.36z"/></g></g><g><g><path d="m118.516 85.135h-116.016c-1.381 0-2.5-1.119-2.5-2.5v-14.324c0-4.058 3.301-7.36 7.359-7.36h106.297c4.058 0 7.36 3.302 7.36 7.36v14.324c0 1.381-1.119 2.5-2.5 2.5zm-113.516-5h111.016v-11.824c0-1.301-1.059-2.36-2.36-2.36h-106.297c-1.3 0-2.359 1.059-2.359 2.36z"/></g></g><g><g><path d="m23.054 84.375c-1.381 0-2.5-1.119-2.5-2.5v-17.667c0-1.381 1.119-2.5 2.5-2.5s2.5 1.119 2.5 2.5v17.667c0 1.381-1.119 2.5-2.5 2.5z"/></g></g><g><g><path d="m101.751 100.407h-61.799c-1.381 0-2.5-1.119-2.5-2.5s1.119-2.5 2.5-2.5h61.799c1.381 0 2.5 1.119 2.5 2.5s-1.119 2.5-2.5 2.5z"/></g></g><g><g><path d="m30.934 100.407h-11.45c-1.381 0-2.5-1.119-2.5-2.5s1.119-2.5 2.5-2.5h11.45c1.381 0 2.5 1.119 2.5 2.5s-1.119 2.5-2.5 2.5z"/></g></g><g><g><path d="m101.751 112.288h-36.627c-1.381 0-2.5-1.119-2.5-2.5s1.119-2.5 2.5-2.5h36.627c1.381 0 2.5 1.119 2.5 2.5s-1.119 2.5-2.5 2.5z"/></g></g><g><g><path d="m55.811 112.288h-36.327c-1.381 0-2.5-1.119-2.5-2.5s1.119-2.5 2.5-2.5h36.327c1.381 0 2.5 1.119 2.5 2.5s-1.119 2.5-2.5 2.5z"/></g></g><g><g><path d="m101.751 124.169h-11.202c-1.381 0-2.5-1.119-2.5-2.5s1.119-2.5 2.5-2.5h11.202c1.381 0 2.5 1.119 2.5 2.5s-1.119 2.5-2.5 2.5z"/></g></g><g><g><path d="m81.437 124.169h-61.953c-1.381 0-2.5-1.119-2.5-2.5s1.119-2.5 2.5-2.5h61.953c1.381 0 2.5 1.119 2.5 2.5s-1.119 2.5-2.5 2.5z"/></g></g><g><g><path d="m101.751 136.05h-52.296c-1.381 0-2.5-1.119-2.5-2.5s1.119-2.5 2.5-2.5h52.296c1.381 0 2.5 1.119 2.5 2.5s-1.119 2.5-2.5 2.5z"/></g></g><g><g><path d="m40.126 136.05h-20.642c-1.381 0-2.5-1.119-2.5-2.5s1.119-2.5 2.5-2.5h20.642c1.381 0 2.5 1.119 2.5 2.5s-1.119 2.5-2.5 2.5z"/></g></g><g><g><path d="m101.751 183.05h-36.627c-1.381 0-2.5-1.119-2.5-2.5s1.119-2.5 2.5-2.5h36.627c1.381 0 2.5 1.119 2.5 2.5s-1.119 2.5-2.5 2.5z"/></g></g><g><g><path d="m55.811 183.05h-36.327c-1.381 0-2.5-1.119-2.5-2.5s1.119-2.5 2.5-2.5h36.327c1.381 0 2.5 1.119 2.5 2.5s-1.119 2.5-2.5 2.5z"/></g></g><g><g><path d="m101.751 171.169h-11.202c-1.381 0-2.5-1.119-2.5-2.5s1.119-2.5 2.5-2.5h11.202c1.381 0 2.5 1.119 2.5 2.5s-1.119 2.5-2.5 2.5z"/></g></g><g><g><path d="m81.437 171.169h-61.953c-1.381 0-2.5-1.119-2.5-2.5s1.119-2.5 2.5-2.5h61.953c1.381 0 2.5 1.119 2.5 2.5s-1.119 2.5-2.5 2.5z"/></g></g><g><g><path d="m101.751 159.288h-52.296c-1.381 0-2.5-1.119-2.5-2.5s1.119-2.5 2.5-2.5h52.296c1.381 0 2.5 1.119 2.5 2.5s-1.119 2.5-2.5 2.5z"/></g></g><g><g><path d="m40.126 159.288h-20.642c-1.381 0-2.5-1.119-2.5-2.5s1.119-2.5 2.5-2.5h20.642c1.381 0 2.5 1.119 2.5 2.5s-1.119 2.5-2.5 2.5z"/></g></g><g><g><path d="m101.751 147.931h-36.627c-1.381 0-2.5-1.119-2.5-2.5s1.119-2.5 2.5-2.5h36.627c1.381 0 2.5 1.119 2.5 2.5s-1.119 2.5-2.5 2.5z"/></g></g><g><g><path d="m55.811 147.931h-36.327c-1.381 0-2.5-1.119-2.5-2.5s1.119-2.5 2.5-2.5h36.327c1.381 0 2.5 1.119 2.5 2.5s-1.119 2.5-2.5 2.5z"/></g></g><g><g><path d="m176.322 54.893-.141-.001-13.381-.294c-2.003-.044-3.869-.865-5.254-2.313-1.385-1.447-2.124-3.348-2.08-5.35.068-3.089 1.921-5.655 4.578-6.756-8.917-7.582-20.352-11.847-32.107-11.847-16.61 0-32.05 8.288-41.302 22.171-2.293 3.441-6.958 4.374-10.4 2.083-1.667-1.111-2.802-2.805-3.195-4.77-.393-1.964.002-3.964 1.113-5.631 12.041-18.066 32.147-28.853 53.785-28.853 16.305 0 32.093 6.264 43.981 17.319.545-1.082 1.35-2.02 2.366-2.739 1.636-1.158 3.624-1.611 5.602-1.267 1.972.338 3.696 1.426 4.853 3.062 1.156 1.636 1.606 3.624 1.267 5.598l-2.293 13.356c-.622 3.611-3.73 6.232-7.392 6.232zm-13.344-10.293c-1.376 0-2.482 1.066-2.513 2.445-.015.667.231 1.301.693 1.783.461.483 1.083.756 1.751.771l13.356.293h.001c1.276 0 2.312-.873 2.518-2.076l2.293-13.356c.113-.658-.037-1.321-.422-1.866-.386-.545-.96-.908-1.618-1.021-.66-.115-1.322.036-1.866.421-.545.386-.908.961-1.021 1.62l-.404 2.352c-.161.936-.838 1.7-1.748 1.972-.908.273-1.895.006-2.543-.689-11.226-12.022-27.088-18.917-43.519-18.917-19.962 0-38.513 9.953-49.624 26.625-.371.556-.502 1.223-.371 1.877.131.655.509 1.219 1.064 1.589 1.149.764 2.704.453 3.467-.693 10.182-15.278 27.177-24.398 45.463-24.398 14.917 0 29.365 6.236 39.639 17.11.692.733.876 1.81.468 2.731-.409.922-1.321 1.53-2.34 1.485l-2.682-.058c-.015 0-.028 0-.042 0z"/></g></g><g><g><path d="m131.07 246.893c-16.306 0-32.093-6.263-43.98-17.32-1.245 2.475-3.794 4.116-6.691 4.116-.425 0-.855-.037-1.277-.109-1.973-.339-3.697-1.427-4.854-3.063-1.156-1.636-1.606-3.624-1.267-5.598l2.293-13.356c.621-3.615 3.761-6.229 7.476-6.229h.038l13.398.293c2.003.044 3.869.865 5.254 2.313 1.385 1.447 2.124 3.348 2.08 5.35-.067 3.022-1.957 5.609-4.603 6.734 8.921 7.595 20.367 11.869 32.133 11.869 16.61 0 32.051-8.288 41.303-22.171 2.294-3.44 6.959-4.375 10.4-2.082 1.667 1.111 2.802 2.805 3.195 4.77.393 1.964-.002 3.964-1.113 5.631-12.041 18.065-32.147 28.852-53.785 28.852zm-45.345-24.712c.682 0 1.347.28 1.827.794 11.226 12.022 27.087 18.917 43.518 18.917 19.962 0 38.513-9.953 49.624-26.625.371-.556.502-1.223.371-1.877-.131-.655-.509-1.219-1.064-1.589-1.147-.764-2.703-.453-3.467.694-10.181 15.277-27.177 24.398-45.463 24.398-14.917 0-29.365-6.237-39.639-17.111-.692-.733-.876-1.81-.467-2.731s1.344-1.49 2.34-1.485l2.684.059h.027c1.376 0 2.497-1.069 2.527-2.445.03-1.378-1.066-2.524-2.444-2.554l-13.355-.293c-.004 0-.008 0-.012 0-1.229 0-2.3.871-2.507 2.076l-2.293 13.356c-.113.658.037 1.321.422 1.866.386.545.96.908 1.618 1.021 1.384.241 2.657-.697 2.887-2.041l.404-2.353c.161-.936.838-1.7 1.748-1.972.234-.071.474-.105.714-.105z"/></g></g></g></g></svg>