<svg enable-background="new 0 0 256 256" height="512" viewBox="0 0 256 256" width="512" xmlns="http://www.w3.org/2000/svg"><g id="Layer_78"><g><g><g><path d="m81.56 210.971c-27.533-15.901-45.065-44.958-46.458-76.524-.049-1.12 1.255-1.767 2.109-1.04l4.599 3.918c1.988 1.693 5.001 1.75 6.874-.069 2.149-2.087 1.996-5.511-.229-7.407l-16.279-13.869c-2.102-1.792-5.257-1.539-7.048.563l-13.87 16.278c-1.897 2.224-1.503 5.633.953 7.349 2.141 1.496 5.107.957 6.8-1.031l3.883-4.556c.747-.877 2.186-.394 2.242.758 1.691 34.782 21.067 66.759 51.423 84.291.788.454 1.647.671 2.496.671 1.728 0 3.409-.896 4.334-2.5 1.381-2.393.562-5.451-1.829-6.832z" fill="#f5c84c"/></g></g><g><g><path d="m183.228 217.32c29.57-18.831 47.772-51.75 47.772-87.009l-.001-.09c-.015-2.34-1.599-4.448-3.887-4.941-3.247-.7-6.114 1.755-6.114 4.88l.001.218c0 32.063-16.728 62.039-43.853 78.965-.947.59-2.147-.215-1.945-1.313l1.139-6.187c.473-2.568-.984-5.207-3.497-5.919-2.882-.817-5.771 1.027-6.3 3.901l-3.871 21.033c-.501 2.715 1.296 5.323 4.011 5.822l21.032 3.873c2.715.501 5.324-1.296 5.822-4.012.501-2.715-1.296-5.323-4.011-5.822l-5.841-1.076c-1.135-.209-1.432-1.703-.457-2.323z" fill="#f5c84c"/></g></g><g><g><path d="m166.052 60.58 19.949-7.092c2.602-.924 3.962-3.783 3.036-6.385l-7.162-20.151c-.978-2.755-4.128-4.118-6.841-2.849-2.366 1.106-3.381 3.944-2.507 6.404l1.956 5.505c.38 1.07-.723 2.072-1.746 1.579-13.882-6.694-29.201-10.214-44.737-10.214-18.088.001-35.872 4.756-51.447 13.751-2.2 1.271-3.29 3.959-2.326 6.309.82 1.998 2.702 3.13 4.644 3.13.852 0 1.716-.219 2.506-.677 14.098-8.186 30.22-12.513 46.623-12.514 14.131 0 28.06 3.218 40.662 9.345 1.023.497.948 1.98-.124 2.361l-6.037 2.146c-2.754.979-4.116 4.125-2.85 6.84 1.103 2.369 3.94 3.387 6.401 2.512z" fill="#f5c84c"/></g></g><g><g><path d="m232.705 213.26c-4.498-.838-8.043-4.31-8.898-8.716-.043-.221-.352-.221-.395 0-.855 4.406-4.4 7.879-8.898 8.716-.226.042-.226.345 0 .387 4.498.838 8.043 4.31 8.898 8.717.043.221.352.221.395 0 .855-4.406 4.4-7.879 8.898-8.717.226-.043.226-.345 0-.387z" fill="#f5c84c"/></g></g><g><g><path d="m52.622 222.249c-2.973-.554-5.317-2.85-5.882-5.762-.028-.146-.233-.146-.261 0-.565 2.913-2.909 5.209-5.882 5.762-.149.028-.149.228 0 .256 2.973.554 5.317 2.85 5.882 5.762.028.146.233.146.261 0 .565-2.913 2.909-5.209 5.882-5.762.15-.028.15-.228 0-.256z" fill="#fc657e"/></g></g><g><g><path d="m69.442 9.864h2.33v-2.33c0-1.744 1.413-3.157 3.157-3.157s3.157 1.413 3.157 3.157v2.33h2.329c1.744 0 3.157 1.413 3.157 3.157s-1.413 3.157-3.157 3.157h-2.329v2.33c0 1.744-1.413 3.157-3.157 3.157s-3.157-1.413-3.157-3.157v-2.33h-2.33c-1.744 0-3.157-1.413-3.157-3.157s1.413-3.157 3.157-3.157z" fill="#70d6f9"/></g></g><g><g><circle cx="232.721" cy="188" fill="#87d147" r="3.377"/></g></g><g><g><circle cx="196.721" cy="125" fill="#70d6f9" r="3.377"/></g></g><g><g><circle cx="106.721" cy="6" fill="#f5c84c" r="3.377"/></g></g><g><g><path d="m79.054 222.802c-1.309 0-2.604-.348-3.744-1.005-29.882-17.257-49.78-48.963-52.478-83.288l-1.918 2.251c-2.559 3.003-7.01 3.644-10.135 1.459-1.737-1.213-2.887-3.109-3.155-5.201-.268-2.094.363-4.215 1.732-5.818l13.869-16.277c1.298-1.525 3.113-2.453 5.111-2.612 1.997-.164 3.937.468 5.461 1.768l16.278 13.868c1.604 1.368 2.564 3.36 2.632 5.467.069 2.105-.763 4.16-2.283 5.637-2.737 2.659-7.234 2.736-10.237.18l-2.418-2.061c2.259 29.529 19.324 56.786 45.04 71.638 1.735 1.002 2.976 2.619 3.494 4.555.519 1.936.252 3.957-.75 5.691-1.335 2.311-3.825 3.748-6.499 3.748zm-55.198-91.171c.41 0 .824.066 1.229.205 1.472.501 2.472 1.829 2.548 3.382 1.644 33.809 20.87 65.323 50.177 82.248 1.163.671 2.753.231 3.415-.914.334-.579.423-1.253.25-1.898s-.586-1.184-1.165-1.518c-28-16.171-46.279-46.28-47.705-78.579-.066-1.508.766-2.909 2.121-3.571 1.35-.66 2.963-.457 4.107.52l4.598 3.917c1.062.904 2.603.922 3.51.041.52-.505.793-1.176.77-1.888-.023-.714-.335-1.361-.878-1.824l-16.278-13.868c-.509-.435-1.159-.633-1.82-.59-.666.054-1.271.362-1.703.871l-13.871 16.278c-.463.543-.668 1.231-.577 1.94.09.706.467 1.324 1.059 1.737 1.039.728 2.561.459 3.466-.604l3.882-4.556c.734-.86 1.781-1.329 2.865-1.329z"/></g></g><g><g><path d="m188.639 233.138c-.457 0-.917-.042-1.376-.127l-21.031-3.872c-1.97-.362-3.681-1.471-4.817-3.12-1.138-1.65-1.563-3.645-1.2-5.614l3.871-21.031c.382-2.073 1.628-3.9 3.418-5.014 1.79-1.112 3.983-1.418 6.023-.841 3.671 1.04 5.987 4.896 5.273 8.776l-.628 3.408c24.943-16.681 40.328-45.285 40.328-75.326l-.001-.207c0-2.289 1.018-4.417 2.791-5.849 1.773-1.431 4.087-1.976 6.35-1.485 3.373.727 5.837 3.826 5.859 7.369l.001.105c0 34.726-17.688 67.938-46.36 87.427l2.84.522c1.971.362 3.682 1.471 4.818 3.12 1.137 1.65 1.563 3.644 1.2 5.614-.362 1.969-1.471 3.68-3.121 4.817-1.266.874-2.733 1.328-4.238 1.328zm-17.184-34.909c-.461 0-.911.127-1.313.377-.606.376-1.011.97-1.14 1.672l-3.871 21.031c-.121.658.021 1.322.399 1.872s.948.919 1.605 1.039l21.033 3.873c.654.122 1.32-.021 1.87-.399.551-.379.92-.949 1.04-1.605.121-.657-.021-1.322-.399-1.872s-.949-.919-1.605-1.039l-5.841-1.075c-1.539-.284-2.725-1.459-3.023-2.993-.299-1.53.358-3.061 1.673-3.898h.001c28.753-18.311 46.615-50.842 46.615-84.9-.009-1.293-.813-2.35-1.914-2.587-1.066-.23-1.807.207-2.155.488-.592.478-.932 1.188-.932 1.947l.001.207c0 32.695-17.254 63.766-45.029 81.097-1.275.796-2.9.763-4.139-.081-1.236-.841-1.859-2.335-1.589-3.806l1.139-6.186c.253-1.372-.503-2.717-1.72-3.062-.234-.066-.472-.1-.706-.1z"/></g></g><g><g><path d="m164.272 63.387c-2.896 0-5.647-1.603-6.888-4.259-.896-1.922-.941-4.138-.128-6.082.814-1.945 2.421-3.466 4.406-4.172l3.232-1.149c-11.54-5.141-24.232-7.848-36.896-7.848-15.962.001-31.65 4.211-45.368 12.176-1.146.664-2.446 1.015-3.761 1.015-3.06 0-5.791-1.837-6.957-4.681-1.412-3.441.045-7.493 3.389-9.424 15.955-9.214 34.178-14.085 52.699-14.086 14.801 0 29.655 3.181 43.15 9.22l-.978-2.752c-1.32-3.715.351-7.891 3.803-9.506 1.921-.898 4.139-.945 6.084-.131 1.946.814 3.468 2.421 4.173 4.408l7.162 20.15c.671 1.887.566 3.923-.294 5.732s-2.374 3.175-4.263 3.846l-19.948 7.091h.001c-.861.306-1.746.452-2.618.452zm-36.272-28.51c14.402 0 28.841 3.318 41.755 9.597 1.377.669 2.211 2.088 2.126 3.616-.084 1.523-1.067 2.838-2.505 3.349l-6.037 2.146c-.672.239-1.194.733-1.47 1.392s-.259 1.382.047 2.038c.536 1.146 1.984 1.678 3.298 1.21h.001l19.949-7.092c.63-.224 1.134-.679 1.421-1.281.286-.604.321-1.281.098-1.911l-7.163-20.151c-.238-.672-.732-1.193-1.391-1.469s-1.382-.257-2.036.048c-1.146.536-1.677 1.987-1.21 3.303l1.956 5.505c.516 1.448.109 3.049-1.036 4.077-1.141 1.025-2.771 1.256-4.15.591-13.52-6.521-28.614-9.967-43.653-9.967-17.645.001-35.002 4.64-50.196 13.416-1.167.674-1.722 2.077-1.263 3.195.394.959 1.309 1.579 2.331 1.579.436 0 .869-.117 1.252-.34 14.477-8.406 31.033-12.85 47.876-12.851z"/></g></g><g><g><g><path d="m222.526 36.582c-5.822 7.321-14.41 6.288-17.298 5.684-.525-.11-1.028.286-1.029.822v.011 12.822c0 8.767 7.173 15.94 15.94 15.94 8.767 0 15.94-7.173 15.94-15.94v-14.199c0-.083-.001-.166-.003-.249-.009-.452-.371-.825-.823-.838-6.622-.194-10.111-2.819-11.452-4.133-.365-.359-.956-.321-1.275.08z" fill="#f9c1a8"/></g></g><g><g><path d="m252.285 88.609c-.153-2.748-2.076-5.078-4.745-5.75l-12.379-3.116-4.375-2.157c-1.881-.927-3.071-2.842-3.071-4.939v-2.713c-2.257 1.229-4.838 1.928-7.575 1.928-2.552 0-4.967-.611-7.112-1.69v2.475c0 2.097-1.191 4.012-3.071 4.939l-4.375 2.157-12.379 3.116c-2.67.672-4.592 3.002-4.745 5.75l-1.212 16.205c-.056 1.002.742 1.846 1.746 1.846h62.761c1.004 0 1.802-.843 1.746-1.846z" fill="#70d6f9"/></g></g><g><g><path d="m230.786 77.585c-1.881-.927-3.071-2.842-3.071-4.939v-2.713c-2.257 1.229-4.838 1.928-7.575 1.928-2.552 0-4.967-.611-7.112-1.69v2.475c0 2.097-1.191 4.012-3.071 4.939l-.687.339c2.076 4.029 6.28 6.802 11.102 6.802s9.026-2.773 11.102-6.802z" fill="#f9c1a8"/></g></g><g><g><path d="m237.102 43.773c-.348 0-.689.029-1.023.081v12.067c0 .359-.016.715-.04 1.069.347.056.7.093 1.063.093 3.675 0 6.655-2.98 6.655-6.655s-2.98-6.655-6.655-6.655z" fill="#f9c1a8"/></g></g><g><g><path d="m204.199 55.921c0-1.651 0-8.784 0-12.067-.334-.052-.675-.081-1.023-.081-3.675 0-6.655 2.98-6.655 6.655s2.98 6.655 6.655 6.655c.363 0 .716-.037 1.063-.093-.023-.354-.04-.709-.04-1.069z" fill="#f9c1a8"/></g></g><g><g><g><path d="m203.176 43.773c.348 0 .689.029 1.023.081v-.755c0-.004 0-.007 0-.011.001-.536.504-.932 1.029-.822 2.888.604 11.476 1.637 17.298-5.684.319-.401.91-.439 1.276-.08 1.341 1.314 4.83 3.939 11.452 4.133.452.013.814.386.823.838.002.083.003.166.003.249v2.132c.334-.052.675-.081 1.023-.081 1.794 0 3.419.713 4.616 1.867v-11.97c0-5.008-4.097-9.105-9.105-9.105-1.699 0-3.287.48-4.651 1.298-1.594-2.66-4.498-4.456-7.808-4.456h-4.676c-9.049 0-16.453 7.404-16.453 16.453v7.372c1.137-.911 2.579-1.459 4.15-1.459z" fill="#414344"/></g></g></g><g><g><path d="m220.139 74.361c-10.168 0-18.439-8.272-18.439-18.44v-12.822c0-1.019.45-1.963 1.235-2.6.789-.641 1.813-.89 2.808-.679 2.839.593 9.97 1.314 14.827-4.794.592-.744 1.475-1.205 2.422-1.264.942-.067 1.88.288 2.56.952.991.973 3.926 3.249 9.775 3.421 1.788.054 3.215 1.498 3.25 3.288l.003.299v14.198c-.001 10.169-8.273 18.441-18.441 18.441zm-13.44-29.333v10.893c0 7.411 6.029 13.44 13.439 13.44 7.411 0 13.44-6.029 13.44-13.44v-12.88c-4.975-.435-8.247-2.14-10.208-3.621-5.546 5.863-12.763 6.046-16.671 5.608zm-1.984-.314h.004c-.001 0-.002 0-.004 0zm19.768-6.576c-.001.001-.002.002-.003.003.001-.001.002-.002.003-.003zm-1.957-1.556h.01z"/></g></g><g><g><g><path d="m241.718 47.458c-1.381 0-2.5-1.119-2.5-2.5v-11.288c0-3.642-2.963-6.604-6.605-6.604-1.174 0-2.338.326-3.366.942-.568.34-1.251.443-1.893.28-.644-.161-1.196-.571-1.537-1.14-1.197-1.999-3.368-3.241-5.664-3.241h-4.675c-7.693 0-13.953 6.26-13.953 13.953v6.765c0 1.381-1.119 2.5-2.5 2.5s-2.5-1.119-2.5-2.5v-6.765c0-10.451 8.502-18.953 18.953-18.953h4.675c3.278 0 6.406 1.429 8.589 3.834 1.242-.445 2.552-.676 3.871-.676 6.399 0 11.605 5.206 11.605 11.604v11.288c0 1.382-1.119 2.501-2.5 2.501z"/></g></g></g><g><g><path d="m220.371 65.51c-2.883 0-5.568-1.428-7.183-3.818-.773-1.145-.472-2.698.672-3.471 1.144-.774 2.699-.472 3.471.672.685 1.013 1.82 1.617 3.04 1.617 1.219 0 2.354-.604 3.039-1.617.771-1.145 2.326-1.447 3.471-.672 1.144.772 1.445 2.326.672 3.471-1.615 2.39-4.3 3.818-7.182 3.818z"/></g></g><g><g><path d="m251.751 109.16h-62.761c-1.162 0-2.287-.484-3.087-1.329-.799-.845-1.22-1.994-1.155-3.155l1.216-16.254c.211-3.814 2.876-7.043 6.627-7.988l12.123-3.051 4.137-2.04c1.034-.51 1.677-1.543 1.677-2.696v-1.958c0-1.381 1.119-2.5 2.5-2.5s2.5 1.119 2.5 2.5v1.958c0 3.072-1.711 5.823-4.467 7.181l-4.374 2.157c-.158.078-.324.139-.495.183l-12.38 3.116c-1.617.406-2.766 1.799-2.858 3.464l-1.154 15.412h61.142l-1.149-15.365c-.096-1.713-1.245-3.105-2.862-3.512l-12.379-3.116c-.171-.044-.337-.104-.495-.183l-4.376-2.157c-2.755-1.357-4.466-4.109-4.466-7.181v-2.271c0-1.381 1.119-2.5 2.5-2.5s2.5 1.119 2.5 2.5v2.271c0 1.136.658 2.194 1.677 2.696l4.138 2.04 12.122 3.051c3.751.944 6.415 4.174 6.631 8.035l1.209 16.159c.067 1.209-.354 2.358-1.152 3.203-.802.846-1.927 1.33-3.089 1.33z"/></g></g><g><g><path d="m240.824 108.61c-1.381 0-2.5-1.119-2.5-2.5v-13.735c0-1.381 1.119-2.5 2.5-2.5s2.5 1.119 2.5 2.5v13.735c0 1.381-1.119 2.5-2.5 2.5z"/></g></g><g><g><path d="m199.917 108.61c-1.381 0-2.5-1.119-2.5-2.5v-13.735c0-1.381 1.119-2.5 2.5-2.5s2.5 1.119 2.5 2.5v13.735c0 1.381-1.119 2.5-2.5 2.5z"/></g></g><g><g><g><circle cx="214.019" cy="50.375" r="2.998"/></g></g><g><g><circle cx="226.455" cy="50.375" r="2.998"/></g></g></g><g><g><path d="m220.371 87.227c-5.431 0-10.453-2.97-13.106-7.749-.67-1.208-.235-2.729.972-3.399 1.206-.671 2.729-.235 3.399.972 1.772 3.193 5.12 5.177 8.735 5.177 3.626 0 6.978-1.992 8.746-5.198.668-1.209 2.19-1.646 3.396-.982 1.209.667 1.648 2.188.982 3.396-2.647 4.8-7.677 7.783-13.124 7.783z"/></g></g><g><g><path d="m237.102 59.583c-.325 0-.645-.021-.96-.056-1.372-.157-2.357-1.396-2.201-2.768s1.392-2.352 2.768-2.201c.13.016.26.024.394.024 2.291 0 4.155-1.864 4.155-4.155s-1.864-4.154-4.155-4.154c-.124 0-.247.006-.368.018-1.389.117-2.594-.882-2.723-2.256-.129-1.375.882-2.594 2.256-2.723.275-.025.553-.039.835-.039 5.048 0 9.155 4.106 9.155 9.154s-4.109 9.156-9.156 9.156z"/></g></g><g><g><path d="m203.177 59.583c-5.048 0-9.155-4.107-9.155-9.155s4.107-9.154 9.155-9.154c.275 0 .547.014.815.037 1.375.125 2.389 1.341 2.265 2.716-.125 1.374-1.33 2.375-2.716 2.265-.12-.012-.241-.018-.364-.018-2.291 0-4.155 1.863-4.155 4.154s1.864 4.155 4.155 4.155c.136 0 .27-.01.4-.023 1.383-.15 2.605.846 2.752 2.219s-.846 2.605-2.219 2.752c-.306.032-.618.052-.933.052z"/></g></g></g><g><g><path d="m123.164 180.8c-5.822 7.321-14.41 6.288-17.298 5.684-.525-.11-1.028.286-1.029.822v.011 12.822c0 8.767 7.173 15.94 15.94 15.94 8.767 0 15.94-7.173 15.94-15.94v-14.199c0-.083-.001-.166-.003-.249-.009-.452-.371-.825-.823-.838-6.622-.194-10.111-2.819-11.452-4.133-.365-.359-.956-.321-1.275.08z" fill="#f9c1a8"/></g></g><g><g><path d="m152.923 232.826c-.153-2.748-2.076-5.078-4.745-5.75l-12.379-3.116-4.375-2.157c-1.881-.927-3.071-2.842-3.071-4.939v-2.713c-2.257 1.229-4.838 1.928-7.575 1.928-2.552 0-4.967-.611-7.112-1.69v2.475c0 2.097-1.191 4.012-3.071 4.939l-4.375 2.157-12.379 3.116c-2.67.672-4.592 3.002-4.745 5.75l-1.212 16.205c-.056 1.002.742 1.846 1.746 1.846h62.761c1.004 0 1.802-.843 1.746-1.846z" fill="#70d6f9"/></g></g><g><g><path d="m131.423 221.803c-1.881-.927-3.071-2.842-3.071-4.939v-2.713c-2.257 1.229-4.838 1.928-7.575 1.928-2.552 0-4.967-.611-7.112-1.69v2.475c0 2.097-1.191 4.012-3.071 4.939l-.687.339c2.076 4.029 6.28 6.802 11.102 6.802s9.026-2.773 11.102-6.802z" fill="#f9c1a8"/></g></g><g><g><path d="m137.74 187.99c-.348 0-.689.029-1.023.081v12.067c0 .359-.016.715-.04 1.069.347.056.7.093 1.063.093 3.675 0 6.655-2.98 6.655-6.655s-2.98-6.655-6.655-6.655z" fill="#f9c1a8"/></g></g><g><g><path d="m104.837 200.139c0-1.651 0-8.784 0-12.067-.334-.052-.675-.081-1.023-.081-3.675 0-6.655 2.98-6.655 6.655s2.98 6.655 6.655 6.655c.363 0 .716-.037 1.063-.093-.023-.354-.04-.71-.04-1.069z" fill="#f9c1a8"/></g></g><g><g><g><path d="m103.814 187.99c.348 0 .689.029 1.023.081v-.755c0-.004 0-.007 0-.007.001-.54.504-.935 1.029-.825 2.888.604 11.476 1.637 17.298-5.684.319-.401.91-.439 1.276-.08 1.341 1.314 4.83 3.939 11.452 4.133.452.013.814.386.823.838.002.083.003.166.003.249v2.132c.334-.052.675-.081 1.023-.081 1.794 0 3.419.713 4.616 1.867v-11.97c0-5.008-4.097-9.105-9.105-9.105-1.699 0-3.287.48-4.651 1.298-1.594-2.66-4.498-4.456-7.808-4.456h-4.676c-9.049 0-16.453 7.404-16.453 16.453v7.372c1.137-.912 2.579-1.46 4.15-1.46z" fill="#414344"/></g></g></g><g><g><path d="m120.777 218.578c-10.168 0-18.44-8.271-18.44-18.439v-12.822c.001-1.02.451-1.962 1.234-2.599.788-.641 1.81-.89 2.804-.682 2.843.594 9.973 1.317 14.832-4.792.592-.746 1.476-1.207 2.425-1.265.951-.074 1.881.291 2.56.957.988.969 3.923 3.245 9.773 3.417 1.785.051 3.214 1.495 3.249 3.288l.003.298v14.199c0 10.169-8.273 18.44-18.44 18.44zm-13.44-29.333v10.894c0 7.41 6.029 13.439 13.44 13.439s13.44-6.029 13.44-13.439v-12.88c-4.977-.437-8.248-2.141-10.208-3.621-5.549 5.862-12.767 6.045-16.672 5.607zm28.479-1.893h.005c-.001 0-.003 0-.005 0zm-13.127-4.847c.001.001.002.002.002.003 0-.001-.001-.002-.002-.003zm.475-1.705h.01z"/></g></g><g><g><g><path d="m142.355 191.676c-1.381 0-2.5-1.119-2.5-2.5v-11.288c0-3.643-2.963-6.605-6.605-6.605-1.173 0-2.337.326-3.365.943-.568.341-1.249.444-1.893.28-.643-.161-1.196-.571-1.537-1.14-1.198-2-3.369-3.242-5.664-3.242h-4.675c-7.694 0-13.953 6.26-13.953 13.953v6.766c0 1.381-1.119 2.5-2.5 2.5s-2.5-1.119-2.5-2.5v-6.766c0-10.451 8.502-18.953 18.953-18.953h4.675c3.278 0 6.405 1.429 8.588 3.834 1.242-.445 2.552-.676 3.871-.676 6.399 0 11.605 5.206 11.605 11.605v11.288c0 1.382-1.119 2.501-2.5 2.501z"/></g></g></g><g><g><path d="m121.009 209.728c-2.882 0-5.567-1.428-7.183-3.818-.773-1.144-.473-2.698.671-3.471 1.145-.773 2.699-.472 3.471.672.685 1.013 1.821 1.617 3.04 1.617s2.355-.604 3.039-1.617c.772-1.144 2.326-1.446 3.471-.672 1.144.772 1.445 2.326.672 3.471-1.613 2.39-4.298 3.818-7.181 3.818z"/></g></g><g><g><path d="m152.39 253.377h-62.762c-1.163 0-2.288-.484-3.087-1.329s-1.22-1.995-1.155-3.156l1.215-16.252c.212-3.814 2.877-7.044 6.628-7.988l12.122-3.051 4.137-2.04c1.034-.51 1.677-1.543 1.677-2.696v-1.959c0-1.381 1.119-2.5 2.5-2.5s2.5 1.119 2.5 2.5v1.959c0 3.07-1.711 5.822-4.465 7.181l-4.375 2.157c-.158.078-.324.139-.495.183l-12.379 3.116c-1.618.406-2.767 1.799-2.859 3.465l-1.152 15.411h61.141l-1.149-15.364c-.096-1.713-1.245-3.105-2.862-3.512l-12.379-3.116c-.171-.044-.337-.104-.495-.183l-4.375-2.157c-2.755-1.358-4.466-4.11-4.466-7.181v-2.271c0-1.381 1.119-2.5 2.5-2.5 1.38 0 2.5 1.119 2.5 2.5v2.271c0 1.152.644 2.186 1.678 2.696l4.137 2.04 12.122 3.051c3.751.944 6.415 4.174 6.631 8.035l1.209 16.158c.068 1.207-.352 2.357-1.15 3.202-.803.846-1.929 1.33-3.092 1.33z"/></g></g><g><g><path d="m141.463 252.827c-1.381 0-2.5-1.119-2.5-2.5v-13.735c0-1.381 1.119-2.5 2.5-2.5s2.5 1.119 2.5 2.5v13.735c0 1.381-1.119 2.5-2.5 2.5z"/></g></g><g><g><path d="m100.555 252.827c-1.381 0-2.5-1.119-2.5-2.5v-13.735c0-1.381 1.119-2.5 2.5-2.5s2.5 1.119 2.5 2.5v13.735c0 1.381-1.119 2.5-2.5 2.5z"/></g></g><g><g><g><circle cx="114.657" cy="194.592" r="2.998"/></g></g><g><g><circle cx="127.093" cy="194.592" r="2.998"/></g></g></g><g><g><path d="m121.009 231.443c-5.432 0-10.454-2.97-13.106-7.75-.67-1.207-.234-2.729.973-3.398 1.208-.672 2.729-.234 3.399.973 1.771 3.192 5.118 5.176 8.734 5.176 3.626 0 6.978-1.992 8.746-5.198.668-1.209 2.188-1.649 3.396-.982s1.648 2.188.982 3.396c-2.648 4.801-7.676 7.783-13.124 7.783z"/></g></g><g><g><path d="m137.739 203.801c-.32 0-.637-.021-.949-.055-1.372-.15-2.363-1.386-2.213-2.758s1.379-2.355 2.758-2.213c.133.015.268.025.404.025 2.291 0 4.155-1.864 4.155-4.155s-1.864-4.155-4.155-4.155c-.123 0-.246.006-.366.018-1.385.118-2.594-.881-2.724-2.255-.129-1.375.881-2.594 2.255-2.724.274-.025.554-.039.835-.039 5.048 0 9.155 4.107 9.155 9.155s-4.107 9.156-9.155 9.156z"/></g></g><g><g><path d="m103.814 203.801c-5.048 0-9.155-4.107-9.155-9.155s4.107-9.155 9.155-9.155c.275 0 .547.014.815.037 1.375.125 2.389 1.341 2.265 2.716-.124 1.374-1.339 2.382-2.715 2.265-.12-.012-.242-.018-.365-.018-2.291 0-4.155 1.864-4.155 4.155s1.864 4.155 4.155 4.155c.132 0 .262-.01.391-.023 1.374-.163 2.609.836 2.762 2.208.152 1.372-.836 2.608-2.208 2.761-.31.034-.626.054-.945.054z"/></g></g><g><g><path d="m37.785 36.582c-5.822 7.321-14.41 6.288-17.298 5.684-.525-.11-1.028.286-1.029.822v.011 12.822c0 8.767 7.173 15.94 15.94 15.94 8.767 0 15.94-7.173 15.94-15.94v-14.199c0-.083-.001-.166-.003-.249-.009-.452-.371-.825-.823-.838-6.622-.194-10.111-2.819-11.452-4.133-.366-.359-.957-.321-1.275.08z" fill="#f9c1a8"/></g></g><g><g><path d="m67.543 88.609c-.153-2.748-2.076-5.078-4.745-5.75l-12.379-3.116-4.375-2.157c-1.881-.927-3.071-2.842-3.071-4.939v-2.713c-2.257 1.229-4.838 1.928-7.575 1.928-2.552 0-4.967-.611-7.112-1.69v2.475c0 2.097-1.191 4.012-3.071 4.939l-4.375 2.157-12.38 3.115c-2.67.672-4.592 3.002-4.745 5.75l-1.212 16.205c-.056 1.002.742 1.846 1.746 1.846h62.761c1.004 0 1.802-.843 1.746-1.846z" fill="#70d6f9"/></g></g><g><g><path d="m46.044 77.585c-1.881-.927-3.071-2.842-3.071-4.939v-2.713c-2.257 1.229-4.838 1.928-7.575 1.928-2.552 0-4.967-.611-7.112-1.69v2.475c0 2.097-1.191 4.012-3.071 4.939l-.687.339c2.076 4.029 6.28 6.802 11.102 6.802s9.026-2.773 11.102-6.802z" fill="#f9c1a8"/></g></g><g><g><path d="m52.36 43.773c-.348 0-.689.029-1.023.081v12.067c0 .359-.016.715-.04 1.069.347.056.7.093 1.063.093 3.675 0 6.655-2.98 6.655-6.655s-2.979-6.655-6.655-6.655z" fill="#f9c1a8"/></g></g><g><g><path d="m19.458 55.921c0-1.651 0-8.784 0-12.067-.334-.052-.675-.081-1.023-.081-3.675 0-6.655 2.98-6.655 6.655s2.98 6.655 6.655 6.655c.363 0 .716-.037 1.063-.093-.024-.354-.04-.709-.04-1.069z" fill="#f9c1a8"/></g></g><g><g><g><path d="m18.435 43.773c.348 0 .689.029 1.023.081v-.755c0-.004 0-.007 0-.011.001-.536.504-.932 1.029-.822 2.888.604 11.476 1.637 17.298-5.684.319-.401.91-.439 1.276-.08 1.341 1.314 4.83 3.939 11.452 4.133.452.013.814.386.823.838.002.083.003.166.003.249v2.132c.334-.052.675-.081 1.023-.081 1.794 0 3.419.713 4.616 1.867v-11.97c0-5.008-4.097-9.105-9.105-9.105-1.699 0-3.287.48-4.651 1.298-1.594-2.66-4.498-4.456-7.808-4.456h-4.676c-9.049 0-16.453 7.404-16.453 16.453v7.372c1.136-.911 2.578-1.459 4.15-1.459z" fill="#414344"/></g></g></g><g><g><path d="m35.397 74.361c-10.168 0-18.44-8.272-18.44-18.44v-12.822c.001-1.021.452-1.964 1.236-2.601.789-.64 1.812-.89 2.807-.678 2.839.594 9.968 1.316 14.827-4.794 0-.001.001-.001.001-.002.592-.744 1.476-1.204 2.423-1.263.952-.056 1.879.289 2.558.955.99.971 3.925 3.247 9.775 3.419 1.787.054 3.213 1.497 3.25 3.285l.003.302v14.198c0 10.169-8.272 18.441-18.44 18.441zm-13.439-29.333v10.893c0 7.411 6.029 13.44 13.44 13.44s13.44-6.029 13.44-13.44v-12.88c-4.975-.435-8.248-2.14-10.208-3.621-5.548 5.863-12.765 6.047-16.672 5.608zm-1.984-.314h.003c-.001 0-.002 0-.003 0zm19.766-6.574c-.001.001-.001.001-.002.002.001 0 .002-.001.002-.002z"/></g></g><g><g><g><path d="m56.976 47.458c-1.381 0-2.5-1.119-2.5-2.5v-11.288c0-3.642-2.963-6.604-6.605-6.604-1.174 0-2.337.326-3.365.942-.569.34-1.25.443-1.893.28-.643-.161-1.196-.571-1.537-1.14-1.198-1.999-3.368-3.241-5.664-3.241h-4.675c-7.694 0-13.953 6.26-13.953 13.953v6.765c0 1.381-1.119 2.5-2.5 2.5s-2.5-1.119-2.5-2.5v-6.765c0-10.451 8.502-18.953 18.953-18.953h4.675c3.278 0 6.405 1.429 8.589 3.834 1.242-.445 2.551-.676 3.871-.676 6.399 0 11.605 5.206 11.605 11.604v11.288c-.001 1.382-1.12 2.501-2.501 2.501z"/></g></g></g><g><g><path d="m35.629 65.51c-2.882 0-5.567-1.428-7.183-3.818-.773-1.144-.473-2.698.671-3.471 1.145-.774 2.699-.472 3.471.672.685 1.013 1.821 1.617 3.04 1.617s2.355-.604 3.039-1.617c.772-1.145 2.326-1.447 3.471-.672 1.144.772 1.445 2.326.672 3.471-1.613 2.39-4.298 3.818-7.181 3.818z"/></g></g><g><g><path d="m67.01 109.16h-62.761c-1.163 0-2.288-.484-3.087-1.33-.799-.845-1.22-1.995-1.155-3.155l1.215-16.253c.212-3.814 2.877-7.044 6.628-7.988l12.122-3.051 4.137-2.04c1.035-.51 1.677-1.543 1.677-2.696v-1.958c0-1.381 1.119-2.5 2.5-2.5s2.5 1.119 2.5 2.5v1.958c0 3.072-1.711 5.823-4.466 7.181l-4.375 2.157c-.158.078-.324.139-.495.183l-12.38 3.115c-1.617.406-2.767 1.799-2.859 3.465l-1.152 15.412h61.141l-1.15-15.365c-.096-1.713-1.245-3.105-2.862-3.512l-12.379-3.116c-.171-.044-.337-.104-.495-.183l-4.375-2.157c-2.754-1.357-4.466-4.109-4.466-7.181v-2.271c0-1.381 1.119-2.5 2.5-2.5s2.5 1.119 2.5 2.5v2.271c0 1.153.643 2.187 1.676 2.696l4.138 2.04 12.122 3.051c3.75.944 6.416 4.174 6.631 8.035l1.209 16.159c.067 1.209-.354 2.358-1.153 3.203s-1.924 1.33-3.086 1.33z"/></g></g><g><g><path d="m56.083 108.61c-1.381 0-2.5-1.119-2.5-2.5v-13.735c0-1.381 1.119-2.5 2.5-2.5s2.5 1.119 2.5 2.5v13.735c0 1.381-1.119 2.5-2.5 2.5z"/></g></g><g><g><path d="m15.175 108.61c-1.381 0-2.5-1.119-2.5-2.5v-13.735c0-1.381 1.119-2.5 2.5-2.5s2.5 1.119 2.5 2.5v13.735c0 1.381-1.119 2.5-2.5 2.5z"/></g></g><g><g><g><circle cx="29.278" cy="50.375" r="2.998"/></g></g><g><g><circle cx="41.713" cy="50.375" r="2.998"/></g></g></g><g><g><path d="m35.629 87.227c-5.431 0-10.453-2.97-13.106-7.75-.67-1.207-.234-2.729.973-3.398 1.208-.673 2.729-.234 3.399.973 1.772 3.192 5.119 5.176 8.734 5.176 3.626 0 6.978-1.992 8.747-5.198.667-1.209 2.187-1.65 3.396-.982 1.209.667 1.648 2.188.981 3.396-2.647 4.8-7.676 7.783-13.124 7.783z"/></g></g><g><g><path d="m52.36 59.583c-.326 0-.645-.021-.96-.056-1.372-.157-2.357-1.396-2.201-2.768s1.397-2.352 2.767-2.201c.129.016.261.024.394.024 2.291 0 4.155-1.864 4.155-4.155s-1.864-4.154-4.155-4.154c-.125 0-.247.006-.369.018-1.369.122-2.593-.882-2.722-2.256-.128-1.375.881-2.594 2.256-2.723.275-.025.553-.039.834-.039 5.048 0 9.155 4.106 9.155 9.154s-4.106 9.156-9.154 9.156z"/></g></g><g><g><path d="m18.435 59.583c-5.048 0-9.155-4.107-9.155-9.155s4.107-9.154 9.155-9.154c.276 0 .548.014.816.037 1.375.125 2.389 1.341 2.265 2.716s-1.345 2.394-2.715 2.265c-.121-.012-.242-.018-.366-.018-2.291 0-4.155 1.863-4.155 4.154s1.864 4.155 4.155 4.155c.136 0 .27-.01.402-.023 1.377-.153 2.604.847 2.751 2.22s-.847 2.604-2.22 2.751c-.306.032-.618.052-.933.052z"/></g></g></g></g></svg>