<svg enable-background="new 0 0 256 256" height="512" viewBox="0 0 256 256" width="512" xmlns="http://www.w3.org/2000/svg"><g id="Layer_6"><g><g><g><path d="m33.93 20.92h191.584c2.866 0 5.19 2.324 5.19 5.19v203.78c0 2.866-2.324 5.19-5.19 5.19h-191.584c-2.866 0-5.19-2.324-5.19-5.19v-203.78c0-2.866 2.324-5.19 5.19-5.19z" fill="#edf4fc"/></g></g><g><g><path d="m33.93 20.92h191.584c2.866 0 5.19 2.324 5.19 5.19v15.299h-201.964v-15.299c0-2.866 2.324-5.19 5.19-5.19z" fill="#5290db"/></g></g><g><g><path d="m28.74 52.385v177.505c0 2.866 2.324 5.19 5.19 5.19h191.584c2.866 0 5.19-2.324 5.19-5.19v-177.505z" fill="#3a70bf"/></g></g><g><g><path d="m28.74 220.201v9.689c0 2.866 2.324 5.19 5.19 5.19h191.584c2.866 0 5.19-2.324 5.19-5.19v-9.689z" fill="#67acef"/></g></g><g><g><path d="m215.825 52.385h14.879v167.816h-14.879z" fill="#5290db"/></g></g><g><g><path d="m208.752 20.92h16.762c2.866 0 5.19 2.324 5.19 5.19v15.299h-21.953v-20.489z" fill="#fc657e"/></g></g><g><g><path d="m147.336 6.841c-3.464-.645-6.194-3.319-6.852-6.713-.033-.17-.271-.17-.304 0-.659 3.393-3.388 6.068-6.852 6.713-.174.032-.174.265 0 .298 3.464.645 6.194 3.32 6.852 6.713.033.17.271.17.304 0 .658-3.393 3.388-6.068 6.852-6.713.174-.033.174-.266 0-.298z" fill="#f5c84c"/></g></g><g><g><path d="m20.332 178.883c-2.473-.46-4.421-2.37-4.891-4.792-.024-.122-.193-.122-.217 0-.47 2.422-2.419 4.331-4.892 4.792-.124.023-.124.189 0 .213 2.473.461 4.421 2.37 4.892 4.792.024.122.193.122.217 0 .47-2.422 2.419-4.331 4.891-4.792.124-.023.124-.19 0-.213z" fill="#fc657e"/></g></g><g><g><path d="m120.473 246.758h-1.824v-1.824c0-1.366-1.107-2.473-2.473-2.473s-2.473 1.107-2.473 2.473v1.824h-1.824c-1.366 0-2.473 1.107-2.473 2.473s1.107 2.473 2.473 2.473h1.824v1.824c0 1.366 1.107 2.473 2.473 2.473s2.473-1.107 2.473-2.473v-1.824h1.824c1.366 0 2.473-1.107 2.473-2.473s-1.107-2.473-2.473-2.473z" fill="#70d6f9"/></g></g><g><g><circle cx="109.384" cy="8.627" fill="#70d6f9" r="3.377"/></g></g><g><g><circle cx="242.384" cy="76.627" fill="#f5c84c" r="3.377"/></g></g><g><g><circle cx="147.384" cy="247.627" fill="#87d147" r="3.377"/></g></g><g><g><path d="m225.514 237.58h-191.584c-4.24 0-7.69-3.45-7.69-7.69v-203.78c0-4.241 3.45-7.69 7.69-7.69h191.584c4.24 0 7.69 3.45 7.69 7.69v203.78c0 4.24-3.45 7.69-7.69 7.69zm-191.584-214.16c-1.483 0-2.69 1.207-2.69 2.69v203.78c0 1.483 1.207 2.69 2.69 2.69h191.584c1.483 0 2.69-1.207 2.69-2.69v-203.78c0-1.483-1.207-2.69-2.69-2.69z"/></g></g><g><g><path d="m166.001 33.665h-72.721c-1.381 0-2.5-1.119-2.5-2.5s1.119-2.5 2.5-2.5h72.721c1.381 0 2.5 1.119 2.5 2.5s-1.119 2.5-2.5 2.5z"/></g></g><g><g><path d="m50.787 33.665h-10.62c-1.381 0-2.5-1.119-2.5-2.5s1.119-2.5 2.5-2.5h10.62c1.381 0 2.5 1.119 2.5 2.5s-1.12 2.5-2.5 2.5z"/></g></g><g><g><path d="m79.475 67.569h-36.1c-1.381 0-2.5-1.119-2.5-2.5s1.119-2.5 2.5-2.5h36.1c1.381 0 2.5 1.119 2.5 2.5s-1.119 2.5-2.5 2.5z"/></g></g><g><g><path d="m116.551 67.569h-25.368c-1.381 0-2.5-1.119-2.5-2.5s1.119-2.5 2.5-2.5h25.368c1.381 0 2.5 1.119 2.5 2.5s-1.119 2.5-2.5 2.5z"/></g></g><g><g><path d="m140.801 67.569h-6.546c-1.381 0-2.5-1.119-2.5-2.5s1.119-2.5 2.5-2.5h6.546c1.381 0 2.5 1.119 2.5 2.5s-1.119 2.5-2.5 2.5z"/></g></g><g><g><path d="m79.475 78.745h-36.1c-1.381 0-2.5-1.119-2.5-2.5s1.119-2.5 2.5-2.5h36.1c1.381 0 2.5 1.119 2.5 2.5s-1.119 2.5-2.5 2.5z"/></g></g><g><g><path d="m116.551 78.745h-25.368c-1.381 0-2.5-1.119-2.5-2.5s1.119-2.5 2.5-2.5h25.368c1.381 0 2.5 1.119 2.5 2.5s-1.119 2.5-2.5 2.5z"/></g></g><g><g><path d="m140.801 78.745h-6.546c-1.381 0-2.5-1.119-2.5-2.5s1.119-2.5 2.5-2.5h6.546c1.381 0 2.5 1.119 2.5 2.5s-1.119 2.5-2.5 2.5z"/></g></g><g><g><path d="m79.475 89.921h-36.1c-1.381 0-2.5-1.119-2.5-2.5s1.119-2.5 2.5-2.5h36.1c1.381 0 2.5 1.119 2.5 2.5s-1.119 2.5-2.5 2.5z"/></g></g><g><g><path d="m116.551 89.921h-25.368c-1.381 0-2.5-1.119-2.5-2.5s1.119-2.5 2.5-2.5h25.368c1.381 0 2.5 1.119 2.5 2.5s-1.119 2.5-2.5 2.5z"/></g></g><g><g><path d="m140.801 89.921h-6.546c-1.381 0-2.5-1.119-2.5-2.5s1.119-2.5 2.5-2.5h6.546c1.381 0 2.5 1.119 2.5 2.5s-1.119 2.5-2.5 2.5z"/></g></g><g><g><path d="m79.475 101.097h-36.1c-1.381 0-2.5-1.119-2.5-2.5s1.119-2.5 2.5-2.5h36.1c1.381 0 2.5 1.119 2.5 2.5s-1.119 2.5-2.5 2.5z"/></g></g><g><g><path d="m116.551 101.097h-25.368c-1.381 0-2.5-1.119-2.5-2.5s1.119-2.5 2.5-2.5h25.368c1.381 0 2.5 1.119 2.5 2.5s-1.119 2.5-2.5 2.5z"/></g></g><g><g><path d="m79.475 112.272h-36.1c-1.381 0-2.5-1.119-2.5-2.5s1.119-2.5 2.5-2.5h36.1c1.381 0 2.5 1.119 2.5 2.5s-1.119 2.5-2.5 2.5z"/></g></g><g><g><path d="m116.551 112.272h-25.368c-1.381 0-2.5-1.119-2.5-2.5s1.119-2.5 2.5-2.5h25.368c1.381 0 2.5 1.119 2.5 2.5s-1.119 2.5-2.5 2.5z"/></g></g><g><g><path d="m140.801 112.272h-6.546c-1.381 0-2.5-1.119-2.5-2.5s1.119-2.5 2.5-2.5h6.546c1.381 0 2.5 1.119 2.5 2.5s-1.119 2.5-2.5 2.5z"/></g></g><g><g><path d="m79.475 123.449h-36.1c-1.381 0-2.5-1.119-2.5-2.5s1.119-2.5 2.5-2.5h36.1c1.381 0 2.5 1.119 2.5 2.5s-1.119 2.5-2.5 2.5z"/></g></g><g><g><path d="m116.551 123.449h-25.368c-1.381 0-2.5-1.119-2.5-2.5s1.119-2.5 2.5-2.5h25.368c1.381 0 2.5 1.119 2.5 2.5s-1.119 2.5-2.5 2.5z"/></g></g><g><g><path d="m79.475 134.625h-36.1c-1.381 0-2.5-1.119-2.5-2.5s1.119-2.5 2.5-2.5h36.1c1.381 0 2.5 1.119 2.5 2.5s-1.119 2.5-2.5 2.5z"/></g></g><g><g><path d="m116.551 134.625h-25.368c-1.381 0-2.5-1.119-2.5-2.5s1.119-2.5 2.5-2.5h25.368c1.381 0 2.5 1.119 2.5 2.5s-1.119 2.5-2.5 2.5z"/></g></g><g><g><path d="m79.475 145.8h-36.1c-1.381 0-2.5-1.119-2.5-2.5s1.119-2.5 2.5-2.5h36.1c1.381 0 2.5 1.119 2.5 2.5s-1.119 2.5-2.5 2.5z"/></g></g><g><g><path d="m116.551 145.8h-25.368c-1.381 0-2.5-1.119-2.5-2.5s1.119-2.5 2.5-2.5h25.368c1.381 0 2.5 1.119 2.5 2.5s-1.119 2.5-2.5 2.5z"/></g></g><g><g><path d="m140.801 145.8h-6.546c-1.381 0-2.5-1.119-2.5-2.5s1.119-2.5 2.5-2.5h6.546c1.381 0 2.5 1.119 2.5 2.5s-1.119 2.5-2.5 2.5z"/></g></g><g><g><path d="m79.475 156.976h-36.1c-1.381 0-2.5-1.119-2.5-2.5s1.119-2.5 2.5-2.5h36.1c1.381 0 2.5 1.119 2.5 2.5s-1.119 2.5-2.5 2.5z"/></g></g><g><g><path d="m116.551 156.976h-25.368c-1.381 0-2.5-1.119-2.5-2.5s1.119-2.5 2.5-2.5h25.368c1.381 0 2.5 1.119 2.5 2.5s-1.119 2.5-2.5 2.5z"/></g></g><g><g><path d="m79.475 168.152h-36.1c-1.381 0-2.5-1.119-2.5-2.5s1.119-2.5 2.5-2.5h36.1c1.381 0 2.5 1.119 2.5 2.5s-1.119 2.5-2.5 2.5z"/></g></g><g><g><path d="m116.551 168.152h-25.368c-1.381 0-2.5-1.119-2.5-2.5s1.119-2.5 2.5-2.5h25.368c1.381 0 2.5 1.119 2.5 2.5s-1.119 2.5-2.5 2.5z"/></g></g><g><g><path d="m79.475 179.328h-36.1c-1.381 0-2.5-1.119-2.5-2.5s1.119-2.5 2.5-2.5h36.1c1.381 0 2.5 1.119 2.5 2.5s-1.119 2.5-2.5 2.5z"/></g></g><g><g><path d="m116.551 179.328h-25.368c-1.381 0-2.5-1.119-2.5-2.5s1.119-2.5 2.5-2.5h25.368c1.381 0 2.5 1.119 2.5 2.5s-1.119 2.5-2.5 2.5z"/></g></g><g><g><path d="m79.475 190.504h-36.1c-1.381 0-2.5-1.119-2.5-2.5s1.119-2.5 2.5-2.5h36.1c1.381 0 2.5 1.119 2.5 2.5s-1.119 2.5-2.5 2.5z"/></g></g><g><g><path d="m116.551 190.504h-25.368c-1.381 0-2.5-1.119-2.5-2.5s1.119-2.5 2.5-2.5h25.368c1.381 0 2.5 1.119 2.5 2.5s-1.119 2.5-2.5 2.5z"/></g></g><g><g><path d="m174.704 101.097h-16.851c-1.381 0-2.5-1.119-2.5-2.5s1.119-2.5 2.5-2.5h16.851c1.381 0 2.5 1.119 2.5 2.5s-1.12 2.5-2.5 2.5z"/></g></g><g><g><path d="m174.704 123.449h-16.851c-1.381 0-2.5-1.119-2.5-2.5s1.119-2.5 2.5-2.5h16.851c1.381 0 2.5 1.119 2.5 2.5s-1.12 2.5-2.5 2.5z"/></g></g><g><g><path d="m174.704 134.625h-16.851c-1.381 0-2.5-1.119-2.5-2.5s1.119-2.5 2.5-2.5h16.851c1.381 0 2.5 1.119 2.5 2.5s-1.12 2.5-2.5 2.5z"/></g></g><g><g><path d="m174.704 156.976h-16.851c-1.381 0-2.5-1.119-2.5-2.5s1.119-2.5 2.5-2.5h16.851c1.381 0 2.5 1.119 2.5 2.5s-1.12 2.5-2.5 2.5z"/></g></g><g><g><path d="m174.704 168.152h-8.069c-1.381 0-2.5-1.119-2.5-2.5s1.119-2.5 2.5-2.5h8.069c1.381 0 2.5 1.119 2.5 2.5s-1.12 2.5-2.5 2.5z"/></g></g><g><g><path d="m174.704 179.328h-8.069c-1.381 0-2.5-1.119-2.5-2.5s1.119-2.5 2.5-2.5h8.069c1.381 0 2.5 1.119 2.5 2.5s-1.12 2.5-2.5 2.5z"/></g></g><g><g><path d="m174.704 190.504h-16.851c-1.381 0-2.5-1.119-2.5-2.5s1.119-2.5 2.5-2.5h16.851c1.381 0 2.5 1.119 2.5 2.5s-1.12 2.5-2.5 2.5z"/></g></g><g><g><path d="m202.998 67.569h-16.851c-1.381 0-2.5-1.119-2.5-2.5s1.119-2.5 2.5-2.5h16.851c1.381 0 2.5 1.119 2.5 2.5s-1.119 2.5-2.5 2.5z"/></g></g><g><g><path d="m194.217 78.745h-8.069c-1.381 0-2.5-1.119-2.5-2.5s1.119-2.5 2.5-2.5h8.069c1.381 0 2.5 1.119 2.5 2.5s-1.119 2.5-2.5 2.5z"/></g></g><g><g><path d="m194.217 89.921h-8.069c-1.381 0-2.5-1.119-2.5-2.5s1.119-2.5 2.5-2.5h8.069c1.381 0 2.5 1.119 2.5 2.5s-1.119 2.5-2.5 2.5z"/></g></g><g><g><path d="m202.998 101.097h-16.851c-1.381 0-2.5-1.119-2.5-2.5s1.119-2.5 2.5-2.5h16.851c1.381 0 2.5 1.119 2.5 2.5s-1.119 2.5-2.5 2.5z"/></g></g><g><g><path d="m202.998 112.272h-16.851c-1.381 0-2.5-1.119-2.5-2.5s1.119-2.5 2.5-2.5h16.851c1.381 0 2.5 1.119 2.5 2.5s-1.119 2.5-2.5 2.5z"/></g></g><g><g><path d="m194.217 123.449h-8.069c-1.381 0-2.5-1.119-2.5-2.5s1.119-2.5 2.5-2.5h8.069c1.381 0 2.5 1.119 2.5 2.5s-1.119 2.5-2.5 2.5z"/></g></g><g><g><path d="m194.217 134.625h-8.069c-1.381 0-2.5-1.119-2.5-2.5s1.119-2.5 2.5-2.5h8.069c1.381 0 2.5 1.119 2.5 2.5s-1.119 2.5-2.5 2.5z"/></g></g><g><g><path d="m189.726 145.8h-3.579c-1.381 0-2.5-1.119-2.5-2.5s1.119-2.5 2.5-2.5h3.579c1.381 0 2.5 1.119 2.5 2.5s-1.119 2.5-2.5 2.5z"/></g></g><g><g><path d="m202.998 156.976h-16.851c-1.381 0-2.5-1.119-2.5-2.5s1.119-2.5 2.5-2.5h16.851c1.381 0 2.5 1.119 2.5 2.5s-1.119 2.5-2.5 2.5z"/></g></g><g><g><path d="m202.998 168.152h-16.851c-1.381 0-2.5-1.119-2.5-2.5s1.119-2.5 2.5-2.5h16.851c1.381 0 2.5 1.119 2.5 2.5s-1.119 2.5-2.5 2.5z"/></g></g><g><g><path d="m202.998 179.328h-16.851c-1.381 0-2.5-1.119-2.5-2.5s1.119-2.5 2.5-2.5h16.851c1.381 0 2.5 1.119 2.5 2.5s-1.119 2.5-2.5 2.5z"/></g></g><g><g><path d="m202.998 190.504h-16.851c-1.381 0-2.5-1.119-2.5-2.5s1.119-2.5 2.5-2.5h16.851c1.381 0 2.5 1.119 2.5 2.5s-1.119 2.5-2.5 2.5z"/></g></g><g><g><path d="m229.583 43.909h-199.77c-1.381 0-2.5-1.119-2.5-2.5s1.119-2.5 2.5-2.5h199.77c1.381 0 2.5 1.119 2.5 2.5s-1.119 2.5-2.5 2.5z"/></g></g><g><g><path d="m230.146 54.885h-200.938c-1.381 0-2.5-1.119-2.5-2.5s1.119-2.5 2.5-2.5h200.938c1.381 0 2.5 1.119 2.5 2.5s-1.119 2.5-2.5 2.5z"/></g></g><g><g><path d="m230.333 222.701h-200.958c-1.381 0-2.5-1.119-2.5-2.5s1.119-2.5 2.5-2.5h200.958c1.381 0 2.5 1.119 2.5 2.5s-1.119 2.5-2.5 2.5z"/></g></g><g><g><path d="m215.825 221.781c-1.381 0-2.5-1.119-2.5-2.5v-165.823c0-1.381 1.119-2.5 2.5-2.5s2.5 1.119 2.5 2.5v165.823c0 1.381-1.119 2.5-2.5 2.5z"/></g></g><g><g><path d="m208.751 43.125c-1.381 0-2.5-1.119-2.5-2.5v-18.687c0-1.381 1.119-2.5 2.5-2.5s2.5 1.119 2.5 2.5v18.687c0 1.38-1.119 2.5-2.5 2.5z"/></g></g></g></g></svg>