<svg enable-background="new 0 0 256 256" height="512" viewBox="0 0 256 256" width="512" xmlns="http://www.w3.org/2000/svg"><g id="Layer_64"><g><g><g><path d="m36.5 43.25v185.18c0 2.938 2.382 5.32 5.32 5.32h172.36c2.938 0 5.32-2.382 5.32-5.32v-185.18z" fill="#9be5f9"/></g></g><g><g><path d="m198.06 98.363h-40.743c-.024 16.171-13.14 29.273-29.317 29.273s-29.292-13.102-29.317-29.273h-40.743c-1.787 0-3.235 1.448-3.235 3.235v107.825c0 1.787 1.448 3.235 3.235 3.235h140.12c1.787 0 3.235-1.448 3.235-3.235v-107.825c0-1.787-1.448-3.235-3.235-3.235z" fill="#edf4fc"/></g></g><g><g><path d="m214.181 236.25h-172.362c-4.312 0-7.819-3.508-7.819-7.819v-185.181c0-1.381 1.119-2.5 2.5-2.5s2.5 1.119 2.5 2.5v185.181c0 1.555 1.265 2.819 2.819 2.819h172.361c1.555 0 2.819-1.265 2.819-2.819v-185.181c0-1.381 1.119-2.5 2.5-2.5s2.5 1.119 2.5 2.5v185.181c.001 4.311-3.507 7.819-7.818 7.819z"/></g></g><g><g><path d="m198.06 215.158h-140.121c-3.162 0-5.734-2.573-5.734-5.735v-107.825c0-3.162 2.573-5.734 5.735-5.734h40.185c1.381 0 2.5 1.119 2.5 2.5s-1.119 2.5-2.5 2.5h-40.185c-.405 0-.735.329-.735.734v107.825c0 .405.329.735.734.735h140.12c.405 0 .735-.33.735-.735v-107.825c0-.405-.33-.734-.735-.734h-40.31c-1.381 0-2.5-1.119-2.5-2.5s1.119-2.5 2.5-2.5h40.31c3.162 0 5.735 2.572 5.735 5.734v107.825c.001 3.162-2.572 5.735-5.734 5.735z"/></g></g><g><g><path d="m88.64 145.66c.731-.712.327-1.953-.682-2.1l-3.88-.564c-.401-.058-.747-.31-.927-.673l-1.735-3.516c-.452-.915-1.756-.915-2.208 0l-1.735 3.516c-.179.363-.526.615-.927.673l-3.88.564c-1.01.147-1.413 1.387-.682 2.1l2.807 2.737c.29.283.422.69.354 1.089l-.663 3.864c-.172 1.006.883 1.772 1.786 1.298l3.47-1.824c.359-.188.787-.188 1.146 0l3.47 1.824c.903.475 1.958-.292 1.786-1.298l-.663-3.864c-.068-.399.064-.807.354-1.089z" fill="#f5c84c"/></g></g><g><g><path d="m112.925 145.66c.731-.712.327-1.953-.682-2.1l-3.88-.564c-.401-.058-.747-.31-.927-.673l-1.735-3.516c-.452-.915-1.756-.915-2.208 0l-1.735 3.516c-.179.363-.526.615-.927.673l-3.88.564c-1.01.147-1.413 1.387-.682 2.1l2.807 2.737c.29.283.422.69.354 1.089l-.663 3.864c-.172 1.006.883 1.772 1.786 1.298l3.47-1.824c.359-.188.787-.188 1.146 0l3.47 1.824c.903.475 1.958-.292 1.786-1.298l-.663-3.864c-.068-.399.064-.807.354-1.089z" fill="#f5c84c"/></g></g><g><g><path d="m136.328 145.66c.731-.712.327-1.953-.682-2.1l-3.88-.564c-.401-.058-.747-.31-.927-.673l-1.735-3.516c-.452-.915-1.756-.915-2.208 0l-1.735 3.516c-.179.363-.526.615-.927.673l-3.88.564c-1.01.147-1.413 1.387-.682 2.1l2.807 2.737c.29.283.422.69.354 1.089l-.663 3.864c-.172 1.006.883 1.772 1.786 1.298l3.47-1.824c.359-.188.787-.188 1.146 0l3.47 1.824c.903.475 1.958-.292 1.786-1.298l-.663-3.864c-.068-.399.064-.807.354-1.089z" fill="#f5c84c"/></g></g><g><g><path d="m159.73 145.66c.731-.712.327-1.953-.682-2.1l-3.88-.564c-.401-.058-.747-.31-.927-.673l-1.735-3.516c-.452-.915-1.756-.915-2.208 0l-1.735 3.516c-.179.363-.526.615-.927.673l-3.88.564c-1.01.147-1.413 1.387-.682 2.1l2.807 2.737c.29.283.422.69.354 1.089l-.663 3.864c-.172 1.006.883 1.772 1.786 1.298l3.47-1.824c.359-.188.787-.188 1.146 0l3.47 1.824c.903.475 1.958-.292 1.786-1.298l-.663-3.864c-.068-.399.064-.807.354-1.089z" fill="#f5c84c"/></g></g><g><g><path d="m184.016 145.66c.731-.712.327-1.953-.682-2.1l-3.88-.564c-.401-.058-.747-.31-.927-.673l-1.735-3.516c-.452-.915-1.756-.915-2.208 0l-1.735 3.516c-.179.363-.526.615-.927.673l-3.88.564c-1.01.147-1.413 1.387-.682 2.1l2.807 2.737c.29.283.422.69.354 1.089l-.663 3.864c-.172 1.006.883 1.772 1.786 1.298l3.47-1.824c.359-.188.787-.188 1.146 0l3.47 1.824c.903.475 1.958-.292 1.786-1.298l-.663-3.864c-.068-.399.064-.807.354-1.089z" fill="#f5c84c"/></g></g><g><g><circle cx="128" cy="98.318" fill="#5290db" r="29.318"/></g></g><g><g><path d="m214.18 22.25h-172.36c-2.938 0-5.32 2.382-5.32 5.32v15.68h183v-15.68c0-2.938-2.382-5.32-5.32-5.32z" fill="#5290db"/></g></g><g><g><path d="m59 22.25h-17.18c-2.938 0-5.32 2.382-5.32 5.32v15.68h22.5z" fill="#fc657e"/></g></g><g><g><path d="m29.332 178.883c-2.473-.46-4.421-2.37-4.891-4.792-.024-.122-.193-.122-.217 0-.47 2.422-2.419 4.331-4.892 4.792-.124.023-.124.189 0 .213 2.473.461 4.421 2.37 4.892 4.792.024.122.193.122.217 0 .47-2.422 2.419-4.331 4.891-4.792.124-.023.124-.19 0-.213z" fill="#f5c84c"/></g></g><g><g><circle cx="233.384" cy="76.627" fill="#87d147" r="3.377"/></g></g><g><g><path d="m146.952 249.159c-3.464.645-6.194 3.319-6.852 6.713-.033.17-.271.17-.304 0-.659-3.393-3.388-6.068-6.852-6.713-.174-.032-.174-.265 0-.298 3.464-.645 6.194-3.32 6.852-6.713.033-.17.271-.17.304 0 .658 3.393 3.388 6.068 6.852 6.713.174.033.174.266 0 .298z" fill="#fc657e"/></g></g><g><g><path d="m120.089 9.242h-1.824v1.824c0 1.366-1.107 2.473-2.473 2.473s-2.473-1.107-2.473-2.473v-1.824h-1.824c-1.366 0-2.473-1.107-2.473-2.473s1.107-2.473 2.473-2.473h1.824v-1.823c0-1.366 1.107-2.473 2.473-2.473s2.473 1.107 2.473 2.473v1.824h1.824c1.366 0 2.473 1.107 2.473 2.473s-1.108 2.472-2.473 2.472z" fill="#70d6f9"/></g></g><g><g><circle cx="147" cy="8.373" fill="#f5c84c" r="3.377"/></g></g><g><g><path d="m219.5 45.75h-183c-1.381 0-2.5-1.119-2.5-2.5v-15.681c0-4.312 3.508-7.819 7.819-7.819h172.361c4.312 0 7.819 3.508 7.819 7.819v15.681c.001 1.381-1.118 2.5-2.499 2.5zm-180.5-5h178v-13.181c0-1.555-1.265-2.819-2.819-2.819h-172.362c-1.555 0-2.819 1.265-2.819 2.819z"/></g></g><g><g><path d="m184 35.25h-111c-1.381 0-2.5-1.119-2.5-2.5s1.119-2.5 2.5-2.5h111c1.381 0 2.5 1.119 2.5 2.5s-1.119 2.5-2.5 2.5z"/></g></g><g><g><path d="m207.788 35.25h-10.885c-1.381 0-2.5-1.119-2.5-2.5s1.119-2.5 2.5-2.5h10.885c1.381 0 2.5 1.119 2.5 2.5s-1.119 2.5-2.5 2.5z"/></g></g><g><g><path d="m59 45.513c-1.381 0-2.5-1.119-2.5-2.5v-20.53c0-1.381 1.119-2.5 2.5-2.5s2.5 1.119 2.5 2.5v20.53c0 1.381-1.119 2.5-2.5 2.5z"/></g></g><g><g><circle cx="128" cy="94.635" fill="#f9c1a8" r="9.832"/></g></g><g><g><path d="m137.008 104.467h-18.016c-4.779 0-8.69 3.911-8.69 8.69v8.531c4.919 3.731 11.048 5.948 17.698 5.948s12.779-2.217 17.698-5.948v-8.531c0-4.779-3.911-8.69-8.69-8.69z" fill="#70d6f9"/></g></g><g><g><path d="m128 113.316c4.344 0 7.866-3.522 7.866-7.866 0-.334-.028-.66-.068-.983h-15.595c-.04.323-.068.65-.068.983-.001 4.344 3.521 7.866 7.865 7.866z" fill="#f9c1a8"/></g></g><g><g><path d="m128 106.967c-6.8 0-12.332-5.532-12.332-12.332s5.532-12.332 12.332-12.332 12.332 5.532 12.332 12.332-5.532 12.332-12.332 12.332zm0-19.664c-4.043 0-7.332 3.289-7.332 7.332s3.289 7.332 7.332 7.332 7.332-3.289 7.332-7.332-3.289-7.332-7.332-7.332z"/></g></g><g><g><path d="m128 115.816c-5.716 0-10.365-4.65-10.365-10.366 0-.272.013-.542.035-.81.115-1.376 1.326-2.407 2.7-2.282 1.376.115 2.397 1.324 2.282 2.7-.011.129-.018.26-.018.392 0 2.959 2.407 5.366 5.365 5.366s5.365-2.407 5.365-5.366c0-.143-.008-.284-.021-.423-.126-1.375.887-2.592 2.262-2.717 1.377-.144 2.592.888 2.717 2.262.026.289.042.581.042.878.001 5.716-4.648 10.366-10.364 10.366z"/></g></g><g><g><path d="m128 130.136c-17.544 0-31.817-14.273-31.817-31.817 0-17.546 14.273-31.819 31.817-31.819s31.817 14.273 31.817 31.818c0 17.544-14.273 31.818-31.817 31.818zm0-58.636c-14.787 0-26.817 12.03-26.817 26.818 0 14.787 12.03 26.817 26.817 26.817s26.817-12.03 26.817-26.817c0-14.788-12.03-26.818-26.817-26.818z"/></g></g><g><g><path d="m128 130.136c-17.544 0-31.817-14.273-31.817-31.817 0-17.546 14.273-31.819 31.817-31.819s31.817 14.273 31.817 31.818c0 17.544-14.273 31.818-31.817 31.818zm0-58.636c-14.787 0-26.817 12.03-26.817 26.818 0 14.787 12.03 26.817 26.817 26.817s26.817-12.03 26.817-26.817c0-14.788-12.03-26.818-26.817-26.818z"/></g></g><g><g><path d="m145.697 123.813c-1.381 0-2.5-1.119-2.5-2.5v-8.155c0-3.413-2.776-6.19-6.189-6.19h-18.016c-3.413 0-6.189 2.777-6.189 6.19v8.155c0 1.381-1.119 2.5-2.5 2.5s-2.5-1.119-2.5-2.5v-8.155c0-6.171 5.02-11.19 11.189-11.19h18.016c6.17 0 11.189 5.02 11.189 11.19v8.155c0 1.38-1.119 2.5-2.5 2.5z"/></g></g><g><g><path d="m84.931 157.294c-.593 0-1.188-.143-1.739-.433l-2.879-1.515-2.879 1.515c-1.269.664-2.774.557-3.931-.285-1.157-.841-1.726-2.239-1.483-3.649l.55-3.206-2.33-2.271c-1.023-.998-1.386-2.462-.944-3.822s1.595-2.334 3.011-2.541l3.221-.468 1.439-2.918c.633-1.282 1.914-2.078 3.344-2.079h.002c1.43 0 2.712.796 3.346 2.077l1.44 2.92 3.219.468c1.418.207 2.571 1.181 3.013 2.541s.079 2.824-.944 3.822l-2.33 2.271.55 3.208c.242 1.408-.326 2.807-1.483 3.647-.656.476-1.422.718-2.193.718zm-1.254-3.52h.01zm-8.106-8.109.966.941c.879.858 1.279 2.092 1.072 3.302l-.228 1.33 1.193-.628c1.087-.569 2.385-.573 3.474 0l1.193.628-.228-1.33c-.207-1.21.193-2.443 1.071-3.301l.967-.942-1.334-.194c-1.216-.177-2.266-.939-2.81-2.039l-.598-1.212-.597 1.21c-.541 1.1-1.591 1.863-2.808 2.041zm-.341-4.448c0 .001-.001.002-.001.003z"/></g></g><g><g><path d="m109.217 157.294c-.593 0-1.188-.144-1.739-.433l-2.88-1.515-2.879 1.515c-1.269.664-2.774.557-3.931-.285-1.157-.841-1.726-2.239-1.483-3.649l.55-3.205-2.33-2.271c-1.023-.998-1.386-2.462-.944-3.822s1.595-2.334 3.011-2.541l3.222-.468 1.439-2.918c.634-1.282 1.915-2.079 3.346-2.079s2.712.797 3.346 2.079l1.439 2.918 3.22.468c1.417.207 2.57 1.18 3.012 2.54s.08 2.825-.944 3.823l-2.329 2.271.55 3.206c.241 1.412-.328 2.81-1.485 3.65-.656.475-1.421.716-2.191.716zm-1.254-3.523h.01zm-3.364-3.588c.596 0 1.191.143 1.735.428l1.193.628-.228-1.329c-.207-1.21.193-2.444 1.072-3.302l.967-.942-1.335-.194c-1.219-.178-2.269-.941-2.811-2.044l-.596-1.207-.597 1.21c-.545 1.102-1.594 1.863-2.807 2.041l-1.338.194.966.941c.88.858 1.28 2.093 1.073 3.302l-.228 1.33 1.192-.628c.548-.286 1.145-.428 1.742-.428zm6.581-6.313c-.001.001-.002.001-.003.002zm-1.503-2.656.002.003c-.001-.001-.001-.002-.002-.003z"/></g></g><g><g><path d="m132.619 157.294c-.593 0-1.188-.144-1.739-.433l-2.88-1.515-2.879 1.515c-1.27.664-2.772.557-3.929-.283-1.157-.841-1.727-2.238-1.485-3.648l.55-3.208-2.329-2.271c-1.023-.996-1.387-2.461-.945-3.821.441-1.361 1.595-2.335 3.011-2.542l3.222-.468 1.439-2.918c.634-1.282 1.915-2.079 3.346-2.079s2.712.797 3.346 2.079l1.439 2.918 3.22.468c1.418.207 2.571 1.181 3.013 2.542.44 1.359.079 2.823-.945 3.821l-2.329 2.271.55 3.206c.241 1.412-.328 2.81-1.485 3.65-.656.475-1.42.716-2.191.716zm-1.254-3.523h.01zm-3.364-3.588c.596 0 1.19.142 1.733.427l1.195.629-.228-1.329c-.207-1.21.193-2.444 1.072-3.302l.967-.942-1.335-.194c-1.216-.178-2.265-.939-2.809-2.039l-.596-1.213-.597 1.21c-.545 1.102-1.594 1.863-2.807 2.041l-1.338.194.966.941c.88.858 1.28 2.093 1.073 3.302l-.228 1.33 1.192-.628c.547-.285 1.143-.427 1.74-.427zm6.582-6.314c-.001.001-.002.002-.003.003l.003-.003c-.001.001-.001.001 0 0zm0-.001c0 .001 0 .001 0 0z"/></g></g><g><g><path d="m156.021 157.294c-.593 0-1.188-.143-1.739-.433l-2.88-1.515-2.879 1.515c-1.27.664-2.772.557-3.929-.283-1.157-.841-1.727-2.238-1.485-3.648l.55-3.208-2.329-2.271c-1.023-.998-1.386-2.463-.944-3.823s1.595-2.333 3.01-2.54l3.222-.468 1.439-2.918c.634-1.282 1.915-2.079 3.346-2.079s2.712.797 3.346 2.079l1.439 2.918 3.22.468c1.418.207 2.571 1.181 3.013 2.541s.079 2.824-.944 3.822l-2.33 2.271.55 3.206c.242 1.409-.326 2.808-1.483 3.648-.655.476-1.421.718-2.193.718zm-1.253-3.52h.01zm-8.107-8.109.966.941c.88.858 1.28 2.093 1.073 3.302l-.228 1.33 1.193-.628c1.087-.569 2.384-.572 3.471-.001l1.195.629-.228-1.329c-.207-1.21.193-2.444 1.072-3.302l.967-.942-1.335-.194c-1.216-.178-2.265-.939-2.809-2.039l-.598-1.212-.597 1.21c-.541 1.1-1.591 1.863-2.808 2.041zm-.34-4.448c0 .001-.001.002-.001.003z"/></g></g><g><g><path d="m180.307 157.294c-.593 0-1.188-.143-1.739-.433l-2.879-1.515-2.879 1.515c-1.268.664-2.773.557-3.931-.285-1.157-.841-1.726-2.239-1.483-3.649l.55-3.206-2.33-2.271c-1.023-.998-1.386-2.462-.944-3.822s1.595-2.334 3.011-2.541l3.221-.468 1.439-2.918c.635-1.283 1.917-2.079 3.347-2.079h.002c1.43.001 2.711.797 3.344 2.079l1.439 2.918 3.219.468c1.418.207 2.571 1.181 3.013 2.541s.079 2.824-.944 3.822l-2.33 2.271.55 3.208c.242 1.408-.326 2.807-1.483 3.647-.656.476-1.422.718-2.193.718zm-1.254-3.52h.01zm-8.106-8.109.966.941c.879.858 1.279 2.092 1.072 3.302l-.228 1.33 1.193-.628c1.087-.569 2.385-.573 3.474 0l1.193.628-.228-1.33c-.207-1.21.193-2.443 1.071-3.301l.967-.942-1.334-.194c-1.219-.178-2.269-.941-2.811-2.044l-.596-1.207-.597 1.21c-.545 1.102-1.595 1.864-2.809 2.041zm9.821-4.451.002.003c-.001-.001-.001-.002-.002-.003z"/></g></g><g><g><path d="m181.871 174.726h-107.742c-1.381 0-2.5-1.119-2.5-2.5s1.119-2.5 2.5-2.5h107.742c1.381 0 2.5 1.119 2.5 2.5s-1.119 2.5-2.5 2.5z"/></g></g><g><g><path d="m181.871 185.292h-107.742c-1.381 0-2.5-1.119-2.5-2.5s1.119-2.5 2.5-2.5h107.742c1.381 0 2.5 1.119 2.5 2.5s-1.119 2.5-2.5 2.5z"/></g></g><g><g><path d="m181.871 195.858h-107.742c-1.381 0-2.5-1.119-2.5-2.5s1.119-2.5 2.5-2.5h107.742c1.381 0 2.5 1.119 2.5 2.5s-1.119 2.5-2.5 2.5z"/></g></g></g></g></svg>