<svg enable-background="new 0 0 256 256" height="512" viewBox="0 0 256 256" width="512" xmlns="http://www.w3.org/2000/svg"><g id="Layer_65"><g><g><g><path d="m36.5 43.25v185.18c0 2.938 2.382 5.32 5.32 5.32h172.36c2.938 0 5.32-2.382 5.32-5.32v-185.18z" fill="#b2e26d"/></g></g><g><g><path d="m214.181 236.25h-172.362c-4.312 0-7.819-3.508-7.819-7.819v-185.181c0-1.381 1.119-2.5 2.5-2.5s2.5 1.119 2.5 2.5v185.181c0 1.555 1.265 2.819 2.819 2.819h172.361c1.555 0 2.819-1.265 2.819-2.819v-185.181c0-1.381 1.119-2.5 2.5-2.5s2.5 1.119 2.5 2.5v185.181c.001 4.311-3.507 7.819-7.818 7.819z"/></g></g><g><g><path d="m195.881 80.285h-72.175c-4.375 0-7.955 3.58-7.955 7.955v5.594c0 1.389-.665 2.694-1.789 3.51l-2.316 1.682c-1.701 1.235-1.701 3.77 0 5.005l2.316 1.682c1.124.816 1.789 2.121 1.789 3.51v5.594c0 4.375 3.58 7.955 7.955 7.955h72.175c4.375 0 7.955-3.58 7.955-7.955v-26.577c0-4.375-3.58-7.955-7.955-7.955z" fill="#edf4fc"/></g></g><g><g><path d="m60.119 141.426h72.175c4.375 0 7.955 3.58 7.955 7.955v5.594c0 1.389.665 2.694 1.789 3.51l2.316 1.682c1.701 1.235 1.701 3.77 0 5.005l-2.316 1.682c-1.124.816-1.789 2.121-1.789 3.51v5.594c0 4.375-3.58 7.955-7.955 7.955h-72.175c-4.375 0-7.955-3.58-7.955-7.955v-26.578c0-4.375 3.58-7.954 7.955-7.954z" fill="#edf4fc"/></g></g><g><g><path d="m214.18 22.25h-172.36c-2.938 0-5.32 2.382-5.32 5.32v15.68h183v-15.68c0-2.938-2.382-5.32-5.32-5.32z" fill="#5290db"/></g></g><g><g><path d="m59 22.25h-17.18c-2.938 0-5.32 2.382-5.32 5.32v15.68h22.5z" fill="#fc657e"/></g></g><g><g><path d="m29.332 178.883c-2.473-.46-4.421-2.37-4.891-4.792-.024-.122-.193-.122-.217 0-.47 2.422-2.419 4.331-4.892 4.792-.124.023-.124.189 0 .213 2.473.461 4.421 2.37 4.892 4.792.024.122.193.122.217 0 .47-2.422 2.419-4.331 4.891-4.792.124-.023.124-.19 0-.213z" fill="#fc657e"/></g></g><g><g><circle cx="233.384" cy="76.627" fill="#f5c84c" r="3.377"/></g></g><g><g><path d="m146.952 249.159c-3.464.645-6.194 3.319-6.852 6.713-.033.17-.271.17-.304 0-.659-3.393-3.388-6.068-6.852-6.713-.174-.032-.174-.265 0-.298 3.464-.645 6.194-3.32 6.852-6.713.033-.17.271-.17.304 0 .658 3.393 3.388 6.068 6.852 6.713.174.033.174.266 0 .298z" fill="#f5c84c"/></g></g><g><g><path d="m120.089 9.242h-1.824v1.824c0 1.366-1.107 2.473-2.473 2.473s-2.473-1.107-2.473-2.473v-1.824h-1.824c-1.366 0-2.473-1.107-2.473-2.473s1.107-2.473 2.473-2.473h1.824v-1.823c0-1.366 1.107-2.473 2.473-2.473s2.473 1.107 2.473 2.473v1.824h1.824c1.366 0 2.473 1.107 2.473 2.473s-1.108 2.472-2.473 2.472z" fill="#70d6f9"/></g></g><g><g><circle cx="147" cy="8.373" fill="#87d147" r="3.377"/></g></g><g><g><path d="m219.5 45.75h-183c-1.381 0-2.5-1.119-2.5-2.5v-15.681c0-4.312 3.508-7.819 7.819-7.819h172.361c4.312 0 7.819 3.508 7.819 7.819v15.681c.001 1.381-1.118 2.5-2.499 2.5zm-180.5-5h178v-13.181c0-1.555-1.265-2.819-2.819-2.819h-172.362c-1.555 0-2.819 1.265-2.819 2.819z"/></g></g><g><g><path d="m184 35.25h-111c-1.381 0-2.5-1.119-2.5-2.5s1.119-2.5 2.5-2.5h111c1.381 0 2.5 1.119 2.5 2.5s-1.119 2.5-2.5 2.5z"/></g></g><g><g><path d="m207.788 35.25h-10.885c-1.381 0-2.5-1.119-2.5-2.5s1.119-2.5 2.5-2.5h10.885c1.381 0 2.5 1.119 2.5 2.5s-1.119 2.5-2.5 2.5z"/></g></g><g><g><path d="m59 44.875c-1.381 0-2.5-1.119-2.5-2.5v-19.417c0-1.381 1.119-2.5 2.5-2.5s2.5 1.119 2.5 2.5v19.417c0 1.381-1.119 2.5-2.5 2.5z"/></g></g><g><g><circle cx="75.949" cy="101.529" fill="#5290db" r="23.785"/></g></g><g><g><circle cx="75.949" cy="98.541" fill="#f9c1a8" r="7.976"/></g></g><g><g><path d="m83.257 106.517h-14.616c-3.877 0-7.05 3.173-7.05 7.05v6.921c3.99 3.027 8.963 4.825 14.358 4.825s10.367-1.798 14.358-4.825v-6.921c-.001-3.877-3.173-7.05-7.05-7.05z" fill="#70d6f9"/></g></g><g><g><path d="m75.949 113.696c3.524 0 6.381-2.857 6.381-6.381 0-.271-.022-.536-.055-.798h-12.652c-.033.262-.055.527-.055.798 0 3.524 2.857 6.381 6.381 6.381z" fill="#f9c1a8"/></g></g><g><g><path d="m75.949 109.018c-5.776 0-10.477-4.7-10.477-10.477s4.7-10.477 10.477-10.477 10.476 4.7 10.476 10.477-4.699 10.477-10.476 10.477zm0-15.954c-3.02 0-5.477 2.457-5.477 5.477s2.457 5.477 5.477 5.477 5.476-2.457 5.476-5.477-2.456-5.477-5.476-5.477z"/></g></g><g><g><path d="m75.949 116.196c-4.897 0-8.882-3.984-8.882-8.882 0-.235.012-.468.031-.698.116-1.377 1.345-2.39 2.702-2.28 1.376.117 2.396 1.327 2.28 2.702-.008.092-.014.184-.014.276 0 2.141 1.741 3.882 3.882 3.882 2.14 0 3.881-1.741 3.881-3.882 0-.103-.007-.203-.016-.304-.123-1.375.892-2.59 2.267-2.714 1.384-.117 2.59.892 2.714 2.267.022.247.035.498.035.751.001 4.898-3.983 8.882-8.88 8.882z"/></g></g><g><g><path d="m75.949 127.813c-14.494 0-26.285-11.791-26.285-26.285 0-14.493 11.791-26.284 26.285-26.284 14.493 0 26.284 11.791 26.284 26.284 0 14.494-11.791 26.285-26.284 26.285zm0-47.569c-11.736 0-21.285 9.548-21.285 21.284s9.549 21.285 21.285 21.285 21.284-9.549 21.284-21.285-9.547-21.284-21.284-21.284z"/></g></g><g><g><path d="m75.949 127.813c-14.494 0-26.285-11.791-26.285-26.285 0-14.493 11.791-26.284 26.285-26.284 14.493 0 26.284 11.791 26.284 26.284 0 14.494-11.791 26.285-26.284 26.285zm0-47.569c-11.736 0-21.285 9.548-21.285 21.284s9.549 21.285 21.285 21.285 21.284-9.549 21.284-21.285-9.547-21.284-21.284-21.284z"/></g></g><g><g><path d="m61.591 122.735c-1.381 0-2.5-1.119-2.5-2.5v-6.668c0-5.266 4.284-9.55 9.551-9.55h14.615c5.266 0 9.55 4.284 9.55 9.55v6.453c0 1.381-1.119 2.5-2.5 2.5s-2.5-1.119-2.5-2.5v-6.453c0-2.509-2.041-4.55-4.55-4.55h-14.615c-2.51 0-4.551 2.041-4.551 4.55v6.668c0 1.381-1.119 2.5-2.5 2.5z"/></g></g><g><g><path d="m195.881 125.272h-72.175c-5.765 0-10.455-4.69-10.455-10.455v-5.594c0-.587-.283-1.144-.758-1.488l-2.316-1.681c-1.445-1.05-2.308-2.742-2.308-4.527.001-1.785.863-3.477 2.309-4.524l2.315-1.682c.475-.344.758-.9.758-1.487v-5.595c0-5.765 4.69-10.454 10.455-10.454h72.175c5.765 0 10.455 4.689 10.455 10.454v26.578c0 5.765-4.69 10.455-10.455 10.455zm-72.175-42.487c-3.008 0-5.455 2.446-5.455 5.454v5.595c0 2.183-1.054 4.251-2.82 5.533l-2.316 1.683c-.202.146-.244.341-.245.479 0 .138.043.333.245.48l2.316 1.681c1.767 1.283 2.82 3.352 2.82 5.534v5.594c0 3.008 2.447 5.455 5.455 5.455h72.175c3.008 0 5.455-2.447 5.455-5.455v-26.579c0-3.008-2.447-5.454-5.455-5.454z"/></g></g><g><g><path d="m191.325 93.637h-60.863c-1.381 0-2.5-1.119-2.5-2.5s1.119-2.5 2.5-2.5h60.863c1.381 0 2.5 1.119 2.5 2.5s-1.119 2.5-2.5 2.5z"/></g></g><g><g><path d="m191.325 103.928h-60.863c-1.381 0-2.5-1.119-2.5-2.5s1.119-2.5 2.5-2.5h60.863c1.381 0 2.5 1.119 2.5 2.5s-1.119 2.5-2.5 2.5z"/></g></g><g><g><path d="m191.325 114.22h-60.863c-1.381 0-2.5-1.119-2.5-2.5s1.119-2.5 2.5-2.5h60.863c1.381 0 2.5 1.119 2.5 2.5s-1.119 2.5-2.5 2.5z"/></g></g><g><g><circle cx="180.051" cy="162.67" fill="#fcdd86" r="23.785"/></g></g><g><g><circle cx="180.051" cy="159.682" fill="#f9c1a8" r="7.976"/></g></g><g><g><path d="m172.743 167.658h14.615c3.877 0 7.05 3.173 7.05 7.05v6.921c-3.99 3.027-8.963 4.825-14.358 4.825-5.394 0-10.367-1.798-14.358-4.825v-6.921c.002-3.877 3.174-7.05 7.051-7.05z" fill="#70d6f9"/></g></g><g><g><path d="m180.051 174.837c-3.524 0-6.381-2.857-6.381-6.381 0-.271.022-.536.055-.798h12.652c.033.262.055.527.055.798 0 3.524-2.857 6.381-6.381 6.381z" fill="#f9c1a8"/></g></g><g><g><path d="m180.051 170.158c-5.776 0-10.476-4.7-10.476-10.477s4.699-10.477 10.476-10.477 10.477 4.7 10.477 10.477-4.701 10.477-10.477 10.477zm0-15.953c-3.02 0-5.476 2.457-5.476 5.477s2.456 5.477 5.476 5.477 5.477-2.457 5.477-5.477-2.458-5.477-5.477-5.477z"/></g></g><g><g><path d="m180.051 177.337c-4.896 0-8.881-3.984-8.881-8.881 0-.255.014-.505.035-.752.124-1.375 1.341-2.396 2.714-2.267 1.375.124 2.39 1.339 2.267 2.714-.009.101-.016.202-.016.305 0 2.14 1.741 3.881 3.881 3.881 2.141 0 3.882-1.741 3.882-3.881 0-.094-.006-.186-.014-.277-.116-1.375.904-2.585 2.28-2.702 1.35-.119 2.586.903 2.702 2.28.02.23.031.463.031.699.001 4.897-3.984 8.881-8.881 8.881z"/></g></g><g><g><path d="m180.051 188.954c-14.493 0-26.284-11.791-26.284-26.284 0-14.494 11.791-26.285 26.284-26.285 14.494 0 26.285 11.791 26.285 26.285 0 14.493-11.791 26.284-26.285 26.284zm0-47.569c-11.736 0-21.284 9.549-21.284 21.285s9.548 21.284 21.284 21.284 21.285-9.548 21.285-21.284-9.549-21.285-21.285-21.285z"/></g></g><g><g><path d="m180.051 188.954c-14.493 0-26.284-11.791-26.284-26.284 0-14.494 11.791-26.285 26.284-26.285 14.494 0 26.285 11.791 26.285 26.285 0 14.493-11.791 26.284-26.285 26.284zm0-47.569c-11.736 0-21.284 9.549-21.284 21.285s9.548 21.284 21.284 21.284 21.285-9.548 21.285-21.284-9.549-21.285-21.285-21.285z"/></g></g><g><g><path d="m194.409 183.9c-1.381 0-2.5-1.119-2.5-2.5v-6.692c0-2.509-2.041-4.55-4.551-4.55h-14.615c-2.509 0-4.55 2.041-4.55 4.55v6.542c0 1.381-1.119 2.5-2.5 2.5s-2.5-1.119-2.5-2.5v-6.542c0-5.266 4.284-9.55 9.55-9.55h14.615c5.267 0 9.551 4.284 9.551 9.55v6.692c0 1.381-1.119 2.5-2.5 2.5z"/></g></g><g><g><path d="m132.294 186.413h-72.175c-5.765 0-10.455-4.689-10.455-10.454v-26.578c0-5.765 4.69-10.455 10.455-10.455h72.175c5.765 0 10.455 4.69 10.455 10.455v5.594c0 .587.283 1.144.758 1.488l2.316 1.681c1.445 1.05 2.308 2.742 2.308 4.527-.001 1.785-.863 3.477-2.309 4.524l-2.315 1.682c-.475.344-.758.9-.758 1.487v5.595c0 5.765-4.69 10.454-10.455 10.454zm-72.175-42.487c-3.008 0-5.455 2.447-5.455 5.455v26.578c0 3.008 2.447 5.454 5.455 5.454h72.175c3.008 0 5.455-2.446 5.455-5.454v-5.595c0-2.183 1.054-4.251 2.82-5.533l2.316-1.683c.202-.146.244-.341.245-.479 0-.138-.043-.333-.245-.48l-2.316-1.681c-1.767-1.283-2.82-3.352-2.82-5.534v-5.594c0-3.008-2.447-5.455-5.455-5.455h-72.175z"/></g></g><g><g><path d="m125.538 154.777h-60.863c-1.381 0-2.5-1.119-2.5-2.5s1.119-2.5 2.5-2.5h60.863c1.381 0 2.5 1.119 2.5 2.5s-1.119 2.5-2.5 2.5z"/></g></g><g><g><path d="m125.538 165.069h-60.863c-1.381 0-2.5-1.119-2.5-2.5s1.119-2.5 2.5-2.5h60.863c1.381 0 2.5 1.119 2.5 2.5s-1.119 2.5-2.5 2.5z"/></g></g><g><g><path d="m125.538 175.36h-60.863c-1.381 0-2.5-1.119-2.5-2.5s1.119-2.5 2.5-2.5h60.863c1.381 0 2.5 1.119 2.5 2.5s-1.119 2.5-2.5 2.5z"/></g></g></g></g></svg>