<svg enable-background="new 0 0 256 256" height="512" viewBox="0 0 256 256" width="512" xmlns="http://www.w3.org/2000/svg"><g id="Layer_79"><g><g><g><path d="m36.5 43.25v185.18c0 2.938 2.382 5.32 5.32 5.32h172.36c2.938 0 5.32-2.382 5.32-5.32v-185.18z" fill="#edf4fc"/></g></g><g><g><path d="m95 43.25h-58.5v185.18c0 2.938 2.382 5.32 5.32 5.32h53.18z" fill="#70d6f9"/></g></g><g><g><path d="m214.181 236.25h-172.362c-4.312 0-7.819-3.508-7.819-7.819v-185.181c0-1.381 1.119-2.5 2.5-2.5s2.5 1.119 2.5 2.5v185.181c0 1.555 1.265 2.819 2.819 2.819h172.361c1.555 0 2.819-1.265 2.819-2.819v-185.181c0-1.381 1.119-2.5 2.5-2.5s2.5 1.119 2.5 2.5v185.181c.001 4.311-3.507 7.819-7.818 7.819z"/></g></g><g><g><path d="m150.5 79c-13.531 0-24.5 10.969-24.5 24.5s10.969 24.5 24.5 24.5 24.5-10.969 24.5-24.5h-24.5z" fill="#5290db"/></g></g><g><g><path d="m158.5 71v24.5h24.5c0-13.531-10.969-24.5-24.5-24.5z" fill="#70d6f9"/></g></g><g><g><g><path d="m127.903 64.37h-13.771c-2.762 0-5-2.238-5-5s2.238-5 5-5h13.771c2.762 0 5 2.238 5 5s-2.238 5-5 5z" fill="#70d6f9"/></g></g></g><g><g><g><path d="m127.903 154.134h-13.771c-2.762 0-5-2.238-5-5s2.238-5 5-5h13.771c2.762 0 5 2.238 5 5s-2.238 5-5 5z" fill="#f5c84c"/></g></g></g><g><g><circle cx="66" cy="70.5" fill="#9be5f9" r="14"/></g></g><g><g><path d="m214.18 22.25h-172.36c-2.938 0-5.32 2.382-5.32 5.32v15.68h183v-15.68c0-2.938-2.382-5.32-5.32-5.32z" fill="#5290db"/></g></g><g><g><path d="m59 22.25h-17.18c-2.938 0-5.32 2.382-5.32 5.32v15.68h22.5z" fill="#fc657e"/></g></g><g><g><path d="m29.332 178.883c-2.473-.46-4.421-2.37-4.891-4.792-.024-.122-.193-.122-.217 0-.47 2.422-2.419 4.331-4.892 4.792-.124.023-.124.189 0 .213 2.473.461 4.421 2.37 4.892 4.792.024.122.193.122.217 0 .47-2.422 2.419-4.331 4.891-4.792.124-.023.124-.19 0-.213z" fill="#fc657e"/></g></g><g><g><circle cx="233.384" cy="76.627" fill="#70d6f9" r="3.377"/></g></g><g><g><path d="m146.952 249.159c-3.464.645-6.194 3.319-6.852 6.713-.033.17-.271.17-.304 0-.659-3.393-3.388-6.068-6.852-6.713-.174-.032-.174-.265 0-.298 3.464-.645 6.194-3.32 6.852-6.713.033-.17.271-.17.304 0 .658 3.393 3.388 6.068 6.852 6.713.174.033.174.266 0 .298z" fill="#f5c84c"/></g></g><g><g><path d="m120.089 9.242h-1.824v1.824c0 1.366-1.107 2.473-2.473 2.473s-2.473-1.107-2.473-2.473v-1.824h-1.824c-1.366 0-2.473-1.107-2.473-2.473s1.107-2.473 2.473-2.473h1.824v-1.823c0-1.366 1.107-2.473 2.473-2.473s2.473 1.107 2.473 2.473v1.824h1.824c1.366 0 2.473 1.107 2.473 2.473s-1.108 2.472-2.473 2.472z" fill="#70d6f9"/></g></g><g><g><circle cx="147" cy="8.373" fill="#87d147" r="3.377"/></g></g><g><g><path d="m219.5 45.75h-183c-1.381 0-2.5-1.119-2.5-2.5v-15.681c0-4.312 3.508-7.819 7.819-7.819h172.361c4.312 0 7.819 3.508 7.819 7.819v15.681c.001 1.381-1.118 2.5-2.499 2.5zm-180.5-5h178v-13.181c0-1.555-1.265-2.819-2.819-2.819h-172.362c-1.555 0-2.819 1.265-2.819 2.819z"/></g></g><g><g><path d="m184 35.25h-111c-1.381 0-2.5-1.119-2.5-2.5s1.119-2.5 2.5-2.5h111c1.381 0 2.5 1.119 2.5 2.5s-1.119 2.5-2.5 2.5z"/></g></g><g><g><path d="m207.788 35.25h-10.885c-1.381 0-2.5-1.119-2.5-2.5s1.119-2.5 2.5-2.5h10.885c1.381 0 2.5 1.119 2.5 2.5s-1.119 2.5-2.5 2.5z"/></g></g><g><g><path d="m59 44.958c-1.381 0-2.5-1.119-2.5-2.5v-19.583c0-1.381 1.119-2.5 2.5-2.5s2.5 1.119 2.5 2.5v19.583c0 1.381-1.119 2.5-2.5 2.5z"/></g></g><g><g><path d="m95 235.754c-1.381 0-2.5-1.119-2.5-2.5v-189.608c0-1.381 1.119-2.5 2.5-2.5s2.5 1.119 2.5 2.5v189.608c0 1.381-1.119 2.5-2.5 2.5z"/></g></g><g><g><path d="m81.672 102.87h-31.844c-1.381 0-2.5-1.119-2.5-2.5s1.119-2.5 2.5-2.5h31.844c1.381 0 2.5 1.119 2.5 2.5s-1.119 2.5-2.5 2.5z"/></g></g><g><g><g><path d="m127.903 66.87h-13.771c-4.136 0-7.5-3.364-7.5-7.5s3.364-7.5 7.5-7.5h13.771c4.136 0 7.5 3.364 7.5 7.5s-3.364 7.5-7.5 7.5zm-13.77-10c-1.379 0-2.5 1.121-2.5 2.5s1.121 2.5 2.5 2.5h13.771c1.379 0 2.5-1.121 2.5-2.5s-1.121-2.5-2.5-2.5z"/></g></g></g><g><g><g><path d="m127.903 156.634h-13.771c-4.136 0-7.5-3.364-7.5-7.5s3.364-7.5 7.5-7.5h13.771c4.136 0 7.5 3.364 7.5 7.5s-3.364 7.5-7.5 7.5zm-13.77-10c-1.379 0-2.5 1.121-2.5 2.5s1.121 2.5 2.5 2.5h13.771c1.379 0 2.5-1.121 2.5-2.5s-1.121-2.5-2.5-2.5z"/></g></g></g><g><g><path d="m81.672 115.061h-31.844c-1.381 0-2.5-1.119-2.5-2.5s1.119-2.5 2.5-2.5h31.844c1.381 0 2.5 1.119 2.5 2.5s-1.119 2.5-2.5 2.5z"/></g></g><g><g><path d="m81.672 127.252h-31.844c-1.381 0-2.5-1.119-2.5-2.5s1.119-2.5 2.5-2.5h31.844c1.381 0 2.5 1.119 2.5 2.5s-1.119 2.5-2.5 2.5z"/></g></g><g><g><path d="m81.672 139.442h-31.844c-1.381 0-2.5-1.119-2.5-2.5s1.119-2.5 2.5-2.5h31.844c1.381 0 2.5 1.119 2.5 2.5s-1.119 2.5-2.5 2.5z"/></g></g><g><g><path d="m81.672 151.634h-31.844c-1.381 0-2.5-1.119-2.5-2.5s1.119-2.5 2.5-2.5h31.844c1.381 0 2.5 1.119 2.5 2.5s-1.119 2.5-2.5 2.5z"/></g></g><g><g><path d="m81.672 163.825h-31.844c-1.381 0-2.5-1.119-2.5-2.5s1.119-2.5 2.5-2.5h31.844c1.381 0 2.5 1.119 2.5 2.5s-1.119 2.5-2.5 2.5z"/></g></g><g><g><path d="m81.672 176.016h-31.844c-1.381 0-2.5-1.119-2.5-2.5s1.119-2.5 2.5-2.5h31.844c1.381 0 2.5 1.119 2.5 2.5s-1.119 2.5-2.5 2.5z"/></g></g><g><g><path d="m81.672 188.207h-31.844c-1.381 0-2.5-1.119-2.5-2.5s1.119-2.5 2.5-2.5h31.844c1.381 0 2.5 1.119 2.5 2.5s-1.119 2.5-2.5 2.5z"/></g></g><g><g><path d="m81.672 200.398h-31.844c-1.381 0-2.5-1.119-2.5-2.5s1.119-2.5 2.5-2.5h31.844c1.381 0 2.5 1.119 2.5 2.5s-1.119 2.5-2.5 2.5z"/></g></g><g><g><path d="m81.672 212.589h-31.844c-1.381 0-2.5-1.119-2.5-2.5s1.119-2.5 2.5-2.5h31.844c1.381 0 2.5 1.119 2.5 2.5s-1.119 2.5-2.5 2.5z"/></g></g><g><g><path d="m66 87c-9.098 0-16.5-7.402-16.5-16.5s7.402-16.5 16.5-16.5 16.5 7.402 16.5 16.5-7.402 16.5-16.5 16.5zm0-28c-6.341 0-11.5 5.159-11.5 11.5s5.159 11.5 11.5 11.5 11.5-5.159 11.5-11.5-5.159-11.5-11.5-11.5z"/></g></g><g><g><path d="m150.5 130.5c-14.888 0-27-12.112-27-27s12.112-27 27-27c1.381 0 2.5 1.119 2.5 2.5v22h22c1.381 0 2.5 1.119 2.5 2.5 0 14.888-12.112 27-27 27zm-2.5-48.858c-10.959 1.244-19.5 10.572-19.5 21.858 0 12.131 9.869 22 22 22 11.286 0 20.614-8.541 21.858-19.5h-21.858c-1.381 0-2.5-1.119-2.5-2.5z"/></g></g><g><g><path d="m183 98h-24.5c-1.381 0-2.5-1.119-2.5-2.5v-24.5c0-1.381 1.119-2.5 2.5-2.5 14.888 0 27 12.112 27 27 0 1.381-1.119 2.5-2.5 2.5zm-22-5h19.358c-1.151-10.139-9.22-18.207-19.358-19.358z"/></g></g><g><g><path d="m122.675 188.266h-5.948c-1.459 0-2.641 1.183-2.641 2.641v14.507c0 1.459 1.183 2.641 2.641 2.641h5.948c1.459 0 2.641-1.183 2.641-2.641v-14.507c.001-1.458-1.182-2.641-2.641-2.641z" fill="#fc657e"/></g></g><g><g><path d="m146.694 193.508h-5.948c-1.459 0-2.641 1.183-2.641 2.641v9.266c0 1.459 1.183 2.641 2.641 2.641h5.948c1.459 0 2.641-1.183 2.641-2.641v-9.266c0-1.458-1.182-2.641-2.641-2.641z" fill="#fc8c48"/></g></g><g><g><path d="m170.713 176.96h-5.948c-1.459 0-2.641 1.183-2.641 2.641v25.814c0 1.459 1.183 2.641 2.641 2.641h5.948c1.459 0 2.641-1.183 2.641-2.641v-25.814c0-1.459-1.183-2.641-2.641-2.641z" fill="#f5c84c"/></g></g><g><g><path d="m194.731 162.944h-5.948c-1.459 0-2.641 1.183-2.641 2.641v39.83c0 1.459 1.183 2.641 2.641 2.641h5.948c1.459 0 2.641-1.183 2.641-2.641v-39.83c.001-1.459-1.182-2.641-2.641-2.641z" fill="#fcdd86"/></g></g><g><g><path d="m122.675 210.557h-5.947c-2.835 0-5.142-2.307-5.142-5.142v-14.508c0-2.835 2.307-5.141 5.142-5.141h5.947c2.835 0 5.142 2.306 5.142 5.141v14.508c-.001 2.835-2.307 5.142-5.142 5.142zm-5.947-19.79c-.078 0-.142.063-.142.141v14.508c0 .078.063.142.142.142h5.947c.078 0 .142-.063.142-.142v-14.508c0-.077-.063-.141-.142-.141z"/></g></g><g><g><path d="m146.694 210.557h-5.948c-2.835 0-5.142-2.307-5.142-5.142v-9.266c0-2.835 2.307-5.142 5.142-5.142h5.948c2.835 0 5.141 2.307 5.141 5.142v9.266c0 2.835-2.306 5.142-5.141 5.142zm-5.948-14.549c-.078 0-.142.063-.142.142v9.266c0 .078.063.142.142.142h5.948c.077 0 .141-.063.141-.142v-9.266c0-.078-.063-.142-.141-.142z"/></g></g><g><g><path d="m170.713 210.557h-5.948c-2.835 0-5.142-2.307-5.142-5.142v-25.813c0-2.835 2.307-5.142 5.142-5.142h5.948c2.835 0 5.142 2.307 5.142 5.142v25.813c-.001 2.835-2.307 5.142-5.142 5.142zm-5.948-31.097c-.078 0-.142.063-.142.142v25.813c0 .078.063.142.142.142h5.948c.078 0 .142-.063.142-.142v-25.813c0-.078-.063-.142-.142-.142z"/></g></g><g><g><path d="m194.731 210.557h-5.948c-2.835 0-5.141-2.307-5.141-5.142v-39.83c0-2.835 2.306-5.142 5.141-5.142h5.948c2.835 0 5.142 2.307 5.142 5.142v39.83c0 2.835-2.307 5.142-5.142 5.142zm-5.948-45.114c-.077 0-.141.063-.141.142v39.83c0 .078.063.142.141.142h5.948c.078 0 .142-.063.142-.142v-39.83c0-.078-.063-.142-.142-.142z"/></g></g></g></g></svg>