<svg enable-background="new 0 0 256 256" height="512" viewBox="0 0 256 256" width="512" xmlns="http://www.w3.org/2000/svg"><g id="Layer_47"><g><g><g><path d="m236.79 29.342h-217.58c-7.012 0-12.748 5.737-12.748 12.748v159.354c0 7.012 5.737 12.748 12.748 12.748h217.58c7.012 0 12.748-5.737 12.748-12.748v-159.354c0-7.011-5.737-12.748-12.748-12.748z" fill="#5290db"/></g></g><g><g><path d="m19.21 39.966c-1.169 0-2.125.956-2.125 2.125v138.107h221.829v-138.108c0-1.169-.956-2.125-2.125-2.125h-217.579z" fill="#edf4fc"/></g></g><g><g><path d="m17.086 168.255h221.829v11.942h-221.829z" fill="#5290db"/></g></g><g><g><path d="m17.086 168.255h25.104v11.942h-25.104z" fill="#fcdd86"/></g></g><g><g><path d="m103.862 214.193h48.276v27.365h-48.276z" fill="#c7d7e5"/></g></g><g><g><path d="m6.462 180.197v21.247c0 7.012 5.737 12.748 12.748 12.748h217.58c7.012 0 12.748-5.737 12.748-12.748v-21.247z" fill="#edf4fc"/></g></g><g><g><path d="m236.79 216.693h-217.58c-8.408 0-15.249-6.84-15.249-15.249v-159.354c0-8.408 6.84-15.248 15.249-15.248h217.58c8.408 0 15.249 6.84 15.249 15.248v159.354c-.001 8.409-6.841 15.249-15.249 15.249zm-217.58-184.851c-5.651 0-10.249 4.597-10.249 10.248v159.354c0 5.651 4.598 10.249 10.249 10.249h217.58c5.651 0 10.249-4.598 10.249-10.249v-159.354c0-5.651-4.598-10.248-10.249-10.248z"/></g></g><g><g><path d="m17.085 182.031c-1.381 0-2.5-1.119-2.5-2.5v-137.441c0-2.55 2.075-4.625 4.625-4.625h217.58c2.55 0 4.625 2.075 4.625 4.625v137.378c0 1.381-1.119 2.5-2.5 2.5s-2.5-1.119-2.5-2.5v-137.002h-216.83v137.065c0 1.381-1.119 2.5-2.5 2.5z"/></g></g><g><g><path d="m47.675 118.266h-5.948c-1.459 0-2.641 1.183-2.641 2.641v26.507c0 1.459 1.183 2.641 2.641 2.641h5.948c1.459 0 2.641-1.183 2.641-2.641v-26.507c.001-1.458-1.182-2.641-2.641-2.641z" fill="#87d147"/></g></g><g><g><path d="m71.694 126.508h-5.948c-1.459 0-2.641 1.183-2.641 2.641v18.266c0 1.459 1.183 2.641 2.641 2.641h5.948c1.459 0 2.641-1.183 2.641-2.641v-18.266c0-1.458-1.182-2.641-2.641-2.641z" fill="#f5c84c"/></g></g><g><g><path d="m95.713 102.96h-5.948c-1.459 0-2.641 1.183-2.641 2.641v41.814c0 1.459 1.183 2.641 2.641 2.641h5.948c1.459 0 2.641-1.183 2.641-2.641v-41.814c0-1.459-1.183-2.641-2.641-2.641z" fill="#fc8c48"/></g></g><g><g><path d="m119.731 82.944h-5.948c-1.459 0-2.641 1.183-2.641 2.641v61.83c0 1.459 1.183 2.641 2.641 2.641h5.948c1.459 0 2.641-1.183 2.641-2.641v-61.83c.001-1.459-1.182-2.641-2.641-2.641z" fill="#fc657e"/></g></g><g><g><path d="m215.095 61.093h-67.321c-1.365 0-2.472 1.106-2.472 2.472v7.623c0 1.365 1.107 2.472 2.472 2.472h67.321c1.365 0 2.472-1.107 2.472-2.472v-7.623c0-1.365-1.107-2.472-2.472-2.472z" fill="#70d6f9"/></g></g><g><g><path d="m171.714 241.558h-87.428c-3.298 0-5.971 2.674-5.971 5.971 0 3.298 2.673 5.971 5.971 5.971h87.428c3.298 0 5.971-2.674 5.971-5.971 0-3.298-2.673-5.971-5.971-5.971z" fill="#edf4fc"/></g></g><g><g><path d="m128 190.907c-3.473 0-6.288 2.815-6.288 6.288 0 3.473 2.815 6.288 6.288 6.288s6.288-2.815 6.288-6.288c0-3.473-2.815-6.288-6.288-6.288z" fill="#c7d7e5"/></g></g><g><g><path d="m171.714 256h-87.428c-4.671 0-8.471-3.8-8.471-8.471s3.8-8.471 8.471-8.471h87.429c4.671 0 8.471 3.8 8.471 8.471s-3.801 8.471-8.472 8.471zm-87.428-11.942c-1.914 0-3.471 1.557-3.471 3.471s1.557 3.471 3.471 3.471h87.429c1.914 0 3.471-1.557 3.471-3.471s-1.557-3.471-3.471-3.471z"/></g></g><g><g><path d="m152.138 243.292c-1.381 0-2.5-1.119-2.5-2.5v-25.917c0-1.381 1.119-2.5 2.5-2.5s2.5 1.119 2.5 2.5v25.917c0 1.38-1.119 2.5-2.5 2.5z"/></g></g><g><g><path d="m103.862 243.063c-1.381 0-2.5-1.119-2.5-2.5v-25.5c0-1.381 1.119-2.5 2.5-2.5s2.5 1.119 2.5 2.5v25.5c0 1.38-1.119 2.5-2.5 2.5z"/></g></g><g><g><path d="m170.705 12.654c-4.498-.838-8.043-4.31-8.898-8.716-.043-.221-.352-.221-.395 0-.855 4.406-4.4 7.879-8.898 8.716-.226.042-.226.345 0 .387 4.498.838 8.043 4.31 8.898 8.717.043.221.352.221.395 0 .855-4.406 4.4-7.879 8.898-8.717.226-.043.226-.345 0-.387z" fill="#70d6f9"/></g></g><g><g><path d="m202.903 230.736c-2.586-.482-4.625-2.479-5.116-5.012-.025-.127-.202-.127-.227 0-.492 2.534-2.53 4.531-5.117 5.012-.13.024-.13.198 0 .222 2.586.482 4.625 2.479 5.117 5.012.025.127.202.127.227 0 .492-2.534 2.53-4.531 5.116-5.012.129-.024.129-.198 0-.222z" fill="#87d147"/></g></g><g><g><path d="m61.941 238.487h-2.33v-2.33c0-1.744-1.413-3.157-3.157-3.157s-3.157 1.413-3.157 3.157v2.33h-2.329c-1.744 0-3.157 1.413-3.157 3.157s1.413 3.157 3.157 3.157h2.329v2.33c0 1.744 1.413 3.157 3.157 3.157s3.157-1.413 3.157-3.157v-2.33h2.33c1.744 0 3.157-1.413 3.157-3.157s-1.413-3.157-3.157-3.157z" fill="#f5c84c"/></g></g><g><g><circle cx="32.662" cy="227.377" fill="#fc657e" r="3.377"/></g></g><g><g><circle cx="134.662" cy="3.377" fill="#f5c84c" r="3.377"/></g></g><g><g><path d="m248.687 182.697h-240.937c-1.381 0-2.5-1.119-2.5-2.5s1.119-2.5 2.5-2.5h240.938c1.381 0 2.5 1.119 2.5 2.5s-1.12 2.5-2.501 2.5z"/></g></g><g><g><path d="m128 205.983c-4.846 0-8.788-3.942-8.788-8.788s3.942-8.788 8.788-8.788 8.788 3.942 8.788 8.788-3.942 8.788-8.788 8.788zm0-12.576c-2.088 0-3.788 1.699-3.788 3.788s1.699 3.788 3.788 3.788 3.788-1.699 3.788-3.788-1.7-3.788-3.788-3.788z"/></g></g><g><g><path d="m238.292 170.755h-220.417c-1.381 0-2.5-1.119-2.5-2.5s1.119-2.5 2.5-2.5h220.417c1.381 0 2.5 1.119 2.5 2.5s-1.12 2.5-2.5 2.5z"/></g></g><g><g><path d="m42.19 182.031c-1.381 0-2.5-1.119-2.5-2.5v-10.698c0-1.381 1.119-2.5 2.5-2.5s2.5 1.119 2.5 2.5v10.698c0 1.381-1.119 2.5-2.5 2.5z"/></g></g><g><g><path d="m215.095 76.16h-67.321c-2.741 0-4.972-2.23-4.972-4.972v-7.623c0-2.741 2.23-4.972 4.972-4.972h67.321c2.741 0 4.972 2.23 4.972 4.972v7.623c0 2.741-2.231 4.972-4.972 4.972zm-67.321-12.567.028 7.595 67.292-.028-.028-7.566h-67.292zm67.321 0h.01z"/></g></g><g><g><path d="m217.567 88.726h-72.264c-1.381 0-2.5-1.119-2.5-2.5s1.119-2.5 2.5-2.5h72.264c1.381 0 2.5 1.119 2.5 2.5s-1.119 2.5-2.5 2.5z"/></g></g><g><g><path d="m217.567 101.292h-72.264c-1.381 0-2.5-1.119-2.5-2.5s1.119-2.5 2.5-2.5h72.264c1.381 0 2.5 1.119 2.5 2.5s-1.119 2.5-2.5 2.5z"/></g></g><g><g><path d="m217.567 113.858h-72.264c-1.381 0-2.5-1.119-2.5-2.5s1.119-2.5 2.5-2.5h72.264c1.381 0 2.5 1.119 2.5 2.5s-1.119 2.5-2.5 2.5z"/></g></g><g><g><path d="m217.567 126.425h-72.264c-1.381 0-2.5-1.119-2.5-2.5s1.119-2.5 2.5-2.5h72.264c1.381 0 2.5 1.119 2.5 2.5s-1.119 2.5-2.5 2.5z"/></g></g><g><g><path d="m217.567 138.991h-72.264c-1.381 0-2.5-1.119-2.5-2.5s1.119-2.5 2.5-2.5h72.264c1.381 0 2.5 1.119 2.5 2.5s-1.119 2.5-2.5 2.5z"/></g></g><g><g><path d="m217.567 151.557h-72.264c-1.381 0-2.5-1.119-2.5-2.5s1.119-2.5 2.5-2.5h72.264c1.381 0 2.5 1.119 2.5 2.5s-1.119 2.5-2.5 2.5z"/></g></g><g><g><path d="m47.675 152.557h-5.948c-2.835 0-5.141-2.307-5.141-5.142v-26.507c0-2.835 2.306-5.142 5.141-5.142h5.948c2.835 0 5.141 2.307 5.141 5.142v26.507c0 2.835-2.306 5.142-5.141 5.142zm-5.948-31.791c-.078 0-.141.063-.141.142v26.507c0 .078.063.142.141.142h5.948c.078 0 .141-.063.141-.142v-26.507c0-.078-.063-.142-.141-.142z"/></g></g><g><g><path d="m71.694 152.557h-5.948c-2.835 0-5.142-2.307-5.142-5.142v-18.266c0-2.835 2.307-5.141 5.142-5.141h5.948c2.835 0 5.142 2.306 5.142 5.141v18.266c-.001 2.835-2.307 5.142-5.142 5.142zm-5.948-23.549c-.078 0-.142.063-.142.141v18.266c0 .078.063.142.142.142h5.948c.078 0 .142-.063.142-.142v-18.266c0-.078-.063-.141-.142-.141z"/></g></g><g><g><path d="m95.713 152.557h-5.948c-2.835 0-5.141-2.307-5.141-5.142v-41.814c0-2.835 2.306-5.142 5.141-5.142h5.948c2.835 0 5.141 2.307 5.141 5.142v41.814c0 2.835-2.306 5.142-5.141 5.142zm-5.948-47.098c-.078 0-.141.063-.141.142v41.814c0 .078.063.142.141.142h5.948c.078 0 .141-.063.141-.142v-41.814c0-.078-.063-.142-.141-.142z"/></g></g><g><g><path d="m119.731 152.557h-5.948c-2.835 0-5.142-2.307-5.142-5.142v-61.83c0-2.835 2.307-5.142 5.142-5.142h5.948c2.835 0 5.142 2.307 5.142 5.142v61.83c0 2.835-2.307 5.142-5.142 5.142zm-5.947-67.114c-.078 0-.142.063-.142.142v61.83c0 .078.063.142.142.142h5.948c.078 0 .142-.063.142-.142v-61.83c0-.078-.063-.142-.142-.142z"/></g></g></g></g></svg>