<svg enable-background="new 0 0 256 256" height="512" viewBox="0 0 256 256" width="512" xmlns="http://www.w3.org/2000/svg"><g id="Layer_56"><g><g><g><path d="m182.353 25.571h-78.818l-39.58 39.58v42.96h17.011c4.444 0 8.44 2.706 10.09 6.832l6.743 22.757c1.65 4.126 5.646 6.832 10.09 6.832h84.154c0-28.505 0-64.345 0-109.268.001-5.332-4.36-9.693-9.69-9.693z" fill="#edf4fc"/></g></g><g><g><path d="m63.956 65.151h29.889c5.33 0 9.691-4.361 9.691-9.691v-29.889z" fill="#fc657e"/></g></g><g><g><g><path d="m203.604 124.53h-11.56v20h11.56c6.002 0 10.868 4.865 10.868 10.868v-20c0-6.002-4.866-10.868-10.868-10.868z" fill="#f5c84c"/></g></g></g><g><g><path d="m203.604 144.53h-95.714c-4.444 0-8.44-2.705-10.09-6.831l-6.743-22.757c-1.65-4.126-5.646-6.831-10.09-6.831h-28.571c-6.002 0-10.868 4.866-10.868 10.868v123.654c0 6.002 4.866 10.868 10.868 10.868h151.209c6.002 0 10.868-4.866 10.868-10.868v-87.235c-.001-6.002-4.867-10.868-10.869-10.868z" fill="#fcdd86"/></g></g><g><g><path d="m117.263 189.5v-8.263c0-5.921 4.817-10.737 10.737-10.737s10.737 4.816 10.737 10.737v8.263h10v-8.263c0-11.435-9.303-20.737-20.737-20.737s-20.737 9.303-20.737 20.737v8.263z" fill="#edf4fc"/></g></g><g><g><path d="m148.932 238.517h-41.864c-4.201 0-7.638-3.437-7.638-7.638v-33.742c0-4.201 3.437-7.638 7.638-7.638h41.864c4.201 0 7.638 3.437 7.638 7.638v33.742c0 4.201-3.437 7.638-7.638 7.638z" fill="#5290db"/></g></g><g><g><path d="m127.799 202.986c-3.751.103-6.867 3.25-6.936 7.002-.039 2.133.861 4.053 2.312 5.385.434.398.689.954.689 1.543v3.011c0 1.154.936 2.09 2.09 2.09h4.093c1.154 0 2.09-.936 2.09-2.09v-3.011c0-.591.257-1.146.691-1.546 1.419-1.303 2.31-3.171 2.31-5.249 0-4.009-3.305-7.246-7.339-7.135z" fill="#3a70bf"/></g></g><g><g><path d="m223.705 99.654c-4.498-.838-8.043-4.31-8.898-8.716-.043-.221-.352-.221-.395 0-.855 4.406-4.4 7.879-8.898 8.716-.226.042-.226.345 0 .387 4.498.838 8.043 4.31 8.898 8.717.043.221.352.221.395 0 .855-4.406 4.4-7.879 8.898-8.717.226-.043.226-.345 0-.387z" fill="#f5c84c"/></g></g><g><g><path d="m30.738 178.712c-3.611-.672-6.456-3.46-7.143-6.997-.034-.178-.282-.178-.317 0-.686 3.537-3.532 6.325-7.143 6.997-.181.034-.181.277 0 .31 3.611.672 6.456 3.46 7.143 6.997.034.178.282.178.317 0 .686-3.537 3.532-6.325 7.143-6.997.181-.033.181-.276 0-.31z" fill="#fc657e"/></g></g><g><g><path d="m69.442 16.487h2.33v-2.33c0-1.744 1.413-3.157 3.157-3.157s3.157 1.413 3.157 3.157v2.33h2.329c1.744 0 3.157 1.413 3.157 3.157s-1.413 3.157-3.157 3.157h-2.329v2.33c0 1.744-1.413 3.157-3.157 3.157s-3.157-1.413-3.157-3.157v-2.33h-2.33c-1.744 0-3.157-1.413-3.157-3.157s1.413-3.157 3.157-3.157z" fill="#70d6f9"/></g></g><g><g><circle cx="98.721" cy="3.377" fill="#f5c84c" r="3.377"/></g></g><g><g><circle cx="227.721" cy="124.377" fill="#87d147" r="3.377"/></g></g><g><g><path d="m192.044 146c-1.381 0-2.5-1.119-2.5-2.5v-108.238c0-3.966-3.226-7.191-7.191-7.191h-77.782l-38.115 38.115v41.471c0 1.381-1.119 2.5-2.5 2.5s-2.5-1.119-2.5-2.5v-42.507c0-.663.263-1.299.732-1.768l39.58-39.58c.469-.469 1.104-.732 1.768-.732h78.817c6.722 0 12.191 5.469 12.191 12.191v108.239c0 1.381-1.119 2.5-2.5 2.5z"/></g></g><g><g><g><path d="m172.632 67.364h-59.507c-1.381 0-2.5-1.119-2.5-2.5s1.119-2.5 2.5-2.5h59.507c1.381 0 2.5 1.119 2.5 2.5s-1.119 2.5-2.5 2.5z"/></g></g><g><g><path d="m172.632 80.003h-89.264c-1.381 0-2.5-1.119-2.5-2.5s1.119-2.5 2.5-2.5h89.264c1.381 0 2.5 1.119 2.5 2.5s-1.119 2.5-2.5 2.5z"/></g></g><g><g><path d="m172.632 54.726h-59.507c-1.381 0-2.5-1.119-2.5-2.5s1.119-2.5 2.5-2.5h59.507c1.381 0 2.5 1.119 2.5 2.5s-1.119 2.5-2.5 2.5z"/></g></g><g><g><path d="m172.632 92.642h-89.264c-1.381 0-2.5-1.119-2.5-2.5s1.119-2.5 2.5-2.5h89.264c1.381 0 2.5 1.119 2.5 2.5s-1.119 2.5-2.5 2.5z"/></g></g><g><g><path d="m172.632 105.28h-73.885c-1.381 0-2.5-1.119-2.5-2.5s1.119-2.5 2.5-2.5h73.885c1.381 0 2.5 1.119 2.5 2.5s-1.119 2.5-2.5 2.5z"/></g></g><g><g><path d="m172.632 117.919h-70.965c-1.381 0-2.5-1.119-2.5-2.5s1.119-2.5 2.5-2.5h70.965c1.381 0 2.5 1.119 2.5 2.5s-1.119 2.5-2.5 2.5z"/></g></g><g><g><path d="m172.632 130.558h-67.132c-1.381 0-2.5-1.119-2.5-2.5s1.119-2.5 2.5-2.5h67.131c1.381 0 2.5 1.119 2.5 2.5s-1.118 2.5-2.499 2.5z"/></g></g></g><g><g><path d="m93.845 67.65h-28.99c-1.381 0-2.5-1.119-2.5-2.5s1.119-2.5 2.5-2.5h28.99c3.965 0 7.191-3.226 7.191-7.191v-29.303c0-1.381 1.119-2.5 2.5-2.5s2.5 1.119 2.5 2.5v29.303c0 6.723-5.469 12.191-12.191 12.191z"/></g></g><g><g><g><path d="m214.472 157.898c-1.381 0-2.5-1.119-2.5-2.5v-20c0-4.614-3.753-8.368-8.367-8.368h-10.605c-1.381 0-2.5-1.119-2.5-2.5s1.119-2.5 2.5-2.5h10.604c7.371 0 13.367 5.997 13.367 13.368v20c.001 1.381-1.118 2.5-2.499 2.5z"/></g></g></g><g><g><path d="m203.604 256h-151.208c-7.371 0-13.367-5.996-13.367-13.367v-123.655c0-7.371 5.997-13.367 13.367-13.367h28.571c5.498 0 10.37 3.298 12.412 8.402.028.072.054.145.076.219l6.708 22.64c1.301 3.138 4.323 5.159 7.729 5.159h95.714c7.371 0 13.367 5.996 13.367 13.367v87.235c-.001 7.371-5.998 13.367-13.369 13.367zm-151.208-145.39c-4.614 0-8.367 3.754-8.367 8.367v123.655c0 4.613 3.753 8.367 8.367 8.367h151.209c4.614 0 8.367-3.754 8.367-8.367v-87.235c0-4.613-3.753-8.367-8.367-8.367h-95.715c-5.498 0-10.37-3.298-12.412-8.402-.028-.072-.054-.145-.076-.219l-6.708-22.64c-1.301-3.138-4.323-5.159-7.728-5.159z"/></g></g><g><g><path d="m138.737 191.375c-1.381 0-2.5-1.119-2.5-2.5v-7.638c0-4.542-3.695-8.237-8.237-8.237s-8.237 3.695-8.237 8.237v7.576c0 1.381-1.119 2.5-2.5 2.5s-2.5-1.119-2.5-2.5v-7.576c0-7.299 5.938-13.237 13.237-13.237s13.237 5.938 13.237 13.237v7.638c0 1.381-1.119 2.5-2.5 2.5z"/></g></g><g><g><path d="m107.263 191.375c-1.381 0-2.5-1.119-2.5-2.5v-7.638c0-12.813 10.424-23.237 23.237-23.237s23.237 10.424 23.237 23.237v7.576c0 1.381-1.119 2.5-2.5 2.5s-2.5-1.119-2.5-2.5v-7.576c0-10.056-8.181-18.237-18.237-18.237s-18.237 8.182-18.237 18.237v7.638c0 1.381-1.119 2.5-2.5 2.5z"/></g></g><g><g><path d="m148.932 241.018h-41.864c-5.59 0-10.138-4.548-10.138-10.138v-33.742c0-5.59 4.548-10.138 10.138-10.138h41.864c5.59 0 10.138 4.548 10.138 10.138v33.742c0 5.59-4.548 10.138-10.138 10.138zm-41.864-49.018c-2.833 0-5.138 2.305-5.138 5.138v33.742c0 2.833 2.305 5.138 5.138 5.138h41.864c2.833 0 5.138-2.305 5.138-5.138v-33.742c0-2.833-2.305-5.138-5.138-5.138z"/></g></g><g><g><path d="m130.046 224.518h-4.093c-2.531 0-4.59-2.06-4.59-4.591v-2.825c-1.958-1.861-3.049-4.46-3-7.159.092-5.074 4.294-9.316 9.366-9.456 2.636-.068 5.109.896 6.99 2.727s2.917 4.283 2.917 6.908c0 2.631-1.092 5.166-3.001 6.98v2.825c.002 2.531-2.057 4.591-4.589 4.591zm-3.683-5h3.273v-2.602c0-1.277.547-2.512 1.5-3.388.967-.889 1.5-2.1 1.5-3.407 0-1.264-.499-2.444-1.404-3.325-.905-.88-2.094-1.329-3.367-1.312-2.398.066-4.46 2.149-4.504 4.55-.024 1.323.524 2.598 1.503 3.498.951.873 1.497 2.106 1.497 3.384v2.602zm-4.879-2.303h.01z"/></g></g></g></g></svg>