<svg enable-background="new 0 0 256 256" height="512" viewBox="0 0 256 256" width="512" xmlns="http://www.w3.org/2000/svg"><g id="Layer_40"><g><g><g><path d="m192.618 20h-130.236c-4.61 0-8.382 3.772-8.382 8.381v25.237c0 4.61 3.772 8.382 8.382 8.382h130.237c4.61 0 8.382-3.772 8.382-8.382v-25.237c-.001-4.609-3.773-8.381-8.383-8.381z" fill="#5290db"/></g></g><g><g><path d="m192.618 122h-130.236c-4.61 0-8.382 3.772-8.382 8.381v25.237c0 4.61 3.772 8.382 8.382 8.382h130.237c4.61 0 8.382-3.772 8.382-8.382v-25.237c-.001-4.609-3.773-8.381-8.383-8.381z" fill="#5290db"/></g></g><g><g><path d="m192.618 71h-130.236c-4.61 0-8.382 3.772-8.382 8.381v25.237c0 4.61 3.772 8.382 8.382 8.382h130.237c4.61 0 8.382-3.772 8.382-8.382v-25.237c-.001-4.609-3.773-8.381-8.383-8.381z" fill="#5290db"/></g></g><g><g><g><path d="m142.017 41.655h-67.034c-2.571 0-4.655-2.084-4.655-4.655s2.084-4.655 4.655-4.655h67.034c2.571 0 4.655 2.084 4.655 4.655s-2.083 4.655-4.655 4.655z" fill="#9be5f9"/></g></g></g><g><g><path d="m162 31c-2.475 0-4.5 2.025-4.5 4.5v3c0 2.475 2.025 4.5 4.5 4.5s4.5-2.025 4.5-4.5v-3c0-2.475-2.025-4.5-4.5-4.5z" fill="#fc657e"/></g></g><g><g><path d="m180 31c-2.475 0-4.5 2.025-4.5 4.5v3c0 2.475 2.025 4.5 4.5 4.5s4.5-2.025 4.5-4.5v-3c0-2.475-2.025-4.5-4.5-4.5z" fill="#fc657e"/></g></g><g><g><g><path d="m142.017 143.655h-67.034c-2.571 0-4.655-2.084-4.655-4.655s2.084-4.655 4.655-4.655h67.034c2.571 0 4.655 2.084 4.655 4.655s-2.083 4.655-4.655 4.655z" fill="#9be5f9"/></g></g></g><g><g><path d="m162 133c-2.475 0-4.5 2.025-4.5 4.5v3c0 2.475 2.025 4.5 4.5 4.5s4.5-2.025 4.5-4.5v-3c0-2.475-2.025-4.5-4.5-4.5z" fill="#fc657e"/></g></g><g><g><path d="m180 133c-2.475 0-4.5 2.025-4.5 4.5v3c0 2.475 2.025 4.5 4.5 4.5s4.5-2.025 4.5-4.5v-3c0-2.475-2.025-4.5-4.5-4.5z" fill="#fc657e"/></g></g><g><g><g><path d="m142.017 92.655h-67.034c-2.571 0-4.655-2.084-4.655-4.655s2.084-4.655 4.655-4.655h67.034c2.571 0 4.655 2.084 4.655 4.655s-2.083 4.655-4.655 4.655z" fill="#9be5f9"/></g></g></g><g><g><path d="m162 82c-2.475 0-4.5 2.025-4.5 4.5v3c0 2.475 2.025 4.5 4.5 4.5s4.5-2.025 4.5-4.5v-3c0-2.475-2.025-4.5-4.5-4.5z" fill="#fc657e"/></g></g><g><g><path d="m180 82c-2.475 0-4.5 2.025-4.5 4.5v3c0 2.475 2.025 4.5 4.5 4.5s4.5-2.025 4.5-4.5v-3c0-2.475-2.025-4.5-4.5-4.5z" fill="#fc657e"/></g></g><g><g><path d="m63.683 113h127.633v9h-127.633z" fill="#c7d7e5"/></g></g><g><g><path d="m63.683 62h127.633v9h-127.633z" fill="#c7d7e5"/></g></g><g><g><path d="m219.918 11.551c-4.149.773-7.419 3.976-8.208 8.041-.04.204-.325.204-.364 0-.789-4.065-4.059-7.268-8.208-8.041-.208-.039-.208-.318 0-.357 4.149-.773 7.419-3.976 8.208-8.041.04-.204.325-.204.364 0 .789 4.065 4.059 7.268 8.208 8.041.208.039.208.318 0 .357z" fill="#f5c84c"/></g></g><g><g><path d="m215.991 117.467c-2.203.41-3.939 2.111-4.357 4.269-.021.108-.172.108-.193 0-.419-2.158-2.155-3.858-4.357-4.269-.111-.021-.111-.169 0-.189 2.203-.41 3.939-2.111 4.357-4.269.021-.108.172-.108.193 0 .419 2.158 2.155 3.858 4.357 4.269.111.021.111.169 0 .189z" fill="#fc657e"/></g></g><g><g><circle cx="179.981" cy="3.377" fill="#87d147" r="3.377"/></g></g><g><g><circle cx="36.981" cy="168.377" fill="#f5c84c" r="3.377"/></g></g><g><g><path d="m36.454 189.758h-1.824v-1.824c0-1.366-1.107-2.473-2.473-2.473s-2.473 1.107-2.473 2.473v1.824h-1.824c-1.366 0-2.473 1.107-2.473 2.473s1.107 2.473 2.473 2.473h1.824v1.824c0 1.366 1.107 2.473 2.473 2.473s2.473-1.107 2.473-2.473v-1.824h1.824c1.366 0 2.473-1.107 2.473-2.473s-1.108-2.473-2.473-2.473z" fill="#70d6f9"/></g></g><g><g><ellipse cx="57.5" cy="216.276" fill="#5290db" rx="24.047" ry="5.6"/></g></g><g><g><path d="m57.5 221.876c-13.281 0-24.047-2.507-24.047-5.6v31.624c0 3.093 10.766 5.6 24.047 5.6s24.047-2.507 24.047-5.6v-31.624c0 3.093-10.766 5.6-24.047 5.6z" fill="#3a70bf"/></g></g><g><g><path d="m57.5 224.376c-4.433 0-26.547-.391-26.547-8.1s22.114-8.1 26.547-8.1 26.547.391 26.547 8.1-22.114 8.1-26.547 8.1zm-20.984-8.1c2.306 1.281 9.518 3.1 20.984 3.1s18.679-1.819 20.984-3.1c-2.306-1.281-9.518-3.1-20.984-3.1s-18.679 1.82-20.984 3.1zm42.672.531h.01z"/></g></g><g><g><path d="m57.5 256c-4.433 0-26.547-.391-26.547-8.1v-30.624c0-1.381 1.119-2.5 2.5-2.5s2.5 1.119 2.5 2.5v30.242c1.404 1.262 8.88 3.482 21.547 3.482s20.143-2.22 21.547-3.482v-30.242c0-1.381 1.119-2.5 2.5-2.5s2.5 1.119 2.5 2.5v30.624c0 7.709-22.114 8.1-26.547 8.1z"/></g></g><g><g><path d="m57.5 234.917c-4.433 0-26.547-.391-26.547-8.1 0-1.381 1.119-2.5 2.5-2.5 1.24 0 2.269.903 2.466 2.087 1.313 1.255 8.808 3.513 21.581 3.513s20.268-2.258 21.581-3.513c.197-1.184 1.226-2.087 2.466-2.087 1.381 0 2.5 1.119 2.5 2.5 0 7.71-22.114 8.1-26.547 8.1zm21.547-8.102v.001s0 0 0-.001zm-43.094 0v.001s0 0 0-.001z"/></g></g><g><g><path d="m57.5 245.459c-4.433 0-26.547-.391-26.547-8.1 0-1.381 1.119-2.5 2.5-2.5 1.24 0 2.269.903 2.466 2.087 1.313 1.255 8.808 3.513 21.581 3.513s20.268-2.258 21.581-3.513c.197-1.184 1.226-2.087 2.466-2.087 1.381 0 2.5 1.119 2.5 2.5 0 7.709-22.114 8.1-26.547 8.1zm21.547-8.102v.002c0-.001 0-.002 0-.002zm-43.094 0v.002c0-.001 0-.002 0-.002z"/></g></g><g><g><ellipse cx="128" cy="216.276" fill="#5290db" rx="24.047" ry="5.6"/></g></g><g><g><path d="m128 221.876c-13.281 0-24.047-2.507-24.047-5.6v31.624c0 3.093 10.766 5.6 24.047 5.6s24.047-2.507 24.047-5.6v-31.624c0 3.093-10.766 5.6-24.047 5.6z" fill="#3a70bf"/></g></g><g><g><path d="m128 224.376c-4.433 0-26.547-.391-26.547-8.1s22.114-8.1 26.547-8.1 26.547.391 26.547 8.1-22.114 8.1-26.547 8.1zm-20.984-8.1c2.306 1.281 9.518 3.1 20.984 3.1s18.679-1.819 20.984-3.1c-2.306-1.281-9.518-3.1-20.984-3.1s-18.679 1.82-20.984 3.1zm42.672.531h.01z"/></g></g><g><g><path d="m128 256c-4.433 0-26.547-.391-26.547-8.1v-30.624c0-1.381 1.119-2.5 2.5-2.5s2.5 1.119 2.5 2.5v30.242c1.404 1.262 8.88 3.482 21.547 3.482s20.143-2.22 21.547-3.482v-30.242c0-1.381 1.119-2.5 2.5-2.5s2.5 1.119 2.5 2.5v30.624c0 7.709-22.114 8.1-26.547 8.1z"/></g></g><g><g><path d="m128 234.917c-4.433 0-26.547-.391-26.547-8.1 0-1.381 1.119-2.5 2.5-2.5 1.24 0 2.269.903 2.466 2.087 1.313 1.255 8.808 3.513 21.581 3.513s20.268-2.258 21.581-3.513c.197-1.184 1.226-2.087 2.466-2.087 1.381 0 2.5 1.119 2.5 2.5 0 7.71-22.114 8.1-26.547 8.1zm21.547-8.102v.001s0 0 0-.001zm-43.094 0v.001s0 0 0-.001z"/></g></g><g><g><path d="m128 245.459c-4.433 0-26.547-.391-26.547-8.1 0-1.381 1.119-2.5 2.5-2.5 1.24 0 2.269.903 2.466 2.087 1.313 1.255 8.808 3.513 21.581 3.513s20.268-2.258 21.581-3.513c.197-1.184 1.226-2.087 2.466-2.087 1.381 0 2.5 1.119 2.5 2.5 0 7.709-22.114 8.1-26.547 8.1zm21.547-8.102v.002c0-.001 0-.002 0-.002zm-43.094 0v.002c0-.001 0-.002 0-.002z"/></g></g><g><g><ellipse cx="198.5" cy="216.276" fill="#5290db" rx="24.047" ry="5.6"/></g></g><g><g><path d="m198.5 221.876c-13.281 0-24.047-2.507-24.047-5.6v31.624c0 3.093 10.766 5.6 24.047 5.6s24.047-2.507 24.047-5.6v-31.624c0 3.093-10.766 5.6-24.047 5.6z" fill="#3a70bf"/></g></g><g><g><path d="m198.5 224.376c-4.433 0-26.547-.391-26.547-8.1s22.114-8.1 26.547-8.1 26.547.391 26.547 8.1-22.114 8.1-26.547 8.1zm-20.984-8.1c2.306 1.281 9.518 3.1 20.984 3.1s18.679-1.819 20.984-3.1c-2.306-1.281-9.518-3.1-20.984-3.1s-18.679 1.82-20.984 3.1zm42.672.531h.01z"/></g></g><g><g><path d="m198.5 256c-4.433 0-26.547-.391-26.547-8.1v-30.624c0-1.381 1.119-2.5 2.5-2.5s2.5 1.119 2.5 2.5v30.242c1.404 1.262 8.88 3.482 21.547 3.482s20.143-2.22 21.547-3.482v-30.242c0-1.381 1.119-2.5 2.5-2.5s2.5 1.119 2.5 2.5v30.624c0 7.709-22.114 8.1-26.547 8.1z"/></g></g><g><g><path d="m198.5 234.917c-4.433 0-26.547-.391-26.547-8.1 0-1.381 1.119-2.5 2.5-2.5 1.24 0 2.269.903 2.466 2.087 1.313 1.255 8.808 3.513 21.581 3.513s20.268-2.258 21.581-3.513c.197-1.184 1.226-2.087 2.466-2.087 1.381 0 2.5 1.119 2.5 2.5 0 7.71-22.114 8.1-26.547 8.1zm21.547-8.102v.001s0 0 0-.001zm-43.094 0v.001s0 0 0-.001z"/></g></g><g><g><path d="m198.5 245.459c-4.433 0-26.547-.391-26.547-8.1 0-1.381 1.119-2.5 2.5-2.5 1.24 0 2.269.903 2.466 2.087 1.313 1.255 8.808 3.513 21.581 3.513s20.268-2.258 21.581-3.513c.197-1.184 1.226-2.087 2.466-2.087 1.381 0 2.5 1.119 2.5 2.5 0 7.709-22.114 8.1-26.547 8.1zm21.547-8.102v.002c0-.001 0-.002 0-.002zm-43.094 0v.002c0-.001 0-.002 0-.002z"/></g></g><g><g><path d="m192.618 64.5h-130.236c-6 0-10.882-4.881-10.882-10.881v-25.238c0-6 4.882-10.881 10.882-10.881h130.236c6 0 10.882 4.881 10.882 10.881v25.237c0 6.001-4.882 10.882-10.882 10.882zm-130.236-42c-3.243 0-5.882 2.638-5.882 5.881v25.237c0 3.243 2.639 5.881 5.882 5.881h130.236c3.243 0 5.882-2.638 5.882-5.881v-25.237c0-3.243-2.639-5.881-5.882-5.881z"/></g></g><g><g><path d="m192.618 166.5h-130.236c-6 0-10.882-4.881-10.882-10.881v-25.237c0-6 4.882-10.881 10.882-10.881h130.236c6 0 10.882 4.881 10.882 10.881v25.237c0 6-4.882 10.881-10.882 10.881zm-130.236-42c-3.243 0-5.882 2.638-5.882 5.881v25.237c0 3.243 2.639 5.881 5.882 5.881h130.236c3.243 0 5.882-2.638 5.882-5.881v-25.237c0-3.243-2.639-5.881-5.882-5.881z"/></g></g><g><g><path d="m192.618 115.5h-130.236c-6 0-10.882-4.881-10.882-10.881v-25.238c0-6 4.882-10.881 10.882-10.881h130.236c6 0 10.882 4.881 10.882 10.881v25.237c0 6.001-4.882 10.882-10.882 10.882zm-130.236-42c-3.243 0-5.882 2.638-5.882 5.881v25.237c0 3.243 2.639 5.881 5.882 5.881h130.236c3.243 0 5.882-2.638 5.882-5.881v-25.237c0-3.243-2.639-5.881-5.882-5.881z"/></g></g><g><g><path d="m128 212c-1.381 0-2.5-1.119-2.5-2.5v-44c0-1.381 1.119-2.5 2.5-2.5s2.5 1.119 2.5 2.5v44c0 1.381-1.119 2.5-2.5 2.5z"/></g></g><g><g><path d="m198.5 213c-1.381 0-2.5-1.119-2.5-2.5v-16.466c0-2.776-2.259-5.034-5.034-5.034h-125.932c-2.775 0-5.034 2.258-5.034 5.034v16.466c0 1.381-1.119 2.5-2.5 2.5s-2.5-1.119-2.5-2.5v-16.466c0-5.533 4.501-10.034 10.034-10.034h125.932c5.533 0 10.034 4.501 10.034 10.034v16.466c0 1.381-1.119 2.5-2.5 2.5z"/></g></g><g><g><g><path d="m142.018 44.155h-67.036c-3.945 0-7.155-3.21-7.155-7.155s3.21-7.155 7.155-7.155h67.035c3.945 0 7.155 3.21 7.155 7.155s-3.209 7.155-7.154 7.155zm-67.036-9.31c-1.188 0-2.155.967-2.155 2.155s.967 2.155 2.155 2.155h67.035c1.188 0 2.155-.967 2.155-2.155s-.967-2.155-2.155-2.155z"/></g></g></g><g><g><path d="m162 45.5c-3.859 0-7-3.14-7-7v-3c0-3.86 3.141-7 7-7s7 3.14 7 7v3c0 3.86-3.141 7-7 7zm0-12c-1.103 0-2 .897-2 2v3c0 1.103.897 2 2 2s2-.897 2-2v-3c0-1.103-.897-2-2-2z"/></g></g><g><g><path d="m180 45.5c-3.859 0-7-3.14-7-7v-3c0-3.86 3.141-7 7-7s7 3.14 7 7v3c0 3.86-3.141 7-7 7zm0-12c-1.103 0-2 .897-2 2v3c0 1.103.897 2 2 2s2-.897 2-2v-3c0-1.103-.897-2-2-2z"/></g></g><g><g><g><path d="m142.018 146.155h-67.036c-3.945 0-7.155-3.21-7.155-7.155s3.21-7.155 7.155-7.155h67.035c3.945 0 7.155 3.21 7.155 7.155s-3.209 7.155-7.154 7.155zm-67.036-9.31c-1.188 0-2.155.967-2.155 2.155s.967 2.155 2.155 2.155h67.035c1.188 0 2.155-.967 2.155-2.155s-.967-2.155-2.155-2.155z"/></g></g></g><g><g><path d="m162 147.5c-3.859 0-7-3.14-7-7v-3c0-3.86 3.141-7 7-7s7 3.14 7 7v3c0 3.86-3.141 7-7 7zm0-12c-1.103 0-2 .897-2 2v3c0 1.103.897 2 2 2s2-.897 2-2v-3c0-1.103-.897-2-2-2z"/></g></g><g><g><path d="m180 147.5c-3.859 0-7-3.14-7-7v-3c0-3.86 3.141-7 7-7s7 3.14 7 7v3c0 3.86-3.141 7-7 7zm0-12c-1.103 0-2 .897-2 2v3c0 1.103.897 2 2 2s2-.897 2-2v-3c0-1.103-.897-2-2-2z"/></g></g><g><g><g><path d="m142.018 95.155h-67.036c-3.945 0-7.155-3.21-7.155-7.155s3.21-7.155 7.155-7.155h67.035c3.945 0 7.155 3.21 7.155 7.155s-3.209 7.155-7.154 7.155zm-67.036-9.31c-1.188 0-2.155.967-2.155 2.155s.967 2.155 2.155 2.155h67.035c1.188 0 2.155-.967 2.155-2.155s-.967-2.155-2.155-2.155z"/></g></g></g><g><g><path d="m162 96.5c-3.859 0-7-3.14-7-7v-3c0-3.86 3.141-7 7-7s7 3.14 7 7v3c0 3.86-3.141 7-7 7zm0-12c-1.103 0-2 .897-2 2v3c0 1.103.897 2 2 2s2-.897 2-2v-3c0-1.103-.897-2-2-2z"/></g></g><g><g><path d="m180 96.5c-3.859 0-7-3.14-7-7v-3c0-3.86 3.141-7 7-7s7 3.14 7 7v3c0 3.86-3.141 7-7 7zm0-12c-1.103 0-2 .897-2 2v3c0 1.103.897 2 2 2s2-.897 2-2v-3c0-1.103-.897-2-2-2z"/></g></g><g><g><path d="m191.316 123.5c-1.381 0-2.5-1.119-2.5-2.5v-7c0-1.381 1.119-2.5 2.5-2.5s2.5 1.119 2.5 2.5v7c0 1.381-1.119 2.5-2.5 2.5z"/></g></g><g><g><path d="m63.684 123.5c-1.381 0-2.5-1.119-2.5-2.5v-7c0-1.381 1.119-2.5 2.5-2.5s2.5 1.119 2.5 2.5v7c0 1.381-1.12 2.5-2.5 2.5z"/></g></g><g><g><path d="m191.316 72.5c-1.381 0-2.5-1.119-2.5-2.5v-7c0-1.381 1.119-2.5 2.5-2.5s2.5 1.119 2.5 2.5v7c0 1.381-1.119 2.5-2.5 2.5z"/></g></g><g><g><path d="m63.684 72.5c-1.381 0-2.5-1.119-2.5-2.5v-7c0-1.381 1.119-2.5 2.5-2.5s2.5 1.119 2.5 2.5v7c0 1.381-1.12 2.5-2.5 2.5z"/></g></g><g><g><path d="m200 55.155h-145c-1.381 0-2.5-1.119-2.5-2.5s1.119-2.5 2.5-2.5h145c1.381 0 2.5 1.119 2.5 2.5s-1.119 2.5-2.5 2.5z"/></g></g><g><g><path d="m200 157.155h-145c-1.381 0-2.5-1.119-2.5-2.5s1.119-2.5 2.5-2.5h145c1.381 0 2.5 1.119 2.5 2.5s-1.119 2.5-2.5 2.5z"/></g></g><g><g><path d="m200 106.155h-145c-1.381 0-2.5-1.119-2.5-2.5s1.119-2.5 2.5-2.5h145c1.381 0 2.5 1.119 2.5 2.5s-1.119 2.5-2.5 2.5z"/></g></g></g></g></svg>