<svg enable-background="new 0 0 256 256" height="512" viewBox="0 0 256 256" width="512" xmlns="http://www.w3.org/2000/svg"><g id="Layer_8"><g><g><g><path d="m214.18 22.25h-172.36c-2.938 0-5.32 2.382-5.32 5.32v15.68h183v-15.68c0-2.938-2.382-5.32-5.32-5.32z" fill="#5290db"/></g></g><g><g><path d="m36.5 43.25v185.18c0 2.938 2.382 5.32 5.32 5.32h172.36c2.938 0 5.32-2.382 5.32-5.32v-185.18z" fill="#edf4fc"/></g></g><g><g><path d="m59 22.25h-17.18c-2.938 0-5.32 2.382-5.32 5.32v15.68h22.5z" fill="#fc657e"/></g></g><g><g><path d="m159.319 110.197c-.132-.093-.265-.186-.398-.278-10.643-7.349-25.175.513-25.175 13.447v54.209c9.525 0 18.345-3.002 25.573-8.11 6.704-4.738 10.655-12.469 10.655-20.679v-17.909c0-8.21-3.95-15.941-10.655-20.68z" fill="#fc8c48"/></g></g><g><g><g><circle cx="146.914" cy="91.188" fill="#5290db" r="6.746"/></g></g></g><g><g><g><circle cx="120.578" cy="91.188" fill="#5290db" r="6.746"/></g></g></g><g><g><path d="m146.914 97.934c-3.726 0-6.746-3.02-6.746-6.746 0-1.574.543-3.019 1.447-4.166-2.401-1.098-5.057-1.732-7.869-1.732s-5.469.634-7.869 1.732c.904 1.148 1.447 2.592 1.447 4.166 0 3.726-3.02 6.746-6.746 6.746-1.566 0-3.004-.539-4.149-1.434-1.081 2.382-1.698 5.018-1.698 7.805 0 1.023.104 2.019.259 2.998 9.247-1.525 18.725 5.587 18.754 16.016h.002.002c.029-10.429 9.507-17.542 18.754-16.016.156-.979.259-1.976.259-2.998 0-2.787-.617-5.423-1.698-7.805-1.145.895-2.582 1.434-4.149 1.434z" fill="#3a70bf"/></g></g><g><g><path d="m128.609 159.721h-5.173c-.975 5.452-3.485 10.37-7.047 14.321 5.332 2.27 11.195 3.533 17.357 3.533v-22.991c0 2.837-2.299 5.137-5.137 5.137z" fill="#fca265"/></g></g><g><g><path d="m97.519 135.968v11.69c2.762 1.09 4.718 3.777 4.718 6.926 0 2.056-.833 3.918-2.181 5.266 1.654 3.428 4.073 6.477 7.135 8.875 3.934-3.455 6.433-8.506 6.433-14.141.001-9.457-7.012-17.286-16.105-18.616z" fill="#fca265"/></g></g><g><g><path d="m108.571 109.919c-.133.092-.266.185-.398.278-3.653 2.582-6.48 6.056-8.304 10.007.02.186.056.367.056.559v5.172c4.809.86 9.198 2.92 12.881 5.835 1.461 1.156 2.821 2.434 4.036 3.845.951 1.104 1.82 2.28 2.599 3.518 1.168 1.857 2.132 3.856 2.861 5.963.486 1.405.867 2.858 1.134 4.351h5.173c1.773 0 3.337.899 4.26 2.265.369.547.636 1.168.773 1.837.068.334.104.681.104 1.035v-31.218c0-12.934-14.531-20.795-25.175-13.447z" fill="#fca265"/></g></g><g><g><path d="m128.609 149.447h-5.173c-2.136-11.94-11.571-21.375-23.511-23.511v-5.172c0-2.837-2.3-5.137-5.137-5.137s-5.137 2.3-5.137 5.137v5.172c-11.94 2.136-21.375 11.571-23.511 23.511h-5.173c-2.838 0-5.137 2.3-5.137 5.137s2.3 5.137 5.137 5.137h5.173c2.136 11.94 11.571 21.375 23.511 23.511v5.172c0 2.837 2.3 5.137 5.137 5.137s5.137-2.3 5.137-5.137v-5.172c11.94-2.136 21.375-11.571 23.511-23.511h5.173c2.838 0 5.137-2.3 5.137-5.137s-2.299-5.137-5.137-5.137zm-33.821 23.974c-10.386 0-18.836-8.45-18.836-18.837 0-10.386 8.45-18.837 18.836-18.837s18.836 8.45 18.836 18.837c.001 10.387-8.45 18.837-18.836 18.837z" fill="#fc657e"/></g></g><g><g><circle cx="94.788" cy="154.584" fill="#fc657e" r="7.449"/></g></g><g><g><path d="m29.332 178.883c-2.473-.46-4.421-2.37-4.891-4.792-.024-.122-.193-.122-.217 0-.47 2.422-2.419 4.331-4.892 4.792-.124.023-.124.189 0 .213 2.473.461 4.421 2.37 4.892 4.792.024.122.193.122.217 0 .47-2.422 2.419-4.331 4.891-4.792.124-.023.124-.19 0-.213z" fill="#87d147"/></g></g><g><g><circle cx="233.384" cy="76.627" fill="#70d6f9" r="3.377"/></g></g><g><g><path d="m146.952 249.159c-3.464.645-6.194 3.319-6.852 6.713-.033.17-.271.17-.304 0-.659-3.393-3.388-6.068-6.852-6.713-.174-.032-.174-.265 0-.298 3.464-.645 6.194-3.32 6.852-6.713.033-.17.271-.17.304 0 .658 3.393 3.388 6.068 6.852 6.713.174.033.174.266 0 .298z" fill="#f5c84c"/></g></g><g><g><path d="m120.089 9.242h-1.824v1.824c0 1.366-1.107 2.473-2.473 2.473s-2.473-1.107-2.473-2.473v-1.824h-1.824c-1.366 0-2.473-1.107-2.473-2.473s1.107-2.473 2.473-2.473h1.824v-1.823c0-1.366 1.107-2.473 2.473-2.473s2.473 1.107 2.473 2.473v1.824h1.824c1.366 0 2.473 1.107 2.473 2.473s-1.108 2.472-2.473 2.472z" fill="#70d6f9"/></g></g><g><g><circle cx="147" cy="8.373" fill="#fc657e" r="3.377"/></g></g><g><g><path d="m219.5 45.75h-183c-1.381 0-2.5-1.119-2.5-2.5v-15.68c0-4.312 3.508-7.82 7.82-7.82h172.361c4.312 0 7.819 3.508 7.819 7.82v15.68c0 1.381-1.119 2.5-2.5 2.5zm-180.5-5h178v-13.18c0-1.555-1.265-2.82-2.819-2.82h-172.361c-1.555 0-2.82 1.265-2.82 2.82z"/></g></g><g><g><path d="m184 35.25h-111c-1.381 0-2.5-1.119-2.5-2.5s1.119-2.5 2.5-2.5h111c1.381 0 2.5 1.119 2.5 2.5s-1.119 2.5-2.5 2.5z"/></g></g><g><g><path d="m207.788 35.25h-10.885c-1.381 0-2.5-1.119-2.5-2.5s1.119-2.5 2.5-2.5h10.885c1.381 0 2.5 1.119 2.5 2.5s-1.119 2.5-2.5 2.5z"/></g></g><g><g><path d="m214.181 236.25h-172.361c-4.312 0-7.82-3.508-7.82-7.82v-185.18c0-1.381 1.119-2.5 2.5-2.5s2.5 1.119 2.5 2.5v185.18c0 1.555 1.265 2.82 2.82 2.82h172.361c1.555 0 2.819-1.265 2.819-2.82v-185.18c0-1.381 1.119-2.5 2.5-2.5s2.5 1.119 2.5 2.5v185.18c0 4.312-3.508 7.82-7.819 7.82z"/></g></g><g><g><path d="m130.257 87.791c-1.171 0-2.216-.827-2.45-2.02-1.153-5.877-3.91-11.515-8.194-16.754-.874-1.069-.716-2.644.353-3.518 1.068-.873 2.643-.716 3.518.353 4.812 5.884 7.917 12.263 9.229 18.958.266 1.355-.617 2.668-1.972 2.934-.163.031-.324.047-.484.047z"/></g></g><g><g><path d="m137.234 87.791c-.16 0-.321-.015-.484-.047-1.354-.266-2.237-1.579-1.972-2.934 1.313-6.696 4.419-13.075 9.231-18.959.875-1.069 2.451-1.225 3.519-.352 1.068.874 1.227 2.449.353 3.518-4.286 5.239-7.044 10.877-8.196 16.755-.234 1.191-1.28 2.019-2.451 2.019z"/></g></g><g><g><path d="m163.187 114.604c-.724 0-1.441-.313-1.936-.917-.874-1.068-.718-2.644.351-3.518l5.403-4.423 5.538-15.645c.208-.59.631-1.08 1.183-1.374l8.286-4.405c1.217-.648 2.731-.186 3.381 1.034.648 1.219.186 2.732-1.033 3.381l-7.428 3.949-5.446 15.386c-.152.431-.42.811-.772 1.101l-5.943 4.865c-.466.381-1.027.566-1.584.566z"/></g></g><g><g><path d="m200.17 153.612c-.265 0-.534-.042-.8-.132l-10.026-3.386c-.515-.174-.958-.51-1.265-.959l-8.278-12.123-8.359.827c-1.383.137-2.599-.868-2.734-2.242-.136-1.374.868-2.598 2.242-2.734l9.834-.973c.909-.093 1.795.324 2.311 1.078l8.643 12.655 9.233 3.118c1.309.442 2.011 1.86 1.568 3.168-.352 1.045-1.326 1.703-2.369 1.703z"/></g></g><g><g><path d="m175.134 197.983c-.776 0-1.542-.361-2.03-1.039l-4.614-6.408c-.425-.589-.572-1.334-.403-2.041l3.405-14.283-6.746-9.649c-.791-1.132-.516-2.69.616-3.481 1.131-.791 2.689-.516 3.481.616l7.39 10.569c.409.585.549 1.318.383 2.013l-3.4 14.262 3.945 5.479c.808 1.121.553 2.683-.567 3.49-.444.319-.954.472-1.46.472z"/></g></g><g><g><path d="m104.305 114.604c-.557 0-1.118-.185-1.582-.565l-5.942-4.865c-.354-.29-.621-.67-.773-1.1l-5.446-15.386-7.427-3.949c-1.219-.648-1.682-2.162-1.034-3.381s2.163-1.682 3.381-1.034l8.286 4.405c.553.293.975.784 1.184 1.373l5.538 15.645 5.402 4.423c1.068.875 1.226 2.45.351 3.518-.496.604-1.214.916-1.938.916z"/></g></g><g><g><path d="m59 45.156c-1.381 0-2.5-1.119-2.5-2.5v-19.875c0-1.381 1.119-2.5 2.5-2.5s2.5 1.119 2.5 2.5v19.875c0 1.381-1.119 2.5-2.5 2.5z"/></g></g><g><g><path d="m133.746 180.075c-1.381 0-2.5-1.119-2.5-2.5v-54.209c0-6.989 3.859-13.356 10.071-16.616 6.196-3.251 13.307-2.836 19.024 1.112l.42.293c7.334 5.182 11.712 13.676 11.712 22.721v17.909c0 9.045-4.378 17.539-11.712 22.721-7.931 5.606-17.273 8.569-27.015 8.569zm16.21-70.485c-2.137 0-4.292.526-6.315 1.588-4.63 2.43-7.395 6.986-7.395 12.188v51.636c7.796-.458 15.229-3.054 21.631-7.579 6.009-4.247 9.597-11.214 9.597-18.638v-17.909c0-7.423-3.588-14.391-9.597-18.638-.001 0-.001 0-.001 0l-.369-.257c-2.301-1.589-4.912-2.391-7.551-2.391z"/></g></g><g><g><g><path d="m146.914 100.434c-5.098 0-9.245-4.148-9.245-9.246s4.147-9.246 9.245-9.246c5.099 0 9.246 4.147 9.246 9.246s-4.147 9.246-9.246 9.246zm0-13.492c-2.341 0-4.245 1.905-4.245 4.246s1.904 4.246 4.245 4.246 4.246-1.905 4.246-4.246-1.905-4.246-4.246-4.246z"/></g></g></g><g><g><g><path d="m120.578 100.434c-5.098 0-9.246-4.148-9.246-9.246s4.147-9.246 9.246-9.246 9.246 4.147 9.246 9.246-4.148 9.246-9.246 9.246zm0-13.492c-2.341 0-4.246 1.905-4.246 4.246s1.905 4.246 4.246 4.246 4.246-1.905 4.246-4.246-1.905-4.246-4.246-4.246z"/></g></g></g><g><g><path d="m114.926 109.393c-1.225 0-2.295-.901-2.472-2.149-.149-1.051-.222-2.012-.222-2.938 0-2.749.527-5.445 1.566-8.012.519-1.28 1.977-1.897 3.255-1.379 1.28.518 1.897 1.976 1.379 3.255-.797 1.969-1.201 4.033-1.201 6.136 0 .689.056 1.42.172 2.236.194 1.367-.757 2.632-2.124 2.826-.118.016-.237.025-.353.025z"/></g></g><g><g><path d="m140.933 89.226c-.317 0-.641-.061-.952-.189-4.01-1.653-8.452-1.655-12.466 0-1.277.526-2.738-.083-3.264-1.359s.083-2.738 1.359-3.264c5.229-2.155 11.051-2.154 16.278.001 1.276.526 1.885 1.988 1.358 3.264-.399.965-1.331 1.547-2.313 1.547z"/></g></g><g><g><path d="m152.556 109.468c-.12 0-.241-.009-.363-.027-1.366-.199-2.313-1.468-2.113-2.834.122-.84.182-1.593.182-2.303 0-2.19-.438-4.334-1.3-6.373-.538-1.272.058-2.739 1.329-3.277 1.267-.538 2.738.056 3.276 1.329 1.124 2.659 1.694 5.458 1.694 8.321 0 .954-.076 1.942-.234 3.023-.181 1.245-1.25 2.141-2.471 2.141z"/></g></g><g><g><path d="m133.746 180.075c-5.942 0-11.743-1.104-17.24-3.283-1.284-.509-1.912-1.961-1.403-3.245s1.963-1.91 3.245-1.403c4.909 1.945 10.089 2.931 15.398 2.931 1.381 0 2.5 1.119 2.5 2.5s-1.119 2.5-2.5 2.5z"/></g></g><g><g><path d="m106.506 170.669c-.568 0-1.14-.193-1.608-.587-2.774-2.336-5.035-5.161-6.717-8.397-.637-1.225-.161-2.734 1.064-3.371 1.224-.638 2.734-.161 3.371 1.064 1.379 2.652 3.23 4.966 5.501 6.878 1.057.889 1.192 2.466.303 3.522-.495.589-1.202.891-1.914.891z"/></g></g><g><g><path d="m97.519 149.438c-1.381 0-2.5-1.119-2.5-2.5v-10.249c0-1.381 1.119-2.5 2.5-2.5s2.5 1.119 2.5 2.5v10.249c0 1.38-1.12 2.5-2.5 2.5z"/></g></g><g><g><path d="m133.746 157.084c-1.381 0-2.5-1.119-2.5-2.5v-31.218c0-5.202-2.764-9.758-7.394-12.188-4.52-2.373-9.701-2.073-13.86.798l-.378.264c-3.094 2.187-5.615 5.167-7.288 8.617-.602 1.242-2.096 1.762-3.34 1.159-1.242-.603-1.761-2.098-1.159-3.34 2.041-4.208 5.119-7.846 8.904-10.521l.423-.295c5.715-3.946 12.827-4.361 19.022-1.109 6.212 3.26 10.07 9.626 10.07 16.615v31.218c0 1.381-1.119 2.5-2.5 2.5z"/></g></g><g><g><path d="m94.788 196.042c-4.211 0-7.637-3.426-7.637-7.638v-3.151c-11.292-2.816-20.215-11.739-23.031-23.032h-3.152c-4.211 0-7.637-3.426-7.637-7.637s3.426-7.637 7.637-7.637h3.152c2.816-11.293 11.738-20.216 23.031-23.032v-3.151c0-4.211 3.426-7.637 7.637-7.637s7.637 3.426 7.637 7.637v3.151c11.292 2.816 20.215 11.739 23.031 23.032h3.152c4.211 0 7.637 3.426 7.637 7.637s-3.426 7.637-7.637 7.637h-3.152c-2.816 11.293-11.739 20.216-23.031 23.032v3.151c0 4.212-3.426 7.638-7.637 7.638zm-33.821-44.095c-1.454 0-2.637 1.183-2.637 2.637s1.183 2.637 2.637 2.637h5.173c1.211 0 2.248.868 2.461 2.06 1.95 10.903 10.586 19.54 21.49 21.49 1.192.213 2.06 1.25 2.06 2.461v5.172c0 1.455 1.183 2.638 2.637 2.638s2.637-1.183 2.637-2.638v-5.172c0-1.211.868-2.248 2.06-2.461 10.903-1.95 19.54-10.586 21.49-21.49.213-1.192 1.25-2.06 2.461-2.06h5.173c1.455 0 2.637-1.183 2.637-2.637s-1.183-2.637-2.637-2.637h-5.173c-1.211 0-2.248-.868-2.461-2.06-1.95-10.904-10.586-19.54-21.49-21.491-1.192-.213-2.06-1.25-2.06-2.461v-5.172c0-1.454-1.183-2.637-2.637-2.637s-2.637 1.183-2.637 2.637v5.172c0 1.211-.868 2.248-2.06 2.461-10.904 1.951-19.54 10.587-21.49 21.491-.213 1.192-1.25 2.06-2.461 2.06zm33.821 23.974c-11.765 0-21.336-9.572-21.336-21.337s9.571-21.337 21.336-21.337 21.336 9.572 21.336 21.337-9.571 21.337-21.336 21.337zm0-37.674c-9.008 0-16.336 7.329-16.336 16.337s7.329 16.337 16.336 16.337 16.336-7.329 16.336-16.337-7.328-16.337-16.336-16.337z"/></g></g><g><g><path d="m94.788 164.533c-5.486 0-9.949-4.463-9.949-9.949s4.463-9.949 9.949-9.949 9.949 4.463 9.949 9.949-4.463 9.949-9.949 9.949zm0-14.898c-2.729 0-4.949 2.22-4.949 4.949s2.22 4.949 4.949 4.949 4.949-2.22 4.949-4.949-2.22-4.949-4.949-4.949z"/></g></g></g></g></svg>