<svg enable-background="new 0 0 256 256" height="512" viewBox="0 0 256 256" width="512" xmlns="http://www.w3.org/2000/svg"><g id="Layer_38"><g><g><g><circle cx="201.799" cy="146.14" fill="#70d6f9" r="51.701"/></g></g><g><g><path d="m164.271 48.986c0-3.277-2.656-5.933-5.933-5.933h-44.169c-3.276 0-5.933 2.656-5.933 5.933v35.068h56.035z" fill="#fcdd86"/></g></g><g><g><path d="m154.079 166.056h-45.843v17.767c0 15.474 12.544 28.017 28.017 28.017 15.474 0 28.017-12.544 28.017-28.017v-2.144c-4.277-4.515-7.755-9.795-10.191-15.623z" fill="#c7d7e5"/></g></g><g><g><path d="m164.271 110.6v-26.546h-56.035v41.001h46.36c2.4-5.365 5.685-10.244 9.675-14.455z" fill="#f5c84c"/></g></g><g><g><path d="m150.098 146.14c0-7.513 1.616-14.644 4.497-21.085h-46.36v41.001h45.843c-2.56-6.13-3.98-12.857-3.98-19.916z" fill="#edb311"/></g></g><g><g><path d="m108.236 84.054v-4.79l-15.142-26.227c-1.638-2.838-5.267-3.81-8.104-2.171l-38.252 22.084c-2.837 1.638-3.81 5.266-2.171 8.104l17.534 30.37 46.136-26.636v-.734z" fill="#f98fa6"/></g></g><g><g><g><path d="m108.236 183.823v-4.347l-5.135 2.965 8.884 15.387c.032.055.067.107.099.161-2.442-4.158-3.848-8.996-3.848-14.166z" fill="#70d6f9"/></g></g></g><g><g><path d="m108.236 84.788-46.136 26.637 20.5 35.508 25.635-14.8c.001-10.74.001-37.61.001-47.345z" fill="#fc657e"/></g></g><g><g><path d="m108.236 132.132-25.635 14.8 20.5 35.508 5.135-2.965c0-12.858 0-38.985 0-47.343z" fill="#ef4460"/></g></g><g><g><path d="m59.704 107.274-26.219-15.138c-2.838-1.638-6.466-.666-8.104 2.172l-22.085 38.251c-1.638 2.838-.666 6.466 2.171 8.104l30.37 17.534 26.634-46.131c-.074-.128-2.864-4.959-2.767-4.792z" fill="#5290db"/></g></g><g><g><g><path d="m112.083 197.987s0 .001.001.001c-.032-.055-.067-.106-.099-.161l-2.17-3.759-2.962 5.13 15.387 8.884c.021.012.043.023.065.035-4.225-2.431-7.755-5.928-10.222-10.13z" fill="#70d6f9"/></g></g><g><g><path d="m111.235 196.431c-.009-.018-.019-.036-.028-.054.009.018.019.036.028.054z" fill="#70d6f9"/></g></g></g><g><g><path d="m62.471 112.067-26.634 46.131 35.508 20.5 14.798-25.63c-5.37-9.301-18.805-32.571-23.672-41.001z" fill="#3a70bf"/></g></g><g><g><g><path d="m86.143 153.068-14.798 25.63 35.508 20.5 2.962-5.13c-6.419-11.118-19.483-33.744-23.672-41z" fill="#29589f"/></g></g></g><g><g><circle cx="136.253" cy="187.24" fill="#edf4fc" r="8.884"/></g></g><g><g><path d="m229.606 140.486c-1.007-1.075-3.344-2.067-3.344-4.798v-2.204c0-7.208-5.864-13.073-13.073-13.073-2.833 0-5.137 2.304-5.137 5.137s2.304 5.137 5.137 5.137c1.543 0 2.798 1.255 2.798 2.798.158.972-1.03 7.395 4.459 12.655-5.495 5.265-4.299 11.672-4.459 12.656 0 1.543-1.255 2.798-2.798 2.798-2.833 0-5.137 2.305-5.137 5.137 0 2.833 2.304 5.137 5.137 5.137 7.208 0 13.073-5.864 13.073-13.073v-2.204c0-2.735 2.311-3.696 3.345-4.799 1.652-1.416 2.6-3.476 2.6-5.653 0-2.173-.948-4.233-2.601-5.651z" fill="#edf4fc"/></g></g><g><g><path d="m187.61 133.484c0-1.543 1.255-2.798 2.798-2.798 2.832 0 5.137-2.305 5.137-5.137 0-2.833-2.304-5.137-5.137-5.137-7.208 0-13.073 5.864-13.073 13.073v2.204c0 2.735-2.302 3.687-3.344 4.8-1.652 1.416-2.6 3.476-2.6 5.652s.947 4.236 2.6 5.653c1.004 1.073 3.344 2.068 3.344 4.799v2.204c0 7.208 5.865 13.073 13.073 13.073 2.832 0 5.137-2.304 5.137-5.137s-2.304-5.137-5.137-5.137c-1.543 0-2.798-1.255-2.798-2.798-.158-.972 1.03-7.396-4.46-12.656 5.496-5.267 4.3-11.674 4.46-12.658z" fill="#edf4fc"/></g></g><g><g><path d="m201.799 200.34c-29.886 0-54.2-24.314-54.2-54.201s24.314-54.201 54.2-54.201c29.887 0 54.201 24.314 54.201 54.201s-24.314 54.201-54.201 54.201zm0-103.401c-27.129 0-49.2 22.071-49.2 49.201s22.071 49.201 49.2 49.201c27.13 0 49.201-22.071 49.201-49.201s-22.071-49.201-49.201-49.201z"/></g></g><g><g><path d="m164.271 85.554c-1.381 0-2.5-1.119-2.5-2.5v-34.068c0-1.893-1.54-3.433-3.433-3.433h-44.169c-1.893 0-3.433 1.54-3.433 3.433v34.068c0 1.381-1.119 2.5-2.5 2.5s-2.5-1.119-2.5-2.5v-34.068c0-4.65 3.783-8.433 8.433-8.433h44.169c4.649 0 8.433 3.783 8.433 8.433v34.068c0 1.381-1.12 2.5-2.5 2.5z"/></g></g><g><g><path d="m136.253 214.34c-16.827 0-30.517-13.69-30.517-30.517v-17.767c0-1.381 1.119-2.5 2.5-2.5h44.843c1.381 0 2.5 1.119 2.5 2.5s-1.119 2.5-2.5 2.5h-42.343v15.267c0 14.07 11.447 25.517 25.517 25.517s25.518-11.447 25.518-25.517v-1.144c0-1.381 1.119-2.5 2.5-2.5s2.5 1.119 2.5 2.5v1.144c0 16.827-13.691 30.517-30.518 30.517z"/></g></g><g><g><path d="m153.596 127.555h-45.36c-1.381 0-2.5-1.119-2.5-2.5v-41.001c0-1.381 1.119-2.5 2.5-2.5h56.035c1.381 0 2.5 1.119 2.5 2.5v25.546c0 1.381-1.119 2.5-2.5 2.5s-2.5-1.119-2.5-2.5v-23.046h-51.035v36.001h42.86c1.381 0 2.5 1.119 2.5 2.5s-1.119 2.5-2.5 2.5z"/></g></g><g><g><path d="m153.079 168.556h-44.843c-1.381 0-2.5-1.119-2.5-2.5v-41.001c0-1.381 1.119-2.5 2.5-2.5h45.36c1.381 0 2.5 1.119 2.5 2.5s-1.119 2.5-2.5 2.5h-42.86v36.001h42.343c1.381 0 2.5 1.119 2.5 2.5s-1.119 2.5-2.5 2.5z"/></g></g><g><g><path d="m62.103 113.925c-.864 0-1.705-.448-2.167-1.25l-17.534-30.37c-1.126-1.951-1.426-4.223-.843-6.399s1.979-3.994 3.929-5.12l38.252-22.085c4.026-2.324 9.194-.939 11.519 3.086l15.142 26.228c.69 1.196.281 2.725-.915 3.415-1.197.691-2.725.281-3.415-.915l-15.142-26.228c-.947-1.639-3.05-2.202-4.689-1.256l-38.252 22.085c-.794.458-1.362 1.199-1.6 2.084-.237.886-.115 1.811.343 2.605l17.534 30.37c.69 1.196.281 2.725-.915 3.415-.393.227-.823.335-1.247.335z"/></g></g><g><g><g><path d="m103.104 184.941c-.864 0-1.705-.448-2.167-1.25-.69-1.196-.281-2.725.915-3.415l5.134-2.964c1.195-.691 2.725-.281 3.415.915s.281 2.725-.915 3.415l-5.134 2.964c-.394.227-.824.335-1.248.335z"/></g></g></g><g><g><path d="m82.604 149.433c-.864 0-1.705-.448-2.167-1.25-.69-1.196-.281-2.725.915-3.415l25.635-14.8c1.195-.692 2.725-.28 3.415.915.69 1.196.281 2.725-.915 3.415l-25.635 14.8c-.394.227-.825.335-1.248.335z"/></g></g><g><g><path d="m62.103 113.925c-.864 0-1.705-.448-2.167-1.25-.69-1.196-.281-2.725.915-3.415l46.135-26.637c1.195-.692 2.725-.281 3.415.915s.281 2.725-.915 3.415l-46.135 26.637c-.394.227-.824.335-1.248.335z"/></g></g><g><g><path d="m35.835 160.698c-.424 0-.854-.108-1.248-.335l-30.37-17.534c-1.951-1.126-3.346-2.945-3.929-5.12-.583-2.176-.284-4.448.842-6.399l22.085-38.252c1.126-1.951 2.944-3.346 5.12-3.929 2.175-.583 4.447-.284 6.399.842l26.219 15.138c1.196.69 1.605 2.219.915 3.415-.69 1.195-2.22 1.605-3.415.915l-26.218-15.138c-.794-.458-1.719-.58-2.605-.343s-1.625.805-2.084 1.599l-22.085 38.253c-.946 1.639-.383 3.743 1.256 4.689l30.37 17.534c1.196.69 1.605 2.219.915 3.415-.462.802-1.303 1.25-2.167 1.25z"/></g></g><g><g><g><path d="m121.033 210.27-15.43-8.906c-1.196-.69-1.605-2.219-.915-3.415.689-1.195 2.218-1.606 3.415-.915l15.387 8.883-1.185 2.201z"/></g></g></g><g><g><path d="m71.343 181.199c-.424 0-.854-.108-1.248-.335l-35.508-20.5c-.574-.332-.993-.877-1.165-1.518-.171-.64-.082-1.323.25-1.897l26.634-46.131c.447-.773 1.272-1.25 2.165-1.25s1.718.477 2.165 1.25l23.672 41.001c.447.773.447 1.727 0 2.5l-14.798 25.63c-.463.801-1.303 1.25-2.167 1.25zm-32.091-23.916 31.178 18 12.826-22.215-20.785-36.001z"/></g></g><g><g><g><path d="m109.817 196.569c-.864 0-1.705-.448-2.167-1.25l-23.672-41.001c-.69-1.196-.281-2.725.915-3.415 1.196-.693 2.725-.281 3.415.915l23.672 41.001c.69 1.196.281 2.725-.915 3.415-.394.227-.824.335-1.248.335z"/></g></g><g><g><path d="m106.851 201.699c-.424 0-.854-.108-1.248-.335-1.196-.69-1.605-2.219-.915-3.415l2.962-5.13c.689-1.196 2.218-1.607 3.415-.915 1.196.69 1.605 2.219.915 3.415l-2.962 5.13c-.463.802-1.303 1.25-2.167 1.25z"/></g></g><g><g><path d="m106.851 201.699c-.424 0-.854-.108-1.248-.335l-35.508-20.5c-1.196-.69-1.605-2.219-.915-3.415.689-1.195 2.219-1.607 3.415-.915l35.508 20.5c1.196.69 1.605 2.219.915 3.415-.463.801-1.303 1.25-2.167 1.25z"/></g></g></g><g><g><path d="m136.253 198.624c-6.276 0-11.383-5.107-11.383-11.384s5.107-11.383 11.383-11.383c6.277 0 11.384 5.106 11.384 11.383s-5.107 11.384-11.384 11.384zm0-17.768c-3.52 0-6.383 2.864-6.383 6.383 0 3.52 2.863 6.384 6.383 6.384 3.521 0 6.384-2.864 6.384-6.384 0-3.519-2.864-6.383-6.384-6.383z"/></g></g><g><g><path d="m213.189 174.368c-4.211 0-7.637-3.426-7.637-7.637s3.426-7.637 7.637-7.637c.162 0 .299-.137.299-.298 0-4.84.341-8.553 3.585-12.656-3.252-4.115-3.585-7.915-3.585-12.655 0-.162-.137-.298-.299-.298-4.211 0-7.637-3.426-7.637-7.638 0-4.211 3.426-7.637 7.637-7.637 8.587 0 15.573 6.986 15.573 15.573v2.204c0 .789.432 1.211 1.492 2.054.361.287.734.583 1.075.93 2.147 1.89 3.377 4.604 3.377 7.467s-1.229 5.577-3.376 7.466c-.349.355-.728.656-1.095.948-1.069.851-1.474 1.247-1.474 2.038v2.203c.002 8.587-6.985 15.573-15.572 15.573zm5.296-15.409c-.087 2.846-2.429 5.134-5.296 5.134-1.454 0-2.637 1.183-2.637 2.637s1.183 2.637 2.637 2.637c5.83 0 10.573-4.743 10.573-10.573v-2.203c0-3.277 2.104-4.951 3.361-5.951.858-.684.535-.473.856-.747 1.097-.941 1.727-2.31 1.727-3.754s-.63-2.814-1.728-3.755c-.38-.326.041-.031-.836-.729-1.182-.939-3.381-2.688-3.381-5.968v-2.204c0-5.83-4.743-10.573-10.573-10.573-1.454 0-2.637 1.183-2.637 2.637 0 1.455 1.183 2.638 2.637 2.638 2.867 0 5.21 2.289 5.296 5.135.028.305.02.625.009 1.035-.05 1.882-.166 6.289 3.683 9.979.492.471.771 1.124.771 1.805 0 .682-.278 1.333-.771 1.805-3.851 3.689-3.732 8.089-3.683 9.968.012.416.021.739-.008 1.047z"/></g></g><g><g><path d="m190.408 174.368c-8.587 0-15.573-6.986-15.573-15.573v-2.203c0-.79-.433-1.213-1.495-2.058-.36-.287-.731-.582-1.072-.928-2.146-1.889-3.376-4.603-3.376-7.467s1.229-5.577 3.375-7.466c.352-.358.732-.661 1.102-.955 1.064-.847 1.467-1.242 1.467-2.031v-2.204c0-8.587 6.986-15.573 15.573-15.573 4.211 0 7.637 3.426 7.637 7.637s-3.426 7.638-7.637 7.638c-.161 0-.298.136-.298.298 0 4.798-.335 8.546-3.585 12.655 3.149 3.982 3.585 7.624 3.585 12.655 0 .162.137.298.298.298 4.211 0 7.637 3.426 7.637 7.637s-3.427 7.64-7.638 7.64zm0-51.456c-5.83 0-10.573 4.743-10.573 10.573v2.204c0 3.274-2.099 4.945-3.353 5.943-.265.21-.537.428-.666.565-.063.066-.129.129-.198.189-1.098.941-1.727 2.309-1.727 3.754s.629 2.813 1.727 3.754c.069.059.136.123.197.189.117.124.381.334.637.538 1.183.94 3.383 2.69 3.383 5.971v2.203c0 5.83 4.743 10.573 10.573 10.573 1.454 0 2.637-1.183 2.637-2.637s-1.183-2.637-2.637-2.637c-2.866 0-5.209-2.289-5.295-5.135-.028-.305-.02-.625-.009-1.036.05-1.882.167-6.289-3.684-9.978-.492-.471-.771-1.124-.771-1.805s.278-1.334.771-1.805c3.852-3.689 3.733-8.089 3.684-9.968-.012-.415-.02-.738.009-1.046.087-2.846 2.429-5.134 5.295-5.134 1.454 0 2.637-1.183 2.637-2.638 0-1.454-1.183-2.637-2.637-2.637zm-2.798 10.572h.01z"/></g></g><g><g><path d="m193.918 60.998c-4.149.773-7.419 3.976-8.208 8.041-.04.204-.325.204-.364 0-.789-4.065-4.059-7.268-8.208-8.041-.208-.039-.208-.318 0-.357 4.149-.773 7.419-3.976 8.208-8.041.04-.204.325-.204.364 0 .789 4.065 4.059 7.268 8.208 8.041.208.039.208.318 0 .357z" fill="#f5c84c"/></g></g><g><g><path d="m178.538 210.553c-2.478.461-4.431 2.375-4.902 4.802-.024.122-.194.122-.217 0-.471-2.427-2.424-4.341-4.902-4.802-.124-.023-.124-.19 0-.213 2.478-.461 4.431-2.375 4.902-4.802.024-.122.194-.122.217 0 .471 2.427 2.424 4.341 4.902 4.802.124.024.124.19 0 .213z" fill="#70d6f9"/></g></g><g><g><circle cx="200.981" cy="78.824" fill="#fc657e" r="3.377"/></g></g><g><g><circle cx="55.981" cy="49.824" fill="#87d147" r="3.377"/></g></g><g><g><circle cx="38.981" cy="180.824" fill="#f5c84c" r="3.377"/></g></g><g><g><path d="m60.454 193.205h-1.824v-1.824c0-1.366-1.107-2.473-2.473-2.473s-2.473 1.107-2.473 2.473v1.824h-1.824c-1.366 0-2.473 1.107-2.473 2.473s1.107 2.473 2.473 2.473h1.824v1.824c0 1.366 1.107 2.473 2.473 2.473s2.473-1.107 2.473-2.473v-1.824h1.824c1.366 0 2.473-1.107 2.473-2.473s-1.108-2.473-2.473-2.473z" fill="#70d6f9"/></g></g></g></g></svg>