<svg enable-background="new 0 0 256 256" height="512" viewBox="0 0 256 256" width="512" xmlns="http://www.w3.org/2000/svg"><g id="Layer_34"><g><g><g><circle cx="128" cy="49.994" fill="#edf4fc" r="38.342"/></g></g><g><g><path d="m120.12 42.889v26.146c0 1.3 1.054 2.354 2.354 2.354h11.053c1.3 0 2.354-1.054 2.354-2.354v-26.146z" fill="#3a70bf"/></g></g><g><g><path d="m129.461 30.553c-.613-1.179-2.309-1.179-2.923 0l-6.419 12.336h15.761z" fill="#fcdd86"/></g></g><g><g><circle cx="215.158" cy="87.994" fill="#edf4fc" r="38.342"/></g></g><g><g><path d="m214.334 63.973-18.872 10.841c-1.107.636-1.107 2.232 0 2.868l18.872 10.841c.51.293 1.137.293 1.647 0l18.872-10.841c1.107-.636 1.107-2.232 0-2.868l-18.872-10.841c-.51-.293-1.137-.293-1.647 0z" fill="#fcdd86"/></g></g><g><g><path d="m234.853 98.305-7.727-4.439-11.145 6.402c-.51.293-1.137.293-1.647 0l-11.145-6.402-7.727 4.439c-1.107.636-1.107 2.232 0 2.868l18.872 10.841c.51.293 1.137.293 1.647 0l18.872-10.841c1.107-.636 1.107-2.232 0-2.868z" fill="#9a4993"/></g></g><g><g><path d="m234.853 86.56-7.727-4.439-11.145 6.402c-.51.293-1.137.293-1.647 0l-11.145-6.402-7.727 4.439c-1.107.636-1.107 2.232 0 2.868l18.872 10.841c.51.293 1.137.293 1.647 0l18.872-10.841c1.107-.636 1.107-2.233 0-2.868z" fill="#fc657e"/></g></g><g><g><circle cx="40.842" cy="87.52" fill="#edf4fc" r="38.342"/></g></g><g><g><circle cx="48.973" cy="79.147" fill="#70d6f9" r="16.161"/></g></g><g><g><path d="m33.979 96.907-2.767-2.767c-.993-.993-2.604-.993-3.597 0l-9.838 9.838c-.993.993-.993 2.604 0 3.597l2.767 2.767c.993.993 2.604.993 3.597 0l9.838-9.838c.994-.993.994-2.603 0-3.597z" fill="#fc657e"/></g></g><g><g><path d="m131.918 126.1c-10.584 13.31-26.198 11.432-31.448 10.333-.954-.2-1.869.519-1.87 1.494v.02 23.311c0 15.938 13.04 28.978 28.978 28.978 15.938 0 28.978-13.04 28.978-28.978v-25.814c0-.151-.002-.302-.005-.453-.016-.822-.674-1.499-1.496-1.523-12.039-.353-18.381-5.124-20.819-7.513-.664-.653-1.738-.584-2.318.145z" fill="#f9c1a8"/></g></g><g><g><path d="m186.02 220.683c-.278-4.997-3.773-9.232-8.626-10.454l-22.505-5.665-7.954-3.922c-3.419-1.686-5.584-5.167-5.584-8.979v-4.933c-4.102 2.234-8.796 3.505-13.772 3.505-4.64 0-9.03-1.112-12.929-3.072v4.5c0 3.812-2.165 7.293-5.584 8.979l-7.954 3.922-22.505 5.665c-4.853 1.222-8.348 5.457-8.627 10.454l-2.204 29.461c-.102 1.822 1.349 3.356 3.174 3.356h114.099c1.825 0 3.276-1.533 3.174-3.356z" fill="#70d6f9"/></g></g><g><g><path d="m101.564 204.342c3.173 11.62 13.845 20.229 26.436 20.229 12.591 0 23.263-8.609 26.436-20.229l-7.502-3.699c-3.419-1.686-5.584-5.167-5.584-8.979v-4.933c-4.102 2.234-8.796 3.505-13.772 3.505-4.64 0-9.03-1.112-12.929-3.072v4.5c0 3.812-2.165 7.293-5.584 8.979z" fill="#9be5f9"/></g></g><g><g><path d="m146.934 200.643c-3.419-1.686-5.584-5.167-5.584-8.979v-4.933c-4.102 2.234-8.796 3.505-13.772 3.505-4.64 0-9.03-1.112-12.929-3.072v4.5c0 3.812-2.165 7.293-5.584 8.979l-1.249.616c3.775 7.324 11.416 12.366 20.183 12.366s16.408-5.042 20.183-12.366z" fill="#f9c1a8"/></g></g><g><g><path d="m158.417 139.172c-.633 0-1.253.053-1.86.147v21.938c0 .654-.03 1.3-.073 1.943.631.102 1.273.169 1.933.169 6.682 0 12.099-5.417 12.099-12.099s-5.418-12.098-12.099-12.098z" fill="#f9c1a8"/></g></g><g><g><path d="m98.6 161.258c0-3.002 0-15.969 0-21.938-.607-.094-1.227-.147-1.86-.147-6.682 0-12.099 5.417-12.099 12.099s5.417 12.099 12.099 12.099c.659 0 1.302-.067 1.933-.169-.043-.644-.073-1.291-.073-1.944z" fill="#f9c1a8"/></g></g><g><g><g><path d="m96.741 139.173c.633 0 1.253.053 1.86.147v-1.373c0-.007 0-.013 0-.02.001-.975.916-1.694 1.87-1.494 5.25 1.099 20.864 2.977 31.448-10.333.58-.729 1.654-.798 2.319-.146 2.437 2.389 8.78 7.16 20.819 7.513.822.024 1.48.701 1.496 1.523.003.151.005.302.005.453v3.876c.607-.094 1.227-.147 1.86-.147 3.261 0 6.216 1.297 8.391 3.395v-21.762c0-9.104-7.449-16.553-16.553-16.553-3.088 0-5.975.873-8.456 2.36-2.898-4.837-8.177-8.102-14.195-8.102h-8.5c-16.451 0-29.912 13.46-29.912 29.912v13.403c2.069-1.656 4.69-2.652 7.548-2.652z" fill="#414344"/></g></g></g><g><g><path d="m40.842 128.362c-22.521 0-40.842-18.321-40.842-40.842s18.321-40.842 40.842-40.842 40.843 18.322 40.843 40.842-18.323 40.842-40.843 40.842zm0-76.684c-19.764 0-35.842 16.078-35.842 35.842s16.078 35.842 35.842 35.842 35.843-16.079 35.843-35.842-16.08-35.842-35.843-35.842z"/></g></g><g><g><path d="m215.158 128.836c-22.521 0-40.843-18.322-40.843-40.842s18.322-40.842 40.843-40.842 40.842 18.321 40.842 40.842-18.321 40.842-40.842 40.842zm0-76.685c-19.764 0-35.843 16.079-35.843 35.842s16.079 35.842 35.843 35.842 35.842-16.078 35.842-35.841-16.078-35.843-35.842-35.843z"/></g></g><g><g><path d="m128 90.836c-22.521 0-40.842-18.322-40.842-40.842s18.321-40.843 40.842-40.843 40.842 18.322 40.842 40.842-18.321 40.843-40.842 40.843zm0-76.685c-19.764 0-35.842 16.079-35.842 35.842s16.078 35.843 35.842 35.843 35.842-16.079 35.842-35.842-16.078-35.843-35.842-35.843z"/></g></g><path d="m159.052 134.94c-.043-2.163-1.766-3.908-3.922-3.972-11.355-.333-17.17-4.866-19.142-6.799-.82-.805-1.938-1.228-3.094-1.156-1.147.071-2.216.628-2.934 1.53-9.542 11.998-23.442 10.6-28.979 9.442-1.201-.253-2.438.048-3.392.822-.946.768-1.489 1.903-1.49 3.139v23.311c0 17.357 14.121 31.479 31.479 31.479 17.356 0 31.478-14.121 31.478-31.479v-25.814zm-4.995 26.318c0 14.6-11.878 26.479-26.479 26.479-14.6 0-26.478-11.878-26.478-26.479v-22.16c6.008 1.04 21.33 2.134 32.134-10.661 3.217 2.863 9.704 6.961 20.822 7.494v25.327z"/><g><g><g><path d="m166.808 143.958c-1.381 0-2.5-1.119-2.5-2.5v-20.653c0-7.749-6.304-14.053-14.053-14.053-2.504 0-4.983.693-7.171 2.004-.569.34-1.25.44-1.893.281-.644-.162-1.196-.572-1.537-1.141-2.545-4.248-7.162-6.886-12.051-6.886h-8.5c-15.114 0-27.411 12.297-27.411 27.412v12.535c0 1.381-1.119 2.5-2.5 2.5s-2.5-1.119-2.5-2.5v-12.535c0-17.872 14.54-32.412 32.411-32.412h8.5c5.851 0 11.41 2.775 15.003 7.371 2.414-1.071 5.02-1.629 7.648-1.629 10.506 0 19.053 8.547 19.053 19.053v20.653c.001 1.381-1.119 2.5-2.499 2.5z"/></g></g></g><g><g><path d="m128 176.645c-4.56 0-8.808-2.258-11.363-6.041-.773-1.144-.473-2.698.672-3.471 1.143-.773 2.699-.474 3.471.672 1.625 2.404 4.324 3.84 7.221 3.84s5.596-1.436 7.221-3.84c.772-1.146 2.328-1.445 3.471-.672 1.145.773 1.445 2.327.672 3.471-2.557 3.783-6.805 6.041-11.365 6.041z"/></g></g><g><g><path d="m185.05 256h-114.1c-1.554 0-3.058-.647-4.126-1.776-1.067-1.129-1.631-2.667-1.544-4.219l2.207-29.508c.338-6.075 4.563-11.194 10.509-12.691l22.249-5.6 7.716-3.805c2.583-1.274 4.188-3.856 4.188-6.737v-3.5c0-1.381 1.119-2.5 2.5-2.5s2.5 1.119 2.5 2.5v3.5c0 4.798-2.674 9.098-6.977 11.221l-7.955 3.922c-.158.078-.324.139-.495.182l-22.506 5.665c-3.813.96-6.521 4.243-6.74 8.168l-2.207 29.508c-.011.194.096.36.188.457s.252.212.493.212h114.1c.241 0 .401-.115.493-.212s.198-.263.185-.504l-2.201-29.414c-.222-3.973-2.931-7.256-6.743-8.216l-22.505-5.665c-.171-.043-.337-.104-.495-.182l-7.955-3.922c-4.304-2.123-6.978-6.423-6.978-11.221v-3.933c0-1.381 1.119-2.5 2.5-2.5s2.5 1.119 2.5 2.5v3.933c0 2.881 1.605 5.462 4.189 6.737l7.716 3.804 22.248 5.6c5.946 1.497 10.171 6.616 10.512 12.739l2.201 29.414c.09 1.599-.474 3.137-1.541 4.266-1.069 1.13-2.572 1.777-4.126 1.777z"/></g></g><g><g><path d="m165.185 256c-1.381 0-2.5-1.119-2.5-2.5v-24.97c0-1.381 1.119-2.5 2.5-2.5s2.5 1.119 2.5 2.5v24.97c0 1.381-1.12 2.5-2.5 2.5z"/></g></g><g><g><path d="m90.815 256c-1.381 0-2.5-1.119-2.5-2.5v-24.97c0-1.381 1.119-2.5 2.5-2.5s2.5 1.119 2.5 2.5v24.97c0 1.381-1.119 2.5-2.5 2.5z"/></g></g><g><g><g><circle cx="116.453" cy="152.79" r="3.835"/></g></g><g><g><circle cx="139.061" cy="152.79" r="3.835"/></g></g></g><g><g><path d="m128 227.071c-13.021 0-24.782-8.724-28.601-21.215-.403-1.32.339-2.718 1.66-3.122 1.317-.404 2.718.339 3.121 1.66 3.182 10.408 12.977 17.677 23.819 17.677 10.794 0 20.576-7.227 23.787-17.576.41-1.319 1.812-2.056 3.129-1.646 1.318.409 2.056 1.81 1.646 3.128-3.853 12.42-15.598 21.094-28.561 21.094z"/></g></g><g><g><path d="m128 216.125c-8.905 0-17.246-4.813-21.769-12.56-.696-1.192-.294-2.723.898-3.419 1.192-.695 2.724-.294 3.42.899 3.63 6.218 10.316 10.081 17.45 10.081 7.338 0 14.118-4.027 17.693-10.51.668-1.208 2.188-1.649 3.396-.981 1.209.667 1.648 2.188.982 3.396-4.454 8.076-12.911 13.094-22.07 13.094z"/></g></g><g><g><path d="m158.417 165.87c-.433 0-.858-.023-1.28-.064-1.374-.133-2.38-1.356-2.246-2.73s1.349-2.38 2.73-2.247c.262.025.527.041.796.041 5.293 0 9.599-4.306 9.599-9.599s-4.306-9.599-9.599-9.599c-.25 0-.496.011-.74.031-1.378.106-2.581-.916-2.692-2.292-.11-1.376.916-2.582 2.292-2.692.377-.03.756-.046 1.141-.046 8.05 0 14.599 6.549 14.599 14.599s-6.55 14.598-14.6 14.598z"/></g></g><g><g><path d="m96.74 165.87c-8.05 0-14.599-6.549-14.599-14.599s6.549-14.599 14.599-14.599c.43 0 .854.02 1.272.058 1.375.125 2.389 1.34 2.265 2.715-.125 1.375-1.328 2.386-2.716 2.264-.271-.024-.544-.038-.821-.038-5.293 0-9.599 4.306-9.599 9.599 0 5.292 4.306 9.599 9.599 9.599.254 0 .504-.014.751-.036 1.375-.116 2.592.888 2.716 2.263.125 1.375-.888 2.591-2.263 2.716-.397.038-.798.058-1.204.058z"/></g></g><g><g><path d="m81.918 176.551c-4.149.773-7.419 3.976-8.208 8.041-.04.204-.325.204-.364 0-.789-4.065-4.059-7.268-8.208-8.041-.208-.039-.208-.318 0-.357 4.149-.773 7.419-3.976 8.208-8.041.04-.204.325-.204.364 0 .789 4.065 4.059 7.268 8.208 8.041.208.039.208.318 0 .357z" fill="#f5c84c"/></g></g><g><g><circle cx="197.981" cy="224.377" fill="#87d147" r="3.377"/></g></g><g><g><circle cx="179.981" cy="29.377" fill="#f5c84c" r="3.377"/></g></g><g><g><circle cx="59.981" cy="152.377" fill="#fc657e" r="3.377"/></g></g><g><g><path d="m168.454 4.297h-1.824v-1.824c0-1.366-1.107-2.473-2.473-2.473s-2.473 1.107-2.473 2.473v1.824h-1.824c-1.366 0-2.473 1.107-2.473 2.473s1.107 2.473 2.473 2.473h1.824v1.824c0 1.366 1.107 2.473 2.473 2.473s2.473-1.107 2.473-2.473v-1.825h1.824c1.366 0 2.473-1.107 2.473-2.473s-1.108-2.472-2.473-2.472z" fill="#70d6f9"/></g></g><g><g><path d="m48.974 97.808c-4.985 0-9.671-1.941-13.195-5.466-3.525-3.524-5.466-8.211-5.466-13.195s1.941-9.67 5.466-13.195c3.524-3.524 8.21-5.466 13.195-5.466 4.984 0 9.67 1.941 13.194 5.466 3.524 3.524 5.466 8.21 5.466 13.195s-1.94 9.671-5.466 13.195c-3.524 3.524-8.21 5.466-13.194 5.466zm0-32.323c-3.649 0-7.08 1.421-9.66 4.001-2.58 2.581-4.001 6.011-4.001 9.66s1.421 7.08 4.001 9.66 6.011 4.001 9.66 4.001c3.648 0 7.079-1.421 9.659-4.001 2.58-2.581 4.001-6.011 4.001-9.66s-1.421-7.079-4.001-9.659-6.011-4.002-9.659-4.002z"/></g></g><path d="m35.748 95.14c-.001 0-.001 0 0 0l-2.768-2.767c-.953-.953-2.22-1.477-3.566-1.477-1.348 0-2.614.525-3.566 1.478l-9.838 9.838c-1.966 1.966-1.967 5.166 0 7.132l2.767 2.767c.983.983 2.274 1.475 3.566 1.475s2.583-.492 3.566-1.475l9.838-9.838c1.966-1.967 1.967-5.167.001-7.133zm-3.536 3.566-9.9 9.869-2.767-2.829 9.9-9.838z"/><g><g><path d="m33.303 97.317c-.64 0-1.279-.244-1.768-.732-.977-.976-.977-2.559 0-3.536l3.536-3.536c.977-.976 2.559-.976 3.535 0 .977.976.977 2.559 0 3.536l-3.536 3.536c-.488.488-1.128.732-1.767.732z"/></g></g><g><g><path d="m48.086 85.657c-.64 0-1.279-.244-1.768-.732l-4.243-4.243c-.977-.977-.977-2.56 0-3.536.977-.977 2.559-.976 3.535 0l2.476 2.476 5.304-5.304c.977-.976 2.559-.976 3.535 0 .977.976.977 2.559 0 3.536l-7.071 7.071c-.489.488-1.128.732-1.768.732z"/></g></g><g><g><path d="m215.158 91.241c-.716 0-1.432-.184-2.07-.55l-18.871-10.84c-1.286-.739-2.085-2.119-2.085-3.602s.799-2.863 2.085-3.602l18.872-10.841c1.276-.733 2.862-.732 4.139 0l18.871 10.84c1.286.739 2.085 2.119 2.085 3.602s-.799 2.863-2.085 3.602l-18.872 10.841c-.638.367-1.354.55-2.069.55zm-17.174-14.993 17.173 9.865 17.174-9.865-17.174-9.865zm16.35-12.275h.01z"/></g></g><g><g><path d="m215.158 114.731c-.716 0-1.432-.184-2.07-.55l-18.871-10.84c-1.286-.739-2.085-2.119-2.085-3.602 0-1.482.799-2.862 2.085-3.601l7.351-4.223c1.196-.686 2.726-.274 3.413.923s.274 2.725-.923 3.413l-6.072 3.488 17.172 9.864 17.173-9.865-6.022-3.459c-1.197-.688-1.61-2.216-.923-3.413.689-1.198 2.219-1.608 3.413-.923l7.301 4.194c1.286.739 2.085 2.119 2.085 3.602s-.799 2.863-2.085 3.602l-18.872 10.841c-.639.366-1.355.549-2.07.549z"/></g></g><g><g><path d="m215.158 102.986c-.716 0-1.432-.184-2.07-.55l-18.871-10.84c-1.286-.739-2.085-2.119-2.085-3.602 0-1.482.799-2.862 2.085-3.601l7.162-4.115c1.196-.685 2.724-.275 3.413.923.688 1.197.274 2.725-.923 3.413l-5.885 3.38 17.173 9.865 17.174-9.865-5.666-3.254c-1.197-.688-1.61-2.216-.923-3.413.69-1.198 2.218-1.608 3.413-.923l6.943 3.989c1.286.739 2.085 2.119 2.085 3.602s-.799 2.863-2.085 3.602l-18.872 10.841c-.637.365-1.353.548-2.068.548z"/></g></g><g><g><path d="m133.526 73.889h-11.053c-2.677 0-4.854-2.178-4.854-4.854v-26.146c0-1.381 1.119-2.5 2.5-2.5s2.5 1.119 2.5 2.5v26h10.762v-26c0-1.381 1.119-2.5 2.5-2.5s2.5 1.119 2.5 2.5v26.146c0 2.676-2.178 4.854-4.855 4.854z"/></g></g><g><g><path d="m135.881 45.389h-15.762c-.874 0-1.684-.456-2.138-1.203-.453-.747-.483-1.676-.08-2.451l6.42-12.336c.716-1.375 2.125-2.23 3.679-2.23s2.963.855 3.679 2.23l6.42 12.335c.403.775.373 1.705-.08 2.451-.455.748-1.264 1.204-2.138 1.204zm-11.643-5h7.523l-3.761-7.228z"/></g></g><g><g><path d="m150.291 45.912c-1.028 0-1.991-.639-2.355-1.663-2.979-8.376-10.991-14.004-19.936-14.004s-16.956 5.628-19.936 14.004c-.463 1.301-1.891 1.981-3.193 1.518-1.301-.463-1.98-1.893-1.518-3.193 3.687-10.366 13.591-17.329 24.647-17.329s20.96 6.964 24.646 17.329c.463 1.301-.217 2.73-1.518 3.193-.276.098-.559.145-.837.145z"/></g></g><g><g><path d="m152.545 46.956h-4.179c-1.381 0-2.5-1.119-2.5-2.5s1.119-2.5 2.5-2.5h4.179c1.381 0 2.5 1.119 2.5 2.5s-1.119 2.5-2.5 2.5z"/></g></g><g><g><path d="m107.634 46.956h-4.179c-1.381 0-2.5-1.119-2.5-2.5s1.119-2.5 2.5-2.5h4.179c1.381 0 2.5 1.119 2.5 2.5s-1.119 2.5-2.5 2.5z"/></g></g><g><g><path d="m128 31.289c-1.381 0-2.5-1.119-2.5-2.5v-4.178c0-1.381 1.119-2.5 2.5-2.5s2.5 1.119 2.5 2.5v4.178c0 1.381-1.119 2.5-2.5 2.5z"/></g></g></g></g></svg>