<svg enable-background="new 0 0 256 256" height="512" viewBox="0 0 256 256" width="512" xmlns="http://www.w3.org/2000/svg"><g id="Layer_60"><g><g><g><path d="m97.143 116.631h-46.286c-10.183 0-18.514-8.331-18.514-18.514v-46.286c0-10.183 8.331-18.514 18.514-18.514h46.286c10.183 0 18.514 8.331 18.514 18.514v46.286c0 10.183-8.331 18.514-18.514 18.514z" fill="#3a70bf"/></g></g><g><g><path d="m205.143 116.631h-46.286c-10.183 0-18.514-8.331-18.514-18.514v-46.286c0-10.183 8.331-18.514 18.514-18.514h46.286c10.183 0 18.514 8.331 18.514 18.514v46.286c0 10.183-8.331 18.514-18.514 18.514z" fill="#f5c84c"/></g></g><g><g><path d="m97.143 222.683h-46.286c-10.183 0-18.514-8.331-18.514-18.514v-46.286c0-10.183 8.331-18.514 18.514-18.514h46.286c10.183 0 18.514 8.331 18.514 18.514v46.286c0 10.183-8.331 18.514-18.514 18.514z" fill="#70d6f9"/></g></g><g><g><path d="m205.143 222.683h-46.286c-10.183 0-18.514-8.331-18.514-18.514v-46.286c0-10.183 8.331-18.514 18.514-18.514h46.286c10.183 0 18.514 8.331 18.514 18.514v46.286c0 10.183-8.331 18.514-18.514 18.514z" fill="#fc657e"/></g></g><g><g><path d="m97.143 119.131h-46.286c-11.588 0-21.015-9.427-21.015-21.014v-46.286c0-11.588 9.427-21.015 21.015-21.015h46.285c11.588 0 21.015 9.427 21.015 21.015v46.286c0 11.587-9.427 21.014-21.014 21.014zm-46.286-83.315c-8.83 0-16.015 7.185-16.015 16.015v46.286c0 8.83 7.185 16.014 16.015 16.014h46.285c8.83 0 16.015-7.184 16.015-16.014v-46.286c0-8.83-7.185-16.015-16.015-16.015z"/></g></g><g><g><path d="m205.143 119.131h-46.285c-11.588 0-21.015-9.427-21.015-21.014v-46.286c0-11.588 9.427-21.015 21.015-21.015h46.285c11.588 0 21.015 9.427 21.015 21.015v46.286c-.001 11.587-9.428 21.014-21.015 21.014zm-46.286-83.315c-8.83 0-16.015 7.185-16.015 16.015v46.286c0 8.83 7.185 16.014 16.015 16.014h46.285c8.83 0 16.015-7.184 16.015-16.014v-46.286c0-8.83-7.185-16.015-16.015-16.015z"/></g></g><g><g><path d="m97.143 225.184h-46.286c-11.588 0-21.015-9.427-21.015-21.015v-46.286c0-11.587 9.427-21.014 21.015-21.014h46.285c11.588 0 21.015 9.427 21.015 21.014v46.286c0 11.588-9.427 21.015-21.014 21.015zm-46.286-83.315c-8.83 0-16.015 7.184-16.015 16.014v46.286c0 8.83 7.185 16.015 16.015 16.015h46.285c8.83 0 16.015-7.185 16.015-16.015v-46.286c0-8.83-7.185-16.014-16.015-16.014z"/></g></g><g><g><path d="m205.143 225.184h-46.285c-11.588 0-21.015-9.427-21.015-21.015v-46.286c0-11.587 9.427-21.014 21.015-21.014h46.285c11.588 0 21.015 9.427 21.015 21.014v46.286c-.001 11.588-9.428 21.015-21.015 21.015zm-46.286-83.315c-8.83 0-16.015 7.184-16.015 16.014v46.286c0 8.83 7.185 16.015 16.015 16.015h46.285c8.83 0 16.015-7.185 16.015-16.015v-46.286c0-8.83-7.185-16.014-16.015-16.014z"/></g></g><g><g><g><g><path d="m206.369 70.403h-3.119c-.456 0-.857-.306-.973-.747-.488-1.867-1.227-3.632-2.179-5.257-.231-.394-.164-.894.159-1.217l2.207-2.207c.394-.394.394-1.033 0-1.427l-5.038-5.038c-.394-.394-1.033-.394-1.427 0l-2.207 2.207c-.323.323-.823.39-1.217.159-1.626-.952-3.39-1.691-5.257-2.179-.441-.115-.747-.516-.747-.973v-3.119c0-.557-.452-1.009-1.009-1.009h-7.125c-.557 0-1.009.452-1.009 1.009v3.119c0 .456-.306.857-.747.973-1.867.488-3.632 1.227-5.257 2.179-.394.231-.894.164-1.217-.159l-2.207-2.207c-.394-.394-1.033-.394-1.427 0l-5.038 5.038c-.394.394-.394 1.033 0 1.427l2.207 2.207c.323.323.39.823.159 1.217-.952 1.626-1.691 3.39-2.179 5.257-.115.441-.516.747-.973.747h-3.119c-.557 0-1.009.452-1.009 1.009v7.125c0 .557.452 1.009 1.009 1.009h3.119c.456 0 .857.306.973.747.488 1.867 1.227 3.632 2.179 5.257.231.394.164.894-.159 1.217l-2.207 2.207c-.394.394-.394 1.033 0 1.427l5.038 5.038c.394.394 1.033.394 1.427 0l2.207-2.207c.323-.323.823-.39 1.217-.159 1.626.952 3.39 1.691 5.257 2.179.441.115.747.516.747.973v3.119c0 .557.452 1.009 1.009 1.009h7.125c.557 0 1.009-.452 1.009-1.009v-3.119c0-.456.306-.857.747-.973 1.867-.488 3.632-1.227 5.257-2.179.394-.231.894-.164 1.217.159l2.207 2.207c.394.394 1.033.394 1.427 0l5.038-5.038c.394-.394.394-1.033 0-1.427l-2.207-2.207c-.323-.323-.39-.823-.159-1.217.952-1.626 1.691-3.39 2.179-5.257.115-.441.516-.747.973-.747h3.119c.557 0 1.009-.452 1.009-1.009v-7.125c0-.557-.452-1.009-1.009-1.009zm-24.369 16.445c-6.558 0-11.874-5.316-11.874-11.874s5.316-11.874 11.874-11.874 11.874 5.316 11.874 11.874-5.316 11.874-11.874 11.874z" fill="#edf4fc"/></g></g></g></g><g><g><circle cx="74" cy="60.474" fill="#edf4fc" r="11.154"/></g></g><g><g><path d="m84.219 71.628h-20.438c-5.422 0-9.858 4.436-9.858 9.858v15.185c0 2.186 1.772 3.957 3.957 3.957h32.24c2.186 0 3.957-1.772 3.957-3.957v-15.185c0-5.422-4.436-9.858-9.858-9.858z" fill="#edf4fc"/></g></g><g><g><g><path d="m198.778 178.224-24.469-16.437c-2.242-1.506-5.258.101-5.258 2.802v32.873c0 2.702 3.015 4.309 5.258 2.802l24.469-16.437c1.991-1.337 1.991-4.266 0-5.603z" fill="#edf4fc"/></g></g></g><g><g><g><path d="m74 156.638c-17.873 0-27.227 21.509-14.742 34.299l12.213 12.263c1.395 1.4 3.662 1.4 5.057 0l12.214-12.264c12.485-12.789 3.131-34.298-14.742-34.298zm0 29.042c-4.87 0-8.818-3.948-8.818-8.818s3.948-8.818 8.818-8.818 8.818 3.948 8.818 8.818-3.948 8.818-8.818 8.818z" fill="#edf4fc"/></g></g></g><g><g><path d="m136.705 8.882c-4.498-.838-8.043-4.31-8.898-8.716-.043-.221-.352-.221-.395 0-.855 4.406-4.4 7.879-8.898 8.716-.226.042-.226.345 0 .387 4.498.838 8.043 4.31 8.898 8.717.043.221.352.221.395 0 .855-4.406 4.4-7.879 8.898-8.717.226-.042.226-.344 0-.387z" fill="#f5c84c"/></g></g><g><g><path d="m187.775 17.962c-2.64-.492-4.72-2.53-5.222-5.115-.025-.13-.206-.13-.232 0-.502 2.586-2.582 4.624-5.222 5.115-.133.025-.133.202 0 .227 2.64.492 4.72 2.53 5.222 5.115.025.13.206.13.232 0 .502-2.586 2.582-4.624 5.222-5.115.132-.024.132-.202 0-.227z" fill="#70d6f9"/></g></g><g><g><path d="m111.442 238.487h2.33v-2.33c0-1.744 1.413-3.157 3.157-3.157s3.157 1.413 3.157 3.157v2.33h2.329c1.744 0 3.157 1.413 3.157 3.157s-1.413 3.157-3.157 3.157h-2.329v2.33c0 1.744-1.413 3.157-3.157 3.157s-3.157-1.413-3.157-3.157v-2.33h-2.33c-1.744 0-3.157-1.413-3.157-3.157s1.413-3.157 3.157-3.157z" fill="#87d147"/></g></g><g><g><circle cx="95.721" cy="18.377" fill="#fc657e" r="3.377"/></g></g><g><g><circle cx="146.721" cy="252.623" fill="#f5c84c" r="3.377"/></g></g><g><g><circle cx="228.721" cy="127.623" fill="#fc657e" r="3.377"/></g></g><g><g><g><g><path d="m185.563 102.853h-7.125c-1.935 0-3.509-1.574-3.509-3.509v-1.996c-1.291-.408-2.545-.928-3.748-1.555l-1.411 1.413c-1.371 1.367-3.598 1.367-4.963 0l-5.038-5.038c-1.367-1.37-1.366-3.596 0-4.962l1.412-1.412c-.627-1.204-1.146-2.458-1.555-3.749h-1.995c-1.935 0-3.509-1.574-3.509-3.509v-7.124c0-1.935 1.574-3.509 3.509-3.509h1.996c.408-1.293.928-2.547 1.554-3.749l-1.412-1.412c-1.366-1.366-1.367-3.592-.002-4.96l5.04-5.04c1.367-1.365 3.593-1.367 4.96-.002l1.414 1.414c1.204-.626 2.458-1.146 3.748-1.554v-1.996c0-1.935 1.574-3.509 3.509-3.509h7.125c1.935 0 3.509 1.574 3.509 3.509v1.996c1.291.408 2.545.928 3.748 1.554l1.411-1.412c1.371-1.367 3.598-1.367 4.963 0l5.038 5.038c.664.663 1.029 1.546 1.028 2.483s-.366 1.818-1.03 2.48l-1.41 1.411c.626 1.202 1.146 2.457 1.555 3.748h1.995c1.935 0 3.509 1.574 3.509 3.509v7.124c0 1.935-1.574 3.509-3.509 3.509h-1.995c-.408 1.291-.928 2.545-1.555 3.748l1.413 1.413c.661.66 1.026 1.541 1.027 2.479s-.364 1.82-1.028 2.483l-5.038 5.038c-1.365 1.366-3.591 1.368-4.96.002l-1.414-1.414c-1.203.626-2.457 1.146-3.748 1.554v1.996c-.001 1.935-1.575 3.51-3.509 3.51zm-5.634-5h4.143v-1.628c0-1.595 1.075-2.989 2.615-3.392 1.619-.423 3.176-1.068 4.626-1.918 1.374-.806 3.12-.579 4.248.549l1.152 1.152 2.929-2.93-1.152-1.152c-1.127-1.127-1.353-2.874-.548-4.248.85-1.45 1.495-3.007 1.918-4.627.403-1.539 1.798-2.614 3.392-2.614h1.627v-4.142h-1.627c-1.595 0-2.989-1.076-3.392-2.616-.424-1.618-1.069-3.175-1.918-4.625-.805-1.378-.578-3.125.552-4.251l1.148-1.149-2.929-2.93-1.151 1.152c-1.132 1.129-2.879 1.353-4.253.546-1.446-.847-3.004-1.492-4.623-1.915-1.539-.402-2.614-1.797-2.614-3.392v-1.628h-4.143v1.628c0 1.595-1.075 2.989-2.615 3.392-1.619.423-3.176 1.068-4.626 1.917-1.373.807-3.121.581-4.248-.548l-1.152-1.152-2.929 2.93 1.152 1.152c1.126 1.126 1.352 2.871.549 4.245-.849 1.45-1.494 3.007-1.92 4.63-.401 1.538-1.796 2.614-3.39 2.614h-1.628v4.142h1.628c1.594 0 2.987 1.075 3.391 2.614.423 1.62 1.068 3.177 1.918 4.627.804 1.372.579 3.118-.545 4.245l-1.155 1.155 2.929 2.93 1.151-1.152c1.128-1.126 2.873-1.353 4.247-.55 1.452.851 3.008 1.495 4.629 1.919 1.539.402 2.614 1.797 2.614 3.392zm20.766-7.112c.001.001.002.001.003.002zm5.674-17.838h.01zm-4.34-7.958-.003.004c.001-.001.002-.002.003-.004zm-1.334-5.738c-.001.001-.001.002-.002.003zm-30.532-4.49c-.001.001-.002.001-.003.002.001-.001.002-.001.003-.002zm23.669-.004c.002.002.004.003.007.004-.003-.001-.005-.002-.007-.004zm-11.832 34.635c-7.926 0-14.374-6.448-14.374-14.374s6.448-14.374 14.374-14.374 14.374 6.448 14.374 14.374-6.448 14.374-14.374 14.374zm0-23.748c-5.169 0-9.374 4.205-9.374 9.374s4.205 9.374 9.374 9.374 9.374-4.205 9.374-9.374-4.205-9.374-9.374-9.374z"/></g></g></g></g><g><g><path d="m74 74.128c-7.529 0-13.654-6.125-13.654-13.654 0-7.528 6.125-13.653 13.654-13.653 7.528 0 13.653 6.125 13.653 13.653 0 7.529-6.125 13.654-13.653 13.654zm0-22.308c-4.772 0-8.654 3.882-8.654 8.653 0 4.772 3.882 8.654 8.654 8.654 4.771 0 8.653-3.882 8.653-8.654 0-4.771-3.882-8.653-8.653-8.653z"/></g></g><g><g><path d="m90.119 103.128h-32.239c-3.561 0-6.457-2.896-6.457-6.457v-15.185c0-6.814 5.544-12.358 12.358-12.358h20.438c6.814 0 12.358 5.544 12.358 12.358v15.185c0 3.56-2.897 6.457-6.458 6.457zm-26.338-29c-4.058 0-7.358 3.301-7.358 7.358v15.185c0 .804.653 1.457 1.457 1.457h32.239c.804 0 1.458-.653 1.458-1.457v-15.185c0-4.058-3.301-7.358-7.358-7.358z"/></g></g><g><g><g><path d="m172.428 203.34c-.946 0-1.896-.229-2.764-.691-1.921-1.023-3.113-3.01-3.113-5.186v-32.873c0-2.176 1.192-4.162 3.112-5.186 1.919-1.023 4.233-.905 6.039.308l24.469 16.437h.001c1.627 1.094 2.599 2.917 2.599 4.877 0 1.961-.972 3.784-2.599 4.878l-24.47 16.437c-.988.663-2.129.999-3.274.999zm.006-39.632c-.177 0-.324.058-.419.108-.173.093-.464.315-.464.773v32.873c0 .457.291.681.464.772.173.093.522.208.899-.046l24.47-16.437c.337-.227.387-.553.387-.728 0-.174-.05-.5-.388-.727l-24.468-16.437c-.172-.112-.337-.151-.481-.151z"/></g></g></g><g><g><g><path d="m74 206.75c-1.626 0-3.152-.634-4.3-1.786l-12.214-12.263c-6.445-6.604-8.209-15.988-4.619-24.51 3.652-8.669 11.75-14.054 21.133-14.054s17.48 5.385 21.133 14.054c3.59 8.521 1.826 17.906-4.602 24.491l-12.231 12.283c-1.148 1.151-2.674 1.785-4.3 1.785zm0-47.612c-7.336 0-13.668 4.213-16.524 10.995-2.796 6.635-1.427 13.938 3.571 19.058l12.196 12.245c.272.274.591.314.757.314s.484-.04.757-.313l12.214-12.265c4.98-5.102 6.35-12.404 3.554-19.039-2.857-6.782-9.189-10.995-16.525-10.995zm0 29.042c-6.241 0-11.318-5.077-11.318-11.317 0-6.241 5.077-11.318 11.318-11.318 6.24 0 11.317 5.077 11.317 11.318 0 6.24-5.077 11.317-11.317 11.317zm0-17.636c-3.484 0-6.318 2.834-6.318 6.318 0 3.483 2.834 6.317 6.318 6.317 3.483 0 6.317-2.834 6.317-6.317 0-3.484-2.834-6.318-6.317-6.318z"/></g></g></g></g></g></svg>