<svg enable-background="new 0 0 256 256" height="512" viewBox="0 0 256 256" width="512" xmlns="http://www.w3.org/2000/svg"><g id="Layer_13"><g><g><g><path d="m169.15 242.258h-82.299c-3.104 0-5.621 2.517-5.621 5.621s2.517 5.621 5.621 5.621h82.299c3.104 0 5.621-2.517 5.621-5.621-.001-3.104-2.517-5.621-5.621-5.621z" fill="#edf4fc"/></g></g><g><g><path d="m230.407 42.493h-39.18-49.112c.536 1.54.841 3.187.841 4.909 0 8.26-6.696 14.957-14.957 14.957-8.26 0-14.957-6.696-14.957-14.957 0-1.722.306-3.369.841-4.909h-49.11-39.18c-6.6 0-12 5.4-12 12v150.005c0 6.6 5.4 12 12 12h204.814c6.6 0 12-5.4 12-12v-150.004c.001-6.601-5.4-12.001-12-12.001z" fill="#5290db"/></g></g><g><g><path d="m13.592 184.498v20.001c0 6.6 5.4 12 12 12h204.814c6.6 0 12-5.4 12-12v-20.001z" fill="#edf4fc"/></g></g><g><g><path d="m230.407 52.494h-39.877-48.481c-2.085 5.75-7.579 9.865-14.049 9.865s-11.964-4.116-14.049-9.865h-48.48-39.878c-1.1 0-2 .9-2 2v130.004h208.814v-130.004c0-1.1-.9-2-2-2z" fill="#edf4fc"/></g></g><g><g><path d="m105.278 216.499h45.444v25.76h-45.444z" fill="#c7d7e5"/></g></g><g><g><path d="m128 194.579c-3.269 0-5.919 2.65-5.919 5.919 0 3.269 2.65 5.919 5.919 5.919s5.919-2.65 5.919-5.919c0-3.269-2.65-5.919-5.919-5.919z" fill="#c7d7e5"/></g></g><g><g><path d="m23.593 173.256h208.814v11.241h-208.814z" fill="#5290db"/></g></g><g><g><path d="m23.593 173.256h23.632v11.241h-23.632z" fill="#fcdd86"/></g></g><g><g><g><path d="m160.772 91.365c-2.762 0-5-2.239-5-5s2.238-5 5-5c5.623 0 10.197-4.574 10.197-10.197v-4.22c0-6.689 2.913-13.022 7.991-17.377l3.08-2.639-3.079-2.638c-5.079-4.355-7.992-10.689-7.992-17.378v-4.22c0-5.623-4.574-10.197-10.197-10.197-2.762 0-5-2.239-5-5s2.238-5 5-5c11.137 0 20.197 9.06 20.197 20.197v4.22c0 3.767 1.641 7.333 4.501 9.785l3.593 3.079c2.091 1.793 3.289 4.399 3.289 7.152s-1.198 5.359-3.288 7.151l-3.595 3.081c-2.859 2.451-4.5 6.018-4.5 9.784v4.22c.001 11.137-9.06 20.197-20.197 20.197z" fill="#70d6f9"/></g></g></g><g><g><g><path d="m95.227 91.365c-11.137 0-20.197-9.06-20.197-20.197v-4.22c0-3.767-1.641-7.333-4.5-9.785l-3.593-3.08c-2.091-1.793-3.29-4.399-3.29-7.152s1.199-5.359 3.289-7.151l3.593-3.08c2.86-2.452 4.5-6.018 4.5-9.785v-4.22c.001-11.135 9.061-20.195 20.198-20.195 2.761 0 5 2.239 5 5s-2.239 5-5 5c-5.623 0-10.197 4.574-10.197 10.197v4.22c0 6.69-2.913 13.023-7.993 17.377l-3.079 2.639 3.079 2.639c5.08 4.354 7.993 10.688 7.993 17.377v4.22c0 5.623 4.574 10.197 10.197 10.197 2.761 0 5 2.239 5 5s-2.239 4.999-5 4.999z" fill="#70d6f9"/></g></g></g><g><g><path d="m158.696 41.644h-3.928c-.575 0-1.08-.385-1.225-.941-.615-2.352-1.546-4.574-2.745-6.622-.291-.496-.207-1.126.2-1.533l2.78-2.779c.496-.496.496-1.301 0-1.797l-6.346-6.346c-.496-.496-1.301-.496-1.797 0l-2.78 2.779c-.407.407-1.037.491-1.533.2-2.048-1.199-4.271-2.13-6.622-2.745-.556-.145-.941-.65-.941-1.225v-3.928c0-.702-.569-1.271-1.271-1.271h-8.974c-.702 0-1.271.569-1.271 1.271v3.928c0 .575-.385 1.08-.941 1.225-2.352.615-4.574 1.546-6.622 2.745-.496.291-1.126.207-1.533-.2l-2.779-2.779c-.496-.496-1.301-.496-1.797 0l-6.346 6.346c-.496.496-.496 1.301 0 1.797l2.779 2.779c.407.407.491 1.037.2 1.533-1.199 2.048-2.13 4.271-2.745 6.622-.145.556-.651.941-1.225.941h-3.928c-.702 0-1.271.569-1.271 1.271v8.974c0 .702.569 1.271 1.271 1.271h3.928c.575 0 1.08.385 1.225.941.615 2.352 1.546 4.574 2.745 6.622.291.496.207 1.126-.2 1.533l-2.779 2.779c-.496.496-.496 1.301 0 1.797l6.346 6.346c.496.496 1.301.496 1.797 0l2.779-2.779c.407-.407 1.037-.491 1.533-.2 2.048 1.199 4.271 2.13 6.622 2.745.556.145.941.651.941 1.225v3.928c0 .702.569 1.271 1.271 1.271h8.974c.702 0 1.271-.569 1.271-1.271v-3.927c0-.575.385-1.08.941-1.225 2.352-.615 4.574-1.546 6.622-2.745.496-.291 1.126-.207 1.533.2l2.78 2.779c.496.496 1.301.496 1.797 0l6.346-6.346c.496-.496.496-1.301 0-1.797l-2.78-2.779c-.407-.407-.491-1.037-.2-1.533 1.199-2.048 2.13-4.271 2.745-6.622.145-.556.65-.941 1.225-.941h3.928c.702 0 1.271-.569 1.271-1.271v-8.974c0-.703-.569-1.272-1.271-1.272zm-30.696 20.715c-8.26 0-14.957-6.696-14.957-14.957s6.697-14.956 14.957-14.956 14.957 6.696 14.957 14.957-6.697 14.956-14.957 14.956z" fill="#f5c84c"/></g></g><g><g><path d="m189.332 231.883c-2.473-.46-4.421-2.37-4.891-4.792-.024-.122-.193-.122-.217 0-.47 2.422-2.419 4.331-4.892 4.792-.124.023-.124.189 0 .213 2.473.461 4.421 2.37 4.892 4.792.024.122.193.122.217 0 .47-2.422 2.419-4.331 4.891-4.792.124-.023.124-.19 0-.213z" fill="#fc657e"/></g></g><g><g><path d="m221.194 21.551c-4.149.773-7.419 3.976-8.208 8.041-.04.204-.325.204-.364 0-.789-4.065-4.059-7.268-8.208-8.041-.208-.039-.208-.318 0-.357 4.149-.773 7.419-3.976 8.208-8.041.04-.204.325-.204.364 0 .789 4.065 4.059 7.268 8.208 8.041.208.039.208.318 0 .357z" fill="#f5c84c"/></g></g><g><g><circle cx="194.257" cy="3.377" fill="#87d147" r="3.377"/></g></g><g><g><path d="m43.73 228.758h-1.824v-1.824c0-1.366-1.107-2.473-2.473-2.473s-2.473 1.107-2.473 2.473v1.824h-1.824c-1.366 0-2.473 1.107-2.473 2.473s1.107 2.473 2.473 2.473h1.824v1.824c0 1.366 1.107 2.473 2.473 2.473s2.473-1.107 2.473-2.473v-1.824h1.824c1.366 0 2.473-1.107 2.473-2.473s-1.108-2.473-2.473-2.473z" fill="#70d6f9"/></g></g><g><g><circle cx="59.641" cy="247.627" fill="#f5c84c" r="3.377"/></g></g><g><g><path d="m169.149 256h-82.298c-4.478 0-8.121-3.643-8.121-8.121s3.643-8.121 8.121-8.121h82.299c4.478 0 8.121 3.643 8.121 8.121s-3.644 8.121-8.122 8.121zm-82.298-11.242c-1.721 0-3.121 1.4-3.121 3.121s1.4 3.121 3.121 3.121h82.299c1.721 0 3.121-1.4 3.121-3.121s-1.4-3.121-3.121-3.121z"/></g></g><g><g><path d="m230.407 218.999h-204.814c-7.996 0-14.5-6.505-14.5-14.5v-150.005c0-7.996 6.505-14.5 14.5-14.5h38.181c1.381 0 2.5 1.119 2.5 2.5s-1.119 2.5-2.5 2.5h-38.181c-5.239 0-9.5 4.262-9.5 9.5v150.005c0 5.239 4.262 9.5 9.5 9.5h204.814c5.238 0 9.5-4.262 9.5-9.5v-150.005c0-5.239-4.262-9.5-9.5-9.5h-38.18c-1.381 0-2.5-1.119-2.5-2.5s1.119-2.5 2.5-2.5h38.18c7.995 0 14.5 6.505 14.5 14.5v150.005c0 7.995-6.505 14.5-14.5 14.5z"/></g></g><g><g><path d="m209.297 109.159h-130.047c-1.381 0-2.5-1.119-2.5-2.5s1.119-2.5 2.5-2.5h130.047c1.381 0 2.5 1.119 2.5 2.5s-1.119 2.5-2.5 2.5z"/></g></g><g><g><path d="m69.333 109.159h-22.629c-1.381 0-2.5-1.119-2.5-2.5s1.119-2.5 2.5-2.5h22.629c1.381 0 2.5 1.119 2.5 2.5s-1.119 2.5-2.5 2.5z"/></g></g><g><g><path d="m209.297 121.04h-80.297c-1.381 0-2.5-1.119-2.5-2.5s1.119-2.5 2.5-2.5h80.297c1.381 0 2.5 1.119 2.5 2.5s-1.119 2.5-2.5 2.5z"/></g></g><g><g><path d="m118.5 121.04h-71.796c-1.381 0-2.5-1.119-2.5-2.5s1.119-2.5 2.5-2.5h71.796c1.381 0 2.5 1.119 2.5 2.5s-1.119 2.5-2.5 2.5z"/></g></g><g><g><path d="m209.297 132.921h-30.047c-1.381 0-2.5-1.119-2.5-2.5s1.119-2.5 2.5-2.5h30.047c1.381 0 2.5 1.119 2.5 2.5s-1.119 2.5-2.5 2.5z"/></g></g><g><g><path d="m169.148 132.921h-122.444c-1.381 0-2.5-1.119-2.5-2.5s1.119-2.5 2.5-2.5h122.445c1.381 0 2.5 1.119 2.5 2.5s-1.12 2.5-2.501 2.5z"/></g></g><g><g><path d="m209.297 144.802h-111.264c-1.381 0-2.5-1.119-2.5-2.5s1.119-2.5 2.5-2.5h111.264c1.381 0 2.5 1.119 2.5 2.5s-1.119 2.5-2.5 2.5z"/></g></g><g><g><path d="m87.5 144.802h-40.796c-1.381 0-2.5-1.119-2.5-2.5s1.119-2.5 2.5-2.5h40.796c1.381 0 2.5 1.119 2.5 2.5s-1.119 2.5-2.5 2.5z"/></g></g><g><g><path d="m209.297 156.683h-80.297c-1.381 0-2.5-1.119-2.5-2.5s1.119-2.5 2.5-2.5h80.297c1.381 0 2.5 1.119 2.5 2.5s-1.119 2.5-2.5 2.5z"/></g></g><g><g><path d="m118.5 156.683h-71.796c-1.381 0-2.5-1.119-2.5-2.5s1.119-2.5 2.5-2.5h71.796c1.381 0 2.5 1.119 2.5 2.5s-1.119 2.5-2.5 2.5z"/></g></g><g><g><path d="m241.833 186.998h-227.52c-1.381 0-2.5-1.119-2.5-2.5s1.119-2.5 2.5-2.5h227.52c1.381 0 2.5 1.119 2.5 2.5s-1.119 2.5-2.5 2.5z"/></g></g><g><g><path d="m232.407 186.208c-1.381 0-2.5-1.119-2.5-2.5v-128.714h-38.377c-1.381 0-2.5-1.119-2.5-2.5s1.119-2.5 2.5-2.5h38.877c2.481 0 4.5 2.019 4.5 4.5v129.214c0 1.38-1.119 2.5-2.5 2.5z"/></g></g><g><g><path d="m23.593 186.167c-1.381 0-2.5-1.119-2.5-2.5v-129.173c0-2.481 2.019-4.5 4.5-4.5h38.878c1.381 0 2.5 1.119 2.5 2.5s-1.119 2.5-2.5 2.5h-38.378v128.673c0 1.38-1.119 2.5-2.5 2.5z"/></g></g><g><g><path d="m150.722 244.391c-1.381 0-2.5-1.119-2.5-2.5v-24.891c0-1.381 1.119-2.5 2.5-2.5s2.5 1.119 2.5 2.5v24.891c0 1.381-1.119 2.5-2.5 2.5z"/></g></g><g><g><path d="m105.278 243.958c-1.381 0-2.5-1.119-2.5-2.5v-24.239c0-1.381 1.119-2.5 2.5-2.5s2.5 1.119 2.5 2.5v24.239c0 1.381-1.119 2.5-2.5 2.5z"/></g></g><g><g><path d="m128 208.917c-4.642 0-8.419-3.777-8.419-8.419 0-4.643 3.777-8.419 8.419-8.419 4.643 0 8.419 3.777 8.419 8.419 0 4.643-3.776 8.419-8.419 8.419zm0-11.838c-1.885 0-3.419 1.534-3.419 3.419s1.534 3.419 3.419 3.419 3.419-1.534 3.419-3.419-1.534-3.419-3.419-3.419z"/></g></g><g><g><path d="m231.979 175.756h-207.698c-1.381 0-2.5-1.119-2.5-2.5s1.119-2.5 2.5-2.5h207.699c1.381 0 2.5 1.119 2.5 2.5s-1.12 2.5-2.501 2.5z"/></g></g><g><g><path d="m47.225 186.167c-1.381 0-2.5-1.119-2.5-2.5v-9.709c0-1.381 1.119-2.5 2.5-2.5s2.5 1.119 2.5 2.5v9.709c0 1.38-1.12 2.5-2.5 2.5z"/></g></g><g><g><g><path d="m160.772 93.865c-4.136 0-7.5-3.364-7.5-7.5s3.364-7.5 7.5-7.5c4.244 0 7.697-3.453 7.697-7.697v-4.22c0-7.419 3.23-14.444 8.864-19.275l.864-.741-.863-.74c-5.634-4.832-8.865-11.857-8.865-19.276v-4.22c0-4.244-3.453-7.697-7.697-7.697-4.136 0-7.5-3.364-7.5-7.5s3.364-7.5 7.5-7.5c12.516 0 22.697 10.182 22.697 22.697v4.22c0 3.036 1.322 5.911 3.628 7.887l3.593 3.078c2.646 2.269 4.162 5.567 4.162 9.051s-1.517 6.782-4.161 9.049l-3.595 3.081c-2.305 1.976-3.627 4.85-3.627 7.886v4.22c.001 12.516-10.181 22.697-22.697 22.697zm0-88.865c-1.379 0-2.5 1.122-2.5 2.5s1.121 2.5 2.5 2.5c7.001 0 12.697 5.696 12.697 12.697v4.22c0 5.958 2.595 11.6 7.119 15.48l3.079 2.638c.554.475.873 1.168.873 1.898s-.319 1.423-.873 1.898l-3.08 2.639c-4.523 3.878-7.118 9.521-7.118 15.479v4.22c0 7.001-5.696 12.697-12.697 12.697-1.379 0-2.5 1.122-2.5 2.5s1.121 2.5 2.5 2.5c9.759 0 17.697-7.939 17.697-17.697v-4.22c0-4.497 1.958-8.755 5.373-11.682l3.595-3.081c1.534-1.315 2.415-3.23 2.415-5.253s-.881-3.938-2.416-5.254l-3.593-3.078c-3.415-2.928-5.374-7.187-5.374-11.684v-4.22c.001-9.758-7.938-17.697-17.697-17.697z"/></g></g></g><g><g><g><path d="m95.227 93.865c-12.515 0-22.697-10.182-22.697-22.697v-4.22c0-3.036-1.322-5.91-3.627-7.887l-3.593-3.08c-2.646-2.269-4.163-5.567-4.163-9.05s1.517-6.781 4.162-9.049l3.594-3.08c2.305-1.977 3.627-4.851 3.627-7.887v-4.22c0-12.513 10.182-22.695 22.697-22.695 4.136 0 7.5 3.364 7.5 7.5s-3.364 7.5-7.5 7.5c-4.244 0-7.697 3.453-7.697 7.697v4.22c0 7.42-3.231 14.446-8.866 19.275l-.864.741.864.741c5.634 4.829 8.866 11.855 8.866 19.275v4.22c0 4.244 3.453 7.697 7.697 7.697 4.136 0 7.5 3.364 7.5 7.5s-3.364 7.499-7.5 7.499zm0-88.865c-9.758 0-17.697 7.939-17.697 17.697v4.22c0 4.497-1.958 8.755-5.374 11.683l-3.593 3.08c-1.535 1.317-2.416 3.231-2.416 5.253s.881 3.937 2.417 5.254l3.592 3.08c3.415 2.927 5.374 7.186 5.374 11.683v4.22c0 9.758 7.939 17.697 17.697 17.697 1.378 0 2.5-1.122 2.5-2.5s-1.122-2.5-2.5-2.5c-7.001 0-12.697-5.696-12.697-12.697v-4.22c0-5.959-2.595-11.601-7.12-15.479l-3.079-2.639c-.554-.475-.873-1.168-.873-1.898s.319-1.423.873-1.898l3.079-2.639c4.524-3.878 7.12-9.521 7.12-15.479v-4.22c0-7.002 5.696-12.698 12.697-12.698 1.378 0 2.5-1.122 2.5-2.5s-1.122-2.5-2.5-2.5z"/></g></g></g><g><g><path d="m132.487 81.869h-8.975c-2.079 0-3.771-1.691-3.771-3.771v-2.994c-1.901-.566-3.741-1.329-5.49-2.276l-2.119 2.118c-1.422 1.425-3.909 1.425-5.333 0l-6.345-6.345c-1.47-1.47-1.47-3.863 0-5.333l2.118-2.119c-.947-1.749-1.709-3.588-2.276-5.49h-2.994c-2.079 0-3.771-1.691-3.771-3.771v-8.975c0-2.079 1.692-3.771 3.771-3.771h2.994c.566-1.903 1.329-3.743 2.276-5.49l-2.118-2.118c-1.47-1.47-1.47-3.862-.001-5.333l6.347-6.347c1.47-1.47 3.862-1.47 5.332 0l2.118 2.118c1.748-.947 3.588-1.709 5.49-2.276v-2.994c0-2.079 1.691-3.771 3.771-3.771h8.975c2.079 0 3.771 1.692 3.771 3.771v2.998c1.902.566 3.742 1.329 5.49 2.276l2.118-2.118c1.469-1.471 3.861-1.471 5.332 0l6.346 6.346c.713.711 1.105 1.659 1.105 2.667s-.394 1.955-1.107 2.667l-2.116 2.117c.947 1.749 1.711 3.588 2.276 5.49h2.993c2.08 0 3.771 1.691 3.771 3.771v8.975c0 2.079-1.691 3.771-3.771 3.771h-2.993c-.565 1.9-1.328 3.74-2.276 5.49l2.118 2.119c.712.71 1.105 1.658 1.105 2.666s-.394 1.956-1.107 2.668l-6.344 6.344c-1.422 1.425-3.909 1.425-5.333 0l-2.117-2.118c-1.749.947-3.589 1.71-5.49 2.276v2.994c.001 2.076-1.691 3.768-3.77 3.768zm-7.745-5h6.516v-2.699c0-1.712 1.154-3.211 2.808-3.644 2.099-.548 4.114-1.384 5.992-2.484 1.475-.864 3.352-.622 4.563.588l1.911 1.911 4.607-4.607-1.91-1.911c-1.211-1.212-1.453-3.087-.591-4.562 1.102-1.881 1.938-3.896 2.484-5.992.433-1.655 1.932-2.81 3.645-2.81h2.699v-6.516h-2.699c-1.713 0-3.211-1.155-3.644-2.808-.548-2.097-1.384-4.113-2.484-5.992-.863-1.477-.62-3.353.589-4.563l1.911-1.912-4.607-4.607-1.91 1.91c-1.213 1.211-3.088 1.454-4.564.589-1.876-1.099-3.893-1.935-5.991-2.484-1.654-.433-2.809-1.931-2.809-3.644v-2.699h-6.516v2.699c0 1.713-1.155 3.211-2.809 3.644-2.099.549-4.115 1.385-5.992 2.484-1.475.864-3.352.621-4.562-.587l-1.912-1.913-4.607 4.607 1.91 1.91c1.212 1.212 1.454 3.089.589 4.565-1.099 1.876-1.934 3.892-2.483 5.991-.431 1.653-1.93 2.809-3.644 2.809h-2.699v6.516h2.699c1.714 0 3.213 1.156 3.644 2.811.549 2.097 1.384 4.113 2.483 5.99.865 1.474.623 3.352-.589 4.563l-1.91 1.911 4.607 4.607 1.91-1.91c1.212-1.212 3.089-1.454 4.563-.59 1.879 1.1 3.895 1.936 5.992 2.484 1.654.433 2.809 1.932 2.809 3.645v2.7zm33.953-32.724h.01zm-30.695 20.714c-9.625 0-17.457-7.831-17.457-17.457s7.831-17.457 17.457-17.457 17.457 7.831 17.457 17.457-7.831 17.457-17.457 17.457zm0-29.914c-6.869 0-12.457 5.588-12.457 12.457s5.588 12.457 12.457 12.457 12.457-5.588 12.457-12.457-5.588-12.457-12.457-12.457z"/></g></g></g></g></svg>