<svg enable-background="new 0 0 256 256" height="512" viewBox="0 0 256 256" width="512" xmlns="http://www.w3.org/2000/svg"><g id="Layer_82"><g><g><g><path d="m126.997 40.842c-35.877.518-65.505 29.427-66.852 65.282-.911 24.235 10.892 45.762 29.263 58.474 4.443 3.075 7.185 8.053 7.185 13.456v12.709c0 6.805 5.517 12.322 12.322 12.322h38.171c6.805 0 12.322-5.517 12.322-12.322v-12.499c0-5.485 2.735-10.58 7.242-13.706 17.675-12.256 29.254-32.68 29.254-55.818 0-37.837-30.945-68.446-68.907-67.898z" fill="#fcdd86"/></g></g><g><g><path d="m147.086 203.084h-38.171c-2.617 0-5.039-.821-7.035-2.213v26.521c0 4.413 3.577 7.99 7.99 7.99h36.26c4.413 0 7.99-3.577 7.99-7.99v-26.521c-1.995 1.392-4.417 2.213-7.034 2.213z" fill="#edf4fc"/></g></g><g><g><g><path d="m111.559 235.383 6.401 14.338c1.026 2.299 3.309 3.779 5.826 3.779h8.428c2.518 0 4.8-1.481 5.826-3.779l6.401-14.338z" fill="#5290db"/></g></g></g><g><g><path d="m173.913 99.873c-1.005-.811-1.47-2.088-1.322-3.37 1.214-10.533-6.249-19.927-16.462-21.465-1.246-.188-2.349-.933-2.864-2.083-1.787-3.989-5.917-6.697-10.645-6.355-5.695.412-9.993 5.384-9.993 11.095v64.099c0 5.731 4.323 10.725 10.041 11.111 5.546.374 10.172-3.415 11.291-8.394.618-2.748 2.928-4.725 5.688-5.294 7.389-1.522 12.943-8.044 13.07-15.811.019-1.138.531-2.188 1.402-2.92 2.916-2.45 4.773-6.115 4.773-10.221-.002-4.203-1.946-7.944-4.979-10.392z" fill="#fc657e"/></g></g><g><g><path d="m82.087 99.873c1.005-.811 1.47-2.088 1.322-3.37-1.214-10.533 6.249-19.927 16.462-21.465 1.246-.188 2.349-.933 2.864-2.083 1.787-3.989 5.917-6.697 10.645-6.355 5.695.412 9.993 5.384 9.993 11.095v64.099c0 5.731-4.323 10.725-10.041 11.111-5.546.374-10.172-3.415-11.291-8.394-.618-2.748-2.928-4.725-5.688-5.294-7.389-1.522-12.943-8.044-13.07-15.811-.019-1.138-.531-2.188-1.402-2.92-2.916-2.45-4.773-6.115-4.773-10.221.002-4.203 1.946-7.944 4.979-10.392z" fill="#fc657e"/></g></g><g><g><path d="m128 30.297c-1.381 0-2.5-1.119-2.5-2.5v-10.864c0-1.381 1.119-2.5 2.5-2.5s2.5 1.119 2.5 2.5v10.864c0 1.381-1.119 2.5-2.5 2.5z"/></g></g><g><g><path d="m87.531 41.142c-.864 0-1.705-.448-2.167-1.25l-5.432-9.409c-.69-1.195-.281-2.725.915-3.415 1.195-.692 2.725-.28 3.415.915l5.432 9.409c.69 1.195.281 2.725-.915 3.415-.394.227-.824.335-1.248.335z"/></g></g><g><g><path d="m57.899 70.769c-.424 0-.854-.107-1.248-.335l-9.409-5.433c-1.196-.69-1.605-2.22-.915-3.415.689-1.196 2.219-1.607 3.415-.915l9.409 5.433c1.196.69 1.605 2.22.915 3.415-.462.801-1.303 1.25-2.167 1.25z"/></g></g><g><g><path d="m207.504 157.143c-.424 0-.854-.107-1.248-.335l-9.409-5.433c-1.196-.69-1.605-2.22-.915-3.415.69-1.196 2.22-1.606 3.415-.915l9.409 5.433c1.196.69 1.605 2.22.915 3.415-.462.801-1.302 1.25-2.167 1.25z"/></g></g><g><g><path d="m47.058 111.239h-10.865c-1.381 0-2.5-1.119-2.5-2.5s1.119-2.5 2.5-2.5h10.865c1.381 0 2.5 1.119 2.5 2.5s-1.119 2.5-2.5 2.5z"/></g></g><g><g><path d="m219.807 111.239h-10.865c-1.381 0-2.5-1.119-2.5-2.5s1.119-2.5 2.5-2.5h10.865c1.381 0 2.5 1.119 2.5 2.5s-1.12 2.5-2.5 2.5z"/></g></g><g><g><path d="m48.496 157.143c-.864 0-1.705-.448-2.167-1.25-.69-1.195-.281-2.725.915-3.415l9.409-5.433c1.195-.692 2.725-.28 3.415.915s.281 2.725-.915 3.415l-9.409 5.433c-.394.227-.825.335-1.248.335z"/></g></g><g><g><path d="m198.101 70.769c-.864 0-1.705-.448-2.167-1.25-.69-1.195-.281-2.725.915-3.415l9.409-5.433c1.195-.692 2.725-.281 3.415.915.69 1.195.281 2.725-.915 3.415l-9.409 5.433c-.394.227-.825.335-1.248.335z"/></g></g><g><g><path d="m168.469 41.142c-.424 0-.854-.107-1.248-.335-1.196-.69-1.605-2.22-.915-3.415l5.432-9.409c.689-1.195 2.219-1.607 3.415-.915 1.196.69 1.605 2.22.915 3.415l-5.432 9.409c-.463.801-1.303 1.25-2.167 1.25z"/></g></g><g><g><path d="m147.086 205.584h-38.172c-8.173 0-14.822-6.648-14.822-14.821v-12.709c0-4.492-2.283-8.754-6.107-11.4-19.905-13.774-31.247-36.437-30.339-60.624.675-17.982 8.215-34.883 21.229-47.588 13.011-12.702 30.088-19.841 48.085-20.101 19.007-.243 36.931 6.919 50.459 20.254 13.532 13.337 20.984 31.146 20.984 50.144 0 23.068-11.338 44.702-30.329 57.873-3.862 2.678-6.167 7.033-6.167 11.651v12.499c.001 8.174-6.648 14.822-14.821 14.822zm-20.053-162.242c-16.711.241-32.574 6.874-44.665 18.679-12.093 11.805-19.098 27.501-19.725 44.197-.844 22.472 9.693 43.527 28.187 56.324 5.174 3.579 8.263 9.378 8.263 15.512v12.709c0 5.415 4.406 9.821 9.822 9.821h38.172c5.416 0 9.822-4.406 9.822-9.821v-12.499c0-6.257 3.109-12.148 8.318-15.761 17.645-12.236 28.179-32.335 28.179-53.764 0-17.649-6.923-34.192-19.494-46.583-12.569-12.387-29.214-19.087-46.879-18.814zm-.036-2.5h.01z"/></g></g><g><g><path d="m146.13 237.883h-36.26c-5.785 0-10.491-4.706-10.491-10.49v-26.115c0-1.381 1.119-2.5 2.5-2.5s2.5 1.119 2.5 2.5v26.115c0 3.027 2.463 5.49 5.491 5.49h36.26c3.028 0 5.491-2.463 5.491-5.49v-26.016c0-1.381 1.119-2.5 2.5-2.5s2.5 1.119 2.5 2.5v26.016c0 5.784-4.706 10.49-10.491 10.49z"/></g></g><g><g><g><path d="m132.214 256h-8.428c-3.5 0-6.682-2.064-8.109-5.26l-6.181-13.845c-.563-1.261.003-2.739 1.264-3.303 1.261-.562 2.739.003 3.302 1.264l6.181 13.845c.624 1.396 2.014 2.299 3.543 2.299h8.428c1.529 0 2.92-.902 3.543-2.299l6.24-13.978c.563-1.26 2.04-1.826 3.302-1.264 1.261.563 1.827 2.042 1.264 3.303l-6.24 13.978c-1.427 3.196-4.61 5.26-8.109 5.26z"/></g></g></g><g><g><path d="m153.054 220.824h-50.108c-1.381 0-2.5-1.119-2.5-2.5s1.119-2.5 2.5-2.5h50.108c1.381 0 2.5 1.119 2.5 2.5s-1.119 2.5-2.5 2.5z"/></g></g><g><g><path d="m156.186 103.752c-1.16 0-2.198-.812-2.444-1.988-.053-.234-1.14-4.801-6.413-6.437-1.318-.409-2.056-1.81-1.647-3.128.409-1.319 1.812-2.055 3.128-1.647 8.196 2.542 9.766 9.894 9.829 10.205.273 1.354-.603 2.672-1.957 2.945-.167.033-.333.05-.496.05z"/></g></g><g><g><path d="m151.891 113.794c-1.09 0-2.091-.719-2.404-1.818-.932-3.287.041-6.801 2.54-9.171 2.519-2.388 5.984-3.145 9.27-2.018 2.321.794 4.193 2.445 5.272 4.648.607 1.24.095 2.737-1.146 3.345-1.238.607-2.737.097-3.345-1.146-.492-1.004-1.344-1.755-2.401-2.117-1.493-.512-3.067-.168-4.211.916-1.162 1.102-1.599 2.663-1.169 4.177.376 1.329-.395 2.711-1.723 3.088-.227.065-.457.096-.683.096z"/></g></g><g><g><path d="m132.627 129.658c-.233 0-.471-.033-.707-.103-1.325-.39-2.083-1.779-1.693-3.104.71-2.413 2.405-4.463 4.65-5.625 2.213-1.145 4.75-1.325 7.145-.505 2.32.794 4.192 2.444 5.272 4.646.608 1.239.096 2.737-1.144 3.345s-2.737.097-3.346-1.144c-.492-1.003-1.345-1.756-2.402-2.117-1.398-.48-2.527-.147-3.228.216-1.04.538-1.824 1.483-2.151 2.596-.319 1.089-1.315 1.795-2.396 1.795z"/></g></g><g><g><path d="m99.812 103.739c-.169 0-.342-.018-.514-.054-1.342-.283-2.208-1.584-1.937-2.929.063-.312 1.633-7.663 9.829-10.205 1.318-.407 2.719.328 3.128 1.647.409 1.318-.329 2.719-1.647 3.128-5.298 1.644-6.371 6.244-6.414 6.439-.257 1.169-1.294 1.974-2.445 1.974z"/></g></g><g><g><path d="m104.109 113.794c-.226 0-.456-.031-.684-.096-1.329-.377-2.1-1.759-1.723-3.088.43-1.514-.008-3.075-1.169-4.177-1.144-1.084-2.717-1.427-4.211-.916-1.057.362-1.91 1.113-2.401 2.117-.607 1.24-2.104 1.756-3.345 1.146-1.24-.607-1.753-2.104-1.146-3.345 1.079-2.203 2.952-3.854 5.272-4.648 3.283-1.127 6.75-.37 9.27 2.018 2.499 2.37 3.472 5.884 2.54 9.171-.312 1.099-1.314 1.818-2.403 1.818z"/></g></g><g><g><path d="m123.373 129.658c-1.081 0-2.077-.706-2.397-1.795-.327-1.112-1.111-2.058-2.151-2.596-.701-.362-1.83-.695-3.228-.216-1.057.361-1.91 1.114-2.402 2.117-.607 1.24-2.106 1.752-3.346 1.144-1.239-.607-1.751-2.105-1.144-3.345 1.08-2.202 2.952-3.853 5.272-4.646 2.394-.818 4.931-.64 7.145.505 2.245 1.162 3.94 3.212 4.65 5.625.39 1.325-.368 2.715-1.693 3.104-.235.07-.473.103-.706.103z"/></g></g><g><g><path d="m200.705 16.882c-4.498-.838-8.043-4.31-8.898-8.716-.043-.221-.352-.221-.395 0-.855 4.406-4.4 7.879-8.898 8.716-.226.042-.226.345 0 .387 4.498.838 8.043 4.31 8.898 8.717.043.221.352.221.395 0 .855-4.406 4.4-7.879 8.898-8.717.226-.042.226-.344 0-.387z" fill="#f5c84c"/></g></g><g><g><path d="m198.123 171.361c-3.221-.6-5.76-3.087-6.372-6.243-.031-.159-.252-.159-.283 0-.612 3.156-3.151 5.643-6.372 6.243-.162.03-.162.247 0 .277 3.221.6 5.76 3.087 6.372 6.243.031.159.252.159.283 0 .612-3.156 3.151-5.643 6.372-6.243.162-.03.162-.246 0-.277z" fill="#87d147"/></g></g><g><g><path d="m59.442 183.487h2.33v-2.33c0-1.744 1.413-3.157 3.157-3.157s3.157 1.413 3.157 3.157v2.33h2.329c1.744 0 3.157 1.413 3.157 3.157s-1.413 3.157-3.157 3.157h-2.329v2.33c0 1.744-1.413 3.157-3.157 3.157s-3.157-1.413-3.157-3.157v-2.33h-2.33c-1.744 0-3.157-1.413-3.157-3.157s1.413-3.157 3.157-3.157z" fill="#70d6f9"/></g></g><g><g><circle cx="76.721" cy="213.623" fill="#f5c84c" r="3.377"/></g></g><g><g><circle cx="157.721" cy="247.623" fill="#fc657e" r="3.377"/></g></g><g><g><circle cx="157.721" cy="3.377" fill="#fc657e" r="3.377"/></g></g><g><g><path d="m143.427 155.43c-.308 0-.617-.01-.928-.031-6.938-.468-12.372-6.444-12.372-13.605v-64.1c0-7.121 5.408-13.09 12.313-13.588 5.563-.411 10.829 2.743 13.106 7.825.148.329.505.566.955.634 11.776 1.773 19.935 12.414 18.574 24.224-.053.464.1.89.408 1.139 3.755 3.03 5.908 7.526 5.908 12.336 0 4.688-2.065 9.11-5.665 12.136-.323.271-.504.643-.511 1.047-.144 8.789-6.479 16.451-15.065 18.219-1.905.393-3.377 1.725-3.753 3.394-1.378 6.132-6.751 10.37-12.97 10.37zm-.031-86.359c-.198 0-.397.008-.597.021-4.303.311-7.673 4.089-7.673 8.602v64.099c0 4.54 3.386 8.325 7.709 8.617 4.125.261 7.781-2.434 8.683-6.447.805-3.583 3.797-6.406 7.622-7.194 6.312-1.3 10.969-6.938 11.075-13.404.03-1.848.866-3.595 2.294-4.794 2.466-2.072 3.881-5.1 3.881-8.307 0-3.291-1.476-6.369-4.048-8.445-1.65-1.331-2.486-3.425-2.235-5.601 1.05-9.12-5.253-17.338-14.351-18.708-2.142-.322-3.926-1.643-4.773-3.533-1.34-2.99-4.338-4.906-7.587-4.906z"/></g></g><g><g><path d="m112.573 155.43c-6.22 0-11.592-4.237-12.97-10.371-.375-1.669-1.848-3.001-3.753-3.394-8.586-1.768-14.922-9.43-15.065-18.219-.007-.404-.188-.775-.51-1.046-3.601-3.026-5.666-7.449-5.666-12.137 0-4.81 2.153-9.306 5.908-12.336.309-.249.461-.675.408-1.14-1.36-11.808 6.799-22.448 18.575-24.221.45-.068.807-.306.955-.635 2.277-5.082 7.545-8.237 13.106-7.825 6.904.498 12.313 6.467 12.313 13.588v64.099c0 7.161-5.435 13.138-12.372 13.605-.312.022-.622.032-.929.032zm-28.916-53.612c-2.572 2.076-4.048 5.154-4.048 8.445 0 3.207 1.415 6.234 3.882 8.308 1.427 1.198 2.263 2.945 2.293 4.793.106 6.467 4.764 12.104 11.075 13.404 3.825.788 6.817 3.611 7.622 7.194.902 4.014 4.567 6.721 8.683 6.447 4.323-.292 7.709-4.077 7.709-8.617v-64.098c0-4.513-3.37-8.291-7.673-8.602-3.462-.227-6.762 1.711-8.184 4.884-.847 1.891-2.632 3.211-4.773 3.534-9.098 1.369-15.401 9.587-14.351 18.706.251 2.178-.584 4.271-2.235 5.602z"/></g></g></g></g></svg>