<svg enable-background="new 0 0 256 256" height="512" viewBox="0 0 256 256" width="512" xmlns="http://www.w3.org/2000/svg"><g id="Layer_50"><g><g><g><g><path d="m97.294 226.469h-75.672c-10.544 0-19.122-8.578-19.122-19.122v-159.283c0-10.544 8.578-19.123 19.122-19.123h75.672c10.544 0 19.122 8.578 19.122 19.123v159.283c0 10.544-8.578 19.122-19.122 19.122z" fill="#5290db"/></g></g></g><g><g><g><path d="m234.378 227.058h-75.672c-10.544 0-19.122-8.578-19.122-19.123v-159.282c0-10.544 8.578-19.122 19.122-19.122h75.672c10.544 0 19.122 8.578 19.122 19.122v159.283c0 10.544-8.578 19.122-19.122 19.122z" fill="#5290db"/></g></g></g><g><g><path d="m97.293 38.942h-8.56c-1.935 0-3.769 1.058-4.578 2.816-1.383 3.006-4.423 5.099-7.943 5.099h-33.508c-3.521 0-6.56-2.093-7.943-5.099-.809-1.758-2.643-2.816-4.578-2.816h-8.56c-5.038 0-9.122 4.084-9.122 9.122v159.283c0 5.038 4.084 9.122 9.122 9.122h75.672c5.038 0 9.122-4.084 9.122-9.122v-159.283c-.001-5.038-4.085-9.122-9.124-9.122z" fill="#edf4fc"/></g></g><g><g><path d="m31.865 194.47h-7.747c-1.442 0-2.611 1.169-2.611 2.61v7.747c0 1.442 1.169 2.611 2.611 2.611h7.747c1.442 0 2.611-1.169 2.611-2.611v-7.747c0-1.441-1.169-2.61-2.611-2.61z" fill="#70d6f9"/></g></g><g><g><path d="m52.843 194.47h-7.747c-1.442 0-2.61 1.169-2.61 2.61v7.747c0 1.442 1.169 2.611 2.61 2.611h7.747c1.442 0 2.611-1.169 2.611-2.611v-7.747c-.001-1.441-1.169-2.61-2.611-2.61z" fill="#fc8c48"/></g></g><g><g><path d="m73.82 194.47h-7.747c-1.442 0-2.61 1.169-2.61 2.61v7.747c0 1.442 1.169 2.611 2.61 2.611h7.747c1.442 0 2.61-1.169 2.61-2.611v-7.747c.001-1.441-1.168-2.61-2.61-2.61z" fill="#87d147"/></g></g><g><g><path d="m94.798 194.47h-7.747c-1.442 0-2.61 1.169-2.61 2.61v7.747c0 1.442 1.169 2.611 2.61 2.611h7.747c1.442 0 2.61-1.169 2.61-2.611v-7.747c0-1.441-1.168-2.61-2.61-2.61z" fill="#fcdd86"/></g></g><g><g><path d="m31.865 66.47h-7.747c-1.442 0-2.611 1.169-2.611 2.61v7.747c0 1.442 1.169 2.611 2.611 2.611h7.747c1.442 0 2.611-1.169 2.611-2.611v-7.747c0-1.441-1.169-2.61-2.611-2.61z" fill="#5290db"/></g></g><g><g><path d="m52.843 66.47h-7.747c-1.442 0-2.61 1.169-2.61 2.61v7.747c0 1.442 1.169 2.611 2.61 2.611h7.747c1.442 0 2.611-1.169 2.611-2.611v-7.747c-.001-1.441-1.169-2.61-2.611-2.61z" fill="#9be5f9"/></g></g><g><g><path d="m73.82 66.47h-7.747c-1.442 0-2.61 1.169-2.61 2.61v7.747c0 1.442 1.169 2.611 2.61 2.611h7.747c1.442 0 2.61-1.169 2.61-2.611v-7.747c.001-1.441-1.168-2.61-2.61-2.61z" fill="#87d147"/></g></g><g><g><path d="m94.798 66.47h-7.747c-1.442 0-2.61 1.169-2.61 2.61v7.747c0 1.442 1.169 2.611 2.61 2.611h7.747c1.442 0 2.61-1.169 2.61-2.611v-7.747c0-1.441-1.168-2.61-2.61-2.61z" fill="#fc8c48"/></g></g><g><g><path d="m31.865 87.97h-7.747c-1.442 0-2.611 1.169-2.611 2.61v7.747c0 1.442 1.169 2.611 2.611 2.611h7.747c1.442 0 2.611-1.169 2.611-2.611v-7.747c0-1.441-1.169-2.61-2.611-2.61z" fill="#fcdd86"/></g></g><g><g><path d="m52.843 87.97h-7.747c-1.442 0-2.61 1.169-2.61 2.61v7.747c0 1.442 1.169 2.611 2.61 2.611h7.747c1.442 0 2.611-1.169 2.611-2.611v-7.747c-.001-1.441-1.169-2.61-2.611-2.61z" fill="#fc8c48"/></g></g><g><g><path d="m73.82 87.97h-7.747c-1.442 0-2.61 1.169-2.61 2.61v7.747c0 1.442 1.169 2.611 2.61 2.611h7.747c1.442 0 2.61-1.169 2.61-2.611v-7.747c.001-1.441-1.168-2.61-2.61-2.61z" fill="#fc657e"/></g></g><g><g><path d="m94.798 87.97h-7.747c-1.442 0-2.61 1.169-2.61 2.61v7.747c0 1.442 1.169 2.611 2.61 2.611h7.747c1.442 0 2.61-1.169 2.61-2.611v-7.747c0-1.441-1.168-2.61-2.61-2.61z" fill="#5290db"/></g></g><g><g><path d="m31.865 109.47h-7.747c-1.442 0-2.611 1.169-2.611 2.61v7.747c0 1.442 1.169 2.611 2.611 2.611h7.747c1.442 0 2.611-1.169 2.611-2.611v-7.747c0-1.441-1.169-2.61-2.611-2.61z" fill="#fc657e"/></g></g><g><g><path d="m52.843 109.47h-7.747c-1.442 0-2.61 1.169-2.61 2.61v7.747c0 1.442 1.169 2.611 2.61 2.611h7.747c1.442 0 2.611-1.169 2.611-2.611v-7.747c-.001-1.441-1.169-2.61-2.611-2.61z" fill="#5290db"/></g></g><g><g><path d="m73.82 109.47h-7.747c-1.442 0-2.61 1.169-2.61 2.61v7.747c0 1.442 1.169 2.611 2.61 2.611h7.747c1.442 0 2.61-1.169 2.61-2.611v-7.747c.001-1.441-1.168-2.61-2.61-2.61z" fill="#9be5f9"/></g></g><g><g><path d="m94.798 109.47h-7.747c-1.442 0-2.61 1.169-2.61 2.61v7.747c0 1.442 1.169 2.611 2.61 2.611h7.747c1.442 0 2.61-1.169 2.61-2.611v-7.747c0-1.441-1.168-2.61-2.61-2.61z" fill="#fcdd86"/></g></g><g><g><path d="m234.378 39.531h-20.197c-1.618 0-3.068.973-3.705 2.46-2.316 5.409-7.677 9.201-13.934 9.201-6.257 0-11.618-3.792-13.934-9.202-.637-1.487-2.087-2.46-3.705-2.46h-20.197c-5.038 0-9.122 4.084-9.122 9.122v159.283c0 5.038 4.084 9.123 9.123 9.123h75.671c5.038 0 9.122-4.084 9.122-9.122v-159.283c0-5.038-4.084-9.122-9.122-9.122z" fill="#edf4fc"/></g></g><g><g><path d="m164.89 150.97c-3.581 0-6.484 2.903-6.484 6.484 0 3.581 2.903 6.484 6.484 6.484 3.581 0 6.484-2.903 6.484-6.484 0-3.581-2.903-6.484-6.484-6.484z" fill="#5290db"/></g></g><g><g><path d="m185.868 150.97c-3.581 0-6.484 2.903-6.484 6.484 0 3.581 2.903 6.484 6.484 6.484 3.581 0 6.484-2.903 6.484-6.484 0-3.581-2.903-6.484-6.484-6.484z" fill="#fcdd86"/></g></g><g><g><path d="m206.845 150.97c-3.581 0-6.484 2.903-6.484 6.484 0 3.581 2.903 6.484 6.484 6.484 3.581 0 6.484-2.903 6.484-6.484 0-3.581-2.903-6.484-6.484-6.484z" fill="#fc657e"/></g></g><g><g><path d="m227.823 150.97c-3.581 0-6.484 2.903-6.484 6.484 0 3.581 2.903 6.484 6.484 6.484 3.581 0 6.484-2.903 6.484-6.484 0-3.581-2.903-6.484-6.484-6.484z" fill="#70d6f9"/></g></g><g><g><path d="m164.89 172.47c-3.581 0-6.484 2.903-6.484 6.484 0 3.581 2.903 6.484 6.484 6.484 3.581 0 6.484-2.903 6.484-6.484 0-3.581-2.903-6.484-6.484-6.484z" fill="#fc657e"/></g></g><g><g><path d="m185.868 172.47c-3.581 0-6.484 2.903-6.484 6.484 0 3.581 2.903 6.484 6.484 6.484 3.581 0 6.484-2.903 6.484-6.484 0-3.581-2.903-6.484-6.484-6.484z" fill="#fc8c48"/></g></g><g><g><path d="m206.845 172.47c-3.581 0-6.484 2.903-6.484 6.484 0 3.581 2.903 6.484 6.484 6.484 3.581 0 6.484-2.903 6.484-6.484 0-3.581-2.903-6.484-6.484-6.484z" fill="#87d147"/></g></g><g><g><path d="m227.823 172.47c-3.581 0-6.484 2.903-6.484 6.484 0 3.581 2.903 6.484 6.484 6.484 3.581 0 6.484-2.903 6.484-6.484 0-3.581-2.903-6.484-6.484-6.484z" fill="#f5c84c"/></g></g><g><g><path d="m224.256 69.5h-56.375c-1.829 0-3.313 1.483-3.313 3.313v5.375c0 1.829 1.483 3.313 3.313 3.313h56.375c1.829 0 3.313-1.483 3.313-3.313v-5.375c0-1.83-1.483-3.313-3.313-3.313z" fill="#fcdd86"/></g></g><g><g><path d="m149.584 196.5v11.436c0 5.038 4.084 9.123 9.123 9.123h75.671c5.038 0 9.122-4.084 9.122-9.122v-11.437z" fill="#9be5f9"/></g></g><g><g><path d="m175.569 69.5h-7.688c-1.829 0-3.313 1.483-3.313 3.313v5.375c0 1.829 1.483 3.313 3.313 3.313h7.688z" fill="#edb311"/></g></g><g><g><g><path d="m97.294 228.969h-75.672c-11.923 0-21.622-9.699-21.622-21.622v-159.283c0-11.923 9.699-21.623 21.622-21.623h75.672c11.923 0 21.622 9.7 21.622 21.623v159.283c0 11.923-9.699 21.622-21.622 21.622zm-75.672-197.527c-9.165 0-16.622 7.457-16.622 16.622v159.283c0 9.166 7.457 16.622 16.622 16.622h75.672c9.165 0 16.622-7.457 16.622-16.622v-159.283c0-9.166-7.457-16.623-16.622-16.623h-75.672z"/></g></g></g><g><g><path d="m68.67 59h-20c-1.381 0-2.5-1.119-2.5-2.5s1.119-2.5 2.5-2.5h20c1.381 0 2.5 1.119 2.5 2.5s-1.119 2.5-2.5 2.5z"/></g></g><g><g><path d="m93.67 59h-4c-1.381 0-2.5-1.119-2.5-2.5s1.119-2.5 2.5-2.5h4c1.381 0 2.5 1.119 2.5 2.5s-1.119 2.5-2.5 2.5z"/></g></g><g><g><path d="m27.67 59h-4c-1.381 0-2.5-1.119-2.5-2.5s1.119-2.5 2.5-2.5h4c1.381 0 2.5 1.119 2.5 2.5s-1.119 2.5-2.5 2.5z"/></g></g><g><g><g><path d="m234.378 229.558h-75.672c-11.923 0-21.622-9.7-21.622-21.623v-159.282c0-11.922 9.699-21.622 21.622-21.622h75.672c11.923 0 21.622 9.7 21.622 21.622v159.283c0 11.922-9.699 21.622-21.622 21.622zm-75.672-197.527c-9.165 0-16.622 7.457-16.622 16.622v159.283c0 9.166 7.457 16.623 16.622 16.623h75.672c9.165 0 16.622-7.457 16.622-16.623v-159.283c0-9.166-7.457-16.622-16.622-16.622z"/></g></g></g><g><g><path d="m173.542 209h-4c-1.381 0-2.5-1.119-2.5-2.5s1.119-2.5 2.5-2.5h4c1.381 0 2.5 1.119 2.5 2.5s-1.119 2.5-2.5 2.5z"/></g></g><g><g><path d="m223.542 209h-4c-1.381 0-2.5-1.119-2.5-2.5s1.119-2.5 2.5-2.5h4c1.381 0 2.5 1.119 2.5 2.5s-1.119 2.5-2.5 2.5z"/></g></g><g><g><path d="m198.542 209h-4c-1.381 0-2.5-1.119-2.5-2.5s1.119-2.5 2.5-2.5h4c1.381 0 2.5 1.119 2.5 2.5s-1.119 2.5-2.5 2.5z"/></g></g><g><g><path d="m145.705 241.654c-4.498-.838-8.043-4.31-8.898-8.716-.043-.221-.352-.221-.395 0-.855 4.406-4.4 7.879-8.898 8.716-.226.042-.226.345 0 .387 4.498.838 8.043 4.31 8.898 8.717.043.221.352.221.395 0 .855-4.406 4.4-7.879 8.898-8.717.226-.043.226-.345 0-.387z" fill="#f5c84c"/></g></g><g><g><path d="m229.903 16.108c-2.586-.482-4.625-2.479-5.116-5.012-.025-.127-.202-.127-.227 0-.492 2.534-2.53 4.531-5.117 5.012-.13.024-.13.198 0 .222 2.586.482 4.625 2.479 5.117 5.012.025.127.202.127.227 0 .492-2.534 2.53-4.531 5.116-5.012.129-.024.129-.198 0-.222z" fill="#fc657e"/></g></g><g><g><path d="m104.442 5.487h2.33v-2.33c0-1.744 1.413-3.157 3.157-3.157s3.157 1.413 3.157 3.157v2.33h2.329c1.744 0 3.157 1.413 3.157 3.157s-1.413 3.157-3.157 3.157h-2.329v2.33c0 1.744-1.413 3.157-3.157 3.157s-3.157-1.413-3.157-3.157v-2.33h-2.33c-1.744 0-3.157-1.413-3.157-3.157s1.413-3.157 3.157-3.157z" fill="#70d6f9"/></g></g><g><g><circle cx="131.721" cy="20.377" fill="#f5c84c" r="3.377"/></g></g><g><g><circle cx="108.721" cy="252.623" fill="#87d147" r="3.377"/></g></g><g><g><path d="m97.294 218.969h-75.672c-6.408 0-11.622-5.214-11.622-11.622v-159.283c0-6.408 5.214-11.622 11.622-11.622h8.561c2.967 0 5.655 1.677 6.85 4.271 1.019 2.213 3.245 3.644 5.672 3.644h33.508c2.427 0 4.653-1.431 5.673-3.645 1.193-2.594 3.882-4.271 6.849-4.271h8.56c6.409 0 11.623 5.214 11.623 11.623v159.283c-.002 6.408-5.216 11.622-11.624 11.622zm-75.672-177.527c-3.651 0-6.622 2.971-6.622 6.622v159.283c0 3.651 2.971 6.622 6.622 6.622h75.672c3.651 0 6.622-2.971 6.622-6.622v-159.283c0-3.652-2.971-6.623-6.623-6.623h-8.56c-1.021 0-1.927.534-2.307 1.361-1.833 3.981-5.843 6.554-10.215 6.554h-33.507c-4.372 0-8.382-2.573-10.214-6.554-.381-.828-1.286-1.362-2.308-1.362h-8.56z"/></g></g><g><g><path d="m31.865 209.938h-7.747c-2.817 0-5.11-2.292-5.11-5.11v-7.748c0-2.818 2.293-5.11 5.11-5.11h7.747c2.817 0 5.11 2.292 5.11 5.11v7.748c.001 2.818-2.292 5.11-5.11 5.11zm-7.747-12.968c-.061 0-.11.049-.11.11v7.748c0 .061.05.11.11.11h7.747c.062 0 .11-.048.11-.11v-7.748c0-.061-.05-.11-.11-.11z"/></g></g><g><g><path d="m52.843 209.938h-7.747c-2.817 0-5.11-2.292-5.11-5.11v-7.748c0-2.818 2.293-5.11 5.11-5.11h7.747c2.817 0 5.11 2.292 5.11 5.11v7.748c0 2.818-2.293 5.11-5.11 5.11zm-7.747-12.968c-.061 0-.11.049-.11.11v7.748c0 .061.05.11.11.11h7.747c.062 0 .11-.048.11-.11v-7.748c0-.061-.05-.11-.11-.11z"/></g></g><g><g><path d="m73.82 209.938h-7.747c-2.817 0-5.11-2.292-5.11-5.11v-7.748c0-2.818 2.293-5.11 5.11-5.11h7.747c2.817 0 5.11 2.292 5.11 5.11v7.748c.001 2.818-2.292 5.11-5.11 5.11zm-7.747-12.968c-.061 0-.11.049-.11.11v7.748c0 .061.05.11.11.11h7.747c.061 0 .11-.049.11-.11v-7.748c0-.061-.05-.11-.11-.11z"/></g></g><g><g><path d="m94.798 209.938h-7.747c-2.817 0-5.11-2.292-5.11-5.11v-7.748c0-2.818 2.293-5.11 5.11-5.11h7.747c2.817 0 5.11 2.292 5.11 5.11v7.748c0 2.818-2.293 5.11-5.11 5.11zm-7.747-12.968c-.061 0-.11.049-.11.11v7.748c0 .061.05.11.11.11h7.747c.061 0 .11-.049.11-.11v-7.748c0-.061-.05-.11-.11-.11z"/></g></g><g><g><path d="m31.865 81.938h-7.747c-2.817 0-5.11-2.292-5.11-5.11v-7.748c0-2.818 2.293-5.11 5.11-5.11h7.747c2.817 0 5.11 2.292 5.11 5.11v7.748c.001 2.818-2.292 5.11-5.11 5.11zm-7.747-12.968c-.061 0-.11.049-.11.11v7.748c0 .061.05.11.11.11h7.747c.062 0 .11-.048.11-.11v-7.748c0-.061-.05-.11-.11-.11z"/></g></g><g><g><path d="m52.843 81.938h-7.747c-2.817 0-5.11-2.292-5.11-5.11v-7.748c0-2.818 2.293-5.11 5.11-5.11h7.747c2.817 0 5.11 2.292 5.11 5.11v7.748c0 2.818-2.293 5.11-5.11 5.11zm-7.747-12.968c-.061 0-.11.049-.11.11v7.748c0 .061.05.11.11.11h7.747c.062 0 .11-.048.11-.11v-7.748c0-.061-.05-.11-.11-.11z"/></g></g><g><g><path d="m73.82 81.938h-7.747c-2.817 0-5.11-2.292-5.11-5.11v-7.748c0-2.818 2.293-5.11 5.11-5.11h7.747c2.817 0 5.11 2.292 5.11 5.11v7.748c.001 2.818-2.292 5.11-5.11 5.11zm-7.747-12.968c-.061 0-.11.049-.11.11v7.748c0 .061.05.11.11.11h7.747c.061 0 .11-.049.11-.11v-7.748c0-.061-.05-.11-.11-.11z"/></g></g><g><g><path d="m94.798 81.938h-7.747c-2.817 0-5.11-2.292-5.11-5.11v-7.748c0-2.818 2.293-5.11 5.11-5.11h7.747c2.817 0 5.11 2.292 5.11 5.11v7.748c0 2.818-2.293 5.11-5.11 5.11zm-7.747-12.968c-.061 0-.11.049-.11.11v7.748c0 .061.05.11.11.11h7.747c.061 0 .11-.049.11-.11v-7.748c0-.061-.05-.11-.11-.11z"/></g></g><g><g><path d="m31.865 103.438h-7.747c-2.817 0-5.11-2.292-5.11-5.11v-7.748c0-2.818 2.293-5.11 5.11-5.11h7.747c2.817 0 5.11 2.292 5.11 5.11v7.748c.001 2.818-2.292 5.11-5.11 5.11zm-7.747-12.968c-.061 0-.11.049-.11.11v7.748c0 .061.05.11.11.11h7.747c.062 0 .11-.048.11-.11v-7.748c0-.061-.05-.11-.11-.11z"/></g></g><g><g><path d="m52.843 103.438h-7.747c-2.817 0-5.11-2.292-5.11-5.11v-7.748c0-2.818 2.293-5.11 5.11-5.11h7.747c2.817 0 5.11 2.292 5.11 5.11v7.748c0 2.818-2.293 5.11-5.11 5.11zm-7.747-12.968c-.061 0-.11.049-.11.11v7.748c0 .061.05.11.11.11h7.747c.062 0 .11-.048.11-.11v-7.748c0-.061-.05-.11-.11-.11z"/></g></g><g><g><path d="m73.82 103.438h-7.747c-2.817 0-5.11-2.292-5.11-5.11v-7.748c0-2.818 2.293-5.11 5.11-5.11h7.747c2.817 0 5.11 2.292 5.11 5.11v7.748c.001 2.818-2.292 5.11-5.11 5.11zm-7.747-12.968c-.061 0-.11.049-.11.11v7.748c0 .061.05.11.11.11h7.747c.061 0 .11-.049.11-.11v-7.748c0-.061-.05-.11-.11-.11z"/></g></g><g><g><path d="m94.798 103.438h-7.747c-2.817 0-5.11-2.292-5.11-5.11v-7.748c0-2.818 2.293-5.11 5.11-5.11h7.747c2.817 0 5.11 2.292 5.11 5.11v7.748c0 2.818-2.293 5.11-5.11 5.11zm-7.747-12.968c-.061 0-.11.049-.11.11v7.748c0 .061.05.11.11.11h7.747c.061 0 .11-.049.11-.11v-7.748c0-.061-.05-.11-.11-.11z"/></g></g><g><g><path d="m31.865 124.938h-7.747c-2.817 0-5.11-2.292-5.11-5.11v-7.748c0-2.818 2.293-5.11 5.11-5.11h7.747c2.817 0 5.11 2.292 5.11 5.11v7.748c.001 2.818-2.292 5.11-5.11 5.11zm-7.747-12.968c-.061 0-.11.049-.11.11v7.748c0 .061.05.11.11.11h7.747c.062 0 .11-.048.11-.11v-7.748c0-.061-.05-.11-.11-.11z"/></g></g><g><g><path d="m52.843 124.938h-7.747c-2.817 0-5.11-2.292-5.11-5.11v-7.748c0-2.818 2.293-5.11 5.11-5.11h7.747c2.817 0 5.11 2.292 5.11 5.11v7.748c0 2.818-2.293 5.11-5.11 5.11zm-7.747-12.968c-.061 0-.11.049-.11.11v7.748c0 .061.05.11.11.11h7.747c.062 0 .11-.048.11-.11v-7.748c0-.061-.05-.11-.11-.11z"/></g></g><g><g><path d="m73.82 124.938h-7.747c-2.817 0-5.11-2.292-5.11-5.11v-7.748c0-2.818 2.293-5.11 5.11-5.11h7.747c2.817 0 5.11 2.292 5.11 5.11v7.748c.001 2.818-2.292 5.11-5.11 5.11zm-7.747-12.968c-.061 0-.11.049-.11.11v7.748c0 .061.05.11.11.11h7.747c.061 0 .11-.049.11-.11v-7.748c0-.061-.05-.11-.11-.11z"/></g></g><g><g><path d="m94.798 124.938h-7.747c-2.817 0-5.11-2.292-5.11-5.11v-7.748c0-2.818 2.293-5.11 5.11-5.11h7.747c2.817 0 5.11 2.292 5.11 5.11v7.748c0 2.818-2.293 5.11-5.11 5.11zm-7.747-12.968c-.061 0-.11.049-.11.11v7.748c0 .061.05.11.11.11h7.747c.061 0 .11-.049.11-.11v-7.748c0-.061-.05-.11-.11-.11z"/></g></g><g><g><path d="m234.378 219.558h-75.671c-6.409 0-11.623-5.214-11.623-11.623v-159.282c0-6.408 5.214-11.622 11.622-11.622h20.197c2.612 0 4.969 1.561 6.002 3.976 2 4.668 6.567 7.686 11.637 7.686s9.637-3.017 11.637-7.686c1.033-2.415 3.39-3.976 6.002-3.976h20.197c6.408 0 11.622 5.214 11.622 11.622v159.283c0 6.408-5.214 11.622-11.622 11.622zm-75.672-177.527c-3.651 0-6.622 2.971-6.622 6.622v159.283c0 3.652 2.971 6.623 6.623 6.623h75.671c3.651 0 6.622-2.971 6.622-6.622v-159.284c0-3.651-2.971-6.622-6.622-6.622h-20.197c-.608 0-1.16.371-1.405.944-2.789 6.511-9.16 10.718-16.233 10.718s-13.444-4.207-16.232-10.717c-.246-.574-.798-.944-1.406-.944h-20.199z"/></g></g><g><g><path d="m164.891 166.438c-4.954 0-8.984-4.03-8.984-8.984s4.03-8.984 8.983-8.984h.001c4.953 0 8.983 4.03 8.983 8.984s-4.03 8.984-8.983 8.984zm0-12.968c-2.197 0-3.984 1.787-3.984 3.984s1.787 3.984 3.983 3.984c2.197 0 3.984-1.787 3.984-3.984s-1.787-3.984-3.983-3.984z"/></g></g><g><g><path d="m185.868 166.438c-4.954 0-8.984-4.03-8.984-8.984s4.03-8.984 8.983-8.984h.001c4.953 0 8.983 4.03 8.983 8.984.001 4.954-4.03 8.984-8.983 8.984zm0-12.968c-2.197 0-3.984 1.787-3.984 3.984s1.787 3.984 3.983 3.984c2.197 0 3.984-1.787 3.984-3.984s-1.787-3.984-3.983-3.984z"/></g></g><g><g><path d="m206.846 166.438c-4.954 0-8.984-4.03-8.984-8.984s4.03-8.984 8.983-8.984h.001c4.953 0 8.983 4.03 8.983 8.984s-4.03 8.984-8.983 8.984zm0-12.968c-2.197 0-3.984 1.787-3.984 3.984s1.787 3.984 3.983 3.984c2.197 0 3.984-1.787 3.984-3.984s-1.787-3.984-3.983-3.984z"/></g></g><g><g><path d="m227.823 166.438c-4.954 0-8.984-4.03-8.984-8.984s4.03-8.984 8.983-8.984h.001c4.953 0 8.983 4.03 8.983 8.984.001 4.954-4.03 8.984-8.983 8.984zm0-12.968c-2.197 0-3.984 1.787-3.984 3.984s1.787 3.984 3.983 3.984c2.197 0 3.984-1.787 3.984-3.984s-1.786-3.984-3.983-3.984z"/></g></g><g><g><path d="m164.891 187.938c-4.954 0-8.984-4.03-8.984-8.984s4.03-8.984 8.983-8.984h.001c4.953 0 8.983 4.03 8.983 8.984s-4.03 8.984-8.983 8.984zm0-12.968c-2.197 0-3.984 1.787-3.984 3.984s1.787 3.984 3.983 3.984c2.197 0 3.984-1.787 3.984-3.984s-1.787-3.984-3.983-3.984z"/></g></g><g><g><path d="m185.868 187.938c-4.954 0-8.984-4.03-8.984-8.984s4.03-8.984 8.983-8.984h.001c4.953 0 8.983 4.03 8.983 8.984.001 4.954-4.03 8.984-8.983 8.984zm0-12.968c-2.197 0-3.984 1.787-3.984 3.984s1.787 3.984 3.983 3.984c2.197 0 3.984-1.787 3.984-3.984s-1.787-3.984-3.983-3.984z"/></g></g><g><g><path d="m206.846 187.938c-4.954 0-8.984-4.03-8.984-8.984s4.03-8.984 8.983-8.984h.001c4.953 0 8.983 4.03 8.983 8.984s-4.03 8.984-8.983 8.984zm0-12.968c-2.197 0-3.984 1.787-3.984 3.984s1.787 3.984 3.983 3.984c2.197 0 3.984-1.787 3.984-3.984s-1.787-3.984-3.983-3.984z"/></g></g><g><g><path d="m227.823 187.938c-4.954 0-8.984-4.03-8.984-8.984s4.03-8.984 8.983-8.984h.001c4.953 0 8.983 4.03 8.983 8.984.001 4.954-4.03 8.984-8.983 8.984zm0-12.968c-2.197 0-3.984 1.787-3.984 3.984s1.787 3.984 3.983 3.984c2.197 0 3.984-1.787 3.984-3.984s-1.786-3.984-3.983-3.984z"/></g></g><g><g><path d="m224.256 84h-56.375c-3.205 0-5.813-2.607-5.813-5.813v-5.375c0-3.205 2.607-5.813 5.813-5.813h56.375c3.205 0 5.813 2.607 5.813 5.813v5.375c-.001 3.206-2.608 5.813-5.813 5.813zm-56.375-12c-.448 0-.813.364-.813.813v5.375c0 .448.364.813.813.813h56.375c.448 0 .813-.364.813-.813v-5.375c0-.448-.364-.813-.813-.813z"/></g></g><g><g><path d="m242.688 199h-92.5c-1.381 0-2.5-1.119-2.5-2.5s1.119-2.5 2.5-2.5h92.5c1.381 0 2.5 1.119 2.5 2.5s-1.12 2.5-2.5 2.5z"/></g></g><g><g><path d="m175.568 83.125c-1.381 0-2.5-1.119-2.5-2.5v-10.25c0-1.381 1.119-2.5 2.5-2.5s2.5 1.119 2.5 2.5v10.25c0 1.381-1.119 2.5-2.5 2.5z"/></g></g></g></g></svg>