<svg enable-background="new 0 0 256 256" height="512" viewBox="0 0 256 256" width="512" xmlns="http://www.w3.org/2000/svg"><g id="Layer_69"><g><g><g><path d="m218.779 90.348h-34.415v103.103c0 2.764-2.241 5.005-5.005 5.005h-104.945c-2.764 0-5.005-2.241-5.005-5.005v-103.103h-34.415c-4.284 0-7.79 3.505-7.79 7.79v128.658c0 4.285 3.505 7.79 7.79 7.79h183.785c4.284 0 7.79-3.505 7.79-7.79v-128.658c0-4.284-3.505-7.79-7.79-7.79z" fill="#3a70bf"/></g></g><g><g><path d="m221.106 101.595h-36.741v91.856c0 2.764-2.241 5.005-5.005 5.005h-104.946c-2.764 0-5.005-2.241-5.005-5.005v-91.856h-36.741c-3.005 0-5.463 2.458-5.463 5.463v110.167c0 3.005 2.458 5.463 5.463 5.463h188.438c3.005 0 5.463-2.458 5.463-5.463v-110.167c0-3.005-2.458-5.463-5.463-5.463z" fill="#edf4fc"/></g></g><g><g><path d="m27.204 211.442v5.783c0 3.005 2.458 5.463 5.463 5.463h188.438c3.005 0 5.463-2.458 5.463-5.463v-5.783z" fill="#5290db"/></g></g><g><g><path d="m45.607 211.442h-18.403v5.783c0 3.005 2.458 5.463 5.463 5.463h12.94z" fill="#fcdd86"/></g></g><g><g><path d="m180.329 69.634c-2.631-1.915-7.992-1.192-9.907-3.824-1.896-2.605.435-7.471-.581-10.601-.901-2.775-4.999-5.156-5.66-8.121h-94.772v146.362c0 2.764 2.241 5.005 5.005 5.005h104.945c2.764 0 5.005-2.241 5.005-5.005v-117.909c-1.345-2.006-2.345-4.677-4.035-5.907z" fill="#edf4fc"/></g></g><g><g><path d="m170.329 98.5h-86.884c-1.329 0-2.406 1.077-2.406 2.406v12.688c0 1.329 1.077 2.406 2.406 2.406h86.884c1.329 0 2.406-1.077 2.406-2.406v-12.688c0-1.329-1.077-2.406-2.406-2.406z" fill="#9be5f9"/></g></g><g><g><path d="m170.329 71.5h-86.884c-1.329 0-2.406 1.077-2.406 2.406v12.688c0 1.329 1.077 2.406 2.406 2.406h86.884c1.329 0 2.406-1.077 2.406-2.406v-12.688c0-1.329-1.077-2.406-2.406-2.406z" fill="#9be5f9"/></g></g><g><g><path d="m170.329 126h-86.884c-1.329 0-2.406 1.077-2.406 2.406v27.688c0 1.329 1.077 2.406 2.406 2.406h86.884c1.329 0 2.406-1.077 2.406-2.406v-27.688c0-1.329-1.077-2.406-2.406-2.406z" fill="#9be5f9"/></g></g><g><g><path d="m170.329 168.5h-34.884c-1.329 0-2.406 1.077-2.406 2.406v12.688c0 1.329 1.077 2.406 2.406 2.406h34.884c1.329 0 2.406-1.077 2.406-2.406v-12.688c0-1.329-1.077-2.406-2.406-2.406z" fill="#87d147"/></g></g><g><g><path d="m230.492 46.291c0 3.347-4.778 5.898-5.759 8.919-1.016 3.13 1.315 7.996-.582 10.602-1.915 2.632-7.276 1.909-9.907 3.824-2.605 1.896-3.564 7.228-6.694 8.244-3.02.981-6.916-2.738-10.264-2.738s-7.243 3.718-10.263 2.738c-3.13-1.016-4.089-6.348-6.694-8.245-2.632-1.915-7.992-1.192-9.907-3.824-1.896-2.605.435-7.471-.581-10.601-.981-3.02-5.759-5.571-5.759-8.919 0-3.347 4.778-5.898 5.759-8.919 1.016-3.13-1.315-7.996.582-10.602 1.915-2.632 7.276-1.909 9.907-3.824 2.605-1.896 3.564-7.228 6.694-8.244 3.02-.981 6.916 2.738 10.264 2.738s7.243-3.718 10.263-2.738c3.13 1.016 4.089 6.348 6.694 8.245 2.632 1.915 7.992 1.192 9.907 3.824 1.896 2.605-.435 7.471.581 10.601.981 3.02 5.759 5.571 5.759 8.919z" fill="#fc657e"/></g></g><g><g><path d="m218.779 237.086h-183.785c-5.674 0-10.29-4.616-10.29-10.29v-128.658c0-5.674 4.616-10.289 10.29-10.289h34.414c1.381 0 2.5 1.119 2.5 2.5v103.103c0 1.381 1.124 2.505 2.506 2.505h104.945c1.382 0 2.506-1.124 2.506-2.505v-103.103c0-1.381 1.119-2.5 2.5-2.5h34.414c5.674 0 10.29 4.615 10.29 10.289v128.658c0 5.674-4.616 10.29-10.29 10.29zm-183.785-144.237c-2.917 0-5.29 2.373-5.29 5.289v128.658c0 2.917 2.373 5.29 5.29 5.29h183.785c2.917 0 5.29-2.373 5.29-5.29v-128.658c0-2.916-2.373-5.289-5.29-5.289h-31.914v100.603c0 4.139-3.367 7.505-7.506 7.505h-104.945c-4.139 0-7.506-3.366-7.506-7.505v-100.603z"/></g></g><g><g><path d="m27.204 109.558c-1.381 0-2.5-1.119-2.5-2.5 0-4.391 3.572-7.963 7.964-7.963h36.177c1.381 0 2.5 1.119 2.5 2.5s-1.119 2.5-2.5 2.5h-36.177c-1.634 0-2.964 1.329-2.964 2.963 0 1.38-1.119 2.5-2.5 2.5z"/></g></g><g><g><path d="m226.569 109.558c-1.381 0-2.5-1.119-2.5-2.5 0-1.634-1.329-2.963-2.964-2.963h-35.688c-1.381 0-2.5-1.119-2.5-2.5s1.119-2.5 2.5-2.5h35.688c4.392 0 7.964 3.572 7.964 7.963 0 1.38-1.119 2.5-2.5 2.5z"/></g></g><g><g><path d="m221.105 225.188h-188.437c-4.392 0-7.964-3.572-7.964-7.963 0-1.381 1.119-2.5 2.5-2.5s2.5 1.119 2.5 2.5c0 1.634 1.329 2.963 2.964 2.963h188.438c1.635 0 2.964-1.329 2.964-2.963 0-1.381 1.119-2.5 2.5-2.5s2.5 1.119 2.5 2.5c-.001 4.39-3.573 7.963-7.965 7.963z"/></g></g><g><g><path d="m242.175 234.586h-230.577c-1.544 0-2.797 1.252-2.797 2.797 0 7.772 6.301 16.118 14.073 16.118h208.025c7.772 0 14.073-8.345 14.073-16.118 0-1.545-1.252-2.797-2.797-2.797z" fill="#edf4fc"/></g></g><g><g><path d="m155.293 243.276h-56.813c-3.792 0-6.866-3.074-6.866-6.866v-1.824h70.544v1.824c.001 3.792-3.073 6.866-6.865 6.866z" fill="#c7d7e5"/></g></g><g><g><path d="m230.899 256h-208.025c-9.485 0-16.572-9.829-16.572-18.617 0-2.921 2.376-5.297 5.296-5.297h230.578c2.92 0 5.296 2.376 5.296 5.297 0 8.788-7.087 18.617-16.573 18.617zm-219.301-18.914c-.163 0-.296.133-.296.297 0 6.297 5.055 13.617 11.572 13.617h208.025c6.518 0 11.572-7.32 11.572-13.617 0-.164-.133-.297-.296-.297z"/></g></g><g><g><path d="m155.293 245.776h-56.813c-5.164 0-9.366-4.202-9.366-9.366v-1.307c0-1.381 1.119-2.5 2.5-2.5s2.5 1.119 2.5 2.5v1.307c0 2.407 1.959 4.366 4.366 4.366h56.813c2.407 0 4.366-1.959 4.366-4.366v-1.339c0-1.381 1.119-2.5 2.5-2.5s2.5 1.119 2.5 2.5v1.339c0 5.164-4.202 9.366-9.366 9.366z"/></g></g><g><g><path d="m225.667 213.941h-197.792c-1.381 0-2.5-1.119-2.5-2.5s1.119-2.5 2.5-2.5h197.792c1.381 0 2.5 1.119 2.5 2.5s-1.119 2.5-2.5 2.5z"/></g></g><g><g><path d="m45.607 224.854c-1.381 0-2.5-1.119-2.5-2.5v-10.271c0-1.381 1.119-2.5 2.5-2.5s2.5 1.119 2.5 2.5v10.271c0 1.381-1.119 2.5-2.5 2.5z"/></g></g><g><g><path d="m164.081 46.291c0-3.347 4.778-5.898 5.759-8.919.556-1.713.111-3.945-.096-6.043h-95.33c-2.764 0-5.005 2.241-5.005 5.005v10.754h94.772c-.059-.261-.1-.526-.1-.797z" fill="#5290db"/></g></g><g><g><path d="m163.28 49.589h-93.872c-1.381 0-2.5-1.119-2.5-2.5v-10.754c0-4.139 3.367-7.506 7.506-7.506h94.773c1.381 0 2.5 1.119 2.5 2.5s-1.119 2.5-2.5 2.5h-94.773c-1.382 0-2.506 1.124-2.506 2.506v8.254h91.372c1.381 0 2.5 1.119 2.5 2.5s-1.119 2.5-2.5 2.5z"/></g></g><g><g><path d="m179.359 200.956h-104.945c-4.139 0-7.506-3.366-7.506-7.505v-146.362c0-1.381 1.119-2.5 2.5-2.5s2.5 1.119 2.5 2.5v146.362c0 1.381 1.124 2.505 2.506 2.505h104.945c1.382 0 2.506-1.124 2.506-2.505v-117.81c0-1.381 1.119-2.5 2.5-2.5s2.5 1.119 2.5 2.5v117.811c0 4.138-3.367 7.504-7.506 7.504z"/></g></g><g><path d="m187.314 37.024h-1.966c-.483 0-.875.392-.875.875v9.123l-6.299-9.603c-.161-.247-.437-.396-.731-.396h-1.965c-.483 0-.875.392-.875.875v15.228c0 .483.392.875.875.875h1.965c.483 0 .875-.392.875-.875v-9.106l6.299 9.587c.162.246.437.395.731.395h1.966c.483 0 .875-.392.875-.875v-15.228c0-.483-.391-.875-.875-.875z"/><path d="m220.814 37.362c-.166-.213-.421-.338-.69-.338h-2.16c-.408 0-.763.282-.854.681l-2.171 9.53-2.678-9.571c-.105-.378-.45-.64-.843-.64h-2.182c-.393 0-.737.262-.843.64l-2.674 9.593-2.152-9.55c-.09-.399-.444-.683-.854-.683h-2.182c-.271 0-.525.125-.691.338-.072.093-.113.201-.143.311-.101-.371-.426-.649-.829-.649h-8.401c-.483 0-.875.392-.875.875v15.228c0 .483.392.875.875.875h8.401c.483 0 .875-.392.875-.875v-1.599c0-.483-.392-.875-.875-.875h-5.562v-3.563h4.914c.483 0 .875-.392.875-.875v-1.512c0-.483-.392-.875-.875-.875h-4.914v-3.455h5.562c.483 0 .875-.392.875-.875v-1.152l3.829 14.998c.099.387.448.658.848.658h2.397c.392 0 .735-.26.842-.637l2.679-9.467 2.68 9.467c.106.377.45.637.842.637h2.397c.4 0 .75-.271.848-.66l3.866-15.228c.067-.26.009-.539-.157-.752z"/></g><g><g><path d="m188.109 80.546c-.614 0-1.234-.087-1.858-.289-2.697-.876-4.088-3.385-5.314-5.598-.682-1.229-1.386-2.5-2.079-3.004-.712-.519-2.154-.802-3.549-1.075-2.465-.484-5.26-1.033-6.908-3.299-1.635-2.245-1.299-5.059-1.004-7.54.17-1.425.346-2.897.065-3.76-.254-.784-1.229-1.828-2.172-2.839-1.738-1.861-3.709-3.973-3.709-6.852 0-2.88 1.971-4.99 3.709-6.854.942-1.01 1.918-2.054 2.172-2.837.28-.863.104-2.336-.065-3.761-.295-2.481-.631-5.295 1.004-7.541 1.648-2.265 4.442-2.813 6.907-3.298 1.396-.273 2.838-.557 3.55-1.076.693-.504 1.398-1.775 2.079-3.004 1.227-2.213 2.617-4.721 5.314-5.597 2.604-.842 5.151.332 7.398 1.371 1.323.611 2.692 1.244 3.637 1.244s2.313-.633 3.637-1.244c2.247-1.039 4.795-2.216 7.398-1.371 2.698.876 4.089 3.385 5.315 5.598.682 1.229 1.386 2.5 2.079 3.004.712.519 2.154.802 3.549 1.076 2.466.483 5.26 1.032 6.908 3.297 1.635 2.246 1.299 5.06 1.004 7.541-.17 1.425-.346 2.897-.065 3.76.254.784 1.229 1.828 2.172 2.838 1.738 1.863 3.709 3.974 3.709 6.854 0 2.879-1.971 4.99-3.709 6.852-.942 1.011-1.918 2.055-2.172 2.838-.28.863-.104 2.336.065 3.761.295 2.482.631 5.295-1.004 7.541-1.648 2.265-4.443 2.813-6.908 3.298-1.396.274-2.837.558-3.549 1.076-.693.504-1.398 1.775-2.079 3.004-1.227 2.213-2.617 4.721-5.314 5.597-2.606.846-5.15-.333-7.399-1.371-1.323-.611-2.691-1.244-3.637-1.244-.944 0-2.313.633-3.637 1.244-1.709.79-3.591 1.66-5.54 1.66zm.013-63.511c-.122 0-.232.014-.326.045-.824.268-1.707 1.86-2.486 3.265-.944 1.705-1.922 3.468-3.51 4.623-1.605 1.169-3.6 1.561-5.528 1.939-1.563.308-3.334.655-3.828 1.334-.48.66-.259 2.516-.082 4.008.234 1.96.476 3.988-.144 5.896-.597 1.839-1.957 3.296-3.272 4.705-1.108 1.188-2.364 2.532-2.364 3.441 0 .908 1.256 2.253 2.363 3.439 1.315 1.41 2.676 2.867 3.273 4.707.619 1.906.378 3.935.144 5.895-.177 1.491-.398 3.348.082 4.007.494.68 2.266 1.028 3.829 1.335 1.928.378 3.921.77 5.527 1.938 1.588 1.155 2.565 2.918 3.51 4.623.779 1.405 1.662 2.998 2.486 3.266.735.247 2.413-.533 3.756-1.154 1.729-.799 3.69-1.705 5.734-1.705 2.045 0 4.005.906 5.734 1.705 1.345.621 3.015 1.4 3.758 1.154.823-.268 1.706-1.86 2.485-3.265.944-1.705 1.922-3.468 3.51-4.623 1.605-1.169 3.599-1.561 5.527-1.939 1.563-.307 3.335-.655 3.829-1.334.48-.66.259-2.516.082-4.007-.234-1.961-.476-3.988.144-5.896.598-1.839 1.958-3.296 3.273-4.706 1.107-1.187 2.363-2.531 2.363-3.439 0-.909-1.256-2.254-2.364-3.441-1.315-1.409-2.676-2.866-3.272-4.706-.619-1.906-.378-3.935-.144-5.895.177-1.492.398-3.348-.082-4.007-.494-.68-2.266-1.027-3.828-1.334-1.929-.379-3.922-.771-5.528-1.939-1.588-1.155-2.565-2.918-3.51-4.623-.779-1.405-1.662-2.998-2.486-3.266-.73-.242-2.411.533-3.757 1.154-1.729.799-3.689 1.705-5.734 1.705-2.044 0-4.005-.906-5.734-1.705-1.172-.543-2.594-1.2-3.43-1.2z"/></g></g><g><g><path d="m170.329 118.5h-86.885c-2.705 0-4.905-2.201-4.905-4.906v-12.688c0-2.705 2.2-4.906 4.905-4.906h86.885c2.705 0 4.905 2.201 4.905 4.906v12.688c0 2.705-2.2 4.906-4.905 4.906zm-86.79-5h86.695v-12.5h-86.695zm86.79-12.5h.01z"/></g></g><g><g><path d="m170.329 91.5h-86.885c-2.705 0-4.905-2.201-4.905-4.906v-12.688c0-2.705 2.2-4.906 4.905-4.906h86.885c2.705 0 4.905 2.201 4.905 4.906v12.688c0 2.705-2.2 4.906-4.905 4.906zm-86.79-5h86.695v-12.5h-86.695zm86.79-12.5h.01z"/></g></g><g><g><path d="m170.329 161h-86.885c-2.705 0-4.905-2.201-4.905-4.906v-27.688c0-2.705 2.2-4.906 4.905-4.906h86.885c2.705 0 4.905 2.201 4.905 4.906v27.688c0 2.705-2.2 4.906-4.905 4.906zm-86.79-5h86.695v-27.5h-86.695zm86.79-27.5h.01z"/></g></g><g><g><path d="m170.329 188.5h-34.885c-2.705 0-4.905-2.201-4.905-4.906v-12.688c0-2.705 2.2-4.906 4.905-4.906h34.885c2.705 0 4.905 2.201 4.905 4.906v12.688c0 2.705-2.2 4.906-4.905 4.906zm-34.79-5h34.695v-12.5h-34.695zm34.79-12.5h.01z"/></g></g><g><g><path d="m98.387 62h-15c-1.381 0-2.5-1.119-2.5-2.5s1.119-2.5 2.5-2.5h15c1.381 0 2.5 1.119 2.5 2.5s-1.119 2.5-2.5 2.5z"/></g></g><g><g><path d="m156.591 12.882c-4.498-.838-8.043-4.31-8.898-8.716-.043-.221-.352-.221-.395 0-.855 4.406-4.4 7.879-8.898 8.716-.226.042-.226.345 0 .387 4.498.838 8.043 4.31 8.898 8.717.043.221.352.221.395 0 .855-4.406 4.4-7.879 8.898-8.717.226-.042.226-.344 0-.387z" fill="#f5c84c"/></g></g><g><g><path d="m249.585 155.946c-3.011-.561-5.384-2.886-5.957-5.835-.029-.148-.236-.148-.264 0-.572 2.95-2.946 5.275-5.957 5.835-.151.028-.151.231 0 .259 3.011.561 5.384 2.886 5.957 5.835.029.148.236.148.264 0 .572-2.95 2.946-5.275 5.957-5.835.151-.028.151-.23 0-.259z" fill="#87d147"/></g></g><g><g><path d="m26.329 65.198h2.33v-2.33c0-1.744 1.413-3.157 3.157-3.157s3.157 1.413 3.157 3.157v2.33h2.329c1.744 0 3.157 1.413 3.157 3.157s-1.413 3.157-3.157 3.157h-2.329v2.33c0 1.744-1.413 3.157-3.157 3.157s-3.157-1.413-3.157-3.157v-2.33h-2.33c-1.744 0-3.157-1.413-3.157-3.157 0-1.743 1.413-3.157 3.157-3.157z" fill="#70d6f9"/></g></g><g><g><circle cx="171.608" cy="3.377" fill="#fc657e" r="3.377"/></g></g><g><g><circle cx="12.608" cy="90.377" fill="#87d147" r="3.377"/></g></g><g><g><circle cx="237.608" cy="182.377" fill="#f5c84c" r="3.377"/></g></g></g></g></svg>