<svg enable-background="new 0 0 256 256" height="512" viewBox="0 0 256 256" width="512" xmlns="http://www.w3.org/2000/svg"><g id="Layer_19"><g><g><g><path d="m206.139 110.386h-64.827l-32.554 32.554v102.703c0 4.384 3.587 7.971 7.971 7.971h89.411c4.384 0 7.971-3.587 7.971-7.971v-127.286c-.001-4.384-3.588-7.971-7.972-7.971z" fill="#edf4fc"/></g></g><g><g><path d="m108.758 142.94h24.583c4.384 0 7.971-3.587 7.971-7.971v-24.583z" fill="#70d6f9"/></g></g><g><g><path d="m108.758 142.94 32.554-32.554h12.588v-78.212h-124.932v119.83c0 2.89 2.343 5.233 5.233 5.233h74.557z" fill="#edf4fc"/></g></g><g><g><path d="m148.667 11.516h-114.466c-2.89 0-5.233 2.343-5.233 5.233v15.425h124.932v-15.425c0-2.89-2.343-5.233-5.233-5.233z" fill="#5290db"/></g></g><g><g><path d="m51.102 11.516h-16.901c-2.89 0-5.233 2.343-5.233 5.233v15.425h22.134z" fill="#fc657e"/></g></g><g><g><path d="m118.978 24.345h-54.105c-1.381 0-2.5-1.119-2.5-2.5s1.119-2.5 2.5-2.5h54.104c1.381 0 2.5 1.119 2.5 2.5s-1.119 2.5-2.499 2.5z"/></g></g><g><g><path d="m142.379 24.345h-10.707c-1.381 0-2.5-1.119-2.5-2.5s1.119-2.5 2.5-2.5h10.707c1.381 0 2.5 1.119 2.5 2.5s-1.119 2.5-2.5 2.5z"/></g></g><g><g><path d="m153.899 34.674h-124.931c-1.381 0-2.5-1.119-2.5-2.5v-15.425c0-4.264 3.469-7.733 7.733-7.733h114.466c4.264 0 7.732 3.469 7.732 7.733v15.425c0 1.381-1.119 2.5-2.5 2.5zm-122.431-5h119.932v-12.925c0-1.507-1.226-2.733-2.732-2.733h-114.467c-1.507 0-2.733 1.226-2.733 2.733z"/></g></g><g><g><path d="m51.102 33.955c-1.381 0-2.5-1.119-2.5-2.5v-19.135c0-1.381 1.119-2.5 2.5-2.5s2.5 1.119 2.5 2.5v19.135c0 1.381-1.12 2.5-2.5 2.5z"/></g></g><g><g><path d="m135.847 51.119h-66.549c-1.381 0-2.5-1.119-2.5-2.5s1.119-2.5 2.5-2.5h66.549c1.381 0 2.5 1.119 2.5 2.5s-1.119 2.5-2.5 2.5z"/></g></g><g><g><path d="m60.587 51.119h-13.329c-1.381 0-2.5-1.119-2.5-2.5s1.119-2.5 2.5-2.5h13.329c1.381 0 2.5 1.119 2.5 2.5s-1.119 2.5-2.5 2.5z"/></g></g><g><g><path d="m135.847 63.913h-39.443c-1.381 0-2.5-1.119-2.5-2.5s1.119-2.5 2.5-2.5h39.442c1.381 0 2.5 1.119 2.5 2.5s-1.118 2.5-2.499 2.5z"/></g></g><g><g><path d="m87.376 63.913h-40.118c-1.381 0-2.5-1.119-2.5-2.5s1.119-2.5 2.5-2.5h40.118c1.381 0 2.5 1.119 2.5 2.5s-1.119 2.5-2.5 2.5z"/></g></g><g><g><path d="m135.847 76.707h-12.063c-1.381 0-2.5-1.119-2.5-2.5s1.119-2.5 2.5-2.5h12.063c1.381 0 2.5 1.119 2.5 2.5s-1.119 2.5-2.5 2.5z"/></g></g><g><g><path d="m114.972 76.707h-67.714c-1.381 0-2.5-1.119-2.5-2.5s1.119-2.5 2.5-2.5h67.714c1.381 0 2.5 1.119 2.5 2.5s-1.119 2.5-2.5 2.5z"/></g></g><g><g><path d="m135.847 89.501h-56.316c-1.381 0-2.5-1.119-2.5-2.5s1.119-2.5 2.5-2.5h56.315c1.381 0 2.5 1.119 2.5 2.5s-1.118 2.5-2.499 2.5z"/></g></g><g><g><path d="m70.485 89.501h-23.227c-1.381 0-2.5-1.119-2.5-2.5s1.119-2.5 2.5-2.5h23.228c1.381 0 2.5 1.119 2.5 2.5s-1.12 2.5-2.501 2.5z"/></g></g><g><g><path d="m100.934 140.113h-4.529c-1.381 0-2.5-1.119-2.5-2.5s1.119-2.5 2.5-2.5h4.529c1.381 0 2.5 1.119 2.5 2.5s-1.12 2.5-2.5 2.5z"/></g></g><g><g><path d="m87.376 140.113h-40.118c-1.381 0-2.5-1.119-2.5-2.5s1.119-2.5 2.5-2.5h40.118c1.381 0 2.5 1.119 2.5 2.5s-1.119 2.5-2.5 2.5z"/></g></g><g><g><path d="m112.972 127.319h-65.714c-1.381 0-2.5-1.119-2.5-2.5s1.119-2.5 2.5-2.5h65.714c1.381 0 2.5 1.119 2.5 2.5s-1.119 2.5-2.5 2.5z"/></g></g><g><g><path d="m124.934 114.525h-45.403c-1.381 0-2.5-1.119-2.5-2.5s1.119-2.5 2.5-2.5h45.402c1.381 0 2.5 1.119 2.5 2.5s-1.119 2.5-2.499 2.5z"/></g></g><g><g><path d="m70.485 114.525h-23.227c-1.381 0-2.5-1.119-2.5-2.5s1.119-2.5 2.5-2.5h23.228c1.381 0 2.5 1.119 2.5 2.5s-1.12 2.5-2.501 2.5z"/></g></g><g><g><path d="m135.847 102.295h-39.443c-1.381 0-2.5-1.119-2.5-2.5s1.119-2.5 2.5-2.5h39.442c1.381 0 2.5 1.119 2.5 2.5s-1.118 2.5-2.499 2.5z"/></g></g><g><g><path d="m87.376 102.295h-40.118c-1.381 0-2.5-1.119-2.5-2.5s1.119-2.5 2.5-2.5h40.118c1.381 0 2.5 1.119 2.5 2.5s-1.119 2.5-2.5 2.5z"/></g></g><g><g><path d="m206.14 256.114h-89.411c-5.773 0-10.471-4.697-10.471-10.471v-102.703c0-.663.264-1.299.732-1.768l32.554-32.554c.469-.469 1.104-.732 1.768-.732h64.828c5.773 0 10.471 4.697 10.471 10.471v127.286c-.001 5.774-4.698 10.471-10.471 10.471zm-94.882-112.138v101.667c0 3.017 2.454 5.471 5.471 5.471h89.411c3.017 0 5.471-2.455 5.471-5.471v-127.286c0-3.017-2.454-5.471-5.471-5.471h-63.793z"/></g></g><g><g><path d="m133.341 145.44h-23.573c-1.381 0-2.5-1.119-2.5-2.5s1.119-2.5 2.5-2.5h23.573c3.017 0 5.471-2.454 5.471-5.471v-23.469c0-1.381 1.119-2.5 2.5-2.5s2.5 1.119 2.5 2.5v23.469c0 5.774-4.698 10.471-10.471 10.471z"/></g></g><g><g><path d="m107.934 159.736h-73.733c-4.265 0-7.733-3.469-7.733-7.733v-119.829c0-1.381 1.119-2.5 2.5-2.5h124.932c1.381 0 2.5 1.119 2.5 2.5v77.409c0 1.381-1.119 2.5-2.5 2.5s-2.5-1.119-2.5-2.5v-74.909h-119.932v117.33c0 1.507 1.227 2.733 2.733 2.733h73.732c1.381 0 2.5 1.119 2.5 2.5s-1.119 2.499-2.499 2.499z"/></g></g><g><g><path d="m163.343 157.337c-1.236-.777-2.809-.777-4.045 0l-24.884 15.647 26.712 16.823 27.1-16.823z" fill="#9be5f9"/></g></g><g><g><path d="m134.415 172.985v27.002c0 1.302.667 2.513 1.767 3.21l24.946 15.8v-.144-29.045z" fill="#70d6f9"/></g></g><g><g><path d="m161.127 189.807v29.189l25.313-15.803c1.112-.694 1.787-1.912 1.787-3.223v-26.986z" fill="#3caadc"/></g></g><g><g><path d="m188.226 175.485c-.455 0-.915-.124-1.329-.384l-24.884-15.647c-.42-.264-.963-.264-1.383 0l-24.884 15.647c-1.17.736-2.713.384-3.447-.786-.735-1.168-.384-2.712.785-3.447l24.884-15.647c2.037-1.281 4.67-1.281 6.707 0l24.884 15.647c1.169.735 1.521 2.278.785 3.447-.475.756-1.287 1.17-2.118 1.17z"/></g></g><g><g><path d="m161.127 221.496c-.466 0-.931-.13-1.338-.388l-24.945-15.8c-1.834-1.161-2.929-3.15-2.929-5.322v-27.002c0-1.381 1.119-2.5 2.5-2.5s2.5 1.119 2.5 2.5v27.002c0 .448.226.858.604 1.098l24.229 15.346c1.081.276 1.88 1.256 1.88 2.422v.144c0 .912-.496 1.751-1.295 2.19-.377.207-.792.31-1.206.31z"/></g></g><g><g><path d="m161.129 221.497c-.833 0-1.648-.417-2.123-1.177-.73-1.171-.374-2.713.797-3.444l25.313-15.803c.384-.239.612-.651.612-1.103v-26.986c0-1.381 1.119-2.5 2.5-2.5s2.5 1.119 2.5 2.5v26.986c0 2.188-1.108 4.185-2.964 5.344l-25.313 15.803c-.412.257-.87.38-1.322.38z"/></g></g><g><g><path d="m91.138 180.654c-4.498-.838-8.043-4.31-8.898-8.716-.043-.221-.352-.221-.395 0-.855 4.406-4.4 7.879-8.898 8.716-.226.042-.226.345 0 .387 4.498.838 8.043 4.31 8.898 8.717.043.221.352.221.395 0 .855-4.406 4.4-7.879 8.898-8.717.226-.043.226-.345 0-.387z" fill="#f5c84c"/></g></g><g><g><path d="m170.336 5.108c-2.586-.482-4.625-2.479-5.116-5.012-.025-.127-.202-.127-.227 0-.492 2.534-2.53 4.531-5.116 5.012-.13.024-.13.198 0 .222 2.586.482 4.625 2.479 5.116 5.012.025.127.202.127.227 0 .492-2.534 2.53-4.531 5.116-5.012.13-.024.13-.198 0-.222z" fill="#fc657e"/></g></g><g><g><path d="m170.876 28.487h2.33v-2.33c0-1.744 1.413-3.157 3.157-3.157s3.157 1.413 3.157 3.157v2.33h2.329c1.744 0 3.157 1.413 3.157 3.157s-1.413 3.157-3.157 3.157h-2.329v2.33c0 1.744-1.413 3.157-3.157 3.157s-3.157-1.413-3.157-3.157v-2.33h-2.33c-1.744 0-3.157-1.413-3.157-3.157s1.413-3.157 3.157-3.157z" fill="#70d6f9"/></g></g><g><g><circle cx="92.155" cy="204.377" fill="#70d6f9" r="3.377"/></g></g><g><g><circle cx="226.155" cy="128.377" fill="#87d147" r="3.377"/></g></g><g><g><path d="m161.529 192.06c-.836 0-1.652-.419-2.126-1.182-.729-1.173-.367-2.714.806-3.442l25.918-16.089c1.173-.728 2.714-.368 3.442.806.729 1.173.367 2.714-.806 3.442l-25.918 16.089c-.409.254-.866.376-1.316.376z"/></g></g><g><g><path d="m161.127 220.083c-1.381 0-2.5-1.119-2.5-2.5v-26.396l-24.484-15.42c-1.169-.735-1.52-2.279-.783-3.447.735-1.17 2.279-1.519 3.447-.783l25.652 16.155c.727.458 1.168 1.256 1.168 2.115v27.776c0 1.381-1.119 2.5-2.5 2.5z"/></g></g></g></g></svg>