<svg enable-background="new 0 0 256 256" height="512" viewBox="0 0 256 256" width="512" xmlns="http://www.w3.org/2000/svg"><g id="Layer_18"><g><g><g><path d="m147.517 11.516h-122.912c-4.351 0-7.91 3.56-7.91 7.91v23.818c0 4.351 3.56 7.91 7.91 7.91h122.912c4.351 0 7.91-3.56 7.91-7.91v-23.818c0-4.351-3.559-7.91-7.91-7.91z" fill="#5290db"/></g></g><g><g><path d="m114.374 113.012c0-2.89 2.343-5.233 5.233-5.233h-95.002c-4.351 0-7.91 3.56-7.91 7.91v23.818c0 4.351 3.56 7.91 7.91 7.91h89.769c0-8.673 0-25.729 0-34.405z" fill="#5290db"/></g></g><g><g><path d="m147.517 59.647h-122.912c-4.351 0-7.91 3.56-7.91 7.91v23.818c0 4.351 3.56 7.91 7.91 7.91h122.912c4.351 0 7.91-3.56 7.91-7.91v-23.817c0-4.351-3.559-7.911-7.91-7.911z" fill="#5290db"/></g></g><g><g><g><path d="m99.762 31.953h-63.265c-2.427 0-4.393-1.967-4.393-4.393s1.967-4.393 4.393-4.393h63.265c2.427 0 4.393 1.967 4.393 4.393s-1.967 4.393-4.393 4.393z" fill="#9be5f9"/></g></g></g><g><g><path d="m118.621 21.897c-2.336 0-4.247 1.911-4.247 4.247v2.831c0 2.336 1.911 4.247 4.247 4.247s4.247-1.911 4.247-4.247v-2.831c0-2.336-1.912-4.247-4.247-4.247z" fill="#fc657e"/></g></g><g><g><path d="m135.608 21.897c-2.336 0-4.247 1.911-4.247 4.247v2.831c0 2.336 1.911 4.247 4.247 4.247s4.247-1.911 4.247-4.247v-2.831c0-2.336-1.911-4.247-4.247-4.247z" fill="#fc657e"/></g></g><g><g><g><path d="m99.762 128.216h-63.265c-2.427 0-4.393-1.967-4.393-4.393s1.967-4.393 4.393-4.393h63.265c2.427 0 4.393 1.967 4.393 4.393s-1.967 4.393-4.393 4.393z" fill="#9be5f9"/></g></g></g><g><g><g><path d="m99.762 80.085h-63.265c-2.427 0-4.393-1.967-4.393-4.393s1.967-4.393 4.393-4.393h63.265c2.427 0 4.393 1.967 4.393 4.393s-1.967 4.393-4.393 4.393z" fill="#9be5f9"/></g></g></g><g><g><path d="m118.621 70.029c-2.336 0-4.247 1.911-4.247 4.247v2.831c0 2.336 1.911 4.247 4.247 4.247s4.247-1.911 4.247-4.247v-2.831c0-2.336-1.912-4.247-4.247-4.247z" fill="#fc657e"/></g></g><g><g><path d="m135.608 70.029c-2.336 0-4.247 1.911-4.247 4.247v2.831c0 2.336 1.911 4.247 4.247 4.247s4.247-1.911 4.247-4.247v-2.831c0-2.336-1.911-4.247-4.247-4.247z" fill="#fc657e"/></g></g><g><g><path d="m25.833 99.285h120.455v8.494h-120.455z" fill="#c7d7e5"/></g></g><g><g><path d="m25.833 51.154h120.455v8.494h-120.455z" fill="#c7d7e5"/></g></g><g><g><path d="m147.517 53.653h-122.913c-5.74 0-10.41-4.67-10.41-10.41v-23.817c0-5.74 4.67-10.41 10.41-10.41h122.912c5.74 0 10.411 4.67 10.411 10.41v23.817c.001 5.74-4.67 10.41-10.41 10.41zm-122.913-39.637c-2.983 0-5.41 2.427-5.41 5.41v23.817c0 2.983 2.427 5.41 5.41 5.41h122.912c2.983 0 5.411-2.427 5.411-5.41v-23.817c0-2.983-2.428-5.41-5.411-5.41z"/></g></g><g><g><path d="m113.406 149.917h-88.802c-5.74 0-10.41-4.67-10.41-10.41v-23.817c0-5.74 4.67-10.41 10.41-10.41h95.002c1.381 0 2.5 1.119 2.5 2.5s-1.119 2.5-2.5 2.5h-95.002c-2.983 0-5.41 2.427-5.41 5.41v23.817c0 2.983 2.427 5.41 5.41 5.41h88.801c1.381 0 2.5 1.119 2.5 2.5s-1.118 2.5-2.499 2.5z"/></g></g><g><g><path d="m147.517 101.785h-122.913c-5.74 0-10.41-4.67-10.41-10.41v-23.817c0-5.74 4.67-10.41 10.41-10.41h122.912c5.74 0 10.411 4.67 10.411 10.41v23.817c.001 5.74-4.67 10.41-10.41 10.41zm-122.913-39.638c-2.983 0-5.41 2.427-5.41 5.41v23.817c0 2.983 2.427 5.41 5.41 5.41h122.912c2.983 0 5.411-2.427 5.411-5.41v-23.816c0-2.983-2.428-5.41-5.411-5.41h-122.912z"/></g></g><g><g><g><path d="m99.762 34.453h-63.265c-3.801 0-6.893-3.092-6.893-6.894s3.092-6.894 6.893-6.894h63.265c3.801 0 6.894 3.092 6.894 6.894s-3.093 6.894-6.894 6.894zm-63.265-8.787c-1.044 0-1.893.85-1.893 1.894s.849 1.894 1.893 1.894h63.265c1.044 0 1.894-.85 1.894-1.894s-.85-1.894-1.894-1.894z"/></g></g></g><g><g><path d="m118.621 35.722c-3.72 0-6.747-3.027-6.747-6.747v-2.831c0-3.72 3.027-6.747 6.747-6.747s6.747 3.027 6.747 6.747v2.831c0 3.72-3.027 6.747-6.747 6.747zm0-11.325c-.963 0-1.747.784-1.747 1.747v2.831c0 .963.784 1.747 1.747 1.747s1.747-.784 1.747-1.747v-2.831c0-.963-.784-1.747-1.747-1.747z"/></g></g><g><g><path d="m135.608 35.722c-3.721 0-6.747-3.027-6.747-6.747v-2.831c0-3.72 3.026-6.747 6.747-6.747s6.747 3.027 6.747 6.747v2.831c0 3.72-3.026 6.747-6.747 6.747zm0-11.325c-.963 0-1.747.784-1.747 1.747v2.831c0 .963.784 1.747 1.747 1.747s1.747-.784 1.747-1.747v-2.831c0-.963-.784-1.747-1.747-1.747z"/></g></g><g><g><g><path d="m99.762 130.716h-63.265c-3.801 0-6.893-3.092-6.893-6.893s3.092-6.894 6.893-6.894h63.265c3.801 0 6.894 3.092 6.894 6.894-.001 3.801-3.093 6.893-6.894 6.893zm-63.265-8.786c-1.044 0-1.893.85-1.893 1.894s.849 1.893 1.893 1.893h63.265c1.044 0 1.894-.849 1.894-1.893s-.85-1.894-1.894-1.894z"/></g></g></g><g><g><g><path d="m99.762 82.584h-63.265c-3.801 0-6.893-3.092-6.893-6.893s3.092-6.894 6.893-6.894h63.265c3.801 0 6.894 3.092 6.894 6.894-.001 3.801-3.093 6.893-6.894 6.893zm-63.265-8.786c-1.044 0-1.893.85-1.893 1.894s.849 1.893 1.893 1.893h63.265c1.044 0 1.894-.849 1.894-1.893s-.85-1.894-1.894-1.894z"/></g></g></g><g><g><path d="m118.621 83.854c-3.72 0-6.747-3.027-6.747-6.747v-2.831c0-3.72 3.027-6.747 6.747-6.747s6.747 3.027 6.747 6.747v2.831c0 3.72-3.027 6.747-6.747 6.747zm0-11.325c-.963 0-1.747.784-1.747 1.747v2.831c0 .963.784 1.747 1.747 1.747s1.747-.784 1.747-1.747v-2.831c0-.963-.784-1.747-1.747-1.747z"/></g></g><g><g><path d="m135.608 83.854c-3.721 0-6.747-3.027-6.747-6.747v-2.831c0-3.72 3.026-6.747 6.747-6.747s6.747 3.027 6.747 6.747v2.831c0 3.72-3.026 6.747-6.747 6.747zm0-11.325c-.963 0-1.747.784-1.747 1.747v2.831c0 .963.784 1.747 1.747 1.747s1.747-.784 1.747-1.747v-2.831c0-.963-.784-1.747-1.747-1.747z"/></g></g><g><g><path d="m146.288 109.458c-1.381 0-2.5-1.119-2.5-2.5v-6.791c0-1.381 1.119-2.5 2.5-2.5s2.5 1.119 2.5 2.5v6.791c0 1.381-1.119 2.5-2.5 2.5z"/></g></g><g><g><path d="m25.833 109.708c-1.381 0-2.5-1.119-2.5-2.5v-6.791c0-1.381 1.119-2.5 2.5-2.5s2.5 1.119 2.5 2.5v6.791c0 1.38-1.119 2.5-2.5 2.5z"/></g></g><g><g><path d="m146.288 61.656c-1.381 0-2.5-1.119-2.5-2.5v-7.468c0-1.381 1.119-2.5 2.5-2.5s2.5 1.119 2.5 2.5v7.468c0 1.381-1.119 2.5-2.5 2.5z"/></g></g><g><g><path d="m25.833 61.417c-1.381 0-2.5-1.119-2.5-2.5v-7c0-1.381 1.119-2.5 2.5-2.5s2.5 1.119 2.5 2.5v7c0 1.38-1.119 2.5-2.5 2.5z"/></g></g><g><g><path d="m155.428 44.834h-138.734c-1.381 0-2.5-1.119-2.5-2.5s1.119-2.5 2.5-2.5h138.733c1.381 0 2.5 1.119 2.5 2.5s-1.118 2.5-2.499 2.5z"/></g></g><g><g><path d="m113.719 141.098h-97.025c-1.381 0-2.5-1.119-2.5-2.5s1.119-2.5 2.5-2.5h97.025c1.381 0 2.5 1.119 2.5 2.5s-1.119 2.5-2.5 2.5z"/></g></g><g><g><path d="m155.428 92.966h-138.734c-1.381 0-2.5-1.119-2.5-2.5s1.119-2.5 2.5-2.5h138.733c1.381 0 2.5 1.119 2.5 2.5s-1.118 2.5-2.499 2.5z"/></g></g><g><g><path d="m114.374 128.437v119.83c0 2.89 2.343 5.233 5.233 5.233h114.466c2.89 0 5.233-2.343 5.233-5.233v-119.83z" fill="#edf4fc"/></g></g><g><g><path d="m234.073 107.779h-114.466c-2.89 0-5.233 2.343-5.233 5.233v15.425h124.932v-15.425c0-2.89-2.343-5.233-5.233-5.233z" fill="#5290db"/></g></g><g><g><path d="m136.507 107.779h-16.901c-2.89 0-5.233 2.343-5.233 5.233v15.425h22.134z" fill="#fc657e"/></g></g><g><g><path d="m204.384 120.608h-54.104c-1.381 0-2.5-1.119-2.5-2.5s1.119-2.5 2.5-2.5h54.104c1.381 0 2.5 1.119 2.5 2.5s-1.119 2.5-2.5 2.5z"/></g></g><g><g><path d="m227.785 120.608h-10.708c-1.381 0-2.5-1.119-2.5-2.5s1.119-2.5 2.5-2.5h10.708c1.381 0 2.5 1.119 2.5 2.5s-1.119 2.5-2.5 2.5z"/></g></g><g><g><path d="m234.072 256h-114.465c-4.264 0-7.733-3.469-7.733-7.733v-119.83c0-1.381 1.119-2.5 2.5-2.5s2.5 1.119 2.5 2.5v119.83c0 1.507 1.226 2.733 2.733 2.733h114.465c1.507 0 2.733-1.226 2.733-2.733v-119.83c0-1.381 1.119-2.5 2.5-2.5s2.5 1.119 2.5 2.5v119.83c.001 4.264-3.468 7.733-7.733 7.733z"/></g></g><g><g><path d="m239.306 130.937h-124.932c-1.381 0-2.5-1.119-2.5-2.5v-15.425c0-4.264 3.469-7.733 7.733-7.733h114.465c4.265 0 7.733 3.469 7.733 7.733v15.425c.001 1.381-1.118 2.5-2.499 2.5zm-122.432-5h119.932v-12.925c0-1.507-1.227-2.733-2.733-2.733h-114.466c-1.507 0-2.733 1.226-2.733 2.733z"/></g></g><g><g><path d="m136.507 130.219c-1.381 0-2.5-1.119-2.5-2.5v-19.136c0-1.381 1.119-2.5 2.5-2.5s2.5 1.119 2.5 2.5v19.136c0 1.381-1.119 2.5-2.5 2.5z"/></g></g><g><g><path d="m221.252 147.382h-66.548c-1.381 0-2.5-1.119-2.5-2.5s1.119-2.5 2.5-2.5h66.548c1.381 0 2.5 1.119 2.5 2.5s-1.119 2.5-2.5 2.5z"/></g></g><g><g><path d="m145.993 147.382h-13.33c-1.381 0-2.5-1.119-2.5-2.5s1.119-2.5 2.5-2.5h13.33c1.381 0 2.5 1.119 2.5 2.5s-1.119 2.5-2.5 2.5z"/></g></g><g><g><path d="m221.252 160.177h-39.441c-1.381 0-2.5-1.119-2.5-2.5s1.119-2.5 2.5-2.5h39.441c1.381 0 2.5 1.119 2.5 2.5s-1.119 2.5-2.5 2.5z"/></g></g><g><g><path d="m172.781 160.177h-40.118c-1.381 0-2.5-1.119-2.5-2.5s1.119-2.5 2.5-2.5h40.118c1.381 0 2.5 1.119 2.5 2.5s-1.119 2.5-2.5 2.5z"/></g></g><g><g><path d="m221.252 172.971h-12.063c-1.381 0-2.5-1.119-2.5-2.5s1.119-2.5 2.5-2.5h12.063c1.381 0 2.5 1.119 2.5 2.5s-1.119 2.5-2.5 2.5z"/></g></g><g><g><path d="m200.377 172.971h-67.714c-1.381 0-2.5-1.119-2.5-2.5s1.119-2.5 2.5-2.5h67.714c1.381 0 2.5 1.119 2.5 2.5s-1.119 2.5-2.5 2.5z"/></g></g><g><g><path d="m221.252 185.765h-56.314c-1.381 0-2.5-1.119-2.5-2.5s1.119-2.5 2.5-2.5h56.314c1.381 0 2.5 1.119 2.5 2.5s-1.119 2.5-2.5 2.5z"/></g></g><g><g><path d="m155.892 185.765h-23.229c-1.381 0-2.5-1.119-2.5-2.5s1.119-2.5 2.5-2.5h23.229c1.381 0 2.5 1.119 2.5 2.5s-1.12 2.5-2.5 2.5z"/></g></g><g><g><path d="m221.252 236.377h-39.441c-1.381 0-2.5-1.119-2.5-2.5s1.119-2.5 2.5-2.5h39.441c1.381 0 2.5 1.119 2.5 2.5s-1.119 2.5-2.5 2.5z"/></g></g><g><g><path d="m172.781 236.377h-40.118c-1.381 0-2.5-1.119-2.5-2.5s1.119-2.5 2.5-2.5h40.118c1.381 0 2.5 1.119 2.5 2.5s-1.119 2.5-2.5 2.5z"/></g></g><g><g><path d="m221.252 223.583h-12.063c-1.381 0-2.5-1.119-2.5-2.5s1.119-2.5 2.5-2.5h12.063c1.381 0 2.5 1.119 2.5 2.5s-1.119 2.5-2.5 2.5z"/></g></g><g><g><path d="m200.377 223.583h-67.714c-1.381 0-2.5-1.119-2.5-2.5s1.119-2.5 2.5-2.5h67.714c1.381 0 2.5 1.119 2.5 2.5s-1.119 2.5-2.5 2.5z"/></g></g><g><g><path d="m221.252 210.789h-56.314c-1.381 0-2.5-1.119-2.5-2.5s1.119-2.5 2.5-2.5h56.314c1.381 0 2.5 1.119 2.5 2.5s-1.119 2.5-2.5 2.5z"/></g></g><g><g><path d="m155.892 210.789h-23.229c-1.381 0-2.5-1.119-2.5-2.5s1.119-2.5 2.5-2.5h23.229c1.381 0 2.5 1.119 2.5 2.5s-1.12 2.5-2.5 2.5z"/></g></g><g><g><path d="m221.252 198.559h-39.441c-1.381 0-2.5-1.119-2.5-2.5s1.119-2.5 2.5-2.5h39.441c1.381 0 2.5 1.119 2.5 2.5s-1.119 2.5-2.5 2.5z"/></g></g><g><g><path d="m172.782 198.559h-40.119c-1.381 0-2.5-1.119-2.5-2.5s1.119-2.5 2.5-2.5h40.119c1.381 0 2.5 1.119 2.5 2.5s-1.119 2.5-2.5 2.5z"/></g></g><g><g><path d="m184.705 22.654c-4.498-.838-8.043-4.31-8.898-8.716-.043-.221-.352-.221-.395 0-.855 4.406-4.4 7.879-8.898 8.716-.226.042-.226.345 0 .387 4.498.838 8.043 4.31 8.898 8.717.043.221.352.221.395 0 .855-4.406 4.4-7.879 8.898-8.717.226-.043.226-.345 0-.387z" fill="#f5c84c"/></g></g><g><g><path d="m209.903 90.108c-2.586-.482-4.625-2.479-5.116-5.012-.025-.127-.202-.127-.227 0-.492 2.534-2.53 4.531-5.117 5.012-.13.024-.13.198 0 .222 2.586.482 4.625 2.479 5.117 5.012.025.127.202.127.227 0 .492-2.534 2.53-4.531 5.116-5.012.129-.024.129-.198 0-.222z" fill="#fc657e"/></g></g><g><g><path d="m81.442 171.487h2.33v-2.33c0-1.744 1.413-3.157 3.157-3.157s3.157 1.413 3.157 3.157v2.33h2.329c1.744 0 3.157 1.413 3.157 3.157s-1.413 3.157-3.157 3.157h-2.329v2.33c0 1.744-1.413 3.157-3.157 3.157s-3.157-1.413-3.157-3.157v-2.33h-2.33c-1.744 0-3.157-1.413-3.157-3.157s1.413-3.157 3.157-3.157z" fill="#70d6f9"/></g></g><g><g><circle cx="161.721" cy="3.377" fill="#87d147" r="3.377"/></g></g><g><g><circle cx="95.721" cy="201.377" fill="#f5c84c" r="3.377"/></g></g></g></g></svg>