<svg enable-background="new 0 0 256 256" height="512" viewBox="0 0 256 256" width="512" xmlns="http://www.w3.org/2000/svg"><g id="Layer_76"><g><g><g><path d="m163.466 15.867h-70.932c-4.418 0-7.999 3.581-7.999 7.999v21.267c0 4.418 3.581 8 7.999 8h70.931c4.418 0 7.999-3.581 7.999-7.999v-21.268c.001-4.417-3.581-7.999-7.998-7.999z" fill="#fc657e"/></g></g><g><g><path d="m163.466 55.633h-70.931c-5.79 0-10.5-4.71-10.5-10.5v-21.267c0-5.789 4.71-10.499 10.499-10.499h70.931c5.79 0 10.5 4.71 10.5 10.499v21.268c0 5.789-4.71 10.499-10.499 10.499zm-70.932-37.266c-3.032 0-5.499 2.467-5.499 5.499v21.267c0 3.032 2.467 5.5 5.5 5.5h70.931c3.032 0 5.499-2.467 5.499-5.499v-21.268c0-3.032-2.467-5.499-5.5-5.499z"/></g></g><g><g><path d="m132.087 32.018h-27.808c-1.381 0-2.5-1.119-2.5-2.5s1.119-2.5 2.5-2.5h27.808c1.381 0 2.5 1.119 2.5 2.5s-1.119 2.5-2.5 2.5z"/></g></g><g><g><path d="m152.087 42.018h-47.808c-1.381 0-2.5-1.119-2.5-2.5s1.119-2.5 2.5-2.5h47.808c1.381 0 2.5 1.119 2.5 2.5s-1.119 2.5-2.5 2.5z"/></g></g><g><g><path d="m163.466 78.201h-70.932c-4.418 0-7.999 3.581-7.999 7.999v21.267c0 4.418 3.581 8 7.999 8h70.931c4.418 0 7.999-3.581 7.999-7.999v-21.269c.001-4.417-3.581-7.998-7.998-7.998z" fill="#fcdd86"/></g></g><g><g><path d="m163.466 117.966h-70.931c-5.79 0-10.5-4.71-10.5-10.499v-21.268c0-5.789 4.71-10.499 10.499-10.499h70.931c5.79 0 10.5 4.71 10.5 10.499v21.268c0 5.789-4.71 10.499-10.499 10.499zm-70.932-37.266c-3.032 0-5.499 2.467-5.499 5.499v21.268c0 3.032 2.467 5.499 5.5 5.499h70.931c3.032 0 5.499-2.467 5.499-5.499v-21.268c0-3.032-2.467-5.499-5.5-5.499z"/></g></g><g><g><path d="m132.087 94.351h-27.808c-1.381 0-2.5-1.119-2.5-2.5s1.119-2.5 2.5-2.5h27.808c1.381 0 2.5 1.119 2.5 2.5s-1.119 2.5-2.5 2.5z"/></g></g><g><g><path d="m152.087 104.351h-47.808c-1.381 0-2.5-1.119-2.5-2.5s1.119-2.5 2.5-2.5h47.808c1.381 0 2.5 1.119 2.5 2.5s-1.119 2.5-2.5 2.5z"/></g></g><g><g><path d="m163.466 140.534h-70.932c-4.418 0-7.999 3.581-7.999 7.999v21.267c0 4.418 3.581 8 7.999 8h70.931c4.418 0 7.999-3.581 7.999-7.999v-21.268c.001-4.418-3.581-7.999-7.998-7.999z" fill="#70d6f9"/></g></g><g><g><path d="m163.466 180.3h-70.931c-5.79 0-10.5-4.71-10.5-10.5v-21.267c0-5.789 4.71-10.499 10.499-10.499h70.931c5.79 0 10.5 4.71 10.5 10.499v21.268c0 5.789-4.71 10.499-10.499 10.499zm-70.932-37.266c-3.032 0-5.499 2.467-5.499 5.499v21.267c0 3.032 2.467 5.5 5.5 5.5h70.931c3.032 0 5.499-2.467 5.499-5.499v-21.268c0-3.032-2.467-5.499-5.5-5.499z"/></g></g><g><g><path d="m132.087 156.684h-27.808c-1.381 0-2.5-1.119-2.5-2.5s1.119-2.5 2.5-2.5h27.808c1.381 0 2.5 1.119 2.5 2.5s-1.119 2.5-2.5 2.5z"/></g></g><g><g><path d="m152.087 166.684h-47.808c-1.381 0-2.5-1.119-2.5-2.5s1.119-2.5 2.5-2.5h47.808c1.381 0 2.5 1.119 2.5 2.5s-1.119 2.5-2.5 2.5z"/></g></g><g><g><path d="m163.466 202.867h-70.932c-4.418 0-7.999 3.581-7.999 7.999v21.267c0 4.418 3.581 8 7.999 8h70.931c4.418 0 7.999-3.581 7.999-7.999v-21.268c.001-4.417-3.581-7.999-7.998-7.999z" fill="#87d147"/></g></g><g><g><path d="m163.466 242.633h-70.931c-5.79 0-10.5-4.71-10.5-10.5v-21.267c0-5.789 4.71-10.499 10.499-10.499h70.931c5.79 0 10.5 4.71 10.5 10.499v21.268c0 5.789-4.71 10.499-10.499 10.499zm-70.932-37.266c-3.032 0-5.499 2.467-5.499 5.499v21.267c0 3.032 2.467 5.5 5.5 5.5h70.931c3.032 0 5.499-2.467 5.499-5.499v-21.268c0-3.032-2.467-5.499-5.5-5.499z"/></g></g><g><g><path d="m132.087 219.018h-27.808c-1.381 0-2.5-1.119-2.5-2.5s1.119-2.5 2.5-2.5h27.808c1.381 0 2.5 1.119 2.5 2.5s-1.119 2.5-2.5 2.5z"/></g></g><g><g><path d="m152.087 229.018h-47.808c-1.381 0-2.5-1.119-2.5-2.5s1.119-2.5 2.5-2.5h47.808c1.381 0 2.5 1.119 2.5 2.5s-1.119 2.5-2.5 2.5z"/></g></g><g><g><path d="m70.705 23.882c-4.498-.838-8.043-4.31-8.898-8.716-.043-.221-.352-.221-.395 0-.855 4.406-4.4 7.879-8.898 8.716-.226.042-.226.345 0 .387 4.498.838 8.043 4.31 8.898 8.717.043.221.352.221.395 0 .855-4.406 4.4-7.879 8.898-8.717.226-.042.226-.344 0-.387z" fill="#f5c84c"/></g></g><g><g><path d="m191.884 128.841c-3.072-.572-5.493-2.944-6.077-5.953-.029-.151-.24-.151-.27 0-.584 3.009-3.005 5.381-6.077 5.953-.154.029-.154.235 0 .264 3.072.572 5.493 2.944 6.077 5.953.029.151.24.151.27 0 .584-3.009 3.005-5.381 6.077-5.953.155-.028.155-.235 0-.264z" fill="#87d147"/></g></g><g><g><path d="m65.442 244.198h2.33v-2.33c0-1.744 1.413-3.157 3.157-3.157s3.157 1.413 3.157 3.157v2.33h2.329c1.744 0 3.157 1.413 3.157 3.157s-1.413 3.157-3.157 3.157h-2.329v2.33c0 1.744-1.413 3.157-3.157 3.157s-3.157-1.413-3.157-3.157v-2.33h-2.33c-1.744 0-3.157-1.413-3.157-3.157s1.413-3.157 3.157-3.157z" fill="#70d6f9"/></g></g><g><g><circle cx="80.721" cy="3.377" fill="#fc657e" r="3.377"/></g></g><g><g><circle cx="101.721" cy="252.623" fill="#f5c84c" r="3.377"/></g></g><g><g><path d="m199.5 99.5h-15.5c-1.381 0-2.5-1.119-2.5-2.5s1.119-2.5 2.5-2.5h15.5c15.991 0 29-13.01 29-29s-13.009-29-29-29h-15.5c-1.381 0-2.5-1.119-2.5-2.5s1.119-2.5 2.5-2.5h15.5c18.748 0 34 15.252 34 34s-15.252 34-34 34z"/></g></g><g><g><path d="m187.292 106.116c-.64 0-1.28-.244-1.768-.732l-6.463-6.463c-.469-.469-.732-1.104-.732-1.768s.264-1.299.732-1.768l6.463-6.462c.977-.977 2.559-.977 3.536 0 .976.977.976 2.56 0 3.535l-4.695 4.694 4.695 4.695c.977.977.977 2.559 0 3.535-.488.49-1.128.734-1.768.734z"/></g></g><g><g><path d="m71.5 163h-15.5c-18.748 0-34-15.252-34-34s15.252-34 34-34h15.5c1.381 0 2.5 1.119 2.5 2.5s-1.119 2.5-2.5 2.5h-15.5c-15.991 0-29 13.01-29 29s13.009 29 29 29h15.5c1.381 0 2.5 1.119 2.5 2.5s-1.119 2.5-2.5 2.5z"/></g></g><g><g><path d="m68.208 169.616c-.64 0-1.28-.244-1.768-.732-.977-.977-.977-2.559 0-3.535l4.695-4.695-4.695-4.694c-.977-.976-.977-2.559 0-3.535.977-.977 2.559-.977 3.536 0l6.463 6.462c.469.469.732 1.104.732 1.768s-.263 1.299-.732 1.768l-6.463 6.463c-.488.486-1.128.73-1.768.73z"/></g></g><g><g><path d="m199.5 225h-15.5c-1.381 0-2.5-1.119-2.5-2.5s1.119-2.5 2.5-2.5h15.5c15.991 0 29-13.01 29-29s-13.009-29-29-29h-15.5c-1.381 0-2.5-1.119-2.5-2.5s1.119-2.5 2.5-2.5h15.5c18.748 0 34 15.252 34 34s-15.252 34-34 34z"/></g></g><g><g><path d="m187.292 231.616c-.64 0-1.28-.244-1.768-.732l-6.463-6.463c-.469-.469-.732-1.104-.732-1.768s.264-1.299.732-1.768l6.463-6.462c.977-.977 2.559-.977 3.536 0 .976.977.976 2.56 0 3.535l-4.695 4.694 4.695 4.695c.977.977.977 2.559 0 3.535-.488.49-1.128.734-1.768.734z"/></g></g></g></g></svg>