<svg enable-background="new 0 0 256 256" height="512" viewBox="0 0 256 256" width="512" xmlns="http://www.w3.org/2000/svg"><g id="Layer_62"><g><g><g><path d="m100.121 26.856h-18.646c-1.203 0-2.285-.733-2.732-1.85l-1.826-6.162c-.447-1.117-1.529-1.85-2.732-1.85h-7.737c-1.625 0-2.943 1.317-2.943 2.943v29.013c0 1.625 1.318 2.943 2.943 2.943h33.673c1.625 0 2.943-1.318 2.943-2.943v-19.151c0-1.625-1.318-2.943-2.943-2.943z" fill="#fcdd86"/></g></g><g><g><g><path d="m100.121 18.103h-23.637c.177.221.324.469.433.741l1.826 6.162c.447 1.117 1.529 1.85 2.732 1.85h18.646c1.625 0 2.943 1.317 2.943 2.943v-8.754c0-1.625-1.318-2.942-2.943-2.942z" fill="#f5c84c"/></g></g></g><g><g><path d="m220.615 48.67h-18.646c-1.203 0-2.285-.733-2.732-1.85l-1.826-6.162c-.447-1.117-1.529-1.85-2.732-1.85h-7.737c-1.625 0-2.943 1.317-2.943 2.943v29.013c0 1.625 1.318 2.943 2.943 2.943h33.673c1.625 0 2.943-1.318 2.943-2.943v-19.152c0-1.625-1.318-2.942-2.943-2.942z" fill="#fcdd86"/></g></g><g><g><g><path d="m220.615 39.916h-23.638c.177.221.324.469.433.741l1.826 6.162c.447 1.117 1.529 1.85 2.732 1.85h18.646c1.625 0 2.943 1.317 2.943 2.943v-8.754c0-1.625-1.317-2.942-2.942-2.942z" fill="#f5c84c"/></g></g></g><g><g><path d="m227.886 161.892h-18.646c-1.203 0-2.285-.733-2.732-1.85l-1.826-6.162c-.447-1.117-1.529-1.85-2.732-1.85h-7.737c-1.625 0-2.943 1.317-2.943 2.943v29.013c0 1.625 1.318 2.943 2.943 2.943h33.673c1.625 0 2.943-1.318 2.943-2.943v-19.151c0-1.626-1.318-2.943-2.943-2.943z" fill="#fcdd86"/></g></g><g><g><g><path d="m227.886 153.138h-23.638c.177.221.324.469.433.741l1.826 6.162c.447 1.117 1.529 1.85 2.732 1.85h18.646c1.625 0 2.943 1.317 2.943 2.943v-8.754c.001-1.624-1.317-2.942-2.942-2.942z" fill="#f5c84c"/></g></g></g><g><g><path d="m129.206 214.868h-18.646c-1.203 0-2.285-.733-2.732-1.85l-1.826-6.162c-.447-1.117-1.529-1.85-2.732-1.85h-7.737c-1.625 0-2.943 1.317-2.943 2.943v29.013c0 1.625 1.317 2.943 2.943 2.943h33.673c1.625 0 2.943-1.318 2.943-2.943v-19.152c0-1.625-1.318-2.942-2.943-2.942z" fill="#fcdd86"/></g></g><g><g><g><path d="m129.206 206.114h-23.638c.177.221.324.469.433.741l1.826 6.162c.447 1.117 1.529 1.85 2.732 1.85h18.646c1.625 0 2.943 1.317 2.943 2.943v-8.754c.001-1.625-1.317-2.942-2.942-2.942z" fill="#f5c84c"/></g></g></g><g><g><path d="m48.184 135.924h-18.646c-1.203 0-2.285-.733-2.732-1.85l-1.826-6.162c-.447-1.117-1.529-1.85-2.732-1.85h-7.737c-1.625 0-2.943 1.317-2.943 2.943v29.013c0 1.625 1.317 2.943 2.943 2.943h33.673c1.625 0 2.943-1.318 2.943-2.943v-19.151c0-1.626-1.317-2.943-2.943-2.943z" fill="#fcdd86"/></g></g><g><g><g><path d="m48.184 127.17h-23.637c.177.221.324.469.433.741l1.826 6.162c.447 1.117 1.529 1.85 2.732 1.85h18.646c1.625 0 2.943 1.317 2.943 2.943v-8.754c0-1.625-1.317-2.942-2.943-2.942z" fill="#f5c84c"/></g></g></g><g><g><path d="m79.943 208.659c-10.023-5.908-18.875-13.666-26.111-22.932l6.567 1.01c2.682.412 5.378-1.18 6.042-3.81.762-3.017-1.241-5.961-4.242-6.422l-19.47-2.995c-2.835-.436-5.487 1.509-5.923 4.344l-2.961 19.25c-.412 2.681 1.179 5.377 3.809 6.042 3.017.763 5.962-1.24 6.424-4.242l1.132-7.361c8.15 10.586 18.181 19.435 29.574 26.133 2.565 1.508 5.878.484 7.216-2.174 1.243-2.466.321-5.441-2.057-6.843z" fill="#9be5f9"/></g></g><g><g><path d="m36.356 108.369c2.713-12.257 7.899-23.859 15.318-34.147l1.146 7.033c.436 2.678 2.784 4.75 5.491 4.569 3.105-.208 5.285-3.023 4.797-6.02l-3.168-19.442c-.461-2.831-3.13-4.752-5.961-4.29l-19.222 3.132c-2.677.436-4.749 2.782-4.57 5.489.206 3.105 3.022 5.288 6.019 4.799l6.888-1.123c-8.167 11.387-13.882 24.213-16.88 37.758-.648 2.927 1.256 5.807 4.214 6.297l.003.001c2.743.453 5.324-1.341 5.925-4.056z" fill="#9be5f9"/></g></g><g><g><path d="m195.826 198.444c-1.952-1.981-5.095-2.046-7.179-.204-9.138 8.074-19.772 14.273-31.366 18.244l3.123-6.197c1.221-2.423.54-5.479-1.756-6.924-2.634-1.658-6.053-.662-7.419 2.05l-8.864 17.591c-1.291 2.562-.261 5.684 2.301 6.975l17.393 8.764c2.422 1.221 5.478.54 6.923-1.755 1.658-2.633.663-6.054-2.049-7.421l-6.392-3.221c12.941-4.418 24.807-11.326 34.996-20.332 2.245-1.985 2.395-5.435.292-7.569z" fill="#9be5f9"/></g></g><g><g><path d="m149.089 43.193c-2.699 1.391-3.664 4.817-1.984 7.436 1.465 2.284 4.528 2.938 6.94 1.696l17.313-8.919c2.55-1.314 3.552-4.446 2.239-6.995l-8.92-17.314c-1.242-2.411-4.114-3.656-6.633-2.649-2.889 1.156-4.095 4.508-2.704 7.208l3.311 6.427c-10.158-3.251-20.759-4.906-31.523-4.906-3.316 0-6.624.157-9.911.47-2.981.284-5.13 2.983-4.688 5.945v.001c.405 2.713 2.852 4.666 5.583 4.403 2.989-.288 5.998-.432 9.016-.432 9.655 0 19.159 1.48 28.263 4.382z" fill="#9be5f9"/></g></g><g><g><path d="m242.514 120.685c-2.099-1.718-5.213-1.394-7.122.533l-4.95 4.995c-.301-13.581-3.237-26.857-8.623-39.155-1.194-2.726-4.477-3.841-7.12-2.474l-.001.001c-2.451 1.267-3.451 4.216-2.347 6.745 4.776 10.941 7.398 22.738 7.703 34.795l-4.859-4.816c-1.927-1.91-5.044-2.206-7.127-.469-2.39 1.993-2.5 5.552-.343 7.69l13.991 13.867c2.037 2.019 5.326 2.004 7.345-.033l13.867-13.992c2.137-2.158 1.994-5.717-.414-7.687z" fill="#9be5f9"/></g></g><g><g><g><path d="m169.075 105.204h-2.879c-.421 0-.791-.282-.898-.69-.451-1.724-1.133-3.353-2.012-4.854-.213-.364-.152-.825.147-1.124l2.037-2.037c.364-.364.364-.954 0-1.317l-4.651-4.651c-.364-.364-.953-.364-1.317 0l-2.037 2.037c-.298.298-.76.36-1.124.147-1.501-.879-3.13-1.561-4.854-2.012-.407-.107-.69-.477-.69-.898v-2.879c0-.514-.417-.931-.931-.931h-6.578c-.514 0-.931.417-.931.931v2.879c0 .421-.282.791-.69.898-1.724.451-3.353 1.133-4.854 2.012-.364.213-.825.152-1.124-.147l-2.037-2.037c-.364-.364-.954-.364-1.317 0l-4.651 4.651c-.364.364-.364.954 0 1.317l2.037 2.037c.298.298.36.76.147 1.124-.879 1.501-1.561 3.13-2.012 4.854-.107.407-.477.69-.898.69h-2.879c-.514 0-.931.417-.931.931v6.578c0 .514.417.931.931.931h2.879c.421 0 .791.282.898.69.451 1.724 1.133 3.353 2.012 4.854.213.364.152.825-.147 1.124l-2.037 2.037c-.364.364-.364.954 0 1.317l4.651 4.651c.364.364.954.364 1.317 0l2.037-2.037c.298-.298.76-.36 1.124-.147 1.501.879 3.13 1.561 4.854 2.012.407.107.69.477.69.898v2.879c0 .514.417.931.931.931h6.578c.514 0 .931-.417.931-.931v-2.879c0-.421.282-.791.69-.898 1.724-.451 3.353-1.133 4.854-2.012.364-.213.825-.152 1.124.147l2.037 2.037c.364.364.953.364 1.317 0l4.651-4.651c.364-.364.364-.954 0-1.317l-2.037-2.037c-.298-.298-.36-.76-.147-1.124.879-1.501 1.561-3.13 2.012-4.854.107-.407.477-.69.898-.69h2.879c.514 0 .931-.417.931-.931v-6.578c0-.514-.417-.931-.931-.931zm-22.5 15.183c-6.055 0-10.963-4.908-10.963-10.963s4.908-10.963 10.963-10.963 10.963 4.908 10.963 10.963-4.908 10.963-10.963 10.963z" fill="#fcdd86"/></g></g></g><g><g><g><path d="m150.999 130.871h-.204v1.053c0 .514-.417.931-.931.931h-6.578c-.514 0-.931-.417-.931-.931v-2.879c0-.421-.282-.791-.69-.898-1.724-.451-3.353-1.133-4.854-2.012-.364-.213-.825-.151-1.124.147l-2.037 2.037c-.364.364-.954.364-1.317 0l-.792-.792c1.957 2.596 3.13 5.816 3.13 9.318 0 8.569-6.947 15.516-15.516 15.516s-15.516-6.947-15.516-15.516 6.947-15.516 15.516-15.516c3.502 0 6.721 1.174 9.318 3.131l-.792-.792c-.364-.364-.364-.954 0-1.317l2.037-2.037c.298-.298.36-.76.147-1.124-.879-1.501-1.561-3.13-2.012-4.854-.107-.407-.477-.69-.898-.69h-2.879c-.514 0-.932-.417-.932-.931v-6.578c0-.514.417-.931.932-.931h1.053v-.204c0-.728-.59-1.318-1.318-1.318h-9.31c-.728 0-1.318.59-1.318 1.318v4.075c0 .596-.4 1.12-.976 1.271-2.439.638-4.745 1.604-6.87 2.848-.515.301-1.168.215-1.59-.208l-2.883-2.883c-.515-.515-1.35-.515-1.864 0l-6.583 6.583c-.515.515-.515 1.35 0 1.864l2.883 2.884c.422.422.509 1.075.207 1.59-1.244 2.124-2.21 4.43-2.848 6.87-.151.577-.675.976-1.271.976h-4.075c-.728 0-1.318.59-1.318 1.318v9.31c0 .728.59 1.318 1.318 1.318h4.075c.596 0 1.12.4 1.271.976.638 2.44 1.604 4.745 2.848 6.87.302.515.215 1.168-.207 1.59l-2.883 2.883c-.515.515-.515 1.35 0 1.864l6.583 6.583c.515.515 1.35.515 1.864 0l2.883-2.883c.422-.422 1.075-.509 1.59-.208 2.124 1.244 4.43 2.21 6.87 2.848.577.151.976.675.976 1.271v4.075c0 .728.59 1.318 1.318 1.318h9.31c.728 0 1.318-.59 1.318-1.318v-4.075c0-.596.4-1.12.976-1.271 2.439-.638 4.746-1.604 6.87-2.848.515-.301 1.168-.214 1.59.208l2.883 2.883c.515.515 1.35.515 1.864 0l6.583-6.583c.515-.515.515-1.35 0-1.864l-2.883-2.883c-.422-.422-.509-1.076-.207-1.59 1.244-2.124 2.21-4.43 2.848-6.87.151-.577.675-.976 1.271-.976h4.075c.728 0 1.318-.59 1.318-1.318v-9.31c.001-.729-.59-1.319-1.318-1.319z" fill="#f5c84c"/></g></g></g><g><g><g><path d="m149.864 135.355h-6.578c-1.892 0-3.432-1.539-3.432-3.432v-1.703c-1.112-.358-2.192-.807-3.232-1.339l-1.205 1.204c-1.338 1.338-3.515 1.337-4.852.001l-4.652-4.652c-.648-.649-1.005-1.511-1.005-2.427 0-.917.357-1.779 1.006-2.427l1.204-1.204c-.533-1.04-.981-2.121-1.34-3.232h-1.703c-1.892 0-3.431-1.539-3.431-3.431v-6.578c0-1.893 1.539-3.432 3.431-3.432h1.703c.359-1.111.807-2.192 1.34-3.232l-1.204-1.204c-.649-.649-1.005-1.511-1.005-2.427 0-.917.357-1.779 1.006-2.427l4.649-4.65c1.295-1.297 3.558-1.298 4.854.001l1.203 1.203c1.041-.533 2.122-.981 3.232-1.34v-1.702c0-1.893 1.54-3.432 3.432-3.432h6.578c1.892 0 3.432 1.539 3.432 3.432v1.702c1.109.358 2.191.807 3.232 1.34l1.205-1.204c1.294-1.297 3.558-1.298 4.854.001l4.65 4.65c.648.646 1.005 1.509 1.005 2.426 0 .916-.356 1.777-1.004 2.426l-1.206 1.206c.533 1.04.981 2.12 1.34 3.231h1.703c1.892 0 3.431 1.539 3.431 3.432v6.578c0 1.892-1.539 3.431-3.431 3.431h-1.703c-.359 1.111-.807 2.192-1.34 3.232l1.205 1.205c.648.646 1.005 1.509 1.005 2.426 0 .916-.356 1.777-1.004 2.426l-4.653 4.652c-1.338 1.338-3.515 1.337-4.852.001l-1.206-1.205c-1.04.532-2.121.98-3.232 1.339v1.703c.002 1.893-1.538 3.432-3.43 3.432zm-5.009-5h3.441v-1.312c0-1.56 1.052-2.923 2.559-3.316 1.479-.388 2.9-.977 4.221-1.75 1.342-.789 3.053-.567 4.157.537l.927.927 2.433-2.433-.928-.929c-1.102-1.102-1.323-2.81-.537-4.153.775-1.324 1.365-2.745 1.752-4.225.394-1.506 1.757-2.558 3.316-2.558h1.311v-3.44h-1.311c-1.559 0-2.923-1.052-3.317-2.558-.387-1.479-.976-2.9-1.75-4.223-.787-1.343-.567-3.052.536-4.154l.928-.929-2.433-2.433-.928.928c-1.103 1.103-2.81 1.323-4.153.537-1.325-.776-2.746-1.365-4.224-1.751-1.508-.397-2.558-1.761-2.558-3.317v-1.311h-3.441v1.311c0 1.557-1.05 2.92-2.553 3.316-1.482.387-2.902.976-4.227 1.751-1.345.786-3.052.565-4.153-.534l-.93-.93-2.433 2.433.928.929c1.103 1.103 1.323 2.812.536 4.154-.774 1.322-1.363 2.743-1.75 4.224-.393 1.505-1.757 2.557-3.316 2.557h-1.311v3.44h1.311c1.559 0 2.923 1.052 3.317 2.559.387 1.479.976 2.899 1.75 4.222.787 1.346.565 3.054-.536 4.155l-.928.929 2.433 2.433.928-.928c1.103-1.104 2.813-1.323 4.157-.535 1.319.773 2.741 1.362 4.221 1.749 1.504.394 2.557 1.757 2.557 3.316v1.312zm-9.307-2.063c.001.001.002.002.003.002 0 0-.002-.001-.003-.002zm22.057-.001c-.001 0-.002.001-.003.002.001-.001.002-.002.003-.002zm-1.909-.242c0 .001.001.001.001.002zm13.379-20.345h.01zm-22.499 15.184c-7.423 0-13.463-6.039-13.463-13.463s6.04-13.463 13.463-13.463 13.462 6.039 13.462 13.463-6.039 13.463-13.462 13.463zm0-21.926c-4.667 0-8.463 3.797-8.463 8.463s3.796 8.463 8.463 8.463c4.666 0 8.462-3.797 8.462-8.463s-3.796-8.463-8.462-8.463z"/></g></g></g><g><g><g><path d="m119.156 154.86c-9.934 0-18.016-8.082-18.016-18.016 0-9.935 8.082-18.017 18.016-18.017 3.926 0 7.668 1.257 10.823 3.635.84.633 1.167 1.693.909 2.65.958-.262 2.018.068 2.651.908 2.377 3.155 3.634 6.897 3.634 10.823-.001 9.935-8.083 18.017-18.017 18.017zm0-31.032c-7.177 0-13.016 5.839-13.016 13.017 0 7.177 5.839 13.016 13.016 13.016s13.016-5.839 13.016-13.016c0-2.831-.908-5.533-2.627-7.813-.483-.642-.611-1.44-.417-2.159-.72.193-1.519.066-2.16-.417-2.28-1.72-4.981-2.628-7.812-2.628z"/></g></g><g><g><path d="m123.811 172.506h-9.31c-2.105 0-3.818-1.713-3.818-3.818v-3.175c-2.015-.596-3.96-1.402-5.806-2.407l-2.246 2.247c-1.49 1.488-3.913 1.487-5.4 0l-6.583-6.583c-.721-.72-1.119-1.68-1.119-2.7s.397-1.979 1.119-2.7l2.246-2.246c-1.005-1.846-1.813-3.792-2.407-5.806h-3.175c-2.105 0-3.818-1.713-3.818-3.818v-9.31c0-2.105 1.713-3.818 3.818-3.818h3.175c.594-2.014 1.401-3.959 2.407-5.806l-2.247-2.247c-.721-.72-1.118-1.679-1.118-2.699s.397-1.979 1.118-2.699l6.584-6.584c1.488-1.488 3.911-1.488 5.399 0l2.247 2.247c1.847-1.007 3.793-1.813 5.806-2.407v-3.175c0-2.105 1.713-3.818 3.818-3.818h9.31c2.105 0 3.818 1.713 3.818 3.818 0 1.381-1.119 2.5-2.5 2.5-.953 0-1.782-.533-2.204-1.318h-7.243v2.894c0 1.732-1.168 3.249-2.842 3.688-2.187.571-4.286 1.441-6.241 2.587-1.494.875-3.395.63-4.621-.597l-2.048-2.048-4.912 4.912 2.048 2.048c1.226 1.227 1.472 3.126.597 4.62-1.146 1.956-2.016 4.056-2.587 6.24-.436 1.674-1.953 2.844-3.689 2.844h-2.894v6.946h2.894c1.736 0 3.253 1.17 3.69 2.846.571 2.184 1.441 4.282 2.586 6.236.875 1.497.628 3.396-.597 4.622l-2.047 2.048 4.912 4.912 2.047-2.048c1.227-1.228 3.127-1.473 4.622-.597 1.953 1.144 4.052 2.014 6.239 2.586 1.673.437 2.843 1.954 2.843 3.689v2.894h6.946v-2.894c0-1.735 1.17-3.253 2.846-3.689 2.186-.572 4.285-1.442 6.237-2.586 1.495-.876 3.395-.629 4.622.597l2.048 2.048 4.912-4.912-2.048-2.048c-1.226-1.225-1.472-3.126-.597-4.621 1.145-1.954 2.015-4.053 2.587-6.239.438-1.674 1.955-2.844 3.689-2.844h2.894v-7.242c-.785-.422-1.318-1.251-1.318-2.204 0-1.381 1.119-2.5 2.5-2.5 2.105 0 3.818 1.713 3.818 3.818v9.31c0 2.105-1.713 3.818-3.818 3.818h-3.175c-.595 2.014-1.401 3.96-2.407 5.805l2.247 2.248c1.488 1.488 1.488 3.911 0 5.399l-6.583 6.583c-1.489 1.488-3.911 1.487-5.399.001l-2.247-2.248c-1.845 1.005-3.791 1.812-5.806 2.407v3.175c-.001 2.105-1.714 3.818-3.819 3.818z"/></g></g></g><g><g><path d="m77.339 220.878c-1.331 0-2.64-.354-3.821-1.048-10.107-5.941-19.064-13.44-26.693-22.338l-.276 1.791c-.329 2.138-1.552 4.05-3.355 5.245-1.802 1.194-4.044 1.575-6.152 1.041-3.793-.961-6.282-4.847-5.667-8.847l2.961-19.249c.645-4.192 4.581-7.078 8.773-6.435l19.47 2.995c2.137.328 4.048 1.551 5.244 3.354 1.195 1.803 1.575 4.045 1.042 6.151-.959 3.794-4.842 6.292-8.846 5.669h-.001c6.155 6.819 13.263 12.623 21.195 17.298 3.51 2.068 4.838 6.514 3.022 10.119-.957 1.9-2.676 3.335-4.717 3.936-.722.212-1.454.318-2.179.318zm-32.128-31.836c.764 0 1.501.352 1.981.975 7.965 10.348 17.675 18.928 28.86 25.503.621.365 1.351.451 2.052.245.731-.216 1.322-.708 1.664-1.389.646-1.282.175-2.814-1.095-3.563v-.001c-10.355-6.103-19.376-14.025-26.812-23.547-.631-.809-.705-1.919-.187-2.804.519-.883 1.525-1.36 2.537-1.206l6.567 1.011c1.478.224 2.904-.631 3.238-1.952.191-.755.062-1.523-.362-2.164-.425-.641-1.077-1.058-1.835-1.175l-19.47-2.995c-1.466-.216-2.846.784-3.072 2.253l-2.961 19.249c-.228 1.481.63 2.904 1.952 3.239.753.19 1.523.063 2.164-.361.641-.426 1.059-1.078 1.176-1.837l1.132-7.361c.152-.989.879-1.792 1.848-2.041.207-.054.416-.079.623-.079z"/></g></g><g><g><path d="m31.276 114.994c-.396 0-.795-.031-1.197-.095-.02-.003-.04-.006-.06-.009-2.099-.348-3.911-1.51-5.103-3.272-1.187-1.755-1.604-3.953-1.144-6.031 2.672-12.073 7.375-23.424 14.001-33.817l-1.167.19c-2.136.346-4.332-.226-6.026-1.571-1.693-1.346-2.747-3.361-2.891-5.531-.258-3.904 2.668-7.471 6.663-8.121l19.222-3.133c4.191-.68 8.148 2.169 8.831 6.355l3.168 19.442c.348 2.134-.224 4.329-1.569 6.023-1.345 1.693-3.36 2.748-5.528 2.893-3.907.264-7.474-2.664-8.125-6.66l-.128-.789c-5.381 8.647-9.217 18.053-11.428 28.041-.795 3.602-3.969 6.085-7.519 6.085zm-.476-5.043c.013.002.026.004.039.006 1.41.237 2.759-.701 3.075-2.128 2.809-12.689 8.102-24.489 15.732-35.069.591-.819 1.617-1.202 2.602-.972.984.232 1.731 1.034 1.894 2.031l1.146 7.033c.241 1.48 1.498 2.548 2.856 2.477.778-.053 1.47-.412 1.947-1.014.478-.603.674-1.352.55-2.109l-3.168-19.442c-.239-1.466-1.628-2.47-3.092-2.225l-19.222 3.133c-1.48.24-2.568 1.495-2.478 2.855.051.777.411 1.469 1.012 1.946.603.48 1.354.679 2.111.551l6.887-1.123c.998-.16 1.995.291 2.527 1.15.533.858.496 1.953-.093 2.774-7.981 11.128-13.522 23.523-16.47 36.841-.167.755-.023 1.519.404 2.151.408.605 1.025 1.006 1.741 1.134z"/></g></g><g><g><path d="m164.548 241.834c-1.222 0-2.462-.277-3.616-.858l-17.393-8.765c-1.835-.924-3.2-2.508-3.844-4.46-.644-1.951-.489-4.037.436-5.872l8.865-17.592c.973-1.931 2.726-3.371 4.811-3.951 2.084-.579 4.333-.246 6.172.91 3.312 2.085 4.479 6.551 2.657 10.165l-.22.438c8.975-3.792 17.22-8.983 24.576-15.482 3.086-2.726 7.749-2.585 10.615.323 1.495 1.518 2.278 3.525 2.205 5.654-.073 2.116-1.028 4.137-2.621 5.544-9.053 8.002-19.261 14.312-30.41 18.805l1.275.643c1.932.974 3.372 2.728 3.951 4.813.579 2.083.247 4.333-.911 6.173-1.42 2.252-3.942 3.512-6.548 3.512zm-8.678-36.78c-.242 0-.484.033-.724.1-.741.206-1.339.697-1.685 1.384l-8.865 17.592c-.324.643-.377 1.372-.152 2.056.226.684.704 1.237 1.346 1.562l17.393 8.765c1.337.674 2.955.298 3.683-.854.415-.659.53-1.431.325-2.171-.206-.741-.697-1.34-1.384-1.686l-6.392-3.221c-.899-.453-1.438-1.4-1.369-2.404s.734-1.869 1.687-2.194c12.651-4.318 24.14-10.994 34.148-19.839.577-.51.909-1.21.935-1.971.026-.742-.247-1.442-.768-1.971l1.781-1.755-1.781 1.754c-1.003-1.018-2.647-1.054-3.744-.086-9.448 8.348-20.286 14.651-32.211 18.735-.963.329-2.027.043-2.694-.723-.668-.766-.806-1.86-.348-2.768l3.123-6.197c.675-1.339.299-2.956-.856-3.684-.448-.281-.945-.424-1.448-.424z"/></g></g><g><g><path d="m151.509 55.438c-2.581 0-5.082-1.236-6.508-3.46-1.173-1.829-1.524-4.075-.964-6.163.561-2.089 1.985-3.854 3.907-4.846l.654-.337c-7.005-1.707-14.202-2.569-21.47-2.569-2.921 0-5.874.142-8.777.42-4.045.397-7.69-2.476-8.294-6.522-.314-2.104.234-4.187 1.545-5.863 1.303-1.667 3.263-2.738 5.377-2.939 3.353-.32 6.768-.482 10.148-.482 9.032 0 17.968 1.139 26.643 3.391l-.653-1.268c-.991-1.923-1.125-4.188-.368-6.216.756-2.025 2.348-3.65 4.365-4.457 3.632-1.453 7.93.227 9.783 3.825l8.92 17.314c.941 1.826 1.114 3.91.488 5.867-.626 1.958-1.977 3.554-3.804 4.495l-17.313 8.919c-1.17.603-2.434.891-3.679.891zm-1.275-10.023c-.683.352-1.169.954-1.369 1.697-.199.741-.077 1.511.344 2.167.737 1.147 2.357 1.509 3.689.823l17.314-8.92c.64-.329 1.113-.888 1.332-1.573s.158-1.415-.171-2.055l-8.919-17.314c-.686-1.331-2.214-1.979-3.481-1.472-.724.289-1.27.845-1.538 1.563-.27.721-.224 1.494.128 2.178l3.311 6.428c.463.898.339 1.988-.314 2.76s-1.705 1.072-2.67.766c-9.925-3.177-20.275-4.787-30.761-4.787-3.223 0-6.477.154-9.673.459-.765.073-1.445.443-1.914 1.043-.458.585-.649 1.311-.539 2.044.212 1.416 1.476 2.415 2.871 2.285 3.062-.294 6.175-.443 9.255-.443 9.888 0 19.653 1.514 29.023 4.5.964.307 1.647 1.165 1.732 2.173.084 1.009-.447 1.968-1.346 2.432z"/></g></g><g><g><path d="m225.37 146.397c-1.958 0-3.917-.741-5.415-2.226l-13.991-13.867c-1.536-1.522-2.364-3.636-2.271-5.798.093-2.159 1.104-4.196 2.773-5.587 3.004-2.508 7.612-2.238 10.488.613l.211.209c-.908-9.475-3.29-18.67-7.105-27.412-1.63-3.733-.097-8.111 3.489-9.966 1.889-.977 4.123-1.131 6.128-.421 2.008.711 3.583 2.171 4.432 4.111 4.786 10.93 7.654 22.466 8.553 34.366l.954-.963c2.85-2.876 7.453-3.186 10.481-.708 1.682 1.376 2.711 3.404 2.824 5.563.112 2.161-.696 4.281-2.219 5.817l-13.867 13.992c-1.502 1.519-3.483 2.277-5.465 2.277zm-14.07-24.209c-.594 0-1.171.188-1.632.571-.599.499-.946 1.196-.979 1.963-.033.769.25 1.49.795 2.031l13.991 13.867c1.055 1.045 2.763 1.037 3.81-.018l13.867-13.992c.541-.546.817-1.27.777-2.037-.04-.768-.394-1.461-.998-1.955-1.054-.862-2.708-.706-3.763.358l-4.95 4.995c-.706.714-1.77.937-2.702.563-.932-.371-1.551-1.264-1.574-2.267-.294-13.277-3.125-26.132-8.413-38.208-.289-.66-.83-1.159-1.521-1.404-.718-.253-1.486-.2-2.161.148-1.276.66-1.794 2.176-1.205 3.525 4.936 11.307 7.597 23.328 7.91 35.731.026 1.021-.571 1.954-1.508 2.358-.936.404-2.025.199-2.75-.52l-4.859-4.816c-.598-.588-1.379-.893-2.135-.893z"/></g></g><g><g><path d="m100.121 54.393h-33.673c-3.001 0-5.442-2.441-5.442-5.442v-29.014c0-3.001 2.441-5.442 5.442-5.442h7.737c2.239 0 4.222 1.343 5.053 3.421.028.072.054.145.076.219l1.779 6.002c.079.136.223.221.382.221h18.646c3.001 0 5.443 2.441 5.443 5.442v19.15c0 3.001-2.442 5.443-5.443 5.443zm-33.673-34.899c-.244 0-.442.198-.442.442v29.014c0 .244.198.442.442.442h33.673c.244 0 .443-.198.443-.442v-19.151c0-.244-.199-.442-.443-.442h-18.646c-2.238 0-4.222-1.344-5.053-3.422-.028-.072-.054-.145-.076-.219l-1.779-6.002c-.079-.136-.222-.22-.382-.22z"/></g></g><g><g><g><path d="m103.064 32.299c-1.381 0-2.5-1.119-2.5-2.5v-8.754c0-.244-.199-.442-.443-.442h-23.225c-1.381 0-2.5-1.119-2.5-2.5s1.119-2.5 2.5-2.5h23.225c3.001 0 5.443 2.441 5.443 5.442v8.754c0 1.381-1.119 2.5-2.5 2.5z"/></g></g></g><g><g><path d="m220.615 76.206h-33.673c-3.001 0-5.443-2.441-5.443-5.442v-29.014c0-3.001 2.442-5.442 5.443-5.442h7.737c2.239 0 4.222 1.343 5.053 3.421.028.072.054.145.076.219l1.778 6.002c.079.136.223.221.383.221h18.646c3.001 0 5.443 2.441 5.443 5.442v19.151c0 3.001-2.442 5.442-5.443 5.442zm-33.674-34.898c-.244 0-.443.198-.443.442v29.014c0 .244.199.442.443.442h33.673c.244 0 .443-.198.443-.442v-19.152c0-.244-.199-.442-.443-.442h-18.646c-2.238 0-4.221-1.343-5.053-3.422-.029-.071-.054-.145-.076-.219l-1.778-6.002c-.079-.136-.222-.22-.382-.22h-7.738z"/></g></g><g><g><g><path d="m223.558 54.112c-1.381 0-2.5-1.119-2.5-2.5v-8.754c0-.244-.199-.442-.443-.442h-23.115c-1.381 0-2.5-1.119-2.5-2.5s1.119-2.5 2.5-2.5h23.115c3.001 0 5.443 2.441 5.443 5.442v8.754c0 1.381-1.12 2.5-2.5 2.5z"/></g></g></g><g><g><path d="m227.886 189.429h-33.673c-3.001 0-5.442-2.441-5.442-5.442v-29.014c0-3.001 2.441-5.442 5.442-5.442h7.737c2.238 0 4.222 1.343 5.053 3.421.029.071.054.145.076.219l1.778 6.002c.079.136.222.22.382.22h18.646c3.001 0 5.443 2.441 5.443 5.443v19.151c.001 3-2.441 5.442-5.442 5.442zm-33.674-34.899c-.244 0-.442.198-.442.442v29.014c0 .244.198.442.442.442h33.673c.244 0 .443-.198.443-.442v-19.151c0-.244-.199-.443-.443-.443h-18.646c-2.239 0-4.222-1.343-5.053-3.421-.028-.072-.054-.145-.076-.219l-1.778-6.002c-.079-.135-.223-.22-.383-.22z"/></g></g><g><g><g><path d="m230.829 167.335c-1.381 0-2.5-1.119-2.5-2.5v-8.754c0-.244-.199-.442-.443-.442h-23.073c-1.381 0-2.5-1.119-2.5-2.5s1.119-2.5 2.5-2.5h23.073c3.001 0 5.443 2.441 5.443 5.442v8.754c0 1.381-1.12 2.5-2.5 2.5z"/></g></g></g><g><g><path d="m129.206 242.404h-33.673c-3.001 0-5.443-2.441-5.443-5.442v-29.014c0-3.001 2.442-5.442 5.443-5.442h7.736c2.239 0 4.223 1.343 5.054 3.421.029.072.054.145.076.219l1.778 6.002c.079.136.223.22.383.22h18.646c3.001 0 5.442 2.441 5.442 5.443v19.151c0 3.001-2.441 5.442-5.442 5.442zm-33.673-34.898c-.244 0-.443.198-.443.442v29.014c0 .244.199.442.443.442h33.673c.244 0 .442-.198.442-.442v-19.151c0-.244-.198-.443-.442-.443h-18.646c-2.239 0-4.223-1.343-5.054-3.421-.028-.072-.054-.145-.076-.219l-1.778-6.002c-.079-.136-.223-.22-.383-.22z"/></g></g><g><g><g><path d="m132.148 220.311c-1.381 0-2.5-1.119-2.5-2.5v-8.754c0-.244-.198-.442-.442-.442h-23.102c-1.381 0-2.5-1.119-2.5-2.5s1.119-2.5 2.5-2.5h23.102c3.001 0 5.442 2.441 5.442 5.442v8.754c0 1.38-1.119 2.5-2.5 2.5z"/></g></g></g><g><g><path d="m48.184 163.46h-33.673c-3.001 0-5.443-2.441-5.443-5.442v-29.013c0-3.002 2.442-5.443 5.443-5.443h7.736c2.238 0 4.222 1.343 5.053 3.421.029.071.054.145.076.219l1.778 6.002c.079.136.223.221.383.221h18.646c3.001 0 5.443 2.441 5.443 5.442v19.151c.001 3.001-2.441 5.442-5.442 5.442zm-33.673-34.898c-.244 0-.443.199-.443.443v29.013c0 .244.199.442.443.442h33.673c.244 0 .443-.198.443-.442v-19.151c0-.244-.199-.442-.443-.442h-18.646c-2.239 0-4.222-1.344-5.054-3.422-.028-.072-.054-.145-.076-.219l-1.778-6.002c-.079-.135-.223-.22-.383-.22z"/></g></g><g><g><g><path d="m51.127 141.366c-1.381 0-2.5-1.119-2.5-2.5v-8.754c0-.244-.199-.442-.443-.442h-23.142c-1.381 0-2.5-1.119-2.5-2.5s1.119-2.5 2.5-2.5h23.143c3.001 0 5.443 2.441 5.443 5.442v8.754c-.001 1.381-1.12 2.5-2.501 2.5z"/></g></g></g><g><g><path d="m18.359 178.882c-4.498-.838-8.043-4.31-8.898-8.716-.043-.221-.352-.221-.395 0-.855 4.406-4.4 7.879-8.898 8.716-.226.042-.226.345 0 .387 4.498.838 8.043 4.31 8.898 8.717.043.221.352.221.395 0 .855-4.406 4.4-7.879 8.898-8.717.226-.042.226-.344 0-.387z" fill="#f5c84c"/></g></g><g><g><path d="m19.85 84.478c-2.268-.422-4.055-2.173-4.486-4.395-.022-.112-.177-.112-.199 0-.431 2.221-2.218 3.972-4.486 4.395-.114.021-.114.174 0 .195 2.268.422 4.055 2.173 4.486 4.395.022.112.177.112.199 0 .431-2.221 2.218-3.972 4.486-4.395.114-.021.114-.173 0-.195z" fill="#fc657e"/></g></g><g><g><path d="m237.442 74.487h2.33v-2.33c0-1.744 1.413-3.157 3.157-3.157s3.157 1.413 3.157 3.157v2.33h2.329c1.744 0 3.157 1.413 3.157 3.157s-1.413 3.157-3.157 3.157h-2.329v2.33c0 1.744-1.413 3.157-3.157 3.157s-3.157-1.413-3.157-3.157v-2.33h-2.33c-1.744 0-3.157-1.413-3.157-3.157 0-1.743 1.413-3.157 3.157-3.157z" fill="#70d6f9"/></g></g><g><g><circle cx="252.623" cy="102.623" fill="#f5c84c" r="3.377"/></g></g><g><g><circle cx="18.623" cy="202.623" fill="#87d147" r="3.377"/></g></g><g><g><circle cx="217.623" cy="202.623" fill="#fc657e" r="3.377"/></g></g></g></g></svg>