<svg enable-background="new 0 0 256 256" height="512" viewBox="0 0 256 256" width="512" xmlns="http://www.w3.org/2000/svg"><g id="Layer_73"><g><g><g><path d="m74.907 65.581c0-4.623 3.748-8.371 8.371-8.371h49.814v-33.629c0-4.623-3.748-8.371-8.371-8.371h-89.442c-4.623 0-8.371 3.748-8.371 8.371v124.838c0 4.623 3.748 8.371 8.371 8.371h39.629v-91.209z" fill="#edf4fc"/></g></g><g><g><path d="m122.907 121.091v-13.51c0-4.623 3.748-8.371 8.371-8.371h49.814v-33.629c0-4.623-3.748-8.371-8.371-8.371h-89.442c-4.623 0-8.371 3.748-8.371 8.371v124.838c0 4.623 3.748 8.371 8.371 8.371h39.629v-77.699z" fill="#edf4fc"/></g></g><g><g><path d="m229.093 215.972v-108.391c0-4.624-3.748-8.372-8.371-8.372h-89.442c-4.623 0-8.371 3.748-8.371 8.372v124.837c0 4.624 3.748 8.372 8.371 8.372h72.996z" fill="#edf4fc"/></g></g><g><g><path d="m172.721 57.21h-89.442c-4.623 0-8.371 3.748-8.371 8.372v13.509h106.185v-13.51c0-4.623-3.748-8.371-8.372-8.371z" fill="#f5c84c"/></g></g><g><g><path d="m124.721 15.21h-89.442c-4.623 0-8.371 3.748-8.371 8.372v13.509h106.185v-13.51c0-4.623-3.748-8.371-8.372-8.371z" fill="#f5c84c"/></g></g><g><g><path d="m220.721 99.21h-89.442c-4.623 0-8.371 3.748-8.371 8.372v13.509h106.185v-13.509c0-4.624-3.748-8.372-8.372-8.372z" fill="#f5c84c"/></g></g><g><g><path d="m229.093 215.972h-16.446c-4.623 0-8.371 3.748-8.371 8.372v16.446z" fill="#c7d7e5"/></g></g><g><g><path d="m113.5 98.591h-10.5c-1.381 0-2.5-1.119-2.5-2.5s1.119-2.5 2.5-2.5h10.5c1.381 0 2.5 1.119 2.5 2.5s-1.119 2.5-2.5 2.5z"/></g></g><g><g><path d="m113.5 112.591h-10.5c-1.381 0-2.5-1.119-2.5-2.5s1.119-2.5 2.5-2.5h10.5c1.381 0 2.5 1.119 2.5 2.5s-1.119 2.5-2.5 2.5z"/></g></g><g><g><path d="m113.5 126.591h-10.5c-1.381 0-2.5-1.119-2.5-2.5s1.119-2.5 2.5-2.5h10.5c1.381 0 2.5 1.119 2.5 2.5s-1.119 2.5-2.5 2.5z"/></g></g><g><g><path d="m113.5 140.591h-10.5c-1.381 0-2.5-1.119-2.5-2.5s1.119-2.5 2.5-2.5h10.5c1.381 0 2.5 1.119 2.5 2.5s-1.119 2.5-2.5 2.5z"/></g></g><g><g><path d="m113.5 154.591h-10.5c-1.381 0-2.5-1.119-2.5-2.5s1.119-2.5 2.5-2.5h10.5c1.381 0 2.5 1.119 2.5 2.5s-1.119 2.5-2.5 2.5z"/></g></g><g><g><path d="m113.5 168.591h-10.5c-1.381 0-2.5-1.119-2.5-2.5s1.119-2.5 2.5-2.5h10.5c1.381 0 2.5 1.119 2.5 2.5s-1.119 2.5-2.5 2.5z"/></g></g><g><g><path d="m113.5 182.591h-10.5c-1.381 0-2.5-1.119-2.5-2.5s1.119-2.5 2.5-2.5h10.5c1.381 0 2.5 1.119 2.5 2.5s-1.119 2.5-2.5 2.5z"/></g></g><g><g><path d="m93.936 140.591h-1.872c-1.381 0-2.5-1.119-2.5-2.5s1.119-2.5 2.5-2.5h1.872c1.381 0 2.5 1.119 2.5 2.5s-1.119 2.5-2.5 2.5z"/></g></g><g><g><path d="m93.936 126.591h-1.872c-1.381 0-2.5-1.119-2.5-2.5s1.119-2.5 2.5-2.5h1.872c1.381 0 2.5 1.119 2.5 2.5s-1.119 2.5-2.5 2.5z"/></g></g><g><g><path d="m93.936 112.591h-1.872c-1.381 0-2.5-1.119-2.5-2.5s1.119-2.5 2.5-2.5h1.872c1.381 0 2.5 1.119 2.5 2.5s-1.119 2.5-2.5 2.5z"/></g></g><g><g><path d="m93.936 98.591h-1.872c-1.381 0-2.5-1.119-2.5-2.5s1.119-2.5 2.5-2.5h1.872c1.381 0 2.5 1.119 2.5 2.5s-1.119 2.5-2.5 2.5z"/></g></g><g><g><path d="m93.936 154.591h-1.872c-1.381 0-2.5-1.119-2.5-2.5s1.119-2.5 2.5-2.5h1.872c1.381 0 2.5 1.119 2.5 2.5s-1.119 2.5-2.5 2.5z"/></g></g><g><g><path d="m93.936 168.591h-1.872c-1.381 0-2.5-1.119-2.5-2.5s1.119-2.5 2.5-2.5h1.872c1.381 0 2.5 1.119 2.5 2.5s-1.119 2.5-2.5 2.5z"/></g></g><g><g><path d="m93.936 182.591h-1.872c-1.381 0-2.5-1.119-2.5-2.5s1.119-2.5 2.5-2.5h1.872c1.381 0 2.5 1.119 2.5 2.5s-1.119 2.5-2.5 2.5z"/></g></g><g><g><path d="m45.936 56.591h-1.872c-1.381 0-2.5-1.119-2.5-2.5s1.119-2.5 2.5-2.5h1.872c1.381 0 2.5 1.119 2.5 2.5s-1.119 2.5-2.5 2.5z"/></g></g><g><g><path d="m45.936 70.591h-1.872c-1.381 0-2.5-1.119-2.5-2.5s1.119-2.5 2.5-2.5h1.872c1.381 0 2.5 1.119 2.5 2.5s-1.119 2.5-2.5 2.5z"/></g></g><g><g><path d="m45.936 84.591h-1.872c-1.381 0-2.5-1.119-2.5-2.5s1.119-2.5 2.5-2.5h1.872c1.381 0 2.5 1.119 2.5 2.5s-1.119 2.5-2.5 2.5z"/></g></g><g><g><path d="m45.936 98.591h-1.872c-1.381 0-2.5-1.119-2.5-2.5s1.119-2.5 2.5-2.5h1.872c1.381 0 2.5 1.119 2.5 2.5s-1.119 2.5-2.5 2.5z"/></g></g><g><g><path d="m45.936 112.591h-1.872c-1.381 0-2.5-1.119-2.5-2.5s1.119-2.5 2.5-2.5h1.872c1.381 0 2.5 1.119 2.5 2.5s-1.119 2.5-2.5 2.5z"/></g></g><g><g><path d="m45.936 126.591h-1.872c-1.381 0-2.5-1.119-2.5-2.5s1.119-2.5 2.5-2.5h1.872c1.381 0 2.5 1.119 2.5 2.5s-1.119 2.5-2.5 2.5z"/></g></g><g><g><path d="m45.936 140.591h-1.872c-1.381 0-2.5-1.119-2.5-2.5s1.119-2.5 2.5-2.5h1.872c1.381 0 2.5 1.119 2.5 2.5s-1.119 2.5-2.5 2.5z"/></g></g><g><g><path d="m74.281 159.29h-39.002c-5.995 0-10.872-4.877-10.872-10.871v-124.838c0-5.994 4.877-10.871 10.872-10.871h89.442c5.995 0 10.872 4.877 10.872 10.871v33.314c0 1.381-1.119 2.5-2.5 2.5s-2.5-1.119-2.5-2.5v-33.314c0-3.237-2.634-5.871-5.872-5.871h-89.442c-3.238 0-5.872 2.634-5.872 5.871v124.838c0 3.237 2.634 5.871 5.872 5.871h39.002c1.381 0 2.5 1.119 2.5 2.5s-1.119 2.5-2.5 2.5z"/></g></g><g><g><path d="m122.25 201.29h-38.971c-5.995 0-10.872-4.877-10.872-10.871v-124.838c0-5.994 4.877-10.871 10.872-10.871h89.442c5.995 0 10.872 4.877 10.872 10.871v33.435c0 1.381-1.119 2.5-2.5 2.5s-2.5-1.119-2.5-2.5v-33.435c0-3.237-2.634-5.871-5.872-5.871h-89.442c-3.238 0-5.872 2.634-5.872 5.871v124.838c0 3.237 2.634 5.871 5.872 5.871h38.971c1.381 0 2.5 1.119 2.5 2.5s-1.12 2.5-2.5 2.5z"/></g></g><g><g><path d="m65.5 56.591h-10.5c-1.381 0-2.5-1.119-2.5-2.5s1.119-2.5 2.5-2.5h10.5c1.381 0 2.5 1.119 2.5 2.5s-1.119 2.5-2.5 2.5z"/></g></g><g><g><path d="m65.5 70.591h-10.5c-1.381 0-2.5-1.119-2.5-2.5s1.119-2.5 2.5-2.5h10.5c1.381 0 2.5 1.119 2.5 2.5s-1.119 2.5-2.5 2.5z"/></g></g><g><g><path d="m65.5 84.591h-10.5c-1.381 0-2.5-1.119-2.5-2.5s1.119-2.5 2.5-2.5h10.5c1.381 0 2.5 1.119 2.5 2.5s-1.119 2.5-2.5 2.5z"/></g></g><g><g><path d="m65.5 98.591h-10.5c-1.381 0-2.5-1.119-2.5-2.5s1.119-2.5 2.5-2.5h10.5c1.381 0 2.5 1.119 2.5 2.5s-1.119 2.5-2.5 2.5z"/></g></g><g><g><path d="m65.5 112.591h-10.5c-1.381 0-2.5-1.119-2.5-2.5s1.119-2.5 2.5-2.5h10.5c1.381 0 2.5 1.119 2.5 2.5s-1.119 2.5-2.5 2.5z"/></g></g><g><g><path d="m65.5 126.591h-10.5c-1.381 0-2.5-1.119-2.5-2.5s1.119-2.5 2.5-2.5h10.5c1.381 0 2.5 1.119 2.5 2.5s-1.119 2.5-2.5 2.5z"/></g></g><g><g><path d="m65.5 140.591h-10.5c-1.381 0-2.5-1.119-2.5-2.5s1.119-2.5 2.5-2.5h10.5c1.381 0 2.5 1.119 2.5 2.5s-1.119 2.5-2.5 2.5z"/></g></g><g><g><path d="m204.274 243.29h-72.995c-5.995 0-10.872-4.877-10.872-10.871v-124.838c0-5.994 4.877-10.871 10.872-10.871h89.441c5.995 0 10.872 4.877 10.872 10.871v108.392c0 .663-.264 1.299-.732 1.768l-24.818 24.817c-.469.468-1.105.732-1.768.732zm-72.995-141.58c-3.238 0-5.872 2.634-5.872 5.871v124.838c0 3.237 2.634 5.871 5.872 5.871h71.96l23.354-23.353v-107.356c0-3.237-2.634-5.871-5.872-5.871zm97.814 114.263h.01z"/></g></g><g><g><path d="m212.5 140.591h-61.5c-1.381 0-2.5-1.119-2.5-2.5s1.119-2.5 2.5-2.5h61.5c1.381 0 2.5 1.119 2.5 2.5s-1.119 2.5-2.5 2.5z"/></g></g><g><g><path d="m212.5 154.591h-61.5c-1.381 0-2.5-1.119-2.5-2.5s1.119-2.5 2.5-2.5h61.5c1.381 0 2.5 1.119 2.5 2.5s-1.119 2.5-2.5 2.5z"/></g></g><g><g><path d="m212.5 168.591h-61.5c-1.381 0-2.5-1.119-2.5-2.5s1.119-2.5 2.5-2.5h61.5c1.381 0 2.5 1.119 2.5 2.5s-1.119 2.5-2.5 2.5z"/></g></g><g><g><path d="m212.5 182.591h-61.5c-1.381 0-2.5-1.119-2.5-2.5s1.119-2.5 2.5-2.5h61.5c1.381 0 2.5 1.119 2.5 2.5s-1.119 2.5-2.5 2.5z"/></g></g><g><g><path d="m212.5 196.591h-61.5c-1.381 0-2.5-1.119-2.5-2.5s1.119-2.5 2.5-2.5h61.5c1.381 0 2.5 1.119 2.5 2.5s-1.119 2.5-2.5 2.5z"/></g></g><g><g><path d="m212.5 210.591h-61.5c-1.381 0-2.5-1.119-2.5-2.5s1.119-2.5 2.5-2.5h61.5c1.381 0 2.5 1.119 2.5 2.5s-1.119 2.5-2.5 2.5z"/></g></g><g><g><path d="m195 224.591h-44c-1.381 0-2.5-1.119-2.5-2.5s1.119-2.5 2.5-2.5h44c1.381 0 2.5 1.119 2.5 2.5s-1.119 2.5-2.5 2.5z"/></g></g><g><g><path d="m141.936 140.591h-1.871c-1.381 0-2.5-1.119-2.5-2.5s1.119-2.5 2.5-2.5h1.871c1.381 0 2.5 1.119 2.5 2.5s-1.12 2.5-2.5 2.5z"/></g></g><g><g><path d="m141.936 154.591h-1.871c-1.381 0-2.5-1.119-2.5-2.5s1.119-2.5 2.5-2.5h1.871c1.381 0 2.5 1.119 2.5 2.5s-1.12 2.5-2.5 2.5z"/></g></g><g><g><path d="m141.936 168.591h-1.871c-1.381 0-2.5-1.119-2.5-2.5s1.119-2.5 2.5-2.5h1.871c1.381 0 2.5 1.119 2.5 2.5s-1.12 2.5-2.5 2.5z"/></g></g><g><g><path d="m141.936 182.591h-1.871c-1.381 0-2.5-1.119-2.5-2.5s1.119-2.5 2.5-2.5h1.871c1.381 0 2.5 1.119 2.5 2.5s-1.12 2.5-2.5 2.5z"/></g></g><g><g><path d="m141.936 196.591h-1.871c-1.381 0-2.5-1.119-2.5-2.5s1.119-2.5 2.5-2.5h1.871c1.381 0 2.5 1.119 2.5 2.5s-1.12 2.5-2.5 2.5z"/></g></g><g><g><path d="m141.936 210.591h-1.871c-1.381 0-2.5-1.119-2.5-2.5s1.119-2.5 2.5-2.5h1.871c1.381 0 2.5 1.119 2.5 2.5s-1.12 2.5-2.5 2.5z"/></g></g><g><g><path d="m141.936 224.591h-1.871c-1.381 0-2.5-1.119-2.5-2.5s1.119-2.5 2.5-2.5h1.871c1.381 0 2.5 1.119 2.5 2.5s-1.12 2.5-2.5 2.5z"/></g></g><g><g><path d="m180.375 81.591h-104.75c-1.381 0-2.5-1.119-2.5-2.5s1.119-2.5 2.5-2.5h104.75c1.381 0 2.5 1.119 2.5 2.5s-1.119 2.5-2.5 2.5z"/></g></g><g><g><path d="m132.333 39.591h-104.708c-1.381 0-2.5-1.119-2.5-2.5s1.119-2.5 2.5-2.5h104.708c1.381 0 2.5 1.119 2.5 2.5s-1.119 2.5-2.5 2.5z"/></g></g><g><g><path d="m228.042 123.591h-104.084c-1.381 0-2.5-1.119-2.5-2.5s1.119-2.5 2.5-2.5h104.083c1.381 0 2.5 1.119 2.5 2.5s-1.118 2.5-2.499 2.5z"/></g></g><g><g><path d="m204.274 242.688c-1.381 0-2.5-1.119-2.5-2.5v-15.844c0-5.994 4.877-10.871 10.872-10.871h15.875c1.381 0 2.5 1.119 2.5 2.5s-1.119 2.5-2.5 2.5h-15.875c-3.238 0-5.872 2.634-5.872 5.871v15.844c0 1.38-1.119 2.5-2.5 2.5z"/></g></g><g><g><path d="m172.705 26.882c-4.498-.838-8.043-4.31-8.898-8.716-.043-.221-.352-.221-.395 0-.855 4.406-4.4 7.879-8.898 8.716-.226.042-.226.345 0 .387 4.498.838 8.043 4.31 8.898 8.717.043.221.352.221.395 0 .855-4.406 4.4-7.879 8.898-8.717.226-.042.226-.344 0-.387z" fill="#f5c84c"/></g></g><g><g><path d="m208.875 78.933c-3.315-.617-5.927-3.176-6.557-6.424-.032-.163-.259-.163-.291 0-.63 3.247-3.242 5.806-6.557 6.424-.166.031-.166.254 0 .285 3.315.617 5.927 3.177 6.557 6.424.032.163.259.163.291 0 .63-3.247 3.242-5.806 6.557-6.424.167-.031.167-.254 0-.285z" fill="#fc657e"/></g></g><g><g><path d="m89.442 225.198h2.33v-2.33c0-1.744 1.413-3.157 3.157-3.157s3.157 1.413 3.157 3.157v2.33h2.329c1.744 0 3.157 1.413 3.157 3.157s-1.413 3.157-3.157 3.157h-2.329v2.33c0 1.744-1.413 3.157-3.157 3.157s-3.157-1.413-3.157-3.157v-2.33h-2.33c-1.744 0-3.157-1.413-3.157-3.157s1.413-3.157 3.157-3.157z" fill="#70d6f9"/></g></g><g><g><circle cx="113.721" cy="252.623" fill="#f5c84c" r="3.377"/></g></g><g><g><circle cx="143.721" cy="3.377" fill="#87d147" r="3.377"/></g></g></g></g></svg>