<svg enable-background="new 0 0 256 256" height="512" viewBox="0 0 256 256" width="512" xmlns="http://www.w3.org/2000/svg"><g id="Layer_83"><g><g><g><path d="m164.061 165.638 16.421 16.421c.481-2.29 1.603-4.472 3.381-6.25s3.96-2.9 6.25-3.381l-16.421-16.421c-1.469 1.713-2.99 3.397-4.612 5.019s-3.306 3.143-5.019 4.612z" fill="#c7d7e5"/></g></g><g><g><circle cx="106.822" cy="98.767" fill="#edf4fc" r="88.048"/></g></g><g><g><circle cx="106.822" cy="98.767" fill="#9be5f9" r="74.898"/></g></g><g><g><path d="m106.822 189.271c-23.188 0-46.375-8.826-64.027-26.479-35.305-35.303-35.305-92.748 0-128.052 35.304-35.305 92.749-35.305 128.054 0 35.305 35.304 35.305 92.749 0 128.053-17.653 17.652-40.84 26.478-64.027 26.478zm0-176.051c-22.851 0-44.333 8.898-60.492 25.056-16.158 16.158-25.056 37.64-25.056 60.491s8.898 44.333 25.056 60.491c16.158 16.157 37.641 25.056 60.492 25.056s44.333-8.898 60.492-25.056c16.157-16.158 25.057-37.641 25.057-60.491s-8.899-44.333-25.057-60.491c-16.159-16.158-37.641-25.056-60.492-25.056z"/></g></g><g><g><path d="m106.822 176.128c-19.82 0-39.64-7.544-54.729-22.633-30.177-30.178-30.177-79.279 0-109.457s79.281-30.178 109.457 0c30.177 30.178 30.177 79.279 0 109.457-15.088 15.089-34.908 22.633-54.728 22.633zm0-149.726c-18.54 0-37.079 7.058-51.193 21.171-28.227 28.229-28.227 74.158 0 102.387 28.229 28.229 74.158 28.228 102.386 0 28.227-28.229 28.227-74.158 0-102.387-14.115-14.113-32.654-21.171-51.193-21.171z"/></g></g><g><g><path d="m155.573 89.622h-6.239c-.913 0-1.715-.612-1.946-1.495-.977-3.735-2.455-7.265-4.36-10.518-.462-.789-.328-1.789.318-2.435l4.414-4.415c.788-.788.788-2.066 0-2.854l-10.079-10.079c-.788-.788-2.066-.788-2.854 0l-4.414 4.415c-.646.646-1.646.779-2.435.317-3.252-1.904-6.783-3.383-10.517-4.36-.883-.231-1.495-1.033-1.495-1.945v-6.239c0-1.114-.904-2.018-2.018-2.018h-14.253c-1.115 0-2.018.904-2.018 2.018v6.239c0 .913-.612 1.714-1.495 1.945-3.735.977-7.265 2.456-10.517 4.36-.788.462-1.789.329-2.435-.317l-4.414-4.415c-.788-.788-2.066-.788-2.854 0l-10.079 10.081c-.788.788-.788 2.066 0 2.854l4.414 4.415c.646.646.779 1.646.318 2.435-1.905 3.252-3.383 6.783-4.36 10.518-.231.883-1.033 1.495-1.946 1.495h-6.239c-1.115 0-2.018.903-2.018 2.018v14.253c0 1.115.904 2.019 2.018 2.019h6.239c.913 0 1.715.612 1.946 1.495.977 3.735 2.455 7.265 4.36 10.517.462.789.328 1.789-.318 2.435l-4.414 4.414c-.788.788-.788 2.066 0 2.854l10.078 10.078c.788.788 2.066.788 2.854 0l4.414-4.414c.646-.646 1.646-.779 2.435-.318 3.252 1.905 6.783 3.383 10.517 4.36.883.231 1.495 1.033 1.495 1.946v6.239c0 1.115.904 2.019 2.018 2.019h14.253c1.115 0 2.018-.904 2.018-2.019v-6.239c0-.913.612-1.715 1.495-1.946 3.735-.977 7.265-2.455 10.517-4.36.788-.461 1.789-.328 2.435.318l4.414 4.414c.788.788 2.066.788 2.854 0l10.079-10.078c.788-.789.788-2.066 0-2.854l-4.414-4.414c-.646-.646-.779-1.646-.318-2.435 1.905-3.252 3.383-6.782 4.36-10.517.231-.883 1.033-1.495 1.946-1.495h6.239c1.115 0 2.018-.904 2.018-2.019v-14.255c.001-1.115-.903-2.018-2.017-2.018zm-48.751 37.825c-15.84 0-28.68-12.84-28.68-28.68 0-15.839 12.841-28.68 28.68-28.68 15.84 0 28.68 12.841 28.68 28.68s-12.841 28.68-28.68 28.68z" fill="#f5c84c"/></g></g><g><g><path d="m183.863 175.808c-4.876 4.876-4.876 12.782 0 17.658l48.158 48.158c4.876 4.876 12.782 4.876 17.658 0s4.876-12.782 0-17.658l-48.158-48.158c-4.876-4.876-12.782-4.876-17.658 0z" fill="#fc657e"/></g></g><g><g><path d="m189.838 187.458h24.972v13.621h-24.972z" fill="#f98fa6" transform="matrix(.707 -.707 .707 .707 -78.11 199.964)"/></g></g><g><g><path d="m27.523 37.904c-4.498-.838-8.043-4.31-8.898-8.716-.043-.221-.352-.221-.395 0-.855 4.406-4.4 7.879-8.898 8.716-.226.042-.226.345 0 .387 4.498.838 8.043 4.31 8.898 8.717.043.221.352.221.395 0 .855-4.406 4.4-7.879 8.898-8.717.226-.043.226-.345 0-.387z" fill="#fc657e"/></g></g><g><g><path d="m223.78 96.84c-3.959-.737-7.08-3.794-7.833-7.673-.038-.195-.31-.195-.348 0-.753 3.879-3.873 6.936-7.833 7.673-.199.037-.199.303 0 .34 3.959.737 7.08 3.794 7.833 7.673.038.195.31.195.348 0 .753-3.879 3.873-6.936 7.833-7.673.199-.036.199-.303 0-.34z" fill="#f5c84c"/></g></g><g><g><path d="m158.105 201.737h-2.33v-2.33c0-1.744-1.413-3.157-3.157-3.157s-3.157 1.413-3.157 3.157v2.33h-2.329c-1.744 0-3.157 1.413-3.157 3.157s1.413 3.157 3.157 3.157h2.329v2.33c0 1.744 1.413 3.157 3.157 3.157s3.157-1.413 3.157-3.157v-2.33h2.33c1.744 0 3.157-1.413 3.157-3.157s-1.413-3.157-3.157-3.157z" fill="#70d6f9"/></g></g><g><g><circle cx="118.826" cy="202.627" fill="#87d147" r="3.377"/></g></g><g><g><circle cx="3.541" cy="72.627" fill="#f5c84c" r="3.377"/></g></g><g><g><path d="m240.85 247.774c-3.837 0-7.675-1.461-10.596-4.383l-48.158-48.158c-5.843-5.843-5.843-15.35 0-21.192 5.841-5.843 15.349-5.844 21.193 0l48.157 48.157c5.844 5.843 5.844 15.351 0 21.193-2.921 2.922-6.759 4.383-10.596 4.383zm-48.158-73.118c-2.558 0-5.114.974-7.062 2.92-3.894 3.894-3.894 10.229 0 14.122l48.158 48.158c3.894 3.892 10.227 3.894 14.122 0 3.894-3.894 3.894-10.229 0-14.123l-48.157-48.157c-1.946-1.946-4.504-2.92-7.061-2.92z"/></g></g><g><g><path d="m180.314 184.391c-.64 0-1.279-.244-1.768-.732l-15.957-15.957c-.977-.977-.977-2.559 0-3.535s2.559-.977 3.535 0l15.957 15.957c.977.977.977 2.559 0 3.535-.487.487-1.127.732-1.767.732z"/></g></g><g><g><path d="m189.977 174.79c-.64 0-1.279-.244-1.768-.732l-15.933-15.933c-.977-.977-.977-2.559 0-3.535s2.559-.977 3.535 0l15.933 15.933c.977.977.977 2.559 0 3.535-.488.488-1.128.732-1.767.732z"/></g></g><g><g><path d="m198.519 210.206c-.64 0-1.279-.244-1.768-.732-.977-.976-.977-2.559 0-3.535l17.124-17.125c.977-.977 2.559-.977 3.535 0 .977.976.977 2.559 0 3.535l-17.124 17.125c-.488.488-1.128.732-1.767.732z"/></g></g><g><g><path d="m189.188 200.272c-.64 0-1.279-.244-1.768-.732-.977-.977-.977-2.559 0-3.535l16.839-16.839c.977-.977 2.559-.977 3.535 0s.977 2.559 0 3.535l-16.839 16.839c-.487.488-1.127.732-1.767.732z"/></g></g><g><g><path d="m113.948 152.036h-14.253c-2.492 0-4.519-2.027-4.519-4.519v-5.865c-3.652-.99-7.161-2.445-10.443-4.33l-4.15 4.15c-1.762 1.762-4.628 1.762-6.39 0l-10.078-10.078c-1.761-1.763-1.761-4.629 0-6.39l4.15-4.15c-1.886-3.284-3.341-6.795-4.33-10.443h-5.865c-2.492 0-4.519-2.027-4.519-4.519v-14.252c0-2.491 2.027-4.518 4.519-4.518h5.865c.989-3.649 2.443-7.158 4.329-10.443l-4.149-4.15c-1.762-1.762-1.762-4.628 0-6.39l10.078-10.078c1.762-1.762 4.628-1.762 6.39 0l4.15 4.149c3.286-1.887 6.795-3.341 10.443-4.329v-5.865c0-2.491 2.027-4.519 4.519-4.519h14.253c2.491 0 4.518 2.027 4.518 4.519v5.865c3.646.987 7.157 2.442 10.444 4.329l4.149-4.149c1.763-1.763 4.629-1.761 6.39 0l10.078 10.078c1.762 1.762 1.762 4.628 0 6.39l-4.149 4.149c1.887 3.288 3.342 6.798 4.329 10.444h5.865c2.491 0 4.519 2.026 4.519 4.518v14.253c0 2.491-2.027 4.519-4.519 4.519h-5.865c-.987 3.646-2.442 7.157-4.329 10.443l4.149 4.15c1.761 1.761 1.762 4.627.001 6.389l-10.079 10.079c-1.761 1.761-4.627 1.763-6.39 0l-4.15-4.149c-3.282 1.884-6.792 3.339-10.443 4.329v5.865c0 2.491-2.027 4.518-4.518 4.518zm-13.771-5h13.29v-5.758c0-2.053 1.383-3.848 3.363-4.364 3.464-.907 6.791-2.286 9.885-4.099 1.771-1.034 4.018-.742 5.468.709l4.071 4.072 9.397-9.397-4.073-4.073c-1.451-1.453-1.741-3.7-.707-5.466 1.813-3.098 3.192-6.424 4.098-9.887.52-1.98 2.314-3.362 4.365-3.362h5.757v-13.289h-5.757c-2.051 0-3.846-1.382-4.364-3.361-.906-3.463-2.285-6.789-4.099-9.889-1.034-1.764-.744-4.012.705-5.464l4.075-4.074-9.397-9.397-4.073 4.073c-1.45 1.453-3.699 1.742-5.466.707-3.097-1.813-6.424-3.192-9.886-4.098-1.98-.52-3.362-2.313-3.362-4.364v-5.758h-13.29v5.758c0 2.051-1.382 3.845-3.361 4.363-3.464.906-6.79 2.285-9.888 4.099-1.766 1.033-4.015.744-5.466-.707l-4.074-4.073-9.397 9.397 4.073 4.073c1.451 1.452 1.742 3.699.708 5.465-1.813 3.098-3.192 6.424-4.099 9.888-.518 1.979-2.313 3.362-4.364 3.362h-5.757v13.289h5.757c2.052 0 3.847 1.383 4.364 3.362.906 3.463 2.285 6.789 4.099 9.886 1.034 1.769.743 4.016-.707 5.467l-4.074 4.073 9.397 9.397 4.074-4.073c1.449-1.45 3.697-1.741 5.464-.709 3.096 1.813 6.422 3.192 9.888 4.1 1.979.517 3.362 2.312 3.362 4.364v5.758zm55.395-54.914h.01zm-48.75 37.824c-17.193 0-31.18-13.987-31.18-31.18s13.987-31.181 31.18-31.181 31.18 13.987 31.18 31.181c0 17.193-13.987 31.18-31.18 31.18zm0-57.36c-14.436 0-26.18 11.744-26.18 26.181 0 14.436 11.745 26.18 26.18 26.18 14.436 0 26.18-11.744 26.18-26.18 0-14.437-11.744-26.181-26.18-26.181z"/></g></g><g><g><g><path d="m104.366 109.773c-.64 0-1.279-.244-1.768-.732l-8.531-8.53c-.977-.976-.977-2.559 0-3.535.976-.977 2.56-.977 3.535 0l6.763 6.763 11.841-11.84c.976-.977 2.559-.977 3.536 0 .976.977.976 2.56 0 3.535l-13.608 13.607c-.488.488-1.129.732-1.768.732z"/></g></g></g></g></g></svg>