<svg enable-background="new 0 0 256 256" height="512" viewBox="0 0 256 256" width="512" xmlns="http://www.w3.org/2000/svg"><g id="Layer_59"><g><g><g><path d="m27.714 74.906v173.607c0 2.754 2.233 4.987 4.987 4.987h161.588c2.754 0 4.987-2.233 4.987-4.987v-173.607z" fill="#edf4fc"/></g></g><g><g><path d="m121.78 189.5h-7.561c-1.502 0-2.72 1.218-2.72 2.72v7.561c0 1.502 1.218 2.72 2.72 2.72h7.561c1.502 0 2.72-1.218 2.72-2.72v-7.561c0-1.502-1.218-2.72-2.72-2.72z" fill="#70d6f9"/></g></g><g><g><path d="m96.78 207h-7.56c-1.502 0-2.72 1.218-2.72 2.72v7.561c0 1.502 1.218 2.72 2.72 2.72h7.561c1.502 0 2.72-1.218 2.72-2.72v-7.561c-.001-1.502-1.219-2.72-2.721-2.72z" fill="#70d6f9"/></g></g><g><g><path d="m139.78 224.5h-7.561c-1.502 0-2.72 1.218-2.72 2.72v7.561c0 1.502 1.218 2.72 2.72 2.72h7.561c1.502 0 2.72-1.218 2.72-2.72v-7.561c0-1.502-1.218-2.72-2.72-2.72z" fill="#70d6f9"/></g></g><g><g><path d="m213.852 18.188h-161.589c-2.754 0-4.987 2.233-4.987 4.987v14.7h171.563v-14.7c0-2.755-2.233-4.987-4.987-4.987z" fill="#5290db"/></g></g><g><g><path d="m194.289 55.219h-161.588c-2.754 0-4.987 2.233-4.987 4.987v14.7h171.563v-14.7c-.001-2.754-2.234-4.987-4.988-4.987z" fill="#5290db"/></g></g><g><g><path d="m68.37 18.188h-16.107c-2.754 0-4.987 2.233-4.987 4.987v14.7h21.094z" fill="#fc657e"/></g></g><g><g><path d="m47.276 37.875v17.344h147.013c2.754 0 4.987 2.233 4.987 4.987v156.263h14.575c2.754 0 4.987-2.233 4.987-4.987v-173.607z" fill="#c7d7e5"/></g></g><g><g><path d="m48.807 55.219h-16.106c-2.754 0-4.987 2.233-4.987 4.987v14.7h21.094v-19.687z" fill="#fc657e"/></g></g><g><g><path d="m165.995 67.563h-104.062c-1.381 0-2.5-1.119-2.5-2.5s1.119-2.5 2.5-2.5h104.063c1.381 0 2.5 1.119 2.5 2.5s-1.12 2.5-2.501 2.5z"/></g></g><g><g><path d="m188.297 67.563h-10.205c-1.381 0-2.5-1.119-2.5-2.5s1.119-2.5 2.5-2.5h10.205c1.381 0 2.5 1.119 2.5 2.5s-1.119 2.5-2.5 2.5z"/></g></g><g><g><path d="m194.289 256h-161.588c-4.129 0-7.487-3.358-7.487-7.487v-173.607c0-1.381 1.119-2.5 2.5-2.5s2.5 1.119 2.5 2.5v173.606c0 1.371 1.116 2.487 2.487 2.487h161.588c1.371 0 2.487-1.116 2.487-2.487v-173.606c0-1.381 1.119-2.5 2.5-2.5s2.5 1.119 2.5 2.5v173.606c0 4.13-3.358 7.488-7.487 7.488z"/></g></g><g><g><path d="m218.839 40.375h-171.563c-1.381 0-2.5-1.119-2.5-2.5v-14.7c0-4.129 3.358-7.487 7.487-7.487h161.588c4.129 0 7.487 3.358 7.487 7.487v14.7c.001 1.381-1.118 2.5-2.499 2.5zm-169.063-5h166.563v-12.2c0-1.371-1.116-2.487-2.487-2.487h-161.588c-1.371 0-2.487 1.116-2.487 2.487v12.2z"/></g></g><g><g><path d="m185.558 30.531h-104.063c-1.381 0-2.5-1.119-2.5-2.5s1.119-2.5 2.5-2.5h104.063c1.381 0 2.5 1.119 2.5 2.5s-1.12 2.5-2.5 2.5z"/></g></g><g><g><path d="m207.859 30.531h-10.205c-1.381 0-2.5-1.119-2.5-2.5s1.119-2.5 2.5-2.5h10.205c1.381 0 2.5 1.119 2.5 2.5s-1.119 2.5-2.5 2.5z"/></g></g><g><g><path d="m238.608 91.883c-2.473-.46-4.421-2.37-4.891-4.792-.024-.122-.193-.122-.217 0-.47 2.422-2.419 4.331-4.891 4.792-.124.023-.124.189 0 .213 2.473.461 4.421 2.37 4.891 4.792.024.122.193.122.217 0 .47-2.422 2.419-4.331 4.891-4.792.124-.023.124-.19 0-.213z" fill="#87d147"/></g></g><g><g><path d="m226.23 248.181c-3.959.737-7.08 3.794-7.833 7.673-.038.195-.31.195-.348 0-.753-3.879-3.873-6.936-7.833-7.673-.199-.037-.199-.303 0-.34 3.959-.737 7.08-3.794 7.833-7.673.038-.195.31-.195.348 0 .753 3.879 3.873 6.936 7.833 7.673.199.036.199.303 0 .34z" fill="#f5c84c"/></g></g><g><g><path d="m28.365 27.242h-1.824v1.824c0 1.366-1.107 2.473-2.473 2.473s-2.473-1.107-2.473-2.473v-1.824h-1.824c-1.366 0-2.473-1.107-2.473-2.473s1.107-2.473 2.473-2.473h1.824v-1.824c0-1.366 1.107-2.473 2.473-2.473s2.473 1.107 2.473 2.473v1.824h1.824c1.366 0 2.473 1.107 2.473 2.473s-1.107 2.473-2.473 2.473z" fill="#70d6f9"/></g></g><g><g><circle cx="40.276" cy="3.377" fill="#fc657e" r="3.377"/></g></g><g><g><circle cx="230.276" cy="226.373" fill="#70d6f9" r="3.377"/></g></g><g><g><path d="m199.276 77.406h-171.562c-1.381 0-2.5-1.119-2.5-2.5v-14.7c0-4.129 3.358-7.487 7.487-7.487h161.588c4.129 0 7.487 3.358 7.487 7.487v14.7c0 1.381-1.119 2.5-2.5 2.5zm-169.062-5h166.563v-12.2c0-1.371-1.116-2.487-2.487-2.487h-161.589c-1.371 0-2.487 1.116-2.487 2.487z"/></g></g><g><g><path d="m68.37 39.375c-1.381 0-2.5-1.119-2.5-2.5v-18.156c0-1.381 1.119-2.5 2.5-2.5s2.5 1.119 2.5 2.5v18.156c0 1.381-1.119 2.5-2.5 2.5z"/></g></g><g><g><path d="m213.852 218.969h-13.727c-1.381 0-2.5-1.119-2.5-2.5s1.119-2.5 2.5-2.5h13.727c1.371 0 2.487-1.116 2.487-2.487v-173.607c0-1.381 1.119-2.5 2.5-2.5s2.5 1.119 2.5 2.5v173.606c0 4.129-3.359 7.488-7.487 7.488z"/></g></g><g><g><path d="m47.276 56.938c-1.381 0-2.5-1.119-2.5-2.5v-16.563c0-1.381 1.119-2.5 2.5-2.5s2.5 1.119 2.5 2.5v16.563c0 1.381-1.119 2.5-2.5 2.5z"/></g></g><g><g><path d="m48.808 76.906c-1.381 0-2.5-1.119-2.5-2.5v-18.718c0-1.381 1.119-2.5 2.5-2.5s2.5 1.119 2.5 2.5v18.718c0 1.381-1.12 2.5-2.5 2.5z"/></g></g><g><g><g><path d="m153.075 109.754h-2.879c-.421 0-.791-.282-.898-.69-.451-1.724-1.133-3.353-2.012-4.854-.213-.364-.152-.825.147-1.124l2.037-2.037c.364-.364.364-.954 0-1.317l-4.651-4.651c-.364-.364-.953-.364-1.317 0l-2.037 2.037c-.298.298-.76.36-1.124.147-1.501-.879-3.13-1.561-4.854-2.012-.407-.107-.69-.477-.69-.898v-2.879c0-.514-.417-.931-.931-.931h-6.578c-.514 0-.931.417-.931.931v2.879c0 .421-.282.791-.69.898-1.724.451-3.353 1.133-4.854 2.012-.364.213-.825.152-1.124-.147l-2.037-2.037c-.364-.364-.954-.364-1.317 0l-4.651 4.651c-.364.364-.364.954 0 1.317l2.037 2.037c.298.298.36.76.147 1.124-.879 1.501-1.561 3.13-2.012 4.854-.107.407-.477.69-.898.69h-2.879c-.514 0-.931.417-.931.931v6.578c0 .514.417.931.931.931h2.879c.421 0 .791.282.898.69.451 1.724 1.133 3.353 2.012 4.854.213.364.152.825-.147 1.124l-2.037 2.037c-.364.364-.364.954 0 1.317l4.651 4.651c.364.364.954.364 1.317 0l2.037-2.037c.298-.298.76-.36 1.124-.147 1.501.879 3.13 1.561 4.854 2.012.407.107.69.477.69.898v2.879c0 .514.417.931.931.931h6.578c.514 0 .931-.417.931-.931v-2.879c0-.421.282-.791.69-.898 1.724-.451 3.353-1.133 4.854-2.012.364-.213.825-.152 1.124.147l2.037 2.037c.364.364.953.364 1.317 0l4.651-4.651c.364-.364.364-.954 0-1.317l-2.037-2.037c-.298-.298-.36-.76-.147-1.124.879-1.501 1.561-3.13 2.012-4.854.107-.407.477-.69.898-.69h2.879c.514 0 .931-.417.931-.931v-6.578c0-.514-.417-.931-.931-.931zm-22.5 15.183c-6.055 0-10.963-4.908-10.963-10.963s4.908-10.963 10.963-10.963 10.963 4.908 10.963 10.963-4.908 10.963-10.963 10.963z" fill="#fcdd86"/></g></g></g><g><g><g><path d="m134.999 135.421h-.204v1.053c0 .515-.417.931-.931.931h-6.578c-.514 0-.931-.417-.931-.931v-2.879c0-.421-.282-.791-.69-.898-1.724-.451-3.353-1.133-4.854-2.012-.364-.213-.825-.151-1.124.147l-2.037 2.037c-.364.364-.954.364-1.317 0l-.792-.792c1.957 2.596 3.13 5.816 3.13 9.318 0 8.569-6.947 15.516-15.516 15.516s-15.516-6.947-15.516-15.516 6.947-15.516 15.516-15.516c3.502 0 6.721 1.174 9.318 3.131l-.792-.792c-.364-.364-.364-.954 0-1.317l2.037-2.037c.298-.298.36-.76.147-1.124-.879-1.501-1.561-3.13-2.012-4.854-.107-.407-.477-.69-.898-.69h-2.879c-.514 0-.932-.417-.932-.931v-6.578c0-.514.417-.931.932-.931h1.053v-.204c0-.728-.59-1.318-1.318-1.318h-9.31c-.728 0-1.318.59-1.318 1.318v4.075c0 .596-.4 1.12-.976 1.271-2.439.638-4.745 1.604-6.87 2.848-.515.301-1.168.215-1.59-.208l-2.883-2.883c-.515-.515-1.35-.515-1.864 0l-6.583 6.583c-.515.515-.515 1.35 0 1.864l2.883 2.884c.422.422.509 1.075.207 1.59-1.244 2.124-2.21 4.43-2.848 6.87-.151.577-.675.976-1.271.976h-4.075c-.728 0-1.318.59-1.318 1.318v9.31c0 .728.59 1.318 1.318 1.318h4.075c.596 0 1.12.4 1.271.976.638 2.44 1.604 4.745 2.848 6.87.302.515.215 1.168-.207 1.59l-2.883 2.883c-.515.515-.515 1.35 0 1.864l6.583 6.583c.515.515 1.35.515 1.864 0l2.883-2.883c.422-.422 1.075-.509 1.59-.208 2.124 1.244 4.43 2.21 6.87 2.848.577.151.976.675.976 1.271v4.075c0 .728.59 1.318 1.318 1.318h9.31c.728 0 1.318-.59 1.318-1.318v-4.075c0-.596.4-1.12.976-1.271 2.439-.638 4.746-1.604 6.87-2.848.515-.301 1.168-.214 1.59.208l2.883 2.883c.515.515 1.35.515 1.864 0l6.583-6.583c.515-.515.515-1.35 0-1.864l-2.883-2.883c-.422-.422-.509-1.076-.207-1.59 1.244-2.124 2.21-4.43 2.848-6.87.151-.577.675-.976 1.271-.976h4.075c.728 0 1.318-.59 1.318-1.318v-9.31c.001-.729-.59-1.319-1.318-1.319z" fill="#f5c84c"/></g></g></g><g><g><g><path d="m133.864 139.905h-6.578c-1.892 0-3.431-1.539-3.431-3.432v-1.702c-1.112-.359-2.192-.808-3.232-1.341l-1.205 1.205c-1.336 1.337-3.513 1.337-4.851.003l-4.653-4.654c-1.338-1.341-1.336-3.517 0-4.853l1.205-1.205c-.533-1.039-.981-2.12-1.341-3.232h-1.702c-1.893 0-3.432-1.539-3.432-3.431v-6.578c0-1.893 1.539-3.432 3.432-3.432h1.703c.358-1.112.807-2.192 1.339-3.231l-1.204-1.205c-1.338-1.341-1.336-3.517 0-4.853l4.651-4.651c.648-.648 1.51-1.006 2.427-1.006h.002c.917.001 1.779.358 2.427 1.008l1.202 1.202c1.04-.533 2.122-.981 3.232-1.34v-1.702c0-1.893 1.539-3.432 3.431-3.432h6.578c1.893 0 3.432 1.539 3.432 3.432v1.702c1.109.358 2.19.807 3.232 1.34l1.204-1.204c.648-.648 1.51-1.006 2.427-1.006h.002c.917.001 1.779.358 2.427 1.008l4.648 4.649c.647.645 1.005 1.507 1.006 2.424 0 .917-.356 1.78-1.006 2.429l-1.204 1.204c.533 1.041.981 2.122 1.34 3.232h1.702c1.893 0 3.432 1.539 3.432 3.432v6.578c0 1.892-1.539 3.431-3.432 3.431h-1.702c-.357 1.109-.807 2.19-1.34 3.232l1.204 1.205c.647.645 1.005 1.507 1.006 2.424 0 .917-.356 1.78-1.006 2.429l-4.651 4.651c-1.336 1.337-3.513 1.337-4.851.003l-1.207-1.207c-1.039.532-2.119.98-3.231 1.339v1.703c0 1.893-1.539 3.432-3.432 3.432zm-5.009-5h3.44v-1.312c0-1.559 1.052-2.923 2.558-3.316 1.481-.388 2.902-.977 4.222-1.751 1.347-.788 3.056-.567 4.158.54l.926.925 2.433-2.434-.928-.928c-1.102-1.104-1.321-2.812-.537-4.153.776-1.326 1.365-2.746 1.751-4.224.398-1.509 1.762-2.559 3.317-2.559h1.311v-3.44h-1.311c-1.556 0-2.919-1.05-3.315-2.552-.388-1.484-.977-2.905-1.752-4.229-.787-1.343-.566-3.052.536-4.154l.928-.929-2.433-2.433-.929.928c-1.103 1.102-2.812 1.323-4.154.536-1.323-.775-2.744-1.364-4.223-1.75-1.508-.398-2.558-1.762-2.558-3.317v-1.311h-3.44v1.311c0 1.556-1.05 2.919-2.553 3.315-1.483.388-2.903.977-4.228 1.752-1.345.784-3.05.564-4.152-.533l-.932-.931-2.433 2.433.928.929c1.104 1.1 1.325 2.81.537 4.154-.774 1.32-1.363 2.741-1.751 4.224-.394 1.505-1.758 2.557-3.316 2.557h-1.312v3.44h1.312c1.559 0 2.923 1.052 3.316 2.559.388 1.479.977 2.9 1.751 4.221.786 1.347.565 3.055-.537 4.156l-.928.929 2.433 2.433.929-.928c1.103-1.103 2.809-1.324 4.153-.538 1.323.775 2.744 1.364 4.225 1.752 1.506.394 2.558 1.758 2.558 3.316zm10.84-2.306c.001.001.002.003.004.004zm8.005-3.932.003.003zm5.374-16.413h.01zm-41.124-7.4c.001.001.003.002.004.003zm35.75-3.354c.001.001.002.002.003.003zm-4.65-4.651c.001.001.002.002.003.003zm-27.167 0c.001.001.002.002.002.003zm14.692 30.589c-7.424 0-13.463-6.039-13.463-13.463s6.039-13.463 13.463-13.463 13.463 6.039 13.463 13.463-6.039 13.463-13.463 13.463zm0-21.926c-4.666 0-8.463 3.797-8.463 8.463s3.797 8.463 8.463 8.463 8.463-3.797 8.463-8.463-3.797-8.463-8.463-8.463z"/></g></g></g><g><g><g><path d="m103.156 159.41c-9.935 0-18.017-8.082-18.017-18.017 0-9.934 8.082-18.016 18.017-18.016 3.925 0 7.667 1.257 10.822 3.635.84.633 1.168 1.693.909 2.649.955-.257 2.017.068 2.649.909 2.378 3.155 3.635 6.897 3.635 10.822.001 9.936-8.081 18.018-18.015 18.018zm0-31.032c-7.178 0-13.017 5.839-13.017 13.016 0 7.178 5.839 13.017 13.017 13.017 7.177 0 13.016-5.839 13.016-13.017 0-2.83-.908-5.532-2.627-7.813-.483-.642-.611-1.44-.417-2.159-.718.194-1.517.066-2.159-.417-2.281-1.719-4.983-2.627-7.813-2.627z"/></g></g><g><g><path d="m107.811 177.056h-9.31c-2.105 0-3.818-1.713-3.818-3.818v-3.175c-2.016-.596-3.961-1.402-5.806-2.407l-2.247 2.247c-1.488 1.488-3.909 1.488-5.397.002l-6.585-6.585c-1.488-1.49-1.487-3.912 0-5.399l2.247-2.247c-1.005-1.845-1.812-3.791-2.407-5.806h-3.175c-2.105 0-3.818-1.713-3.818-3.818v-9.31c0-2.105 1.713-3.818 3.818-3.818h3.175c.596-2.015 1.402-3.961 2.407-5.806l-2.247-2.247c-.722-.721-1.118-1.68-1.118-2.699 0-1.021.396-1.979 1.118-2.7l6.583-6.583c1.491-1.489 3.914-1.487 5.399 0l2.247 2.247c1.847-1.006 3.793-1.813 5.806-2.407v-3.175c0-2.105 1.713-3.818 3.818-3.818h9.31c2.105 0 3.818 1.713 3.818 3.818 0 1.381-1.119 2.5-2.5 2.5-.953 0-1.782-.533-2.204-1.318h-7.242v2.894c0 1.733-1.169 3.25-2.843 3.688-2.186.571-4.284 1.441-6.239 2.587-1.494.874-3.396.63-4.622-.597l-2.049-2.048-4.911 4.911 2.048 2.049c1.228 1.227 1.473 3.128.596 4.622-1.143 1.952-2.013 4.052-2.585 6.238-.437 1.674-1.954 2.844-3.689 2.844h-2.894v6.946h2.894c1.735 0 3.253 1.17 3.689 2.846.572 2.186 1.442 4.284 2.586 6.236.875 1.496.63 3.396-.597 4.622l-2.048 2.049 4.911 4.911 2.049-2.048c1.227-1.227 3.126-1.472 4.621-.597 1.953 1.144 4.052 2.014 6.239 2.586 1.674.437 2.844 1.954 2.844 3.689v2.894h6.946v-2.894c0-1.735 1.17-3.253 2.846-3.689 2.185-.572 4.284-1.442 6.238-2.586 1.491-.875 3.393-.631 4.62.597l2.048 2.048 4.912-4.912-2.048-2.048c-1.227-1.226-1.472-3.126-.597-4.621 1.146-1.956 2.016-4.055 2.586-6.238.437-1.675 1.954-2.845 3.689-2.845h2.894v-7.242c-.785-.422-1.318-1.251-1.318-2.204 0-1.381 1.119-2.5 2.5-2.5 2.105 0 3.818 1.713 3.818 3.818v9.31c0 2.105-1.713 3.818-3.818 3.818h-3.175c-.595 2.014-1.401 3.959-2.407 5.806l2.247 2.247c1.487 1.487 1.488 3.909.002 5.397l-6.585 6.585c-1.489 1.488-3.912 1.488-5.399 0l-2.247-2.247c-1.846 1.006-3.792 1.813-5.806 2.407v3.175c0 2.105-1.713 3.818-3.818 3.818zm-12.239-6.746c.001.001.002.001.003.001-.001 0-.002 0-.003-.001zm15.17 0c-.002 0-.002 0-.004.001.001-.001.003-.001.004-.001zm-36.503-21.333c.001.001.001.003.001.004 0-.002 0-.002-.001-.004zm.001-15.166c-.001.001-.001.002-.001.002s0-.001.001-.002z"/></g></g></g><g><g><path d="m121.78 205h-7.561c-2.878 0-5.22-2.342-5.22-5.22v-7.561c0-2.878 2.342-5.22 5.22-5.22h7.561c2.878 0 5.22 2.342 5.22 5.22v7.561c0 2.878-2.342 5.22-5.22 5.22zm-7.56-13c-.121 0-.22.099-.22.22v7.561c0 .121.099.22.22.22h7.561c.121 0 .22-.099.22-.22v-7.561c0-.121-.099-.22-.22-.22z"/></g></g><g><g><path d="m96.78 222.5h-7.56c-2.878 0-5.22-2.342-5.22-5.22v-7.561c0-2.878 2.342-5.22 5.22-5.22h7.561c2.878 0 5.22 2.342 5.22 5.22v7.561c-.001 2.878-2.343 5.22-5.221 5.22zm-7.56-13c-.121 0-.22.099-.22.22v7.561c0 .121.099.22.22.22h7.561c.121 0 .22-.099.22-.22v-7.561c0-.121-.099-.22-.22-.22z"/></g></g><g><g><path d="m139.78 240h-7.561c-2.878 0-5.22-2.342-5.22-5.22v-7.561c0-2.878 2.342-5.22 5.22-5.22h7.561c2.878 0 5.22 2.342 5.22 5.22v7.561c0 2.878-2.342 5.22-5.22 5.22zm-7.56-13c-.121 0-.22.099-.22.22v7.561c0 .121.099.22.22.22h7.561c.121 0 .22-.099.22-.22v-7.561c0-.121-.099-.22-.22-.22z"/></g></g><g><g><path d="m160 198.5h-34.969c-1.381 0-2.5-1.119-2.5-2.5s1.119-2.5 2.5-2.5h34.969c1.381 0 2.5 1.119 2.5 2.5s-1.119 2.5-2.5 2.5z"/></g></g><g><g><path d="m111 198.5h-43c-1.381 0-2.5-1.119-2.5-2.5s1.119-2.5 2.5-2.5h43c1.381 0 2.5 1.119 2.5 2.5s-1.119 2.5-2.5 2.5z"/></g></g><g><g><path d="m160 216h-60.083c-1.381 0-2.5-1.119-2.5-2.5s1.119-2.5 2.5-2.5h60.083c1.381 0 2.5 1.119 2.5 2.5s-1.119 2.5-2.5 2.5z"/></g></g><g><g><path d="m86.043 216h-18.043c-1.381 0-2.5-1.119-2.5-2.5s1.119-2.5 2.5-2.5h18.043c1.381 0 2.5 1.119 2.5 2.5s-1.119 2.5-2.5 2.5z"/></g></g><g><g><path d="m160 233.5h-17.25c-1.381 0-2.5-1.119-2.5-2.5s1.119-2.5 2.5-2.5h17.25c1.381 0 2.5 1.119 2.5 2.5s-1.119 2.5-2.5 2.5z"/></g></g><g><g><path d="m129.188 233.5h-61.188c-1.381 0-2.5-1.119-2.5-2.5s1.119-2.5 2.5-2.5h61.188c1.381 0 2.5 1.119 2.5 2.5s-1.119 2.5-2.5 2.5z"/></g></g></g></g></svg>