<svg enable-background="new 0 0 256 256" height="512" viewBox="0 0 256 256" width="512" xmlns="http://www.w3.org/2000/svg"><g id="Layer_55"><g><g><g><path d="m250.528 194.954h-245.056c-1.641 0-2.972 1.331-2.972 2.972 0 8.26 6.696 17.13 14.956 17.13h221.087c8.26 0 14.956-8.869 14.956-17.13.001-1.641-1.33-2.972-2.971-2.972z" fill="#edf4fc"/></g></g><g><g><path d="m225.663 41.66h-195.326c-4.553 0-8.279 3.725-8.279 8.279v136.737c0 4.553 3.725 8.279 8.279 8.279h195.325c4.553 0 8.279-3.725 8.279-8.279v-136.737c0-4.554-3.725-8.279-8.278-8.279z" fill="#3a70bf"/></g></g><g><g><path d="m158.19 204.19h-60.38c-4.03 0-7.297-3.267-7.297-7.297v-1.939h74.974v1.939c0 4.03-3.267 7.297-7.297 7.297z" fill="#c7d7e5"/></g></g><g><g><path d="m228.135 53.612h-200.27c-3.194 0-5.806 2.613-5.806 5.806v117.084c0 3.194 2.613 5.806 5.806 5.806h200.27c3.194 0 5.806-2.613 5.806-5.806v-117.083c0-3.194-2.612-5.807-5.806-5.807z" fill="#fcdd86"/></g></g><g><g><path d="m22.059 170.357v6.146c0 3.194 2.613 5.806 5.806 5.806h200.27c3.194 0 5.806-2.613 5.806-5.806v-6.146z" fill="#5290db"/></g></g><g><g><path d="m41.617 170.357h-19.558v6.146c0 3.194 2.613 5.806 5.806 5.806h13.752z" fill="#fcdd86"/></g></g><g><g><path d="m101.576 89.135h-18.182c-2.177 0-3.941 1.765-3.941 3.941v37.408c0 2.177 1.765 3.941 3.941 3.941h18.182c2.177 0 3.941-1.765 3.941-3.941v-37.408c0-2.177-1.764-3.941-3.941-3.941z" fill="#5290db"/></g></g><g><g><path d="m79.453 95.928h-6.153c-3.086 0-5.589 2.502-5.589 5.589v20.526c0 3.087 2.502 5.589 5.589 5.589h6.153z" fill="#3a70bf"/></g></g><g><g><path d="m141.814 65.232h-4.335c-2.045 0-3.703 1.658-3.703 3.704v85.689c0 2.045 1.658 3.704 3.703 3.704h4.335c2.045 0 3.703-1.658 3.703-3.704v-85.69c0-2.045-1.658-3.703-3.703-3.703z" fill="#fc657e"/></g></g><g><g><path d="m108.855 87.205c-2.09 1.496-3.338 3.912-3.338 6.495v36.16c0 2.581 1.247 4.998 3.338 6.495l24.921 17.846v-84.842z" fill="#edf4fc"/></g></g><g><g><g><path d="m145.517 99.97v23.62c6.047-.545 10.787-5.621 10.787-11.81s-4.74-11.265-10.787-11.81z" fill="#edf4fc"/></g></g></g><g><g><path d="m163.863 22.796c-3.641-.678-6.511-3.489-7.203-7.056-.035-.179-.285-.179-.32 0-.692 3.567-3.562 6.378-7.203 7.056-.183.034-.183.279 0 .313 3.641.678 6.511 3.489 7.203 7.056.035.179.285.179.32 0 .692-3.567 3.562-6.378 7.203-7.056.183-.034.183-.279 0-.313z" fill="#f5c84c"/></g></g><g><g><path d="m255.89 151.598c-2.913-.542-5.209-2.792-5.762-5.645-.028-.143-.228-.143-.256 0-.554 2.854-2.85 5.103-5.762 5.645-.146.027-.146.223 0 .25 2.913.543 5.209 2.792 5.762 5.645.028.143.228.143.256 0 .554-2.854 2.85-5.103 5.762-5.645.147-.027.147-.223 0-.25z" fill="#fc657e"/></g></g><g><g><path d="m90.442 228.593h2.33v-2.33c0-1.744 1.413-3.157 3.157-3.157s3.157 1.413 3.157 3.157v2.33h2.329c1.744 0 3.157 1.413 3.157 3.157s-1.413 3.157-3.157 3.157h-2.329v2.33c0 1.744-1.413 3.157-3.157 3.157s-3.157-1.413-3.157-3.157v-2.33h-2.33c-1.744 0-3.157-1.413-3.157-3.157s1.413-3.157 3.157-3.157z" fill="#87d147"/></g></g><g><g><circle cx="185.721" cy="27.728" fill="#70d6f9" r="3.377"/></g></g><g><g><circle cx="66.721" cy="226.728" fill="#f5c84c" r="3.377"/></g></g><g><g><path d="m238.544 217.556h-221.088c-9.991 0-17.456-10.364-17.456-19.629 0-3.018 2.455-5.473 5.473-5.473h245.055c3.018 0 5.473 2.455 5.473 5.473-.001 9.265-7.466 19.629-17.457 19.629zm-233.071-20.102c-.261 0-.473.212-.473.473 0 6.765 5.441 14.629 12.456 14.629h221.088c7.015 0 12.456-7.864 12.456-14.629 0-.261-.212-.473-.473-.473z"/></g></g><g><g><path d="m161.078 128.068c-.64 0-1.279-.244-1.768-.732-.977-.977-.977-2.559 0-3.535 6.628-6.629 6.628-17.413 0-24.042-.977-.977-.977-2.559 0-3.535s2.559-.977 3.535 0c8.578 8.577 8.578 22.535 0 31.112-.488.488-1.127.732-1.767.732z"/></g></g><g><g><path d="m168.856 135.847c-.64 0-1.279-.244-1.768-.732-.977-.976-.977-2.559 0-3.535 10.916-10.917 10.916-28.682 0-39.599-.977-.977-.977-2.56 0-3.535.977-.977 2.559-.977 3.535 0 12.866 12.866 12.866 33.803 0 46.669-.487.488-1.127.732-1.767.732z"/></g></g><g><g><path d="m176.28 143.271c-.64 0-1.279-.244-1.768-.732-.977-.977-.977-2.559 0-3.535 15.011-15.012 15.011-39.437 0-54.448-.977-.977-.977-2.559 0-3.535s2.559-.977 3.535 0c16.961 16.961 16.961 44.558 0 61.519-.487.487-1.127.731-1.767.731z"/></g></g><g><g><path d="m225.663 197.454c-1.381 0-2.5-1.119-2.5-2.5s1.119-2.5 2.5-2.5c3.187 0 5.778-2.592 5.778-5.778v-136.738c0-3.187-2.592-5.778-5.778-5.778h-195.326c-3.187 0-5.778 2.592-5.778 5.778v136.737c0 3.187 2.592 5.778 5.778 5.778 1.381 0 2.5 1.119 2.5 2.5s-1.119 2.5-2.5 2.5c-5.943 0-10.778-4.835-10.778-10.778v-136.737c0-5.943 4.835-10.778 10.778-10.778h195.326c5.943 0 10.778 4.835 10.778 10.778v136.737c0 5.944-4.835 10.779-10.778 10.779z"/></g></g><g><g><path d="m158.19 206.69h-60.38c-5.402 0-9.797-4.395-9.797-9.797v-1.425c0-1.381 1.119-2.5 2.5-2.5s2.5 1.119 2.5 2.5v1.425c0 2.645 2.152 4.797 4.797 4.797h60.381c2.645 0 4.797-2.152 4.797-4.797v-1.487c0-1.381 1.119-2.5 2.5-2.5s2.5 1.119 2.5 2.5v1.487c-.001 5.403-4.395 9.797-9.798 9.797z"/></g></g><g><g><path d="m233.941 61.919c-1.381 0-2.5-1.119-2.5-2.5 0-1.823-1.483-3.307-3.307-3.307h-200.269c-1.823 0-3.307 1.483-3.307 3.307 0 1.381-1.119 2.5-2.5 2.5s-2.5-1.119-2.5-2.5c0-4.58 3.727-8.307 8.307-8.307h200.27c4.58 0 8.307 3.727 8.307 8.307-.001 1.381-1.12 2.5-2.501 2.5z"/></g></g><g><g><path d="m228.135 184.81h-200.27c-4.58 0-8.307-3.727-8.307-8.307 0-1.381 1.119-2.5 2.5-2.5s2.5 1.119 2.5 2.5c0 1.823 1.483 3.307 3.307 3.307h200.27c1.823 0 3.307-1.483 3.307-3.307 0-1.381 1.119-2.5 2.5-2.5s2.5 1.119 2.5 2.5c-.001 4.58-3.727 8.307-8.307 8.307z"/></g></g><g><g><path d="m233.563 172.856h-211.063c-1.381 0-2.5-1.119-2.5-2.5s1.119-2.5 2.5-2.5h211.063c1.381 0 2.5 1.119 2.5 2.5s-1.12 2.5-2.5 2.5z"/></g></g><g><g><path d="m41.617 184.25c-1.381 0-2.5-1.119-2.5-2.5v-10.906c0-1.381 1.119-2.5 2.5-2.5s2.5 1.119 2.5 2.5v10.906c0 1.381-1.119 2.5-2.5 2.5z"/></g></g><g><g><path d="m101.576 136.925h-18.182c-3.551 0-6.44-2.89-6.44-6.441v-37.408c0-3.552 2.89-6.441 6.44-6.441h18.183c3.552 0 6.441 2.89 6.441 6.441 0 1.381-1.119 2.5-2.5 2.5s-2.5-1.119-2.5-2.5c0-.795-.646-1.441-1.441-1.441h-18.183c-.794 0-1.44.646-1.44 1.441v37.407c0 .795.646 1.441 1.44 1.441h18.183c.795 0 1.441-.646 1.441-1.441 0-1.381 1.119-2.5 2.5-2.5s2.5 1.119 2.5 2.5c0 3.552-2.89 6.442-6.442 6.442z"/></g></g><g><g><path d="m79.063 130.132h-5.763c-4.46 0-8.089-3.629-8.089-8.089v-20.526c0-4.46 3.629-8.088 8.089-8.088h5.872c1.381 0 2.5 1.119 2.5 2.5s-1.119 2.5-2.5 2.5h-5.872c-1.703 0-3.089 1.385-3.089 3.088v20.526c0 1.703 1.386 3.089 3.089 3.089h5.764c1.381 0 2.5 1.119 2.5 2.5s-1.12 2.5-2.501 2.5z"/></g></g><g><g><path d="m141.813 160.828h-4.335c-3.421 0-6.203-2.783-6.203-6.203v-85.689c0-3.421 2.782-6.204 6.203-6.204h4.335c3.421 0 6.204 2.783 6.204 6.204v85.689c.001 3.42-2.783 6.203-6.204 6.203zm-4.334-93.097c-.663 0-1.203.54-1.203 1.204v85.689c0 .663.54 1.203 1.203 1.203h4.335c.664 0 1.204-.54 1.204-1.203v-85.688c0-.664-.54-1.204-1.204-1.204h-4.335z"/></g></g><g><g><path d="m133.522 156.521c-.504 0-1.013-.151-1.454-.468l-24.67-17.667c-2.743-1.964-4.381-5.151-4.381-8.526v-36.16c0-3.376 1.638-6.563 4.382-8.528l24.651-17.652c1.121-.806 2.684-.547 3.487.577.805 1.122.546 2.684-.577 3.487l-24.65 17.653c-1.436 1.028-2.292 2.696-2.292 4.463v36.16c0 1.766.857 3.434 2.292 4.462l24.671 17.667c1.122.804 1.381 2.365.576 3.488-.488.681-1.256 1.044-2.035 1.044z"/></g></g><g><g><g><path d="m145.737 126.067c-1.259 0-2.343-.948-2.482-2.229-.149-1.373.842-2.606 2.214-2.757 4.752-.519 8.335-4.518 8.335-9.302 0-4.725-3.532-8.719-8.217-9.29-1.37-.167-2.346-1.414-2.179-2.784.166-1.37 1.402-2.354 2.784-2.179 7.189.877 12.611 7.004 12.611 14.253 0 7.341-5.499 13.477-12.792 14.272-.092.012-.183.016-.274.016z"/></g></g></g></g></g></svg>