<svg enable-background="new 0 0 256 256" height="512" viewBox="0 0 256 256" width="512" xmlns="http://www.w3.org/2000/svg"><g id="Layer_58"><g><g><g><path d="m36.5 43.25v185.18c0 2.938 2.382 5.32 5.32 5.32h172.36c2.938 0 5.32-2.382 5.32-5.32v-185.18z" fill="#edf4fc"/></g></g><g><g><circle cx="128" cy="136.677" fill="#fcdd86" r="75.127"/></g></g><g><g><circle cx="128" cy="136.676" fill="#edf4fc" r="66.127"/></g></g><g><g><path d="m88.651 118.731c6.672-14.682 21.26-25.107 38.149-25.747.402-.015.8-.01 1.2-.014v-13.22c-22.933.198-42.617 13.962-51.453 33.652z" fill="#f5c84c"/></g></g><g><g><path d="m167.349 118.731c-6.672-14.682-21.26-25.107-38.149-25.747-.402-.015-.8-.01-1.2-.014v-13.22c22.933.198 42.617 13.962 51.453 33.652z" fill="#fc8c48"/></g></g><g><g><path d="m84.838 134.318c.29-5.523 1.63-10.782 3.813-15.586l-12.103-5.33c-3.189 7.107-4.978 14.98-4.978 23.275 0 9.098 2.142 17.692 5.938 25.319.637 1.28 2.227 1.752 3.454 1.018l7.411-4.435c.935-.56 1.303-1.742.825-2.721-3.154-6.449-4.768-13.788-4.36-21.54z" fill="#70d6f9"/></g></g><g><g><path d="m179.453 113.402-12.103 5.33c2.184 4.805 3.523 10.063 3.813 15.586.407 7.752-1.206 15.091-4.36 21.54-.479.979-.111 2.161.825 2.721l7.411 4.435c1.227.734 2.817.262 3.454-1.018 3.796-7.627 5.938-16.221 5.938-25.319 0-8.296-1.789-16.168-4.978-23.275z" fill="#fc657e"/></g></g><g><g><circle cx="128" cy="136.676" fill="#3a70bf" r="8.612"/></g></g><g><g><path d="m145.824 108.221c-2.359-1.439-5.434-.696-6.874 1.659l-11.118 18.193c.056-.001.111-.009.168-.009 3.724 0 6.887 2.368 8.088 5.677l11.395-18.646c1.44-2.357.698-5.434-1.659-6.874z" fill="#5290db"/></g></g><g><g><path d="m214.18 22.25h-172.36c-2.938 0-5.32 2.382-5.32 5.32v15.68h183v-15.68c0-2.938-2.382-5.32-5.32-5.32z" fill="#5290db"/></g></g><g><g><path d="m59 22.25h-17.18c-2.938 0-5.32 2.382-5.32 5.32v15.68h22.5z" fill="#fc657e"/></g></g><g><g><path d="m29.332 178.883c-2.473-.46-4.421-2.37-4.891-4.792-.024-.122-.193-.122-.217 0-.47 2.422-2.419 4.331-4.892 4.792-.124.023-.124.189 0 .213 2.473.461 4.421 2.37 4.892 4.792.024.122.193.122.217 0 .47-2.422 2.419-4.331 4.891-4.792.124-.023.124-.19 0-.213z" fill="#70d6f9"/></g></g><g><g><circle cx="233.384" cy="76.627" fill="#f5c84c" r="3.377"/></g></g><g><g><path d="m146.952 249.159c-3.464.645-6.194 3.319-6.852 6.713-.033.17-.271.17-.304 0-.659-3.393-3.388-6.068-6.852-6.713-.174-.032-.174-.265 0-.298 3.464-.645 6.194-3.32 6.852-6.713.033-.17.271-.17.304 0 .658 3.393 3.388 6.068 6.852 6.713.174.033.174.266 0 .298z" fill="#f5c84c"/></g></g><g><g><path d="m120.089 9.242h-1.824v1.824c0 1.366-1.107 2.473-2.473 2.473s-2.473-1.107-2.473-2.473v-1.824h-1.824c-1.366 0-2.473-1.107-2.473-2.473s1.107-2.473 2.473-2.473h1.824v-1.823c0-1.366 1.107-2.473 2.473-2.473s2.473 1.107 2.473 2.473v1.824h1.824c1.366 0 2.473 1.107 2.473 2.473s-1.108 2.472-2.473 2.472z" fill="#87d147"/></g></g><g><g><circle cx="147" cy="8.373" fill="#fc657e" r="3.377"/></g></g><g><g><path d="m219.5 45.75h-183c-1.381 0-2.5-1.119-2.5-2.5v-15.681c0-4.312 3.508-7.819 7.82-7.819h172.361c4.312 0 7.819 3.508 7.819 7.819v15.681c0 1.381-1.119 2.5-2.5 2.5zm-180.5-5h178v-13.181c0-1.555-1.265-2.819-2.819-2.819h-172.361c-1.555 0-2.82 1.265-2.82 2.819z"/></g></g><g><g><path d="m184 35.25h-111c-1.381 0-2.5-1.119-2.5-2.5s1.119-2.5 2.5-2.5h111c1.381 0 2.5 1.119 2.5 2.5s-1.119 2.5-2.5 2.5z"/></g></g><g><g><path d="m207.788 35.25h-10.885c-1.381 0-2.5-1.119-2.5-2.5s1.119-2.5 2.5-2.5h10.885c1.381 0 2.5 1.119 2.5 2.5s-1.119 2.5-2.5 2.5z"/></g></g><g><g><path d="m214.181 236.25h-172.361c-4.312 0-7.82-3.508-7.82-7.819v-185.181c0-1.381 1.119-2.5 2.5-2.5s2.5 1.119 2.5 2.5v185.181c0 1.555 1.265 2.819 2.82 2.819h172.361c1.555 0 2.819-1.265 2.819-2.819v-185.181c0-1.381 1.119-2.5 2.5-2.5s2.5 1.119 2.5 2.5v185.181c0 4.311-3.508 7.819-7.819 7.819z"/></g></g><g><g><path d="m59 45.188c-1.381 0-2.5-1.119-2.5-2.5v-20.22c0-1.381 1.119-2.5 2.5-2.5s2.5 1.119 2.5 2.5v20.22c0 1.381-1.119 2.5-2.5 2.5z"/></g></g><g><g><path d="m142.097 170.083h-26.193c-1.381 0-2.5-1.119-2.5-2.5s1.119-2.5 2.5-2.5h26.193c1.381 0 2.5 1.119 2.5 2.5s-1.119 2.5-2.5 2.5z"/></g></g><g><g><path d="m128 214.304c-42.804 0-77.627-34.823-77.627-77.627s34.823-77.628 77.627-77.628 77.627 34.824 77.627 77.628-34.823 77.627-77.627 77.627zm0-150.255c-40.047 0-72.627 32.581-72.627 72.628s32.58 72.627 72.627 72.627 72.627-32.58 72.627-72.627-32.58-72.628-72.627-72.628z"/></g></g><g><g><path d="m128 205.304c-37.841 0-68.627-30.786-68.627-68.627 0-37.842 30.786-68.628 68.627-68.628s68.627 30.786 68.627 68.628c0 37.841-30.786 68.627-68.627 68.627zm0-132.255c-35.084 0-63.627 28.543-63.627 63.628 0 35.084 28.543 63.627 63.627 63.627s63.627-28.543 63.627-63.627c0-35.085-28.543-63.628-63.627-63.628z"/></g></g><g><g><path d="m128 94.958c-1.381 0-2.5-1.119-2.5-2.5v-12.208c0-1.381 1.119-2.5 2.5-2.5s2.5 1.119 2.5 2.5v12.208c0 1.381-1.119 2.5-2.5 2.5z"/></g></g><g><g><path d="m167.765 121.05c-.961 0-1.877-.558-2.289-1.493-.557-1.264.017-2.739 1.28-3.296l11.225-4.942c1.264-.557 2.739.017 3.296 1.28s-.017 2.739-1.28 3.296l-11.225 4.942c-.329.144-.67.213-1.007.213z"/></g></g><g><g><path d="m88.106 120.993c-.336 0-.678-.068-1.006-.213l-10.72-4.72c-1.263-.557-1.836-2.032-1.28-3.296.556-1.263 2.03-1.838 3.296-1.28l10.719 4.721c1.263.557 1.836 2.032 1.28 3.296-.412.935-1.328 1.492-2.289 1.492z"/></g></g><g><g><path d="m128 147.788c-6.127 0-11.112-4.984-11.112-11.111s4.985-11.112 11.112-11.112 11.112 4.985 11.112 11.112-4.985 11.111-11.112 11.111zm0-17.224c-3.37 0-6.112 2.742-6.112 6.112s2.742 6.111 6.112 6.111 6.112-2.741 6.112-6.111-2.742-6.112-6.112-6.112z"/></g></g><g><g><path d="m136.222 136.019c-.445 0-.895-.118-1.302-.367-1.178-.72-1.55-2.259-.829-3.437l11.26-18.424c.718-1.176.346-2.719-.83-3.438-1.174-.716-2.719-.345-3.438.831l-10.95 17.918c-.719 1.179-2.257 1.551-3.437.829-1.178-.72-1.549-2.258-.83-3.437l10.951-17.919c2.155-3.525 6.781-4.645 10.309-2.489 3.53 2.157 4.646 6.782 2.491 10.312l-11.261 18.424c-.47.772-1.293 1.197-2.134 1.197z"/></g></g><g><g><path d="m79.703 165.858c-.466 0-.933-.065-1.387-.198-1.322-.388-2.433-1.317-3.046-2.552-7.943-15.957-8.309-34.448-1.003-50.73 9.487-21.141 30.57-34.929 53.712-35.128 23.186.199 44.269 13.987 53.755 35.128 7.306 16.282 6.94 34.773-1.003 50.731-.613 1.233-1.725 2.163-3.047 2.551-1.316.386-2.75.203-3.93-.503l-7.41-4.434c-2.042-1.221-2.826-3.842-1.786-5.966 5.407-11.059 5.596-23.813.516-34.992-6.629-14.585-21.191-24.121-37.101-24.296-15.854.175-30.417 9.712-37.046 24.296-5.08 11.18-4.892 23.934.517 34.993 1.038 2.125.253 4.745-1.787 5.965l-7.411 4.435c-.773.462-1.655.7-2.543.7zm48.276-83.608c-21.151.183-40.461 12.812-49.15 32.175-6.69 14.911-6.356 31.844.918 46.456l7.042-4.265c-5.906-12.326-6.062-26.489-.413-38.919 7.428-16.344 23.756-27.031 41.598-27.228 17.896.196 34.225 10.883 41.653 27.228 5.647 12.429 5.492 26.59-.412 38.917l7.107 4.253c7.207-14.599 7.541-31.531.85-46.442-8.69-19.363-27.998-31.992-49.193-32.175zm-40.89 74.183c-.001.001-.002.002-.003.002z"/></g></g></g></g></svg>