<svg enable-background="new 0 0 256 256" height="512" viewBox="0 0 256 256" width="512" xmlns="http://www.w3.org/2000/svg"><g id="Layer_74"><g><g><g><path d="m149.358 29.752h-42.715c-2.238 0-4.052 1.814-4.052 4.051v5.661c0 2.237 1.814 4.051 4.052 4.051h42.715c2.238 0 4.052-1.814 4.052-4.051v-5.661c-.001-2.237-1.815-4.051-4.052-4.051z" fill="#fcdd86"/></g></g><g><g><g><path d="m138.414 29.752v-3.783c0-5.752-4.663-10.414-10.414-10.414-5.752 0-10.414 4.663-10.414 10.414v3.782h20.828z" fill="#f5c84c"/></g></g></g><g><g><path d="m195.297 36.879h-41.887v2.585c0 2.237-1.814 4.052-4.052 4.052h-42.715c-2.238 0-4.052-1.814-4.052-4.052v-2.585h-41.888c-5.583 0-10.11 4.527-10.11 10.11v196.401c0 5.583 4.527 10.11 10.11 10.11h134.594c5.583 0 10.11-4.527 10.11-10.11v-196.401c0-5.583-4.527-10.11-10.11-10.11z" fill="#5290db"/></g></g><g><g><path d="m190.871 55.077h-125.741c-2.434 0-4.426 1.991-4.426 4.426v146.943l36.945 36.945h93.222c2.434 0 4.426-1.991 4.426-4.426v-179.463c-.001-2.434-1.992-4.425-4.426-4.425z" fill="#edf4fc"/></g></g><g><g><path d="m60.704 206.446h27.899c4.975 0 9.046 4.071 9.046 9.046v27.899z" fill="#70d6f9"/></g></g><g><g><path d="m154.237 102.981h-38.067c-1.381 0-2.5-1.119-2.5-2.5s1.119-2.5 2.5-2.5h38.067c1.381 0 2.5 1.119 2.5 2.5s-1.119 2.5-2.5 2.5z"/></g></g><g><g><path d="m147.034 80.739h-38.068c-1.381 0-2.5-1.119-2.5-2.5s1.119-2.5 2.5-2.5h38.068c1.381 0 2.5 1.119 2.5 2.5s-1.119 2.5-2.5 2.5z"/></g></g><g><g><path d="m154.237 141.25h-38.067c-1.381 0-2.5-1.119-2.5-2.5s1.119-2.5 2.5-2.5h38.067c1.381 0 2.5 1.119 2.5 2.5s-1.119 2.5-2.5 2.5z"/></g></g><g><g><path d="m154.237 179.519h-38.067c-1.381 0-2.5-1.119-2.5-2.5s1.119-2.5 2.5-2.5h38.067c1.381 0 2.5 1.119 2.5 2.5s-1.119 2.5-2.5 2.5z"/></g></g><g><g><path d="m98.388 91.811h-17.094c-2.889 0-5.231 2.342-5.231 5.231v15.422c0 2.889 2.342 5.231 5.231 5.231h17.094c2.889 0 5.231-2.342 5.231-5.231v-15.422c0-2.889-2.342-5.231-5.231-5.231z" fill="#87d147"/></g></g><g><g><path d="m98.388 130.08h-17.094c-2.889 0-5.231 2.342-5.231 5.231v15.422c0 2.889 2.342 5.231 5.231 5.231h17.094c2.889 0 5.231-2.342 5.231-5.231v-15.422c0-2.889-2.342-5.231-5.231-5.231z" fill="#87d147"/></g></g><g><g><path d="m98.388 168.349h-17.094c-2.889 0-5.231 2.342-5.231 5.231v15.422c0 2.889 2.342 5.231 5.231 5.231h17.094c2.889 0 5.231-2.342 5.231-5.231v-15.422c0-2.89-2.342-5.231-5.231-5.231z" fill="#c7d7e5"/></g></g><g><g><path d="m179.937 113.254h-63.767c-1.381 0-2.5-1.119-2.5-2.5s1.119-2.5 2.5-2.5h63.767c1.381 0 2.5 1.119 2.5 2.5s-1.12 2.5-2.5 2.5z"/></g></g><g><g><path d="m179.937 151.522h-63.767c-1.381 0-2.5-1.119-2.5-2.5s1.119-2.5 2.5-2.5h63.767c1.381 0 2.5 1.119 2.5 2.5s-1.12 2.5-2.5 2.5z"/></g></g><g><g><path d="m179.937 189.791h-63.767c-1.381 0-2.5-1.119-2.5-2.5s1.119-2.5 2.5-2.5h63.767c1.381 0 2.5 1.119 2.5 2.5s-1.12 2.5-2.5 2.5z"/></g></g><g><g><path d="m98.388 120.194h-17.094c-4.263 0-7.73-3.468-7.73-7.73v-15.422c0-4.263 3.468-7.73 7.73-7.73h17.094c4.263 0 7.731 3.468 7.731 7.73v15.422c0 4.263-3.469 7.73-7.731 7.73zm-17.094-25.882c-1.506 0-2.73 1.225-2.73 2.73v15.422c0 1.506 1.225 2.73 2.73 2.73h17.094c1.506 0 2.731-1.225 2.731-2.73v-15.422c0-1.506-1.226-2.73-2.731-2.73z"/></g></g><g><g><path d="m88.332 110.91c-.64 0-1.279-.244-1.768-.732l-4.147-4.147c-.977-.977-.977-2.559 0-3.535s2.559-.977 3.535 0l2.38 2.38 5.343-5.343c.977-.977 2.559-.977 3.535 0s.977 2.559 0 3.535l-7.11 7.11c-.489.488-1.128.732-1.768.732z"/></g></g><g><g><path d="m98.388 158.463h-17.094c-4.263 0-7.73-3.468-7.73-7.73v-15.422c0-4.263 3.468-7.73 7.73-7.73h17.094c4.263 0 7.731 3.468 7.731 7.73v15.422c0 4.262-3.469 7.73-7.731 7.73zm-17.094-25.883c-1.506 0-2.73 1.225-2.73 2.73v15.422c0 1.506 1.225 2.73 2.73 2.73h17.094c1.506 0 2.731-1.225 2.731-2.73v-15.422c0-1.506-1.226-2.73-2.731-2.73z"/></g></g><g><g><path d="m88.332 149.179c-.64 0-1.279-.244-1.768-.732l-4.147-4.147c-.977-.977-.977-2.559 0-3.535s2.559-.977 3.535 0l2.38 2.38 5.343-5.343c.977-.977 2.559-.977 3.535 0s.977 2.559 0 3.535l-7.11 7.11c-.489.488-1.128.732-1.768.732z"/></g></g><g><g><path d="m98.388 196.731h-17.094c-4.263 0-7.73-3.468-7.73-7.73v-15.422c0-4.263 3.468-7.73 7.73-7.73h17.094c4.263 0 7.731 3.468 7.731 7.73v15.422c0 4.263-3.469 7.73-7.731 7.73zm-17.094-25.882c-1.506 0-2.73 1.225-2.73 2.73v15.422c0 1.506 1.225 2.73 2.73 2.73h17.094c1.506 0 2.731-1.225 2.731-2.73v-15.422c0-1.506-1.226-2.73-2.731-2.73z"/></g></g><g><g><path d="m149.357 46.016h-42.715c-3.612 0-6.552-2.939-6.552-6.552v-5.66c0-3.612 2.939-6.552 6.552-6.552h42.715c3.612 0 6.552 2.939 6.552 6.552v5.66c0 3.612-2.939 6.552-6.552 6.552zm-42.714-13.764c-.855 0-1.552.696-1.552 1.552v5.66c0 .855.696 1.552 1.552 1.552h42.715c.855 0 1.552-.696 1.552-1.552v-5.66c0-.855-.696-1.552-1.552-1.552z"/></g></g><g><g><path d="m142.187 65.926h-28.373c-4.218 0-7.649-3.431-7.649-7.648v-14.215c0-1.381 1.119-2.5 2.5-2.5s2.5 1.119 2.5 2.5v14.215c0 1.46 1.188 2.648 2.649 2.648h28.373c1.461 0 2.649-1.188 2.649-2.648v-14.184c0-1.381 1.119-2.5 2.5-2.5s2.5 1.119 2.5 2.5v14.184c0 4.217-3.432 7.648-7.649 7.648z"/></g></g><g><g><g><path d="m117.586 31.583c-1.381 0-2.5-1.119-2.5-2.5v-3.113c0-7.121 5.793-12.915 12.914-12.915s12.914 5.793 12.914 12.914v3.031c0 1.381-1.119 2.5-2.5 2.5s-2.5-1.119-2.5-2.5v-3.031c0-4.364-3.55-7.914-7.914-7.914s-7.914 3.551-7.914 7.915v3.113c0 1.381-1.119 2.5-2.5 2.5z"/></g></g></g><g><g><path d="m195.297 256h-134.594c-6.953 0-12.61-5.657-12.61-12.61v-196.4c0-6.953 5.657-12.61 12.61-12.61h41.505c1.381 0 2.5 1.119 2.5 2.5s-1.119 2.5-2.5 2.5h-41.505c-4.196 0-7.61 3.414-7.61 7.61v196.4c0 4.196 3.414 7.61 7.61 7.61h134.594c4.196 0 7.61-3.414 7.61-7.61v-196.4c0-4.196-3.414-7.61-7.61-7.61h-41.255c-1.381 0-2.5-1.119-2.5-2.5s1.119-2.5 2.5-2.5h41.255c6.953 0 12.61 5.657 12.61 12.61v196.4c0 6.953-5.657 12.61-12.61 12.61z"/></g></g><g><g><path d="m190.87 245.891h-93.222c-.663 0-1.299-.264-1.768-.732l-36.944-36.945c-.469-.469-.732-1.104-.732-1.768v-146.944c0-3.818 3.106-6.925 6.926-6.925h125.74c3.819 0 6.927 3.106 6.927 6.925v179.463c0 3.819-3.108 6.926-6.927 6.926zm-92.186-5h92.187c1.063 0 1.927-.864 1.927-1.926v-179.463c0-1.062-.864-1.925-1.927-1.925h-125.741c-1.062 0-1.926.863-1.926 1.925v145.908z"/></g></g><g><g><path d="m97.648 245.281c-1.381 0-2.5-1.119-2.5-2.5v-27.29c0-3.609-2.937-6.546-6.546-6.546h-27.446c-1.381 0-2.5-1.119-2.5-2.5s1.119-2.5 2.5-2.5h27.446c6.366 0 11.546 5.18 11.546 11.546v27.29c0 1.381-1.119 2.5-2.5 2.5z"/></g></g><g><g><path d="m183.705 14.882c-4.498-.838-8.043-4.31-8.898-8.716-.043-.221-.352-.221-.395 0-.855 4.406-4.4 7.879-8.898 8.716-.226.042-.226.345 0 .387 4.498.838 8.043 4.31 8.898 8.717.043.221.352.221.395 0 .855-4.406 4.4-7.879 8.898-8.717.226-.042.226-.344 0-.387z" fill="#f5c84c"/></g></g><g><g><path d="m224.761 176.946c-3.011-.561-5.384-2.886-5.957-5.835-.029-.148-.236-.148-.264 0-.572 2.95-2.946 5.275-5.957 5.835-.151.028-.151.231 0 .259 3.011.561 5.384 2.886 5.957 5.835.029.148.236.148.264 0 .572-2.95 2.946-5.275 5.957-5.835.151-.028.151-.23 0-.259z" fill="#fc657e"/></g></g><g><g><path d="m21.442 236.198h2.33v-2.33c0-1.744 1.413-3.157 3.157-3.157s3.157 1.413 3.157 3.157v2.33h2.329c1.744 0 3.157 1.413 3.157 3.157s-1.413 3.157-3.157 3.157h-2.329v2.33c0 1.744-1.413 3.157-3.157 3.157s-3.157-1.413-3.157-3.157v-2.33h-2.33c-1.744 0-3.157-1.413-3.157-3.157s1.413-3.157 3.157-3.157z" fill="#70d6f9"/></g></g><g><g><circle cx="146.721" cy="3.377" fill="#87d147" r="3.377"/></g></g><g><g><circle cx="33.721" cy="215.377" fill="#fc657e" r="3.377"/></g></g><g><g><circle cx="218.721" cy="149.377" fill="#f5c84c" r="3.377"/></g></g></g></g></svg>