<svg enable-background="new 0 0 256 256" height="512" viewBox="0 0 256 256" width="512" xmlns="http://www.w3.org/2000/svg"><g id="Layer_20"><g><g><g><circle cx="215.5" cy="113.5" fill="#87d147" r="20.83"/></g></g><g><g><path d="m215.5 134.33c-7.492 0-14.041-3.969-17.711-9.905h-87.17c-4.797 0-9.11-2.92-10.892-7.374l-7.279-18.196c-1.781-4.454-6.095-7.374-10.892-7.374h-30.84c-6.479 0-11.731 5.252-11.731 11.731v128.082c0 6.479 5.252 11.731 11.731 11.731h163.223c6.479 0 11.731-5.252 11.731-11.731v-95.138c0-1.443-.273-2.819-.749-4.095-2.832 1.439-6.027 2.269-9.421 2.269z" fill="#f5c84c"/></g></g><g><g><path d="m194.67 113.5c0-8.982 5.697-16.614 13.665-19.538v-55.803h-152.016v53.32h25.238c4.797 0 9.11 2.92 10.892 7.374l7.279 18.196c1.781 4.454 6.095 7.374 10.892 7.374h87.17c-1.966-3.178-3.12-6.911-3.12-10.923z" fill="#edf4fc"/></g></g><g><g><path d="m203.476 18.976h-142.297c-2.684 0-4.86 2.176-4.86 4.86v14.324h152.016v-14.325c0-2.684-2.175-4.859-4.859-4.859z" fill="#5290db"/></g></g><g><g><path d="m76.873 18.976h-15.694c-2.684 0-4.86 2.176-4.86 4.86v14.324h20.554z" fill="#fc657e"/></g></g><g><g><path d="m29.032 219.731c-4.498-.838-8.043-4.31-8.898-8.716-.043-.221-.352-.221-.395 0-.855 4.406-4.4 7.879-8.898 8.716-.226.042-.226.345 0 .387 4.498.838 8.043 4.31 8.898 8.717.043.221.352.221.395 0 .855-4.406 4.4-7.879 8.898-8.717.226-.043.226-.345 0-.387z" fill="#f5c84c"/></g></g><g><g><path d="m245.23 148.108c-2.586-.482-4.625-2.479-5.116-5.012-.025-.127-.202-.127-.227 0-.492 2.534-2.53 4.531-5.117 5.012-.13.024-.13.198 0 .222 2.586.482 4.625 2.479 5.117 5.012.025.127.202.127.227 0 .492-2.534 2.53-4.531 5.116-5.012.13-.024.13-.198 0-.222z" fill="#70d6f9"/></g></g><g><g><path d="m223.77 22.487h2.33v-2.33c0-1.744 1.413-3.157 3.157-3.157s3.157 1.413 3.157 3.157v2.33h2.329c1.744 0 3.157 1.413 3.157 3.157s-1.413 3.157-3.157 3.157h-2.329v2.33c0 1.744-1.413 3.157-3.157 3.157s-3.157-1.413-3.157-3.157v-2.33h-2.33c-1.744 0-3.157-1.413-3.157-3.157s1.413-3.157 3.157-3.157z" fill="#87d147"/></g></g><g><g><circle cx="29.048" cy="252.623" fill="#fc657e" r="3.377"/></g></g><g><g><circle cx="203.048" cy="3.377" fill="#f5c84c" r="3.377"/></g></g><g><g><path d="m175.905 31.067h-87.243c-1.381 0-2.5-1.119-2.5-2.5s1.119-2.5 2.5-2.5h87.243c1.381 0 2.5 1.119 2.5 2.5s-1.119 2.5-2.5 2.5z"/></g></g><g><g><path d="m197.637 31.067h-9.943c-1.381 0-2.5-1.119-2.5-2.5s1.119-2.5 2.5-2.5h9.943c1.381 0 2.5 1.119 2.5 2.5s-1.119 2.5-2.5 2.5z"/></g></g><g><g><path d="m191.57 55.931h-61.799c-1.381 0-2.5-1.119-2.5-2.5s1.119-2.5 2.5-2.5h61.799c1.381 0 2.5 1.119 2.5 2.5s-1.119 2.5-2.5 2.5z"/></g></g><g><g><path d="m120.754 55.931h-47.45c-1.381 0-2.5-1.119-2.5-2.5s1.119-2.5 2.5-2.5h47.45c1.381 0 2.5 1.119 2.5 2.5s-1.119 2.5-2.5 2.5z"/></g></g><g><g><path d="m191.57 67.812h-36.627c-1.381 0-2.5-1.119-2.5-2.5s1.119-2.5 2.5-2.5h36.627c1.381 0 2.5 1.119 2.5 2.5s-1.119 2.5-2.5 2.5z"/></g></g><g><g><path d="m145.631 67.812h-72.327c-1.381 0-2.5-1.119-2.5-2.5s1.119-2.5 2.5-2.5h72.327c1.381 0 2.5 1.119 2.5 2.5s-1.119 2.5-2.5 2.5z"/></g></g><g><g><path d="m191.57 79.693h-11.202c-1.381 0-2.5-1.119-2.5-2.5s1.119-2.5 2.5-2.5h11.202c1.381 0 2.5 1.119 2.5 2.5s-1.119 2.5-2.5 2.5z"/></g></g><g><g><path d="m171.257 79.693h-97.953c-1.381 0-2.5-1.119-2.5-2.5s1.119-2.5 2.5-2.5h97.953c1.381 0 2.5 1.119 2.5 2.5s-1.119 2.5-2.5 2.5z"/></g></g><g><g><path d="m191.57 91.574h-52.296c-1.381 0-2.5-1.119-2.5-2.5s1.119-2.5 2.5-2.5h52.296c1.381 0 2.5 1.119 2.5 2.5s-1.119 2.5-2.5 2.5z"/></g></g><g><g><path d="m129.945 91.574h-30.641c-1.381 0-2.5-1.119-2.5-2.5s1.119-2.5 2.5-2.5h30.642c1.381 0 2.5 1.119 2.5 2.5s-1.12 2.5-2.501 2.5z"/></g></g><g><g><path d="m183.57 114.812h-44.296c-1.381 0-2.5-1.119-2.5-2.5s1.119-2.5 2.5-2.5h44.296c1.381 0 2.5 1.119 2.5 2.5s-1.119 2.5-2.5 2.5z"/></g></g><g><g><path d="m129.945 114.812h-20.642c-1.381 0-2.5-1.119-2.5-2.5s1.119-2.5 2.5-2.5h20.642c1.381 0 2.5 1.119 2.5 2.5s-1.119 2.5-2.5 2.5z"/></g></g><g><g><path d="m186.57 103.456h-31.627c-1.381 0-2.5-1.119-2.5-2.5s1.119-2.5 2.5-2.5h31.627c1.381 0 2.5 1.119 2.5 2.5s-1.119 2.5-2.5 2.5z"/></g></g><g><g><path d="m145.631 103.456h-40.327c-1.381 0-2.5-1.119-2.5-2.5s1.119-2.5 2.5-2.5h40.327c1.381 0 2.5 1.119 2.5 2.5s-1.119 2.5-2.5 2.5z"/></g></g><g><g><path d="m213.925 123.305c-.64 0-1.279-.244-1.768-.732l-6.798-6.798c-.977-.976-.977-2.559 0-3.535.977-.977 2.559-.977 3.535 0l5.03 5.03 10.317-10.317c.977-.977 2.559-.977 3.535 0 .977.976.977 2.559 0 3.535l-12.085 12.085c-.487.488-1.127.732-1.766.732z"/></g></g><g><g><path d="m215.5 136.83c-12.863 0-23.329-10.466-23.329-23.33s10.466-23.33 23.329-23.33 23.329 10.466 23.329 23.33-10.466 23.33-23.329 23.33zm0-41.66c-10.106 0-18.329 8.223-18.329 18.33s8.223 18.33 18.329 18.33 18.329-8.223 18.329-18.33-8.223-18.33-18.329-18.33z"/></g></g><g><g><path d="m213.939 245.524h-163.223c-7.848 0-14.231-6.384-14.231-14.231v-128.082c0-7.847 6.384-14.231 14.231-14.231h30.842c5.854 0 11.039 3.511 13.213 8.946l7.278 18.195c1.41 3.525 4.774 5.803 8.57 5.803h86.428c1.381 0 2.5 1.119 2.5 2.5s-1.119 2.5-2.5 2.5h-86.428c-5.852 0-11.038-3.511-13.213-8.946l-7.278-18.196c-1.41-3.525-4.773-5.803-8.57-5.803h-30.842c-5.09 0-9.231 4.141-9.231 9.231v128.082c0 5.09 4.142 9.231 9.231 9.231h163.224c5.09 0 9.23-4.141 9.23-9.231v-95.138c0-.82-.114-1.643-.339-2.445-.373-1.33.403-2.709 1.732-3.082 1.334-.376 2.709.404 3.082 1.732.348 1.242.524 2.519.524 3.794v95.138c.001 7.849-6.383 14.233-14.23 14.233z"/></g></g><g><g><path d="m208.336 95.792c-1.381 0-2.5-1.119-2.5-2.5v-55.133c0-1.381 1.119-2.5 2.5-2.5s2.5 1.119 2.5 2.5v55.132c0 1.381-1.119 2.501-2.5 2.501z"/></g></g><g><g><path d="m56.319 93.344c-1.381 0-2.5-1.119-2.5-2.5v-52.685c0-1.381 1.119-2.5 2.5-2.5s2.5 1.119 2.5 2.5v52.685c0 1.381-1.119 2.5-2.5 2.5z"/></g></g><g><g><path d="m208.335 40.66h-152.016c-1.381 0-2.5-1.119-2.5-2.5v-14.325c0-4.058 3.302-7.36 7.359-7.36h142.297c4.058 0 7.359 3.302 7.359 7.36v14.325c.001 1.381-1.118 2.5-2.499 2.5zm-149.516-5h147.016v-11.825c0-1.301-1.059-2.36-2.359-2.36h-142.297c-1.301 0-2.359 1.059-2.359 2.36v11.825z"/></g></g><g><g><path d="m76.873 40.042c-1.381 0-2.5-1.119-2.5-2.5v-17.792c0-1.381 1.119-2.5 2.5-2.5s2.5 1.119 2.5 2.5v17.792c0 1.38-1.119 2.5-2.5 2.5z"/></g></g></g></g></svg>