<svg enable-background="new 0 0 256 256" height="512" viewBox="0 0 256 256" width="512" xmlns="http://www.w3.org/2000/svg"><g id="Layer_45"><g><g><g><g><path d="m72.847 58.809v-14.046c0-5.782 4.704-10.486 10.486-10.486h89.334c5.782 0 10.486 4.704 10.486 10.486v14.046h14.707v-14.046c0-13.892-11.301-25.193-25.193-25.193h-89.334c-13.892 0-25.193 11.301-25.193 25.193v14.046z" fill="#edf4fc"/></g></g></g><g><g><path d="m228.154 58.809h-200.308c-7.386 0-13.428 6.043-13.428 13.428v17.265c0 7.386 6.043 13.428 13.428 13.428h13.803v-6.978c0-2.74 2.221-4.961 4.961-4.961h3.078c2.74 0 4.96 2.221 4.96 4.961v6.978h146.706v-6.978c0-2.74 2.221-4.961 4.961-4.961h3.078c2.74 0 4.96 2.221 4.96 4.961v6.978h13.803c7.386 0 13.428-6.043 13.428-13.428v-17.265c-.001-7.385-6.044-13.428-13.43-13.428z" fill="#f98fa6"/></g></g><g><g><path d="m228.154 102.931h-13.803v7.547c0 2.74-2.221 4.96-4.96 4.96h-3.078c-2.74 0-4.961-2.221-4.961-4.96v-7.547h-146.705v7.547c0 2.74-2.221 4.96-4.96 4.96h-3.078c-2.74 0-4.961-2.221-4.961-4.96v-7.547h-13.802c-2.302 0-4.473-.588-6.372-1.62v129.604c0 6.934 5.673 12.606 12.606 12.606h188.045c6.934 0 12.606-5.673 12.606-12.606v-129.727c-1.947 1.105-4.189 1.743-6.577 1.743z" fill="#fc657e"/></g></g><g><g><path d="m196.285 243.522v4.955c0 2.774 2.249 5.023 5.024 5.023h9.117c2.774 0 5.023-2.249 5.023-5.023v-4.955z" fill="#ef4460"/></g></g><g><g><path d="m40.551 243.522v4.955c0 2.774 2.249 5.023 5.024 5.023h9.117c2.774 0 5.023-2.249 5.023-5.023v-4.955z" fill="#ef4460"/></g></g><g><g><path d="m51.904 58.809v4.48c0 4.948 4.048 8.997 8.997 8.997h134.199c4.948 0 8.997-4.048 8.997-8.997v-4.48z" fill="#fc657e"/></g></g><g><g><path d="m49.687 90.993h-3.078c-2.74 0-4.961 2.221-4.961 4.961v14.525c0 2.74 2.221 4.96 4.961 4.96h3.078c2.74 0 4.96-2.221 4.96-4.96v-14.526c0-2.739-2.221-4.96-4.96-4.96z" fill="#edf4fc"/></g></g><g><g><path d="m209.391 90.993h-3.078c-2.74 0-4.961 2.221-4.961 4.961v14.525c0 2.74 2.221 4.96 4.961 4.96h3.078c2.74 0 4.96-2.221 4.96-4.96v-14.526c.001-2.739-2.22-4.96-4.96-4.96z" fill="#edf4fc"/></g></g><g><g><circle cx="128.103" cy="173.136" fill="#fcdd86" r="56.483"/></g></g><g><g><path d="m90.538 199.253c.132 1.093 1.459 1.561 2.238.783l8.325-8.325c.55-.55 1.353-.765 2.105-.564l5.074 1.36c.752.201 1.339.789 1.541 1.541l1.36 5.074c.201.752-.014 1.554-.564 2.105l-8.325 8.325c-.779.779-.309 2.105.784 2.238 4.392.532 8.981-.959 12.26-4.474 4.996-5.357 5.121-13.805.272-19.296-5.543-6.277-15.134-6.5-20.965-.67-3.251 3.249-4.618 7.668-4.105 11.903z" fill="#edf4fc"/></g></g><g><g><path d="m155.307 134.484c1.093.132 1.561 1.459.783 2.238l-8.325 8.325c-.55.55-.765 1.353-.564 2.105l1.36 5.074c.201.752.789 1.339 1.541 1.541l5.074 1.36c.752.201 1.554-.014 2.105-.564l8.325-8.325c.779-.779 2.105-.309 2.238.784.532 4.392-.959 8.981-4.474 12.26-5.357 4.996-13.805 5.121-19.296.272-6.277-5.543-6.5-15.134-.67-20.965 3.249-3.251 7.668-4.618 11.903-4.105z" fill="#edf4fc"/></g></g><g><g><path d="m144.072 159.553c-1.586-1.401-2.783-3.061-3.596-4.853l-29.721 29.721c1.792.813 3.452 2.01 4.853 3.596.96 1.087 1.716 2.292 2.287 3.564l29.741-29.741c-1.272-.57-2.477-1.327-3.564-2.287z" fill="#c7d7e5"/></g></g><g><g><path d="m92.935 156.174-4.27 4.27c-.542.542-.542 1.421 0 1.963l7.626 7.626c.542.542 1.421.542 1.963 0l4.27-4.27c.542-.542.542-1.421 0-1.963l-7.626-7.626c-.542-.542-1.421-.542-1.963 0z" fill="#edf4fc"/></g></g><g><g><path d="m108.63 140.239-7.408 7.408c-.447.447-.69 1.016-.735 1.599-.058.756-.311 1.484-.847 2.021l-4.833 4.833c.03.025.063.046.091.074l7.626 7.626c.028.028.049.061.075.091l1.96-1.96c.893-.893 2.34-.893 3.233 0l2.292 2.292c.732.732 1.918.732 2.65 0l5.249-5.249c.732-.732.732-1.918 0-2.65l-1.513-1.513c-.893-.893-.893-2.34 0-3.233l2.693-2.693c1.792-1.792 4.115-2.913 6.585-3.224.898-.113 1.297-1.179.657-1.819l-3.605-3.605c-3.914-3.911-10.257-3.911-14.17.002z" fill="#c7d7e5"/></g></g><g><g><path d="m161.289 200.38-26.096-26.096-7.15 7.15 25.943 25.943c1.867 1.867 4.899 2.169 6.935.488 2.335-1.929 2.458-5.395.368-7.485z" fill="#fca265"/></g></g><g><g><path d="m128.043 167.134-9.514-9.514c.008.49-.172.981-.546 1.355l-5.249 5.249c-.374.374-.865.554-1.355.546l9.514 9.515z" fill="#fca265"/></g></g><g><g><path d="m58.14 60.792c-1.381 0-2.5-1.119-2.5-2.5v-13.53c0-15.27 12.423-27.693 27.693-27.693h89.334c15.271 0 27.693 12.423 27.693 27.693v13.394c0 1.381-1.119 2.5-2.5 2.5s-2.5-1.119-2.5-2.5v-13.393c0-12.513-10.181-22.693-22.693-22.693h-89.334c-12.513 0-22.693 10.18-22.693 22.693v13.53c0 1.38-1.119 2.499-2.5 2.499z"/></g></g><g><g><path d="m72.847 60.656c-1.381 0-2.5-1.119-2.5-2.5v-13.393c0-7.161 5.825-12.986 12.986-12.986h89.334c7.161 0 12.986 5.825 12.986 12.986v13.237c0 1.381-1.119 2.5-2.5 2.5s-2.5-1.119-2.5-2.5v-13.237c0-4.403-3.583-7.986-7.986-7.986h-89.334c-4.403 0-7.986 3.583-7.986 7.986v13.394c0 1.38-1.119 2.499-2.5 2.499z"/></g></g><g><g><path d="m228.154 105.431h-13.091c-1.381 0-2.5-1.119-2.5-2.5s1.119-2.5 2.5-2.5h13.091c6.026 0 10.929-4.902 10.929-10.928v-17.266c0-6.026-4.902-10.929-10.929-10.929h-200.308c-6.026 0-10.929 4.903-10.929 10.929v17.266c0 6.026 4.902 10.928 10.929 10.928h13.279c1.381 0 2.5 1.119 2.5 2.5s-1.119 2.5-2.5 2.5h-13.279c-8.783 0-15.929-7.146-15.929-15.928v-17.266c0-8.783 7.146-15.929 15.929-15.929h200.309c8.783 0 15.929 7.146 15.929 15.929v17.266c-.001 8.783-7.146 15.928-15.93 15.928z"/></g></g><g><g><path d="m200.813 105.431h-145.625c-1.381 0-2.5-1.119-2.5-2.5s1.119-2.5 2.5-2.5h145.624c1.381 0 2.5 1.119 2.5 2.5s-1.119 2.5-2.499 2.5z"/></g></g><g><g><path d="m222.125 246.022h-188.045c-8.33 0-15.106-6.777-15.106-15.106v-129.103c0-1.381 1.119-2.5 2.5-2.5s2.5 1.119 2.5 2.5v129.103c0 5.573 4.534 10.106 10.106 10.106h188.045c5.572 0 10.106-4.534 10.106-10.106v-129.228c0-1.381 1.119-2.5 2.5-2.5s2.5 1.119 2.5 2.5v129.228c0 8.329-6.776 15.106-15.106 15.106z"/></g></g><g><g><path d="m210.426 256h-9.117c-4.148 0-7.523-3.375-7.523-7.523v-4.185c0-1.381 1.119-2.5 2.5-2.5s2.5 1.119 2.5 2.5v4.185c0 1.392 1.132 2.523 2.523 2.523h9.117c1.392 0 2.523-1.132 2.523-2.523v-4.269c0-1.381 1.119-2.5 2.5-2.5s2.5 1.119 2.5 2.5v4.269c0 4.148-3.375 7.523-7.523 7.523z"/></g></g><g><g><path d="m54.691 256h-9.117c-4.148 0-7.523-3.375-7.523-7.523v-4.185c0-1.381 1.119-2.5 2.5-2.5s2.5 1.119 2.5 2.5v4.185c0 1.392 1.132 2.523 2.523 2.523h9.117c1.392 0 2.523-1.132 2.523-2.523v-4.144c0-1.381 1.119-2.5 2.5-2.5s2.5 1.119 2.5 2.5v4.144c.001 4.148-3.374 7.523-7.523 7.523z"/></g></g><g><g><path d="m70.918 8.551c-4.149.773-7.419 3.976-8.208 8.041-.04.204-.325.204-.364 0-.789-4.065-4.059-7.268-8.208-8.041-.208-.039-.208-.318 0-.357 4.149-.773 7.419-3.976 8.208-8.041.04-.204.325-.204.364 0 .789 4.065 4.059 7.268 8.208 8.041.208.039.208.318 0 .357z" fill="#f5c84c"/></g></g><g><g><path d="m12.891 215.508c-3.158.588-5.647 3.026-6.247 6.12-.03.155-.247.155-.277 0-.6-3.094-3.089-5.532-6.247-6.12-.159-.03-.159-.242 0-.272 3.158-.588 5.647-3.027 6.247-6.12.03-.155.247-.155.277 0 .6 3.094 3.089 5.532 6.247 6.12.159.03.159.243 0 .272z" fill="#70d6f9"/></g></g><g><g><circle cx="244.981" cy="148.377" fill="#f5c84c" r="3.377"/></g></g><g><g><circle cx="45.981" cy="29.377" fill="#fc657e" r="3.377"/></g></g><g><g><path d="m253.527 122.758h-1.824v-1.824c0-1.366-1.107-2.473-2.473-2.473s-2.473 1.107-2.473 2.473v1.824h-1.824c-1.366 0-2.473 1.107-2.473 2.473s1.107 2.473 2.473 2.473h1.824v1.824c0 1.366 1.107 2.473 2.473 2.473s2.473-1.107 2.473-2.473v-1.824h1.824c1.366 0 2.473-1.107 2.473-2.473s-1.107-2.473-2.473-2.473z" fill="#87d147"/></g></g><g><g><path d="m195.1 74.785h-134.2c-6.34 0-11.497-5.157-11.497-11.497v-3.831c0-1.381 1.119-2.5 2.5-2.5s2.5 1.119 2.5 2.5v3.831c0 3.582 2.915 6.497 6.497 6.497h134.2c3.582 0 6.497-2.915 6.497-6.497v-3.726c0-1.381 1.119-2.5 2.5-2.5s2.5 1.119 2.5 2.5v3.726c0 6.34-5.158 11.497-11.497 11.497z"/></g></g><g><g><path d="m49.687 117.939h-3.078c-4.113 0-7.46-3.347-7.46-7.46v-14.526c0-4.114 3.347-7.46 7.46-7.46h3.078c4.114 0 7.461 3.347 7.461 7.46v14.525c-.001 4.114-3.347 7.461-7.461 7.461zm-3.079-24.446c-1.356 0-2.46 1.104-2.46 2.46v14.525c0 1.357 1.104 2.46 2.46 2.46h3.078c1.357 0 2.461-1.104 2.461-2.46v-14.525c0-1.357-1.104-2.46-2.461-2.46z"/></g></g><g><g><path d="m209.392 117.939h-3.078c-4.114 0-7.461-3.347-7.461-7.46v-14.526c0-4.114 3.347-7.46 7.461-7.46h3.078c4.113 0 7.46 3.347 7.46 7.46v14.525c0 4.114-3.347 7.461-7.46 7.461zm-3.079-24.446c-1.357 0-2.461 1.104-2.461 2.46v14.525c0 1.357 1.104 2.46 2.461 2.46h3.078c1.356 0 2.46-1.104 2.46-2.46v-14.525c0-1.357-1.104-2.46-2.46-2.46z"/></g></g><g><g><path d="m128.103 232.119c-32.523 0-58.982-26.459-58.982-58.983s26.459-58.983 58.982-58.983 58.983 26.459 58.983 58.983-26.46 58.983-58.983 58.983zm0-112.966c-29.766 0-53.982 24.217-53.982 53.983s24.217 53.983 53.982 53.983c29.767 0 53.983-24.217 53.983-53.983s-24.217-53.983-53.983-53.983z"/></g></g><g><g><path d="m104.788 214.392c-.67 0-1.341-.04-2.014-.121-1.467-.178-2.678-1.155-3.159-2.55-.479-1.389-.132-2.898.908-3.938l8.193-8.193-1.264-4.716-4.715-1.264-8.194 8.194c-1.039 1.04-2.55 1.389-3.938.908-1.395-.481-2.372-1.691-2.55-3.157v-.001c-.629-5.189 1.128-10.282 4.818-13.973 3.28-3.281 7.812-5.085 12.463-4.936 4.704.146 9.017 2.177 12.144 5.718 5.676 6.427 5.536 16.379-.317 22.656-3.207 3.439-7.723 5.373-12.375 5.373zm-2.14-25.819c.401 0 .807.052 1.204.158l5.074 1.36c1.61.432 2.878 1.7 3.309 3.309l1.359 5.073c.433 1.608-.031 3.341-1.212 4.52l-6.342 6.342c2.832-.285 5.462-1.579 7.467-3.728 4.118-4.416 4.218-11.417.226-15.937-2.204-2.496-5.24-3.927-8.551-4.03-3.311-.095-6.43 1.131-8.772 3.474-1.958 1.958-3.143 4.479-3.417 7.167l6.341-6.34c.886-.885 2.087-1.368 3.314-1.368z"/></g></g><g><g><path d="m153.56 165.594c-3.996 0-7.992-1.385-11.143-4.167-3.541-3.127-5.571-7.439-5.718-12.144-.145-4.64 1.654-9.182 4.936-12.463 3.691-3.691 8.784-5.447 13.974-4.819 1.466.178 2.676 1.154 3.157 2.549.479 1.39.132 2.899-.908 3.938l-8.193 8.194 1.264 4.716 4.716 1.263 8.194-8.194c1.039-1.04 2.548-1.387 3.938-.908 1.396.482 2.372 1.693 2.55 3.161.646 5.339-1.316 10.719-5.252 14.388-3.202 2.987-7.358 4.486-11.515 4.486zm-1.223-28.655c-2.688.274-5.208 1.458-7.167 3.417-2.343 2.343-3.576 5.458-3.474 8.771.104 3.311 1.534 6.347 4.03 8.551 4.521 3.992 11.521 3.893 15.937-.226 2.149-2.004 3.443-4.634 3.728-7.467l-6.343 6.343c-1.179 1.179-2.911 1.644-4.52 1.211l-5.073-1.359c-1.609-.432-2.876-1.699-3.309-3.307l-1.36-5.076c-.431-1.61.034-3.342 1.212-4.52zm2.67.027h.01z"/></g></g><g><g><path d="m118.363 193.613c-.64 0-1.279-.244-1.768-.732-.977-.976-.977-2.559 0-3.535l28.75-28.75c.977-.977 2.559-.977 3.535 0 .977.976.977 2.559 0 3.535l-28.75 28.75c-.487.488-1.127.732-1.767.732z"/></g></g><g><g><path d="m111.317 186.359c-.64 0-1.279-.244-1.768-.732-.977-.976-.977-2.559 0-3.535l28.5-28.5c.977-.977 2.559-.977 3.535 0 .977.976.977 2.559 0 3.535l-28.5 28.5c-.487.488-1.127.732-1.767.732z"/></g></g><g><g><path d="m97.271 172.938c-.995 0-1.991-.379-2.748-1.137l-7.626-7.626c-.735-.734-1.14-1.711-1.14-2.75s.405-2.016 1.141-2.75l4.268-4.268h.001c1.468-1.469 4.028-1.469 5.498-.001l7.627 7.627c1.516 1.515 1.516 3.981.001 5.498l-4.271 4.271c-.758.758-1.754 1.136-2.751 1.136zm-6.052-11.512 6.054 6.055 2.698-2.698-6.054-6.055zm-.784.784-.002.001c.001 0 .001 0 .002-.001zm2.5-6.036h.01z"/></g></g><g><g><path d="m111.408 167.271c-1.119 0-2.239-.426-3.092-1.279l-2.141-2.141-1.477 1.476c-.975.977-2.559.976-3.535 0-.977-.976-.977-2.559 0-3.536l1.627-1.627c1.868-1.866 4.904-1.866 6.769 0l1.85 1.849 4.362-4.363-1.07-1.071c-1.865-1.865-1.865-4.901.001-6.767l2.692-2.693c1.519-1.519 3.384-2.662 5.411-3.338l-1.774-1.774c-1.42-1.421-3.309-2.203-5.316-2.203-2.009 0-3.896.782-5.317 2.202l-7.408 7.408c-.12 1.459-.664 2.702-1.582 3.62l-4.445 4.445c-.977.977-2.559.977-3.535 0-.977-.976-.977-2.559 0-3.535l4.445-4.445c.026-.027.101-.159.123-.446.092-1.197.609-2.325 1.458-3.173l7.409-7.409c2.364-2.364 5.509-3.667 8.853-3.667s6.487 1.302 8.852 3.667l3.605 3.604c.97.971 1.296 2.375.853 3.667-.449 1.308-1.585 2.228-2.966 2.401-1.931.243-3.752 1.135-5.129 2.511l-2.541 2.542 1.362 1.363c1.704 1.704 1.704 4.478 0 6.184l-5.25 5.25c-.854.852-1.974 1.278-3.094 1.278z"/></g></g><g><g><path d="m157.8 211.455c-2.017 0-4.053-.781-5.582-2.311l-25.447-25.447c-.977-.976-.977-2.559 0-3.535.977-.977 2.559-.977 3.535 0l25.447 25.447c1.007 1.006 2.578 1.153 3.576.328.569-.471.902-1.131.938-1.859.034-.729-.23-1.414-.745-1.93l-25.644-25.643c-.977-.976-.977-2.559 0-3.535.977-.977 2.559-.977 3.535 0l25.644 25.643c1.502 1.502 2.305 3.58 2.204 5.703-.101 2.121-1.103 4.117-2.747 5.477-1.351 1.114-3.026 1.662-4.714 1.662z"/></g></g><g><g><path d="m127.663 169.255c-.64 0-1.279-.244-1.768-.732l-8.86-8.86c-.977-.976-.977-2.559 0-3.535.977-.977 2.559-.977 3.535 0l8.86 8.86c.977.976.977 2.559 0 3.535-.488.488-1.127.732-1.767.732z"/></g></g><g><g><path d="m120.285 176.176c-.64 0-1.279-.244-1.768-.732l-8.717-8.716c-.977-.976-.977-2.559 0-3.535.977-.977 2.559-.977 3.535 0l8.717 8.716c.977.976.977 2.559 0 3.535-.488.488-1.127.732-1.767.732z"/></g></g></g></g></svg>