<svg enable-background="new 0 0 256 256" height="512" viewBox="0 0 256 256" width="512" xmlns="http://www.w3.org/2000/svg"><g id="Layer_67"><g><g><g><path d="m146.269 164.616h-36.538c-3.57 0-6.49 2.92-6.49 6.49v17.198c0 3.569 2.921 6.49 6.49 6.49h36.538c3.57 0 6.49-2.921 6.49-6.49v-17.198c0-3.569-2.92-6.49-6.49-6.49z" fill="#70d6f9"/></g></g><g><g><path d="m146.269 208.605h-36.538c-3.57 0-6.49 2.921-6.49 6.49v17.198c0 3.57 2.921 6.49 6.49 6.49h36.538c3.57 0 6.49-2.92 6.49-6.49v-17.198c0-3.569-2.92-6.49-6.49-6.49z" fill="#fc657e"/></g></g><g><g><path d="m146.269 32.649h-36.538c-3.57 0-6.49 2.92-6.49 6.49v17.198c0 3.569 2.921 6.49 6.49 6.49h36.538c3.57 0 6.49-2.921 6.49-6.49v-17.198c0-3.57-2.92-6.49-6.49-6.49z" fill="#f5c84c"/></g></g><g><g><path d="m146.269 76.638h-36.538c-3.57 0-6.49 2.921-6.49 6.49v17.198c0 3.57 2.921 6.49 6.49 6.49h36.538c3.57 0 6.49-2.92 6.49-6.49v-17.198c0-3.569-2.92-6.49-6.49-6.49z" fill="#f5c84c"/></g></g><g><g><path d="m146.269 120.627h-36.538c-3.57 0-6.49 2.921-6.49 6.49v17.198c0 3.57 2.921 6.49 6.49 6.49h36.538c3.57 0 6.49-2.921 6.49-6.49v-17.198c0-3.569-2.92-6.49-6.49-6.49z" fill="#f5c84c"/></g></g><g><g><path d="m77.705 164.599c-4.498-.838-8.043-4.31-8.898-8.716-.043-.221-.352-.221-.395 0-.855 4.406-4.4 7.879-8.898 8.716-.226.042-.226.345 0 .387 4.498.838 8.043 4.31 8.898 8.717.043.221.352.221.395 0 .855-4.406 4.4-7.879 8.898-8.717.226-.043.226-.345 0-.387z" fill="#f5c84c"/></g></g><g><g><path d="m94.197 20.173c-2.763-.515-4.941-2.648-5.466-5.355-.026-.136-.216-.136-.243 0-.525 2.707-2.703 4.84-5.466 5.355-.139.026-.139.212 0 .238 2.763.515 4.941 2.648 5.466 5.355.026.136.216.136.243 0 .525-2.707 2.703-4.84 5.466-5.355.139-.026.139-.212 0-.238z" fill="#fc657e"/></g></g><g><g><path d="m193.442 59.914h2.33v-2.33c0-1.744 1.413-3.157 3.157-3.157s3.157 1.413 3.157 3.157v2.33h2.329c1.744 0 3.157 1.413 3.157 3.157s-1.413 3.157-3.157 3.157h-2.329v2.33c0 1.744-1.413 3.157-3.157 3.157s-3.157-1.413-3.157-3.157v-2.33h-2.33c-1.744 0-3.157-1.413-3.157-3.157 0-1.743 1.413-3.157 3.157-3.157z" fill="#70d6f9"/></g></g><g><g><circle cx="187.721" cy="37.094" fill="#87d147" r="3.377"/></g></g><g><g><circle cx="83.721" cy="195.094" fill="#70d6f9" r="3.377"/></g></g><g><g><path d="m37.785 62.392c-5.822 7.321-14.41 6.288-17.298 5.684-.525-.11-1.028.286-1.029.822v.011 12.822c0 8.767 7.173 15.94 15.94 15.94 8.767 0 15.94-7.173 15.94-15.94v-14.199c0-.083-.001-.166-.003-.249-.009-.452-.371-.825-.823-.838-6.622-.194-10.111-2.819-11.452-4.133-.366-.359-.957-.321-1.275.08z" fill="#f9c1a8"/></g></g><g><g><path d="m67.543 114.418c-.153-2.748-2.076-5.078-4.745-5.75l-12.379-3.116-4.375-2.157c-1.881-.927-3.071-2.842-3.071-4.939v-2.713c-2.257 1.229-4.838 1.928-7.575 1.928-2.552 0-4.967-.611-7.112-1.69v2.475c0 2.097-1.191 4.012-3.071 4.939l-4.375 2.157-12.38 3.116c-2.67.672-4.592 3.002-4.745 5.75l-1.212 16.205c-.056 1.002.742 1.846 1.746 1.846h62.761c1.004 0 1.802-.843 1.746-1.846z" fill="#70d6f9"/></g></g><g><g><path d="m46.044 103.395c-1.881-.927-3.071-2.842-3.071-4.939v-2.713c-2.257 1.229-4.838 1.928-7.575 1.928-2.552 0-4.967-.611-7.112-1.69v2.475c0 2.097-1.191 4.012-3.071 4.939l-.687.339c2.076 4.029 6.28 6.802 11.102 6.802s9.026-2.773 11.102-6.802z" fill="#f9c1a8"/></g></g><g><g><path d="m52.36 69.582c-.348 0-.689.029-1.023.081v12.067c0 .36-.016.715-.04 1.069.347.056.7.093 1.063.093 3.675 0 6.655-2.98 6.655-6.655s-2.979-6.655-6.655-6.655z" fill="#f9c1a8"/></g></g><g><g><path d="m19.458 81.731c0-1.651 0-8.784 0-12.067-.334-.052-.675-.081-1.023-.081-3.675 0-6.655 2.98-6.655 6.655s2.98 6.655 6.655 6.655c.363 0 .716-.037 1.063-.093-.024-.354-.04-.71-.04-1.069z" fill="#f9c1a8"/></g></g><g><g><g><path d="m18.435 69.582c.348 0 .689.029 1.023.081v-.755c0-.004 0-.007 0-.011.001-.536.504-.932 1.029-.822 2.888.604 11.476 1.637 17.298-5.684.319-.401.91-.439 1.276-.08 1.341 1.314 4.83 3.939 11.452 4.133.452.013.814.386.823.838.002.083.003.166.003.249v2.132c.334-.052.675-.081 1.023-.081 1.794 0 3.419.713 4.616 1.867v-11.969c0-5.008-4.097-9.105-9.105-9.105-1.699 0-3.287.48-4.651 1.298-1.594-2.66-4.498-4.456-7.808-4.456h-4.676c-9.049 0-16.453 7.404-16.453 16.453v7.372c1.136-.912 2.578-1.46 4.15-1.46z" fill="#414344"/></g></g></g><g><g><path d="m35.397 100.17c-10.168 0-18.44-8.271-18.44-18.439v-12.823c.001-1.021.452-1.964 1.236-2.601.789-.64 1.813-.888 2.807-.678 2.837.594 9.97 1.313 14.828-4.794.592-.745 1.475-1.206 2.422-1.265.949-.052 1.88.29 2.56.955.99.971 3.925 3.247 9.775 3.419 1.787.054 3.213 1.497 3.25 3.285l.003.301v14.2c-.001 10.168-8.273 18.44-18.441 18.44zm-13.439-29.333v10.893c0 7.41 6.029 13.439 13.44 13.439s13.44-6.029 13.44-13.439v-12.88c-4.976-.436-8.248-2.14-10.208-3.621-5.548 5.861-12.767 6.044-16.672 5.608zm-1.983-.314c.001 0 .002 0 .003.001 0-.001-.002-.001-.003-.001zm17.81-8.131h.01z"/></g></g><g><g><g><path d="m56.976 73.333c-1.381 0-2.5-1.119-2.5-2.5v-11.354c0-3.643-2.963-6.605-6.605-6.605-1.173 0-2.336.326-3.365.943-.569.34-1.251.443-1.893.28-.643-.161-1.196-.571-1.537-1.14-1.198-1.999-3.368-3.241-5.664-3.241h-4.675c-7.694 0-13.953 6.259-13.953 13.952v7.003c0 1.381-1.119 2.5-2.5 2.5s-2.5-1.119-2.5-2.5v-7.003c0-10.45 8.502-18.952 18.953-18.952h4.675c3.278 0 6.405 1.429 8.588 3.833 1.242-.445 2.552-.676 3.871-.676 6.399 0 11.605 5.206 11.605 11.605v11.354c0 1.382-1.119 2.501-2.5 2.501z"/></g></g></g><g><g><path d="m35.629 91.319c-2.882 0-5.567-1.428-7.183-3.818-.773-1.144-.473-2.698.671-3.471 1.146-.773 2.699-.472 3.471.672.685 1.013 1.821 1.617 3.04 1.617s2.355-.604 3.039-1.617c.772-1.144 2.326-1.446 3.471-.672 1.144.772 1.445 2.326.672 3.471-1.613 2.391-4.298 3.818-7.181 3.818z"/></g></g><g><g><path d="m67.01 134.969h-62.761c-1.163 0-2.288-.484-3.087-1.329s-1.22-1.995-1.155-3.156l1.215-16.252c.212-3.814 2.877-7.044 6.628-7.988l12.122-3.051 4.137-2.04c1.035-.51 1.677-1.543 1.677-2.696v-1.768c0-1.381 1.119-2.5 2.5-2.5s2.5 1.119 2.5 2.5v1.768c0 3.072-1.711 5.823-4.466 7.181l-4.375 2.157c-.158.078-.324.139-.495.183l-12.38 3.115c-1.617.406-2.767 1.799-2.859 3.465l-1.152 15.411h61.141l-1.15-15.364c-.096-1.713-1.245-3.105-2.862-3.512l-12.379-3.116c-.171-.044-.337-.104-.495-.183l-4.375-2.157c-2.754-1.357-4.466-4.109-4.466-7.181v-1.956c0-1.381 1.119-2.5 2.5-2.5s2.5 1.119 2.5 2.5v1.956c0 1.153.643 2.187 1.676 2.696l4.138 2.04 12.122 3.051c3.75.944 6.416 4.174 6.631 8.035l1.209 16.158c.067 1.209-.354 2.359-1.153 3.203-.799.845-1.924 1.33-3.086 1.33z"/></g></g><g><g><path d="m56.083 134.419c-1.381 0-2.5-1.119-2.5-2.5v-13.734c0-1.381 1.119-2.5 2.5-2.5s2.5 1.119 2.5 2.5v13.734c0 1.381-1.119 2.5-2.5 2.5z"/></g></g><g><g><path d="m15.175 134.419c-1.381 0-2.5-1.119-2.5-2.5v-13.734c0-1.381 1.119-2.5 2.5-2.5s2.5 1.119 2.5 2.5v13.734c0 1.381-1.119 2.5-2.5 2.5z"/></g></g><g><g><g><circle cx="29.278" cy="76.184" r="2.998"/></g></g><g><g><circle cx="41.713" cy="76.184" r="2.998"/></g></g></g><g><g><path d="m35.629 113.035c-5.472 0-10.511-3.001-13.153-7.833-.662-1.212-.217-2.73.995-3.393 1.212-.664 2.73-.218 3.393.994 1.764 3.227 5.123 5.231 8.765 5.231 3.655 0 7.02-2.015 8.78-5.258.659-1.215 2.176-1.664 3.39-1.005 1.213.659 1.663 2.177 1.004 3.39-2.636 4.858-7.683 7.874-13.174 7.874z"/></g></g><g><g><path d="m52.36 85.393c-.292 0-.579-.017-.862-.045-1.374-.142-2.373-1.369-2.231-2.743.141-1.372 1.367-2.37 2.742-2.231.116.013.233.02.352.02 2.291 0 4.155-1.864 4.155-4.155s-1.864-4.155-4.155-4.155c-.093 0-.185.003-.276.011-1.375.102-2.578-.927-2.683-2.304-.105-1.376.926-2.577 2.303-2.683.216-.016.435-.024.656-.024 5.048 0 9.155 4.107 9.155 9.155s-4.108 9.154-9.156 9.154z"/></g></g><g><g><path d="m18.435 85.393c-5.048 0-9.155-4.107-9.155-9.155s4.107-9.155 9.155-9.155c.206 0 .409.008.611.021 1.377.092 2.42 1.283 2.328 2.66-.092 1.378-1.289 2.412-2.661 2.328-.091-.006-.185-.01-.278-.01-2.291 0-4.155 1.864-4.155 4.155s1.864 4.155 4.155 4.155c.095 0 .188-.005.281-.013 1.372-.129 2.588.895 2.71 2.27.122 1.376-.895 2.589-2.27 2.711-.238.022-.478.033-.721.033z"/></g></g><g><g><path d="m146.269 65.327h-36.538c-4.957 0-8.99-4.032-8.99-8.989v-17.199c0-4.957 4.033-8.99 8.99-8.99h36.538c4.957 0 8.99 4.033 8.99 8.99v17.199c0 4.957-4.033 8.989-8.99 8.989zm-36.538-30.179c-2.2 0-3.99 1.79-3.99 3.99v17.199c0 2.199 1.79 3.989 3.99 3.989h36.538c2.2 0 3.99-1.79 3.99-3.989v-17.198c0-2.2-1.79-3.99-3.99-3.99h-36.538z"/></g></g><g><g><path d="m146.269 109.316h-36.538c-4.957 0-8.99-4.033-8.99-8.99v-17.198c0-4.957 4.033-8.99 8.99-8.99h36.538c4.957 0 8.99 4.033 8.99 8.99v17.198c0 4.957-4.033 8.99-8.99 8.99zm-36.538-30.178c-2.2 0-3.99 1.79-3.99 3.99v17.198c0 2.2 1.79 3.99 3.99 3.99h36.538c2.2 0 3.99-1.79 3.99-3.99v-17.198c0-2.2-1.79-3.99-3.99-3.99z"/></g></g><g><g><path d="m146.269 153.306h-36.538c-4.957 0-8.99-4.033-8.99-8.99v-17.198c0-4.957 4.033-8.99 8.99-8.99h36.538c4.957 0 8.99 4.033 8.99 8.99v17.198c0 4.956-4.033 8.99-8.99 8.99zm-36.538-30.179c-2.2 0-3.99 1.79-3.99 3.99v17.198c0 2.2 1.79 3.99 3.99 3.99h36.538c2.2 0 3.99-1.79 3.99-3.99v-17.198c0-2.2-1.79-3.99-3.99-3.99z"/></g></g><g><g><path d="m146.269 197.295h-36.538c-4.957 0-8.99-4.033-8.99-8.99v-17.198c0-4.957 4.033-8.99 8.99-8.99h36.538c4.957 0 8.99 4.033 8.99 8.99v17.198c0 4.957-4.033 8.99-8.99 8.99zm-36.538-30.179c-2.2 0-3.99 1.79-3.99 3.99v17.198c0 2.2 1.79 3.99 3.99 3.99h36.538c2.2 0 3.99-1.79 3.99-3.99v-17.198c0-2.2-1.79-3.99-3.99-3.99z"/></g></g><g><g><path d="m146.269 241.283h-36.538c-4.957 0-8.99-4.032-8.99-8.989v-17.198c0-4.957 4.033-8.99 8.99-8.99h36.538c4.957 0 8.99 4.033 8.99 8.99v17.198c0 4.957-4.033 8.989-8.99 8.989zm-36.538-30.178c-2.2 0-3.99 1.79-3.99 3.99v17.198c0 2.199 1.79 3.989 3.99 3.989h36.538c2.2 0 3.99-1.79 3.99-3.989v-17.198c0-2.2-1.79-3.99-3.99-3.99z"/></g></g><g><g><path d="m129.073 90.228h-12.833c-1.381 0-2.5-1.119-2.5-2.5s1.119-2.5 2.5-2.5h12.833c1.381 0 2.5 1.119 2.5 2.5s-1.119 2.5-2.5 2.5z"/></g></g><g><g><path d="m129.073 46.239h-12.833c-1.381 0-2.5-1.119-2.5-2.5s1.119-2.5 2.5-2.5h12.833c1.381 0 2.5 1.119 2.5 2.5s-1.119 2.5-2.5 2.5z"/></g></g><g><g><path d="m129.073 134.217h-12.833c-1.381 0-2.5-1.119-2.5-2.5s1.119-2.5 2.5-2.5h12.833c1.381 0 2.5 1.119 2.5 2.5s-1.119 2.5-2.5 2.5z"/></g></g><g><g><path d="m129.073 178.205h-12.833c-1.381 0-2.5-1.119-2.5-2.5s1.119-2.5 2.5-2.5h12.833c1.381 0 2.5 1.119 2.5 2.5s-1.119 2.5-2.5 2.5z"/></g></g><g><g><path d="m129.073 222.194h-12.833c-1.381 0-2.5-1.119-2.5-2.5s1.119-2.5 2.5-2.5h12.833c1.381 0 2.5 1.119 2.5 2.5s-1.119 2.5-2.5 2.5z"/></g></g><g><g><path d="m139.073 55.238h-22.833c-1.381 0-2.5-1.119-2.5-2.5s1.119-2.5 2.5-2.5h22.833c1.381 0 2.5 1.119 2.5 2.5s-1.119 2.5-2.5 2.5z"/></g></g><g><g><path d="m139.073 99.228h-22.833c-1.381 0-2.5-1.119-2.5-2.5s1.119-2.5 2.5-2.5h22.833c1.381 0 2.5 1.119 2.5 2.5s-1.119 2.5-2.5 2.5z"/></g></g><g><g><path d="m139.073 143.217h-22.833c-1.381 0-2.5-1.119-2.5-2.5s1.119-2.5 2.5-2.5h22.833c1.381 0 2.5 1.119 2.5 2.5s-1.119 2.5-2.5 2.5z"/></g></g><g><g><path d="m139.073 187.205h-22.833c-1.381 0-2.5-1.119-2.5-2.5s1.119-2.5 2.5-2.5h22.833c1.381 0 2.5 1.119 2.5 2.5s-1.119 2.5-2.5 2.5z"/></g></g><g><g><path d="m139.073 231.194h-22.833c-1.381 0-2.5-1.119-2.5-2.5s1.119-2.5 2.5-2.5h22.833c1.381 0 2.5 1.119 2.5 2.5s-1.119 2.5-2.5 2.5z"/></g></g><g><g><g><path d="m171.524 226.194h-9.049c-1.381 0-2.5-1.119-2.5-2.5s1.119-2.5 2.5-2.5h6.549v-170.956h-6.549c-1.381 0-2.5-1.119-2.5-2.5s1.119-2.5 2.5-2.5h9.049c1.381 0 2.5 1.119 2.5 2.5v175.956c0 1.381-1.119 2.5-2.5 2.5z"/></g></g><g><g><path d="m170.524 94.228h-8.049c-1.381 0-2.5-1.119-2.5-2.5s1.119-2.5 2.5-2.5h8.049c1.381 0 2.5 1.119 2.5 2.5s-1.119 2.5-2.5 2.5z"/></g></g><g><g><path d="m190.5 138.217h-28.024c-1.381 0-2.5-1.119-2.5-2.5s1.119-2.5 2.5-2.5h28.024c1.381 0 2.5 1.119 2.5 2.5s-1.119 2.5-2.5 2.5z"/></g></g><g><g><path d="m170.524 182.205h-8.049c-1.381 0-2.5-1.119-2.5-2.5s1.119-2.5 2.5-2.5h8.049c1.381 0 2.5 1.119 2.5 2.5s-1.119 2.5-2.5 2.5z"/></g></g></g><g><g><path d="m93.524 138.217h-9.049c-1.381 0-2.5-1.119-2.5-2.5v-87.979c0-1.381 1.119-2.5 2.5-2.5h9.049c1.381 0 2.5 1.119 2.5 2.5s-1.119 2.5-2.5 2.5h-6.549v82.979h6.549c1.381 0 2.5 1.119 2.5 2.5s-1.119 2.5-2.5 2.5z"/></g></g><g><g><path d="m93.524 94.228h-28.048c-1.381 0-2.5-1.119-2.5-2.5s1.119-2.5 2.5-2.5h28.049c1.381 0 2.5 1.119 2.5 2.5s-1.12 2.5-2.501 2.5z"/></g></g><g><g><path d="m222.526 104.139c-5.822 7.321-14.41 6.288-17.298 5.684-.525-.11-1.028.286-1.029.822v.011 12.822c0 8.767 7.173 15.94 15.94 15.94 8.767 0 15.94-7.173 15.94-15.94v-14.199c0-.083-.001-.166-.003-.249-.009-.452-.371-.825-.823-.838-6.622-.194-10.111-2.819-11.452-4.133-.365-.359-.956-.321-1.275.08z" fill="#f9c1a8"/></g></g><g><g><path d="m252.285 156.165c-.153-2.748-2.076-5.078-4.745-5.75l-12.379-3.116-4.375-2.157c-1.881-.927-3.071-2.842-3.071-4.939v-2.713c-2.257 1.229-4.838 1.928-7.575 1.928-2.552 0-4.967-.611-7.112-1.69v2.475c0 2.097-1.191 4.012-3.071 4.939l-4.375 2.157-12.379 3.116c-2.67.672-4.592 3.002-4.745 5.75l-1.212 16.205c-.056 1.002.742 1.846 1.746 1.846h62.761c1.004 0 1.802-.843 1.746-1.846z" fill="#5290db"/></g></g><g><g><path d="m230.786 145.142c-1.881-.927-3.071-2.842-3.071-4.939v-2.713c-2.257 1.229-4.838 1.928-7.575 1.928-2.552 0-4.967-.611-7.112-1.69v2.475c0 2.097-1.191 4.012-3.071 4.939l-.687.339c2.076 4.029 6.28 6.802 11.102 6.802s9.026-2.773 11.102-6.802z" fill="#f9c1a8"/></g></g><g><g><path d="m237.102 111.33c-.348 0-.689.029-1.023.081v12.067c0 .359-.016.715-.04 1.069.347.056.7.093 1.063.093 3.675 0 6.655-2.98 6.655-6.655 0-3.676-2.98-6.655-6.655-6.655z" fill="#f9c1a8"/></g></g><g><g><path d="m204.199 123.478c0-1.651 0-8.784 0-12.067-.334-.052-.675-.081-1.023-.081-3.675 0-6.655 2.98-6.655 6.655s2.98 6.655 6.655 6.655c.363 0 .716-.037 1.063-.093-.023-.354-.04-.71-.04-1.069z" fill="#f9c1a8"/></g></g><g><g><g><path d="m203.176 111.33c.348 0 .689.029 1.023.081v-.755c0-.004 0-.007 0-.011.001-.536.504-.932 1.029-.822 2.888.604 11.476 1.637 17.298-5.684.319-.401.91-.439 1.276-.08 1.341 1.314 4.83 3.939 11.452 4.133.452.013.814.386.823.838.002.083.003.166.003.249v2.132c.334-.052.675-.081 1.023-.081 1.794 0 3.419.713 4.616 1.867v-11.97c0-5.008-4.097-9.105-9.105-9.105-1.699 0-3.287.48-4.651 1.298-1.594-2.66-4.498-4.456-7.808-4.456h-4.676c-9.049 0-16.453 7.404-16.453 16.453v7.372c1.137-.911 2.579-1.459 4.15-1.459z" fill="#414344"/></g></g></g><g><g><path d="m220.139 141.917c-10.168 0-18.44-8.271-18.44-18.439v-12.822c.001-1.021.452-1.964 1.236-2.601.789-.64 1.813-.889 2.807-.678 2.838.593 9.97 1.314 14.827-4.794 0-.001 0-.001 0-.001.592-.744 1.475-1.205 2.422-1.264.949-.057 1.879.288 2.559.953.992.973 3.927 3.249 9.776 3.421 1.788.055 3.214 1.499 3.249 3.288l.003.298v14.199c.001 10.169-8.271 18.44-18.439 18.44zm-13.44-29.333v10.894c0 7.41 6.029 13.439 13.44 13.439s13.439-6.029 13.439-13.439v-12.88c-4.976-.436-8.248-2.14-10.208-3.621-5.546 5.859-12.765 6.045-16.671 5.607zm-1.982-.313c.001 0 .002 0 .003.001-.001-.001-.002-.001-.003-.001zm19.765-6.577c0 .001-.001.002-.002.003.001 0 .001-.001.002-.003z"/></g></g><g><g><g><path d="m241.717 115.08c-1.381 0-2.5-1.119-2.5-2.5v-11.354c0-3.643-2.963-6.605-6.605-6.605-1.173 0-2.337.326-3.366.943-.569.34-1.25.443-1.893.28-.644-.161-1.196-.571-1.537-1.14-1.198-1.999-3.368-3.241-5.664-3.241h-4.676c-7.694 0-13.953 6.259-13.953 13.952v7.003c0 1.381-1.119 2.5-2.5 2.5s-2.5-1.119-2.5-2.5v-7.003c0-10.45 8.502-18.952 18.953-18.952h4.676c3.278 0 6.405 1.429 8.588 3.833 1.242-.445 2.551-.676 3.871-.676 6.399 0 11.605 5.206 11.605 11.605v11.354c.001 1.382-1.118 2.501-2.499 2.501z"/></g></g></g><g><g><path d="m220.371 133.066c-2.883 0-5.568-1.428-7.183-3.818-.773-1.145-.472-2.698.672-3.471 1.146-.773 2.699-.471 3.471.672.684 1.013 1.82 1.617 3.039 1.617s2.355-.604 3.04-1.617c.772-1.144 2.326-1.446 3.471-.672 1.144.772 1.444 2.327.671 3.471-1.614 2.391-4.299 3.818-7.181 3.818z"/></g></g><g><g><path d="m251.751 176.717h-62.761c-1.163 0-2.287-.484-3.086-1.329s-1.221-1.995-1.156-3.156l1.215-16.253c.212-3.814 2.877-7.044 6.628-7.988l12.122-3.051 4.138-2.04c1.034-.51 1.677-1.543 1.677-2.696v-1.768c0-1.381 1.119-2.5 2.5-2.5s2.5 1.119 2.5 2.5v1.768c0 3.071-1.711 5.823-4.466 7.181l-4.375 2.157c-.158.078-.324.139-.495.183l-12.379 3.116c-1.617.406-2.767 1.799-2.859 3.465l-1.153 15.412h61.142l-1.149-15.365c-.096-1.713-1.245-3.105-2.862-3.512l-12.379-3.116c-.171-.044-.337-.104-.495-.183l-4.375-2.157c-2.754-1.357-4.466-4.108-4.466-7.181v-1.956c0-1.381 1.119-2.5 2.5-2.5s2.5 1.119 2.5 2.5v1.956c0 1.153.642 2.187 1.676 2.696l4.138 2.04 12.122 3.051c3.75.944 6.416 4.174 6.631 8.035l1.209 16.158c.068 1.208-.353 2.358-1.152 3.204-.802.844-1.927 1.329-3.09 1.329z"/></g></g><g><g><path d="m240.825 176.166c-1.381 0-2.5-1.119-2.5-2.5v-13.734c0-1.381 1.119-2.5 2.5-2.5s2.5 1.119 2.5 2.5v13.734c0 1.381-1.119 2.5-2.5 2.5z"/></g></g><g><g><path d="m199.917 176.166c-1.381 0-2.5-1.119-2.5-2.5v-13.734c0-1.381 1.119-2.5 2.5-2.5s2.5 1.119 2.5 2.5v13.734c0 1.381-1.119 2.5-2.5 2.5z"/></g></g><g><g><g><circle cx="214.019" cy="117.931" r="2.998"/></g></g><g><g><circle cx="226.455" cy="117.931" r="2.998"/></g></g></g><g><g><path d="m220.371 154.782c-5.472 0-10.512-3.002-13.152-7.833-.662-1.212-.217-2.73.995-3.393 1.21-.663 2.73-.218 3.393.994 1.763 3.227 5.122 5.231 8.765 5.231 3.655 0 7.02-2.015 8.78-5.258.658-1.215 2.174-1.666 3.39-1.005 1.213.658 1.664 2.176 1.005 3.39-2.637 4.858-7.686 7.874-13.176 7.874z"/></g></g><g><g><path d="m237.102 127.14c-.292 0-.579-.017-.862-.045-1.374-.142-2.373-1.369-2.231-2.743.141-1.373 1.366-2.365 2.742-2.231.116.013.233.02.352.02 2.291 0 4.155-1.864 4.155-4.155s-1.864-4.155-4.155-4.155c-.098 0-.195.005-.292.012-1.377.099-2.572-.942-2.668-2.32-.096-1.377.942-2.571 2.32-2.668.211-.015.425-.023.64-.023 5.048 0 9.155 4.107 9.155 9.155s-4.108 9.153-9.156 9.153z"/></g></g><g><g><path d="m203.176 127.14c-5.048 0-9.155-4.107-9.155-9.155s4.107-9.155 9.155-9.155c.205 0 .408.008.61.021 1.378.091 2.42 1.282 2.329 2.66-.092 1.378-1.292 2.424-2.66 2.328-.092-.006-.185-.01-.279-.01-2.291 0-4.155 1.864-4.155 4.155s1.864 4.155 4.155 4.155c.094 0 .188-.005.28-.013 1.368-.12 2.589.894 2.711 2.27.122 1.375-.894 2.589-2.269 2.711-.237.022-.478.033-.722.033z"/></g></g></g></g></svg>