<svg enable-background="new 0 0 256 256" height="512" viewBox="0 0 256 256" width="512" xmlns="http://www.w3.org/2000/svg"><g id="Layer_68"><g><g><g><path d="m98.705 15.882c-4.498-.838-8.043-4.31-8.898-8.716-.043-.221-.352-.221-.395 0-.855 4.406-4.4 7.879-8.898 8.716-.226.042-.226.345 0 .387 4.498.838 8.043 4.31 8.898 8.717.043.221.352.221.395 0 .855-4.406 4.4-7.879 8.898-8.717.226-.042.226-.344 0-.387z" fill="#f5c84c"/></g></g><g><g><path d="m20.353 46.416v51.264c0 2.536 2.075 4.61 4.61 4.61h52.292c2.536 0 4.61-2.075 4.61-4.61v-51.264z" fill="#70d6f9"/></g></g><g><g><path d="m77.255 34.626h-52.292c-2.536 0-4.61 2.075-4.61 4.61v7.18h61.513v-7.18c-.001-2.535-2.075-4.61-4.611-4.61z" fill="#5290db"/></g></g><g><g><path d="m33.168 34.626h-8.205c-2.536 0-4.61 2.074-4.61 4.61v7.18h12.815z" fill="#fc657e"/></g></g><g><g><path d="m77.255 104.79h-52.292c-3.921 0-7.11-3.189-7.11-7.11v-51.264c0-1.381 1.119-2.5 2.5-2.5s2.5 1.119 2.5 2.5v51.264c0 1.164.947 2.11 2.11 2.11h52.292c1.164 0 2.11-.946 2.11-2.11v-51.264c0-1.381 1.119-2.5 2.5-2.5s2.5 1.119 2.5 2.5v51.264c0 3.921-3.189 7.11-7.11 7.11z"/></g></g><g><g><path d="m81.865 48.916h-61.512c-1.381 0-2.5-1.119-2.5-2.5v-7.18c0-3.921 3.189-7.11 7.11-7.11h52.292c3.92 0 7.11 3.189 7.11 7.11v7.18c0 1.381-1.119 2.5-2.5 2.5zm-59.012-5h56.513v-4.68c0-1.164-.946-2.11-2.11-2.11h-52.293c-1.164 0-2.11.946-2.11 2.11z"/></g></g><g><g><path d="m33.168 48.479c-1.381 0-2.5-1.119-2.5-2.5v-10.854c0-1.381 1.119-2.5 2.5-2.5s2.5 1.119 2.5 2.5v10.854c0 1.38-1.119 2.5-2.5 2.5z"/></g></g><g><g><path d="m68.678 68.458h-35.138c-1.055 0-1.91-.855-1.91-1.91v-7.457c0-1.055.855-1.91 1.91-1.91h35.138c1.055 0 1.91.855 1.91 1.91v7.457c0 1.055-.855 1.91-1.91 1.91z" fill="#edf4fc"/></g></g><g><g><path d="m68.678 89.988h-35.138c-1.055 0-1.91-.855-1.91-1.91v-7.458c0-1.055.855-1.91 1.91-1.91h35.138c1.055 0 1.91.855 1.91 1.91v7.457c0 1.055-.855 1.911-1.91 1.911z" fill="#edf4fc"/></g></g><g><g><path d="m51.109 125.104c-.64 0-1.28-.244-1.768-.732l-8.475-8.475c-.977-.977-.977-2.559 0-3.535.976-.977 2.56-.977 3.535 0l6.707 6.707 6.708-6.707c.976-.977 2.56-.977 3.535 0 .977.977.977 2.56 0 3.535l-8.475 8.475c-.487.488-1.127.732-1.767.732z"/></g></g><g><g><path d="m69.839 222.561h-37.459c-3.66 0-6.654 2.994-6.654 6.654v17.632c0 3.659 2.994 6.654 6.654 6.654h37.459c3.66 0 6.654-2.994 6.654-6.654v-17.632c-.001-3.66-2.995-6.654-6.654-6.654z" fill="#70d6f9"/></g></g><g><g><path d="m69.839 134.364h-37.459c-3.66 0-6.654 2.994-6.654 6.654v17.632c0 3.66 2.994 6.654 6.654 6.654h37.459c3.66 0 6.654-2.994 6.654-6.654v-17.632c-.001-3.659-2.995-6.654-6.654-6.654z" fill="#70d6f9"/></g></g><g><g><path d="m69.839 178.462h-37.459c-3.66 0-6.654 2.994-6.654 6.654v17.632c0 3.66 2.994 6.654 6.654 6.654h37.459c3.66 0 6.654-2.994 6.654-6.654v-17.632c-.001-3.659-2.995-6.654-6.654-6.654z" fill="#70d6f9"/></g></g><g><g><path d="m69.839 167.804h-37.46c-5.047 0-9.154-4.106-9.154-9.153v-17.633c0-5.047 4.106-9.153 9.154-9.153h37.459c5.047 0 9.153 4.106 9.153 9.153v17.633c.001 5.046-4.105 9.153-9.152 9.153zm-37.46-30.94c-2.291 0-4.154 1.863-4.154 4.153v17.633c0 2.29 1.863 4.153 4.154 4.153h37.459c2.29 0 4.153-1.863 4.153-4.153v-17.633c0-2.29-1.863-4.153-4.153-4.153z"/></g></g><g><g><path d="m69.839 211.902h-37.46c-5.047 0-9.154-4.106-9.154-9.154v-17.632c0-5.048 4.106-9.154 9.154-9.154h37.459c5.047 0 9.153 4.106 9.153 9.154v17.632c.001 5.048-4.105 9.154-9.152 9.154zm-37.46-30.94c-2.291 0-4.154 1.863-4.154 4.154v17.632c0 2.291 1.863 4.154 4.154 4.154h37.459c2.29 0 4.153-1.863 4.153-4.154v-17.632c0-2.291-1.863-4.154-4.153-4.154z"/></g></g><g><g><path d="m69.839 256h-37.46c-5.047 0-9.154-4.106-9.154-9.153v-17.633c0-5.047 4.106-9.153 9.154-9.153h37.459c5.047 0 9.153 4.106 9.153 9.153v17.633c.001 5.047-4.105 9.153-9.152 9.153zm-37.46-30.939c-2.291 0-4.154 1.863-4.154 4.153v17.633c0 2.29 1.863 4.153 4.154 4.153h37.459c2.29 0 4.153-1.863 4.153-4.153v-17.633c0-2.29-1.863-4.153-4.153-4.153z"/></g></g><g><g><path d="m52.208 148.233h-13.156c-1.381 0-2.5-1.119-2.5-2.5s1.119-2.5 2.5-2.5h13.157c1.381 0 2.5 1.119 2.5 2.5s-1.12 2.5-2.501 2.5z"/></g></g><g><g><path d="m52.208 192.331h-13.156c-1.381 0-2.5-1.119-2.5-2.5s1.119-2.5 2.5-2.5h13.157c1.381 0 2.5 1.119 2.5 2.5s-1.12 2.5-2.501 2.5z"/></g></g><g><g><path d="m52.208 236.43h-13.156c-1.381 0-2.5-1.119-2.5-2.5s1.119-2.5 2.5-2.5h13.157c1.381 0 2.5 1.119 2.5 2.5s-1.12 2.5-2.501 2.5z"/></g></g><g><g><path d="m62.461 157.46h-23.409c-1.381 0-2.5-1.119-2.5-2.5s1.119-2.5 2.5-2.5h23.409c1.381 0 2.5 1.119 2.5 2.5s-1.119 2.5-2.5 2.5z"/></g></g><g><g><path d="m62.461 201.559h-23.409c-1.381 0-2.5-1.119-2.5-2.5s1.119-2.5 2.5-2.5h23.409c1.381 0 2.5 1.119 2.5 2.5s-1.119 2.5-2.5 2.5z"/></g></g><g><g><path d="m62.461 245.656h-23.409c-1.381 0-2.5-1.119-2.5-2.5s1.119-2.5 2.5-2.5h23.409c1.381 0 2.5 1.119 2.5 2.5s-1.119 2.5-2.5 2.5z"/></g></g><g><g><path d="m68.678 70.958h-35.138c-2.432 0-4.41-1.979-4.41-4.41v-7.457c0-2.432 1.979-4.41 4.41-4.41h35.138c2.432 0 4.41 1.979 4.41 4.41v7.457c0 2.431-1.978 4.41-4.41 4.41zm-34.548-5h33.958v-6.277h-33.958z"/></g></g><g><g><path d="m68.678 92.487h-35.138c-2.432 0-4.41-1.979-4.41-4.41v-7.457c0-2.432 1.979-4.41 4.41-4.41h35.138c2.432 0 4.41 1.979 4.41 4.41v7.457c0 2.432-1.978 4.41-4.41 4.41zm-34.548-5h33.958v-6.277h-33.958z"/></g></g><g><g><path d="m97.244 46.416v51.264c0 2.536 2.075 4.61 4.61 4.61h52.292c2.536 0 4.61-2.075 4.61-4.61v-51.264z" fill="#f5c84c"/></g></g><g><g><path d="m154.146 34.626h-52.292c-2.536 0-4.61 2.075-4.61 4.61v7.18h61.513v-7.18c-.001-2.535-2.075-4.61-4.611-4.61z" fill="#5290db"/></g></g><g><g><path d="m110.059 34.626h-8.205c-2.536 0-4.61 2.074-4.61 4.61v7.18h12.815z" fill="#fc657e"/></g></g><g><g><path d="m154.146 104.79h-52.292c-3.921 0-7.11-3.189-7.11-7.11v-51.264c0-1.381 1.119-2.5 2.5-2.5s2.5 1.119 2.5 2.5v51.264c0 1.164.947 2.11 2.11 2.11h52.292c1.164 0 2.11-.946 2.11-2.11v-51.264c0-1.381 1.119-2.5 2.5-2.5s2.5 1.119 2.5 2.5v51.264c.001 3.921-3.189 7.11-7.11 7.11z"/></g></g><g><g><path d="m158.757 48.916h-61.513c-1.381 0-2.5-1.119-2.5-2.5v-7.18c0-3.921 3.189-7.11 7.11-7.11h52.293c3.921 0 7.11 3.189 7.11 7.11v7.18c0 1.381-1.119 2.5-2.5 2.5zm-59.013-5h56.513v-4.68c0-1.164-.946-2.11-2.11-2.11h-52.293c-1.164 0-2.11.946-2.11 2.11z"/></g></g><g><g><path d="m110.059 48.375c-1.381 0-2.5-1.119-2.5-2.5v-10.562c0-1.381 1.119-2.5 2.5-2.5s2.5 1.119 2.5 2.5v10.563c0 1.38-1.12 2.499-2.5 2.499z"/></g></g><g><g><path d="m145.569 68.458h-35.138c-1.055 0-1.91-.855-1.91-1.91v-7.457c0-1.055.855-1.91 1.91-1.91h35.138c1.055 0 1.91.855 1.91 1.91v7.457c0 1.055-.855 1.91-1.91 1.91z" fill="#edf4fc"/></g></g><g><g><path d="m145.569 89.988h-35.138c-1.055 0-1.91-.855-1.91-1.91v-7.458c0-1.055.855-1.91 1.91-1.91h35.138c1.055 0 1.91.855 1.91 1.91v7.457c0 1.055-.855 1.911-1.91 1.911z" fill="#edf4fc"/></g></g><g><g><path d="m128 125.104c-.64 0-1.28-.244-1.768-.732l-8.475-8.475c-.977-.977-.977-2.559 0-3.535.976-.977 2.56-.977 3.535 0l6.707 6.707 6.707-6.707c.977-.977 2.559-.977 3.535 0s.977 2.559 0 3.535l-8.475 8.475c-.487.488-1.126.732-1.766.732z"/></g></g><g><g><path d="m146.73 134.364h-37.46c-3.66 0-6.654 2.994-6.654 6.654v17.632c0 3.66 2.994 6.654 6.654 6.654h37.459c3.66 0 6.654-2.994 6.654-6.654v-17.632c0-3.659-2.994-6.654-6.653-6.654z" fill="#f5c84c"/></g></g><g><g><path d="m146.729 167.804h-37.459c-5.047 0-9.154-4.106-9.154-9.153v-17.633c0-5.047 4.106-9.153 9.154-9.153h37.459c5.048 0 9.154 4.106 9.154 9.153v17.633c.001 5.046-4.106 9.153-9.154 9.153zm-37.458-30.94c-2.291 0-4.154 1.863-4.154 4.153v17.633c0 2.29 1.863 4.153 4.154 4.153h37.459c2.291 0 4.154-1.863 4.154-4.153v-17.633c0-2.29-1.863-4.153-4.154-4.153z"/></g></g><g><g><path d="m129.1 148.233h-13.157c-1.381 0-2.5-1.119-2.5-2.5s1.119-2.5 2.5-2.5h13.157c1.381 0 2.5 1.119 2.5 2.5s-1.12 2.5-2.5 2.5z"/></g></g><g><g><path d="m139.352 157.46h-23.409c-1.381 0-2.5-1.119-2.5-2.5s1.119-2.5 2.5-2.5h23.409c1.381 0 2.5 1.119 2.5 2.5s-1.12 2.5-2.5 2.5z"/></g></g><g><g><path d="m145.569 70.958h-35.139c-2.432 0-4.41-1.979-4.41-4.41v-7.457c0-2.432 1.978-4.41 4.41-4.41h35.139c2.432 0 4.41 1.979 4.41 4.41v7.457c0 2.431-1.978 4.41-4.41 4.41zm-34.548-5h33.958v-6.277h-33.958z"/></g></g><g><g><path d="m145.569 92.487h-35.139c-2.432 0-4.41-1.979-4.41-4.41v-7.457c0-2.432 1.978-4.41 4.41-4.41h35.139c2.432 0 4.41 1.979 4.41 4.41v7.457c0 2.432-1.978 4.41-4.41 4.41zm-34.548-5h33.958v-6.277h-33.958z"/></g></g><g><g><path d="m174.135 46.416v51.264c0 2.536 2.075 4.61 4.61 4.61h52.292c2.536 0 4.61-2.075 4.61-4.61v-51.264z" fill="#fc657e"/></g></g><g><g><path d="m231.037 34.626h-52.292c-2.536 0-4.61 2.075-4.61 4.61v7.18h61.513v-7.18c-.001-2.535-2.075-4.61-4.611-4.61z" fill="#5290db"/></g></g><g><g><path d="m186.95 34.626h-8.205c-2.536 0-4.61 2.074-4.61 4.61v7.18h12.815z" fill="#fc657e"/></g></g><g><g><path d="m231.037 104.79h-52.292c-3.921 0-7.11-3.189-7.11-7.11v-51.264c0-1.381 1.119-2.5 2.5-2.5s2.5 1.119 2.5 2.5v51.264c0 1.164.946 2.11 2.11 2.11h52.292c1.164 0 2.11-.946 2.11-2.11v-51.264c0-1.381 1.119-2.5 2.5-2.5s2.5 1.119 2.5 2.5v51.264c0 3.921-3.189 7.11-7.11 7.11z"/></g></g><g><g><path d="m235.647 48.916h-61.513c-1.381 0-2.5-1.119-2.5-2.5v-7.18c0-3.921 3.189-7.11 7.11-7.11h52.292c3.921 0 7.11 3.189 7.11 7.11v7.18c.001 1.381-1.118 2.5-2.499 2.5zm-59.012-5h56.513v-4.68c0-1.164-.946-2.11-2.11-2.11h-52.292c-1.164 0-2.11.946-2.11 2.11v4.68z"/></g></g><g><g><path d="m186.949 48.281c-1.381 0-2.5-1.119-2.5-2.5v-10.687c0-1.381 1.119-2.5 2.5-2.5s2.5 1.119 2.5 2.5v10.688c0 1.38-1.119 2.499-2.5 2.499z"/></g></g><g><g><path d="m222.46 68.458h-35.138c-1.055 0-1.91-.855-1.91-1.91v-7.457c0-1.055.855-1.91 1.91-1.91h35.138c1.055 0 1.91.855 1.91 1.91v7.457c0 1.055-.855 1.91-1.91 1.91z" fill="#edf4fc"/></g></g><g><g><path d="m222.46 89.988h-35.138c-1.055 0-1.91-.855-1.91-1.91v-7.458c0-1.055.855-1.91 1.91-1.91h35.138c1.055 0 1.91.855 1.91 1.91v7.457c0 1.055-.855 1.911-1.91 1.911z" fill="#edf4fc"/></g></g><g><g><path d="m204.891 125.104c-.64 0-1.279-.244-1.768-.732l-8.475-8.475c-.977-.977-.977-2.559 0-3.535s2.559-.977 3.535 0l6.707 6.707 6.707-6.707c.977-.977 2.559-.977 3.535 0s.977 2.559 0 3.535l-8.475 8.475c-.487.488-1.127.732-1.766.732z"/></g></g><g><g><path d="m223.62 134.364h-37.459c-3.66 0-6.654 2.994-6.654 6.654v17.632c0 3.66 2.994 6.654 6.654 6.654h37.459c3.66 0 6.654-2.994 6.654-6.654v-17.632c0-3.659-2.994-6.654-6.654-6.654z" fill="#fc657e"/></g></g><g><g><path d="m223.62 178.462h-37.459c-3.66 0-6.654 2.994-6.654 6.654v17.632c0 3.66 2.994 6.654 6.654 6.654h37.459c3.66 0 6.654-2.994 6.654-6.654v-17.632c0-3.659-2.994-6.654-6.654-6.654z" fill="#fc657e"/></g></g><g><g><path d="m223.62 167.804h-37.459c-5.047 0-9.153-4.106-9.153-9.153v-17.633c0-5.047 4.106-9.153 9.153-9.153h37.459c5.048 0 9.154 4.106 9.154 9.153v17.633c0 5.046-4.106 9.153-9.154 9.153zm-37.459-30.94c-2.29 0-4.153 1.863-4.153 4.153v17.633c0 2.29 1.863 4.153 4.153 4.153h37.459c2.291 0 4.154-1.863 4.154-4.153v-17.633c0-2.29-1.863-4.153-4.154-4.153z"/></g></g><g><g><path d="m223.62 211.902h-37.459c-5.047 0-9.153-4.106-9.153-9.154v-17.632c0-5.048 4.106-9.154 9.153-9.154h37.459c5.048 0 9.154 4.106 9.154 9.154v17.632c0 5.048-4.106 9.154-9.154 9.154zm-37.459-30.94c-2.29 0-4.153 1.863-4.153 4.154v17.632c0 2.291 1.863 4.154 4.153 4.154h37.459c2.291 0 4.154-1.863 4.154-4.154v-17.632c0-2.291-1.863-4.154-4.154-4.154z"/></g></g><g><g><path d="m205.99 148.233h-13.157c-1.381 0-2.5-1.119-2.5-2.5s1.119-2.5 2.5-2.5h13.157c1.381 0 2.5 1.119 2.5 2.5s-1.119 2.5-2.5 2.5z"/></g></g><g><g><path d="m205.99 192.331h-13.157c-1.381 0-2.5-1.119-2.5-2.5s1.119-2.5 2.5-2.5h13.157c1.381 0 2.5 1.119 2.5 2.5s-1.119 2.5-2.5 2.5z"/></g></g><g><g><path d="m216.242 157.46h-23.409c-1.381 0-2.5-1.119-2.5-2.5s1.119-2.5 2.5-2.5h23.409c1.381 0 2.5 1.119 2.5 2.5s-1.119 2.5-2.5 2.5z"/></g></g><g><g><path d="m216.242 201.559h-23.409c-1.381 0-2.5-1.119-2.5-2.5s1.119-2.5 2.5-2.5h23.409c1.381 0 2.5 1.119 2.5 2.5s-1.119 2.5-2.5 2.5z"/></g></g><g><g><path d="m222.46 70.958h-35.138c-2.432 0-4.41-1.979-4.41-4.41v-7.457c0-2.432 1.979-4.41 4.41-4.41h35.138c2.432 0 4.41 1.979 4.41 4.41v7.457c0 2.431-1.978 4.41-4.41 4.41zm-34.548-5h33.958v-6.277h-33.958z"/></g></g><g><g><path d="m222.46 92.487h-35.138c-2.432 0-4.41-1.979-4.41-4.41v-7.457c0-2.432 1.979-4.41 4.41-4.41h35.138c2.432 0 4.41 1.979 4.41 4.41v7.457c0 2.432-1.978 4.41-4.41 4.41zm-34.548-5h33.958v-6.277h-33.958z"/></g></g><g><g><path d="m198.734 222.385c-2.725-.507-4.872-2.611-5.39-5.28-.026-.134-.213-.134-.239 0-.518 2.669-2.665 4.773-5.39 5.28-.137.025-.137.209 0 .234 2.725.507 4.872 2.611 5.39 5.28.026.134.213.134.239 0 .518-2.669 2.665-4.773 5.39-5.28.137-.025.137-.208 0-.234z" fill="#f5c84c"/></g></g><g><g><path d="m139.624 181.325h2.389v-2.389c0-1.788 1.449-3.237 3.237-3.237s3.237 1.449 3.237 3.237v2.389h2.388c1.788 0 3.237 1.449 3.237 3.237s-1.449 3.237-3.237 3.237h-2.388v2.389c0 1.788-1.449 3.237-3.237 3.237s-3.237-1.449-3.237-3.237v-2.389h-2.389c-1.788 0-3.237-1.449-3.237-3.237s1.449-3.237 3.237-3.237z" fill="#70d6f9"/></g></g><g><g><circle cx="116.431" cy="197.862" fill="#87d147" r="3.462"/></g></g><g><g><circle cx="117.431" cy="3.462" fill="#fc657e" r="3.462"/></g></g></g></g></svg>