<svg enable-background="new 0 0 256 256" height="512" viewBox="0 0 256 256" width="512" xmlns="http://www.w3.org/2000/svg"><g id="Layer_42"><g><g><g><path d="m36.5 43.25v185.18c0 2.938 2.382 5.32 5.32 5.32h172.36c2.938 0 5.32-2.382 5.32-5.32v-185.18z" fill="#edf4fc"/></g></g><g><g><path d="m214.18 22.25h-172.36c-2.938 0-5.32 2.382-5.32 5.32v15.68h183v-15.68c0-2.938-2.382-5.32-5.32-5.32z" fill="#5290db"/></g></g><g><g><path d="m59 22.25h-17.18c-2.938 0-5.32 2.382-5.32 5.32v15.68h22.5z" fill="#fc657e"/></g></g><g><g><path d="m29.332 178.883c-2.473-.46-4.421-2.37-4.891-4.792-.024-.122-.193-.122-.217 0-.47 2.422-2.419 4.331-4.892 4.792-.124.023-.124.189 0 .213 2.473.461 4.421 2.37 4.892 4.792.024.122.193.122.217 0 .47-2.422 2.419-4.331 4.891-4.792.124-.023.124-.19 0-.213z" fill="#87d147"/></g></g><g><g><circle cx="233.384" cy="76.627" fill="#f5c84c" r="3.377"/></g></g><g><g><path d="m146.952 249.159c-3.464.645-6.194 3.319-6.852 6.713-.033.17-.271.17-.304 0-.659-3.393-3.388-6.068-6.852-6.713-.174-.032-.174-.265 0-.298 3.464-.645 6.194-3.32 6.852-6.713.033-.17.271-.17.304 0 .658 3.393 3.388 6.068 6.852 6.713.174.033.174.266 0 .298z" fill="#fc657e"/></g></g><g><g><path d="m120.089 9.242h-1.824v1.824c0 1.366-1.107 2.473-2.473 2.473s-2.473-1.107-2.473-2.473v-1.824h-1.824c-1.366 0-2.473-1.107-2.473-2.473s1.107-2.473 2.473-2.473h1.824v-1.823c0-1.366 1.107-2.473 2.473-2.473s2.473 1.107 2.473 2.473v1.824h1.824c1.366 0 2.473 1.107 2.473 2.473s-1.108 2.472-2.473 2.472z" fill="#70d6f9"/></g></g><g><g><circle cx="147" cy="8.373" fill="#fc657e" r="3.377"/></g></g><g><g><path d="m219.5 45.75h-183c-1.381 0-2.5-1.119-2.5-2.5v-15.68c0-4.312 3.508-7.82 7.82-7.82h172.36c4.312 0 7.82 3.508 7.82 7.82v15.68c0 1.381-1.119 2.5-2.5 2.5zm-180.5-5h178v-13.18c0-1.555-1.265-2.82-2.82-2.82h-172.36c-1.555 0-2.82 1.265-2.82 2.82z"/></g></g><g><g><path d="m184 35.25h-111c-1.381 0-2.5-1.119-2.5-2.5s1.119-2.5 2.5-2.5h111c1.381 0 2.5 1.119 2.5 2.5s-1.119 2.5-2.5 2.5z"/></g></g><g><g><path d="m207.789 35.25h-10.885c-1.381 0-2.5-1.119-2.5-2.5s1.119-2.5 2.5-2.5h10.885c1.381 0 2.5 1.119 2.5 2.5s-1.12 2.5-2.5 2.5z"/></g></g><g><g><path d="m214.18 236.25h-172.36c-4.312 0-7.82-3.508-7.82-7.82v-185.18c0-1.381 1.119-2.5 2.5-2.5h183c1.381 0 2.5 1.119 2.5 2.5v185.18c0 4.312-3.508 7.82-7.82 7.82zm-175.18-190.5v182.68c0 1.555 1.265 2.82 2.82 2.82h172.36c1.555 0 2.82-1.265 2.82-2.82v-182.68z"/></g></g><g><g><path d="m59 45.75h-22.5c-1.381 0-2.5-1.119-2.5-2.5v-15.68c0-4.312 3.508-7.82 7.82-7.82h17.18c1.381 0 2.5 1.119 2.5 2.5v21c0 1.381-1.119 2.5-2.5 2.5zm-20-5h17.5v-16h-14.68c-1.555 0-2.82 1.265-2.82 2.82z"/></g></g><path d="m106.722 67.889v38.67c0 2.277 1.863 4.14 4.14 4.14h34.276c2.277 0 4.14-1.863 4.14-4.14v-38.67z" fill="#70d6f9"/><g><g><path d="m145.138 57.302h-34.276c-2.277 0-4.14 1.863-4.14 4.14v6.447h42.556v-6.447c0-2.277-1.863-4.14-4.14-4.14z" fill="#fcdd86"/></g></g><g><g><path d="m145.138 113.198h-34.275c-3.662 0-6.64-2.979-6.64-6.64v-38.67c0-1.381 1.119-2.5 2.5-2.5s2.5 1.119 2.5 2.5v38.67c0 .889.751 1.64 1.64 1.64h34.275c.889 0 1.64-.751 1.64-1.64v-38.67c0-1.381 1.119-2.5 2.5-2.5s2.5 1.119 2.5 2.5v38.67c0 3.662-2.979 6.64-6.64 6.64z"/></g></g><g><g><path d="m149.278 70.389h-42.556c-1.381 0-2.5-1.119-2.5-2.5v-6.447c0-3.661 2.979-6.64 6.64-6.64h34.275c3.662 0 6.64 2.979 6.64 6.64v6.447c.001 1.381-1.118 2.5-2.499 2.5zm-40.056-5h37.556v-3.947c0-.889-.751-1.64-1.64-1.64h-34.275c-.889 0-1.64.751-1.64 1.64v3.947z"/></g></g><g><g><path d="m138.724 81.312h-21.448c-1.381 0-2.5-1.119-2.5-2.5s1.119-2.5 2.5-2.5h21.448c1.381 0 2.5 1.119 2.5 2.5s-1.119 2.5-2.5 2.5z"/></g></g><g><g><path d="m138.724 91.659h-21.448c-1.381 0-2.5-1.119-2.5-2.5s1.119-2.5 2.5-2.5h21.448c1.381 0 2.5 1.119 2.5 2.5s-1.119 2.5-2.5 2.5z"/></g></g><g><g><path d="m138.724 102.005h-21.448c-1.381 0-2.5-1.119-2.5-2.5s1.119-2.5 2.5-2.5h21.448c1.381 0 2.5 1.119 2.5 2.5s-1.119 2.5-2.5 2.5z"/></g></g><path d="m106.722 161.889v38.67c0 2.277 1.863 4.14 4.14 4.14h34.276c2.277 0 4.14-1.863 4.14-4.14v-38.67z" fill="#70d6f9"/><g><g><path d="m145.138 151.302h-34.276c-2.277 0-4.14 1.863-4.14 4.14v6.447h42.556v-6.447c0-2.277-1.863-4.14-4.14-4.14z" fill="#fcdd86"/></g></g><g><g><path d="m145.138 207.198h-34.275c-3.662 0-6.64-2.979-6.64-6.64v-38.67c0-1.381 1.119-2.5 2.5-2.5s2.5 1.119 2.5 2.5v38.67c0 .889.751 1.64 1.64 1.64h34.275c.889 0 1.64-.751 1.64-1.64v-38.67c0-1.381 1.119-2.5 2.5-2.5s2.5 1.119 2.5 2.5v38.67c0 3.662-2.979 6.64-6.64 6.64z"/></g></g><g><g><path d="m149.278 164.389h-42.556c-1.381 0-2.5-1.119-2.5-2.5v-6.447c0-3.661 2.979-6.64 6.64-6.64h34.275c3.662 0 6.64 2.979 6.64 6.64v6.447c.001 1.381-1.118 2.5-2.499 2.5zm-40.056-5h37.556v-3.947c0-.889-.751-1.64-1.64-1.64h-34.275c-.889 0-1.64.751-1.64 1.64v3.947z"/></g></g><g><g><path d="m138.724 175.312h-21.448c-1.381 0-2.5-1.119-2.5-2.5s1.119-2.5 2.5-2.5h21.448c1.381 0 2.5 1.119 2.5 2.5s-1.119 2.5-2.5 2.5z"/></g></g><g><g><path d="m138.724 185.659h-21.448c-1.381 0-2.5-1.119-2.5-2.5s1.119-2.5 2.5-2.5h21.448c1.381 0 2.5 1.119 2.5 2.5s-1.119 2.5-2.5 2.5z"/></g></g><g><g><path d="m138.724 196.005h-21.448c-1.381 0-2.5-1.119-2.5-2.5s1.119-2.5 2.5-2.5h21.448c1.381 0 2.5 1.119 2.5 2.5s-1.119 2.5-2.5 2.5z"/></g></g><path d="m162.722 161.889v38.67c0 2.277 1.863 4.14 4.14 4.14h34.276c2.277 0 4.14-1.863 4.14-4.14v-38.67z" fill="#70d6f9"/><g><g><path d="m201.138 151.302h-34.276c-2.277 0-4.14 1.863-4.14 4.14v6.447h42.556v-6.447c0-2.277-1.863-4.14-4.14-4.14z" fill="#fcdd86"/></g></g><g><g><path d="m201.138 207.198h-34.275c-3.662 0-6.64-2.979-6.64-6.64v-38.67c0-1.381 1.119-2.5 2.5-2.5s2.5 1.119 2.5 2.5v38.67c0 .889.751 1.64 1.64 1.64h34.275c.889 0 1.64-.751 1.64-1.64v-38.67c0-1.381 1.119-2.5 2.5-2.5s2.5 1.119 2.5 2.5v38.67c0 3.662-2.979 6.64-6.64 6.64z"/></g></g><g><g><path d="m205.278 164.389h-42.556c-1.381 0-2.5-1.119-2.5-2.5v-6.447c0-3.661 2.979-6.64 6.64-6.64h34.275c3.662 0 6.64 2.979 6.64 6.64v6.447c.001 1.381-1.118 2.5-2.499 2.5zm-40.056-5h37.556v-3.947c0-.889-.751-1.64-1.64-1.64h-34.275c-.889 0-1.64.751-1.64 1.64v3.947z"/></g></g><g><g><path d="m194.724 175.312h-21.448c-1.381 0-2.5-1.119-2.5-2.5s1.119-2.5 2.5-2.5h21.448c1.381 0 2.5 1.119 2.5 2.5s-1.119 2.5-2.5 2.5z"/></g></g><g><g><path d="m194.724 185.659h-21.448c-1.381 0-2.5-1.119-2.5-2.5s1.119-2.5 2.5-2.5h21.448c1.381 0 2.5 1.119 2.5 2.5s-1.119 2.5-2.5 2.5z"/></g></g><g><g><path d="m194.724 196.005h-21.448c-1.381 0-2.5-1.119-2.5-2.5s1.119-2.5 2.5-2.5h21.448c1.381 0 2.5 1.119 2.5 2.5s-1.119 2.5-2.5 2.5z"/></g></g><path d="m50.722 161.889v38.67c0 2.277 1.863 4.14 4.14 4.14h34.276c2.277 0 4.14-1.863 4.14-4.14v-38.67z" fill="#70d6f9"/><g><g><path d="m89.138 151.302h-34.276c-2.277 0-4.14 1.863-4.14 4.14v6.447h42.556v-6.447c0-2.277-1.863-4.14-4.14-4.14z" fill="#fcdd86"/></g></g><g><g><path d="m89.138 207.198h-34.276c-3.662 0-6.64-2.979-6.64-6.64v-38.67c0-1.381 1.119-2.5 2.5-2.5s2.5 1.119 2.5 2.5v38.67c0 .889.751 1.64 1.64 1.64h34.275c.889 0 1.64-.751 1.64-1.64v-38.67c0-1.381 1.119-2.5 2.5-2.5s2.5 1.119 2.5 2.5v38.67c.001 3.662-2.978 6.64-6.639 6.64z"/></g></g><g><g><path d="m93.278 164.389h-42.556c-1.381 0-2.5-1.119-2.5-2.5v-6.447c0-3.661 2.979-6.64 6.64-6.64h34.275c3.662 0 6.64 2.979 6.64 6.64v6.447c.001 1.381-1.118 2.5-2.499 2.5zm-40.056-5h37.556v-3.947c0-.889-.751-1.64-1.64-1.64h-34.276c-.889 0-1.64.751-1.64 1.64z"/></g></g><g><g><path d="m82.724 175.312h-21.448c-1.381 0-2.5-1.119-2.5-2.5s1.119-2.5 2.5-2.5h21.448c1.381 0 2.5 1.119 2.5 2.5s-1.119 2.5-2.5 2.5z"/></g></g><g><g><path d="m82.724 185.659h-21.448c-1.381 0-2.5-1.119-2.5-2.5s1.119-2.5 2.5-2.5h21.448c1.381 0 2.5 1.119 2.5 2.5s-1.119 2.5-2.5 2.5z"/></g></g><g><g><path d="m82.724 196.005h-21.448c-1.381 0-2.5-1.119-2.5-2.5s1.119-2.5 2.5-2.5h21.448c1.381 0 2.5 1.119 2.5 2.5s-1.119 2.5-2.5 2.5z"/></g></g><g><g><path d="m184.5 153c-1.381 0-2.5-1.119-2.5-2.5v-11.988c0-3.04-2.473-5.512-5.512-5.512h-96.976c-3.04 0-5.512 2.473-5.512 5.512v11.988c0 1.381-1.119 2.5-2.5 2.5s-2.5-1.119-2.5-2.5v-11.988c0-5.796 4.716-10.512 10.512-10.512h96.976c5.796 0 10.512 4.716 10.512 10.512v11.988c0 1.381-1.119 2.5-2.5 2.5z"/></g></g><g><g><path d="m128 153c-1.381 0-2.5-1.119-2.5-2.5v-39c0-1.381 1.119-2.5 2.5-2.5s2.5 1.119 2.5 2.5v39c0 1.381-1.119 2.5-2.5 2.5z"/></g></g></g></g></svg>