<svg enable-background="new 0 0 256 256" height="512" viewBox="0 0 256 256" width="512" xmlns="http://www.w3.org/2000/svg"><g id="Layer_17"><g><g><g><path d="m36.5 43.25v185.18c0 2.938 2.382 5.32 5.32 5.32h172.36c2.938 0 5.32-2.382 5.32-5.32v-185.18z" fill="#edf4fc"/></g></g><g><g><path d="m214.18 22.25h-172.36c-2.938 0-5.32 2.382-5.32 5.32v15.68h183v-15.68c0-2.938-2.382-5.32-5.32-5.32z" fill="#5290db"/></g></g><g><g><path d="m59 22.25h-17.18c-2.938 0-5.32 2.382-5.32 5.32v15.68h22.5z" fill="#fc657e"/></g></g><g><g><path d="m29.332 178.883c-2.473-.46-4.421-2.37-4.891-4.792-.024-.122-.193-.122-.217 0-.47 2.422-2.419 4.331-4.892 4.792-.124.023-.124.189 0 .213 2.473.461 4.421 2.37 4.892 4.792.024.122.193.122.217 0 .47-2.422 2.419-4.331 4.891-4.792.124-.023.124-.19 0-.213z" fill="#f5c84c"/></g></g><g><g><circle cx="233.384" cy="76.627" fill="#70d6f9" r="3.377"/></g></g><g><g><path d="m146.952 249.159c-3.464.645-6.194 3.319-6.852 6.713-.033.17-.271.17-.304 0-.659-3.393-3.388-6.068-6.852-6.713-.174-.032-.174-.265 0-.298 3.464-.645 6.194-3.32 6.852-6.713.033-.17.271-.17.304 0 .658 3.393 3.388 6.068 6.852 6.713.174.033.174.266 0 .298z" fill="#fc657e"/></g></g><g><g><path d="m120.089 9.242h-1.824v1.824c0 1.366-1.107 2.473-2.473 2.473s-2.473-1.107-2.473-2.473v-1.824h-1.824c-1.366 0-2.473-1.107-2.473-2.473s1.107-2.473 2.473-2.473h1.824v-1.823c0-1.366 1.107-2.473 2.473-2.473s2.473 1.107 2.473 2.473v1.824h1.824c1.366 0 2.473 1.107 2.473 2.473s-1.108 2.472-2.473 2.472z" fill="#87d147"/></g></g><g><g><circle cx="147" cy="8.373" fill="#f5c84c" r="3.377"/></g></g><g><g><path d="m219.5 45.75h-183c-1.381 0-2.5-1.119-2.5-2.5v-15.68c0-4.312 3.508-7.82 7.82-7.82h172.36c4.312 0 7.82 3.508 7.82 7.82v15.68c0 1.381-1.119 2.5-2.5 2.5zm-180.5-5h178v-13.18c0-1.555-1.265-2.82-2.82-2.82h-172.36c-1.555 0-2.82 1.265-2.82 2.82z"/></g></g><g><g><path d="m184 35.25h-111c-1.381 0-2.5-1.119-2.5-2.5s1.119-2.5 2.5-2.5h111c1.381 0 2.5 1.119 2.5 2.5s-1.119 2.5-2.5 2.5z"/></g></g><g><g><path d="m207.789 35.25h-10.885c-1.381 0-2.5-1.119-2.5-2.5s1.119-2.5 2.5-2.5h10.885c1.381 0 2.5 1.119 2.5 2.5s-1.12 2.5-2.5 2.5z"/></g></g><g><g><path d="m214.18 236.25h-172.36c-4.312 0-7.82-3.508-7.82-7.82v-185.18c0-1.381 1.119-2.5 2.5-2.5s2.5 1.119 2.5 2.5v185.18c0 1.555 1.265 2.82 2.82 2.82h172.36c1.555 0 2.82-1.265 2.82-2.82v-185.18c0-1.381 1.119-2.5 2.5-2.5s2.5 1.119 2.5 2.5v185.18c0 4.312-3.508 7.82-7.82 7.82z"/></g></g><g><g><path d="m59 45.125c-1.381 0-2.5-1.119-2.5-2.5v-19.187c0-1.381 1.119-2.5 2.5-2.5s2.5 1.119 2.5 2.5v19.187c0 1.381-1.119 2.5-2.5 2.5z"/></g></g><g><g><path d="m176.375 154c-1.381 0-2.5-1.119-2.5-2.5v-52.667h-15.25c-1.381 0-2.5-1.119-2.5-2.5s1.119-2.5 2.5-2.5h17.75c1.381 0 2.5 1.119 2.5 2.5v55.167c0 1.381-1.119 2.5-2.5 2.5z"/></g></g><g><g><path d="m79.625 154c-1.381 0-2.5-1.119-2.5-2.5v-55.167c0-1.381 1.119-2.5 2.5-2.5h17.75c1.381 0 2.5 1.119 2.5 2.5s-1.119 2.5-2.5 2.5h-15.25v52.667c0 1.381-1.119 2.5-2.5 2.5z"/></g></g><g><g><path d="m196.256 152.043h-38.802c.212.271.392.572.524.902l2.285 7.714c.559 1.399 1.914 2.316 3.42 2.316h32.443c2.034 0 3.684 1.649 3.684 3.684v-11.06c0-1.957-1.599-3.556-3.554-3.556z" fill="#f5c84c"/></g></g><g><g><path d="m196.127 162.974h-32.443c-1.506 0-2.861-.917-3.42-2.316l-2.285-7.714c-.559-1.399-1.914-2.316-3.42-2.316h-9.684c-2.034 0-3.684 1.649-3.684 3.684v40.219c0 2.034 1.649 3.684 3.684 3.684h51.253c2.034 0 3.684-1.649 3.684-3.684v-27.874c-.002-2.034-1.651-3.683-3.685-3.683z" fill="#fcdd86"/></g></g><g><g><path d="m196.126 200.715h-51.253c-3.41 0-6.184-2.774-6.184-6.184v-40.219c0-3.41 2.774-6.184 6.184-6.184h9.685c2.543 0 4.796 1.526 5.741 3.887.028.072.054.145.076.218l2.244 7.573c.197.408.606.667 1.065.667h32.443c3.41 0 6.184 2.774 6.184 6.184v27.874c-.001 3.41-2.775 6.184-6.185 6.184zm-51.252-47.586c-.653 0-1.184.531-1.184 1.184v40.219c0 .653.531 1.184 1.184 1.184h51.253c.653 0 1.184-.531 1.184-1.184v-27.874c0-.653-.531-1.184-1.184-1.184h-32.443c-2.543 0-4.797-1.526-5.741-3.887-.029-.072-.054-.144-.076-.218l-2.244-7.572c-.197-.408-.606-.667-1.065-.667h-9.684z"/></g></g><g><g><path d="m199.81 169.157c-1.381 0-2.5-1.119-2.5-2.5v-11.06c0-.571-.483-1.054-1.054-1.054h-38.11c-1.381 0-2.5-1.119-2.5-2.5s1.119-2.5 2.5-2.5h38.11c3.338 0 6.054 2.716 6.054 6.054v11.06c0 1.381-1.119 2.5-2.5 2.5z"/></g></g><g><g><path d="m153.756 70.043h-38.802c.212.271.392.572.524.902l2.285 7.714c.559 1.399 1.914 2.316 3.42 2.316h32.443c2.034 0 3.684 1.649 3.684 3.684v-11.06c0-1.957-1.599-3.556-3.554-3.556z" fill="#f5c84c"/></g></g><g><g><path d="m153.627 80.974h-32.443c-1.506 0-2.861-.917-3.42-2.316l-2.285-7.714c-.559-1.399-1.914-2.316-3.42-2.316h-9.684c-2.034 0-3.684 1.649-3.684 3.684v40.219c0 2.034 1.649 3.684 3.684 3.684h51.253c2.034 0 3.684-1.649 3.684-3.684v-27.874c-.002-2.034-1.651-3.683-3.685-3.683z" fill="#fcdd86"/></g></g><g><g><path d="m153.626 118.715h-51.253c-3.41 0-6.184-2.774-6.184-6.184v-40.218c0-3.41 2.774-6.184 6.184-6.184h9.685c2.543 0 4.796 1.526 5.741 3.887.028.072.054.145.076.218l2.244 7.573c.197.408.606.667 1.065.667h32.443c3.41 0 6.184 2.774 6.184 6.184v27.874c-.001 3.409-2.775 6.183-6.185 6.183zm-51.252-47.586c-.653 0-1.184.531-1.184 1.184v40.219c0 .653.531 1.184 1.184 1.184h51.253c.653 0 1.184-.531 1.184-1.184v-27.875c0-.653-.531-1.184-1.184-1.184h-32.443c-2.543 0-4.797-1.526-5.741-3.887-.029-.072-.054-.144-.076-.218l-2.244-7.572c-.197-.408-.606-.667-1.065-.667z"/></g></g><g><g><path d="m157.31 87.157c-1.381 0-2.5-1.119-2.5-2.5v-11.06c0-.571-.483-1.054-1.054-1.054h-38.298c-1.381 0-2.5-1.119-2.5-2.5s1.119-2.5 2.5-2.5h38.298c3.338 0 6.054 2.716 6.054 6.054v11.06c0 1.381-1.119 2.5-2.5 2.5z"/></g></g><g><g><path d="m111.256 152.043h-38.802c.212.271.392.572.524.902l2.285 7.714c.559 1.399 1.914 2.316 3.42 2.316h32.443c2.034 0 3.684 1.649 3.684 3.684v-11.06c0-1.957-1.599-3.556-3.554-3.556z" fill="#f5c84c"/></g></g><g><g><path d="m111.127 162.974h-32.443c-1.506 0-2.861-.917-3.42-2.316l-2.285-7.714c-.559-1.399-1.914-2.316-3.42-2.316h-9.684c-2.034 0-3.684 1.649-3.684 3.684v40.219c0 2.034 1.649 3.684 3.684 3.684h51.253c2.034 0 3.684-1.649 3.684-3.684v-27.874c-.002-2.034-1.651-3.683-3.685-3.683z" fill="#fcdd86"/></g></g><g><g><path d="m111.126 200.715h-51.252c-3.41 0-6.184-2.774-6.184-6.184v-40.219c0-3.41 2.774-6.184 6.184-6.184h9.685c2.543 0 4.796 1.526 5.741 3.887.028.072.054.145.076.218l2.244 7.573c.197.408.606.667 1.065.667h32.443c3.41 0 6.184 2.774 6.184 6.184v27.874c-.002 3.41-2.776 6.184-6.186 6.184zm-51.252-47.586c-.653 0-1.184.531-1.184 1.184v40.219c0 .653.531 1.184 1.184 1.184h51.253c.653 0 1.184-.531 1.184-1.184v-27.874c0-.653-.531-1.184-1.184-1.184h-32.443c-2.543 0-4.797-1.526-5.741-3.887-.029-.072-.054-.144-.076-.218l-2.244-7.572c-.197-.408-.606-.667-1.065-.667h-9.684z"/></g></g><g><g><path d="m114.81 169.157c-1.381 0-2.5-1.119-2.5-2.5v-11.06c0-.571-.483-1.054-1.054-1.054h-38.209c-1.381 0-2.5-1.119-2.5-2.5s1.119-2.5 2.5-2.5h38.208c3.338 0 6.054 2.716 6.054 6.054v11.06c.001 1.381-1.118 2.5-2.499 2.5z"/></g></g></g></g></svg>