<svg enable-background="new 0 0 256 256" height="512" viewBox="0 0 256 256" width="512" xmlns="http://www.w3.org/2000/svg"><g id="Layer_71"><g><g><g><path d="m36.5 43.25v185.18c0 2.938 2.382 5.32 5.32 5.32h172.36c2.938 0 5.32-2.382 5.32-5.32v-185.18z" fill="#edf4fc"/></g></g><g><g><path d="m214.18 236.25h-172.36c-4.312 0-7.82-3.508-7.82-7.819v-185.181c0-1.381 1.119-2.5 2.5-2.5s2.5 1.119 2.5 2.5v185.181c0 1.555 1.265 2.819 2.82 2.819h172.36c1.555 0 2.82-1.265 2.82-2.819v-185.181c0-1.381 1.119-2.5 2.5-2.5s2.5 1.119 2.5 2.5v185.181c0 4.311-3.508 7.819-7.82 7.819z"/></g></g><g><g><path d="m129.326 70.777c-34.868 0-63.469 27.283-65.611 61.621l-.622-.622c-1.953-1.953-5.119-1.953-7.071 0-1.953 1.952-1.953 5.118 0 7.07l9.006 9.006c.977.977 2.256 1.465 3.536 1.465s2.559-.488 3.536-1.465l9.006-9.006c1.953-1.952 1.953-5.118 0-7.07-1.952-1.952-5.117-1.953-7.071 0l-.266.266c2.296-28.65 26.327-51.265 55.558-51.265 30.743 0 55.754 25.012 55.754 55.755s-25.011 55.755-55.754 55.755c-19.25 0-36.897-9.762-47.204-26.113-1.473-2.337-4.559-3.038-6.896-1.563-2.336 1.473-3.036 4.56-1.563 6.896 12.15 19.274 32.959 30.781 55.664 30.781 36.257 0 65.754-29.497 65.754-65.755s-29.499-65.756-65.756-65.756z" fill="#70d6f9"/></g></g><g><g><circle cx="129.326" cy="136.532" fill="#5290db" r="44.512"/></g></g><g><g><circle cx="129.326" cy="136.532" fill="#edf4fc" r="34.932"/></g></g><g><g><circle cx="129.326" cy="136.532" fill="#c7d7e5" r="8.052"/></g></g><g><g><path d="m145.941 132.058h-9.926c.859 1.281 1.362 2.82 1.362 4.474s-.503 3.192-1.361 4.473h9.925c2.471 0 4.474-2.003 4.474-4.474s-2.003-4.473-4.474-4.473z" fill="#fc657e"/></g></g><g><g><path d="m129.326 128.481c1.662 0 3.208.507 4.492 1.373v-9.919c0-2.471-2.003-4.474-4.474-4.474s-4.474 2.003-4.474 4.474v9.897c1.277-.853 2.809-1.351 4.456-1.351z" fill="#5290db"/></g></g><g><g><path d="m214.18 22.25h-172.36c-2.938 0-5.32 2.382-5.32 5.32v15.68h183v-15.68c0-2.938-2.382-5.32-5.32-5.32z" fill="#5290db"/></g></g><g><g><path d="m59 22.25h-17.18c-2.938 0-5.32 2.382-5.32 5.32v15.68h22.5z" fill="#fc657e"/></g></g><g><g><circle cx="233.384" cy="76.627" fill="#fc657e" r="3.377"/></g></g><g><g><path d="m146.952 249.159c-3.464.645-6.194 3.319-6.852 6.713-.033.17-.271.17-.304 0-.659-3.393-3.388-6.068-6.852-6.713-.174-.032-.174-.265 0-.298 3.464-.645 6.194-3.32 6.852-6.713.033-.17.271-.17.304 0 .658 3.393 3.388 6.068 6.852 6.713.174.033.174.266 0 .298z" fill="#f5c84c"/></g></g><g><g><path d="m120.089 9.242h-1.824v1.824c0 1.366-1.107 2.473-2.473 2.473s-2.473-1.107-2.473-2.473v-1.824h-1.824c-1.366 0-2.473-1.107-2.473-2.473s1.107-2.473 2.473-2.473h1.824v-1.823c0-1.366 1.107-2.473 2.473-2.473s2.473 1.107 2.473 2.473v1.824h1.824c1.366 0 2.473 1.107 2.473 2.473s-1.108 2.472-2.473 2.472z" fill="#70d6f9"/></g></g><g><g><circle cx="147" cy="8.373" fill="#f5c84c" r="3.377"/></g></g><g><g><path d="m219.5 45.75h-183c-1.381 0-2.5-1.119-2.5-2.5v-15.681c0-4.312 3.508-7.819 7.82-7.819h172.36c4.312 0 7.82 3.508 7.82 7.819v15.681c0 1.381-1.119 2.5-2.5 2.5zm-180.5-5h178v-13.181c0-1.555-1.265-2.819-2.82-2.819h-172.36c-1.555 0-2.82 1.265-2.82 2.819z"/></g></g><g><g><path d="m184 35.25h-111c-1.381 0-2.5-1.119-2.5-2.5s1.119-2.5 2.5-2.5h111c1.381 0 2.5 1.119 2.5 2.5s-1.119 2.5-2.5 2.5z"/></g></g><g><g><path d="m207.789 35.25h-10.885c-1.381 0-2.5-1.119-2.5-2.5s1.119-2.5 2.5-2.5h10.885c1.381 0 2.5 1.119 2.5 2.5s-1.12 2.5-2.5 2.5z"/></g></g><g><g><path d="m59 45.083c-1.381 0-2.5-1.119-2.5-2.5v-19.625c0-1.381 1.119-2.5 2.5-2.5s2.5 1.119 2.5 2.5v19.625c0 1.381-1.119 2.5-2.5 2.5z"/></g></g><g><g><path d="m29.332 178.883c-2.473-.46-4.421-2.37-4.891-4.792-.024-.122-.193-.122-.217 0-.47 2.422-2.419 4.331-4.892 4.792-.124.023-.124.189 0 .213 2.473.461 4.421 2.37 4.892 4.792.024.122.193.122.217 0 .47-2.422 2.419-4.331 4.891-4.792.124-.023.124-.19 0-.213z" fill="#87d147"/></g></g><g><g><path d="m129.326 173.569c-1.381 0-2.5-1.119-2.5-2.5v-4.474c0-1.381 1.119-2.5 2.5-2.5s2.5 1.119 2.5 2.5v4.474c0 1.381-1.119 2.5-2.5 2.5z"/></g></g><g><g><path d="m129.326 108.969c-1.381 0-2.5-1.119-2.5-2.5v-4.474c0-1.381 1.119-2.5 2.5-2.5s2.5 1.119 2.5 2.5v4.474c0 1.381-1.119 2.5-2.5 2.5z"/></g></g><g><g><path d="m163.863 139.032h-4.474c-1.381 0-2.5-1.119-2.5-2.5s1.119-2.5 2.5-2.5h4.474c1.381 0 2.5 1.119 2.5 2.5s-1.119 2.5-2.5 2.5z"/></g></g><g><g><path d="m99.262 139.032h-4.474c-1.381 0-2.5-1.119-2.5-2.5s1.119-2.5 2.5-2.5h4.474c1.381 0 2.5 1.119 2.5 2.5s-1.119 2.5-2.5 2.5z"/></g></g><g><g><path d="m129.326 204.787c-23.569 0-45.168-11.943-57.779-31.948-2.205-3.498-1.153-8.139 2.345-10.344 1.695-1.068 3.705-1.413 5.659-.971 1.953.443 3.618 1.621 4.686 3.316 9.846 15.62 26.702 24.946 45.089 24.946 29.365 0 53.254-23.89 53.254-53.255s-23.89-53.255-53.254-53.255c-26.071 0-48.34 19.25-52.528 44.578 2.173-.223 4.418.495 6.076 2.153 1.417 1.416 2.197 3.3 2.197 5.303s-.78 3.887-2.197 5.303l-9.006 9.006c-1.417 1.417-3.3 2.197-5.303 2.197s-3.887-.78-5.303-2.197l-9.006-9.006c-1.417-1.416-2.197-3.3-2.197-5.303s.78-3.887 2.197-5.303c1.416-1.417 3.299-2.197 5.303-2.197.703 0 1.391.096 2.048.281 4.188-33.863 33.166-59.815 67.721-59.815 37.636 0 68.254 30.619 68.254 68.255s-30.621 68.256-68.256 68.256zm-51.438-38.449c-.466 0-.924.132-1.329.387-1.167.735-1.518 2.282-.782 3.448 11.689 18.543 31.707 29.614 53.549 29.614 34.878 0 63.254-28.376 63.254-63.255s-28.376-63.255-63.254-63.255c-33.318 0-61.042 26.037-63.116 59.276-.061.981-.691 1.835-1.611 2.184-.918.347-1.957.124-2.652-.571l-.622-.622c-.945-.944-2.591-.946-3.536 0-.473.473-.732 1.1-.732 1.768s.26 1.295.732 1.768l9.006 9.006c.945.945 2.591.945 3.536 0l9.006-9.006c.472-.473.732-1.1.732-1.768s-.26-1.295-.732-1.768c-.975-.975-2.562-.976-3.537.001l-.264.265c-.741.741-1.864.942-2.817.504-.952-.439-1.528-1.426-1.445-2.47 2.407-30.037 27.906-53.566 58.05-53.566 32.122 0 58.254 26.133 58.254 58.255s-26.133 58.255-58.254 58.255c-20.114 0-38.551-10.198-49.319-27.28-.356-.565-.912-.958-1.563-1.106-.182-.044-.369-.064-.554-.064z"/></g></g><g><g><path d="m129.326 183.544c-25.922 0-47.012-21.09-47.012-47.012s21.089-47.012 47.012-47.012c25.922 0 47.011 21.09 47.011 47.012s-21.089 47.012-47.011 47.012zm0-89.023c-23.166 0-42.012 18.847-42.012 42.012s18.846 42.012 42.012 42.012c23.165 0 42.011-18.847 42.011-42.012s-18.846-42.012-42.011-42.012z"/></g></g><g><g><path d="m129.326 173.964c-20.64 0-37.432-16.792-37.432-37.432s16.792-37.432 37.432-37.432 37.432 16.792 37.432 37.432-16.793 37.432-37.432 37.432zm0-69.863c-17.883 0-32.432 14.549-32.432 32.432s14.549 32.432 32.432 32.432 32.432-14.549 32.432-32.432-14.55-32.432-32.432-32.432z"/></g></g><g><g><path d="m129.326 147.084c-5.818 0-10.552-4.733-10.552-10.552s4.733-10.552 10.552-10.552 10.552 4.733 10.552 10.552-4.734 10.552-10.552 10.552zm0-16.104c-3.061 0-5.552 2.49-5.552 5.552s2.491 5.552 5.552 5.552 5.552-2.49 5.552-5.552-2.491-5.552-5.552-5.552z"/></g></g><g><g><path d="m145.941 143.505h-9.128c-1.381 0-2.5-1.119-2.5-2.5s1.119-2.5 2.5-2.5h9.128c1.088 0 1.974-.886 1.974-1.974s-.885-1.974-1.974-1.974h-9.347c-1.381 0-2.5-1.119-2.5-2.5s1.119-2.5 2.5-2.5h9.347c3.845 0 6.974 3.128 6.974 6.974s-3.129 6.974-6.974 6.974z"/></g></g><g><g><path d="m133.818 131.719c-1.381 0-2.5-1.119-2.5-2.5v-9.284c0-1.088-.885-1.974-1.974-1.974s-1.974.886-1.974 1.974v9.19c0 1.381-1.119 2.5-2.5 2.5s-2.5-1.119-2.5-2.5v-9.19c0-3.846 3.128-6.974 6.974-6.974s6.974 3.128 6.974 6.974v9.284c0 1.381-1.119 2.5-2.5 2.5z"/></g></g></g></g></svg>