<svg enable-background="new 0 0 256 256" height="512" viewBox="0 0 256 256" width="512" xmlns="http://www.w3.org/2000/svg"><g id="Layer_53"><g><g><g><path d="m47.276 37.875v17.344h147.013c2.754 0 4.987 2.233 4.987 4.987v156.263h14.575c2.754 0 4.987-2.233 4.987-4.987v-173.607z" fill="#c7d7e5"/></g></g><g><g><path d="m27.714 74.906v173.607c0 2.754 2.233 4.987 4.987 4.987h161.588c2.754 0 4.987-2.233 4.987-4.987v-173.607z" fill="#edf4fc"/></g></g><g><g><path d="m27.714 74.906h171.563v60.594h-171.563z" fill="#70d6f9"/></g></g><g><g><path d="m194.289 256h-161.588c-4.128 0-7.487-3.358-7.487-7.487v-173.607c0-1.381 1.119-2.5 2.5-2.5s2.5 1.119 2.5 2.5v173.606c0 1.371 1.116 2.487 2.487 2.487h161.588c1.371 0 2.487-1.116 2.487-2.487v-173.606c0-1.381 1.119-2.5 2.5-2.5s2.5 1.119 2.5 2.5v173.606c0 4.13-3.358 7.488-7.487 7.488z"/></g></g><g><g><path d="m48.263 151.245h31.475c1.271 0 2.302 1.031 2.302 2.302v29.906c0 1.271-1.031 2.302-2.302 2.302h-31.475c-1.271 0-2.302-1.031-2.302-2.302v-29.906c0-1.271 1.03-2.302 2.302-2.302z" fill="#70d6f9"/></g></g><g><g><path d="m97.263 151.245h31.475c1.271 0 2.302 1.031 2.302 2.302v29.906c0 1.271-1.031 2.302-2.302 2.302h-31.475c-1.271 0-2.302-1.031-2.302-2.302v-29.906c0-1.271 1.03-2.302 2.302-2.302z" fill="#fc8c48"/></g></g><g><g><path d="m146.263 151.245h31.475c1.271 0 2.302 1.031 2.302 2.302v29.906c0 1.271-1.031 2.302-2.302 2.302h-31.475c-1.271 0-2.302-1.031-2.302-2.302v-29.906c0-1.271 1.03-2.302 2.302-2.302z" fill="#3a70bf"/></g></g><g><g><path d="m79.737 185.755c1.271 0 2.302-1.031 2.302-2.302v-8.767l-6.77-6.77c-.899-.899-2.356-.899-3.255 0l-17.839 17.839z" fill="#b2e26d"/></g></g><g><g><path d="m66.975 172.955-10.529-10.529c-.899-.899-2.356-.899-3.255 0l-7.23 7.23v13.797c0 1.271 1.031 2.302 2.302 2.302h5.912z" fill="#87d147"/></g></g><g><g><path d="m128.737 185.755c1.271 0 2.302-1.031 2.302-2.302v-8.767l-6.77-6.77c-.899-.899-2.356-.899-3.255 0l-17.839 17.839z" fill="#fcdd86"/></g></g><g><g><path d="m115.975 172.955-10.529-10.529c-.899-.899-2.356-.899-3.255 0l-7.23 7.23v13.797c0 1.271 1.031 2.302 2.302 2.302h5.912z" fill="#f5c84c"/></g></g><g><g><path d="m177.737 185.755c1.271 0 2.302-1.031 2.302-2.302v-8.767l-6.77-6.77c-.899-.899-2.356-.899-3.255 0l-17.839 17.839z" fill="#70d6f9"/></g></g><g><g><path d="m164.975 172.955-10.529-10.529c-.899-.899-2.356-.899-3.255 0l-7.23 7.23v13.797c0 1.271 1.031 2.302 2.302 2.302h5.912z" fill="#3caadc"/></g></g><g><g><path d="m147.292 106.711h-68.584c-3.82 0-6.916 3.096-6.916 6.916s3.097 6.917 6.917 6.917h68.583c3.82 0 6.917-3.097 6.917-6.917-.001-3.82-3.097-6.916-6.917-6.916z" fill="#fcdd86"/></g></g><g><g><path d="m86.5 106.711h-7.792c-3.82 0-6.916 3.096-6.916 6.916s3.097 6.917 6.917 6.917h7.791z" fill="#f5c84c"/></g></g><g><g><path d="m213.852 18.188h-161.589c-2.754 0-4.987 2.233-4.987 4.987v14.7h171.563v-14.7c0-2.755-2.233-4.987-4.987-4.987z" fill="#5290db"/></g></g><g><g><path d="m194.289 55.219h-161.588c-2.754 0-4.987 2.233-4.987 4.987v14.7h171.563v-14.7c-.001-2.754-2.234-4.987-4.988-4.987z" fill="#5290db"/></g></g><g><g><path d="m68.37 18.188h-16.107c-2.754 0-4.987 2.233-4.987 4.987v14.7h21.094z" fill="#fc657e"/></g></g><g><g><path d="m48.807 55.219h-16.106c-2.754 0-4.987 2.233-4.987 4.987v14.7h21.094v-19.687z" fill="#fc657e"/></g></g><g><g><path d="m165.995 67.563h-104.062c-1.381 0-2.5-1.119-2.5-2.5s1.119-2.5 2.5-2.5h104.063c1.381 0 2.5 1.119 2.5 2.5s-1.12 2.5-2.501 2.5z"/></g></g><g><g><path d="m188.297 67.563h-10.205c-1.381 0-2.5-1.119-2.5-2.5s1.119-2.5 2.5-2.5h10.205c1.381 0 2.5 1.119 2.5 2.5s-1.119 2.5-2.5 2.5z"/></g></g><g><g><path d="m218.839 40.375h-171.563c-1.381 0-2.5-1.119-2.5-2.5v-14.7c0-4.129 3.358-7.487 7.487-7.487h161.588c4.129 0 7.487 3.358 7.487 7.487v14.7c.001 1.381-1.118 2.5-2.499 2.5zm-169.063-5h166.563v-12.2c0-1.371-1.116-2.487-2.487-2.487h-161.589c-1.371 0-2.487 1.116-2.487 2.487z"/></g></g><g><g><path d="m185.558 30.531h-104.063c-1.381 0-2.5-1.119-2.5-2.5s1.119-2.5 2.5-2.5h104.063c1.381 0 2.5 1.119 2.5 2.5s-1.12 2.5-2.5 2.5z"/></g></g><g><g><path d="m207.859 30.531h-10.205c-1.381 0-2.5-1.119-2.5-2.5s1.119-2.5 2.5-2.5h10.205c1.381 0 2.5 1.119 2.5 2.5s-1.119 2.5-2.5 2.5z"/></g></g><g><g><path d="m238.608 91.883c-2.473-.46-4.421-2.37-4.891-4.792-.024-.122-.193-.122-.217 0-.47 2.422-2.419 4.331-4.891 4.792-.124.023-.124.189 0 .213 2.473.461 4.421 2.37 4.891 4.792.024.122.193.122.217 0 .47-2.422 2.419-4.331 4.891-4.792.124-.023.124-.19 0-.213z" fill="#f5c84c"/></g></g><g><g><path d="m226.23 248.181c-3.959.737-7.08 3.794-7.833 7.673-.038.195-.31.195-.348 0-.753-3.879-3.873-6.936-7.833-7.673-.199-.037-.199-.303 0-.34 3.959-.737 7.08-3.794 7.833-7.673.038-.195.31-.195.348 0 .753 3.879 3.873 6.936 7.833 7.673.199.036.199.303 0 .34z" fill="#fc657e"/></g></g><g><g><path d="m28.365 27.242h-1.824v1.824c0 1.366-1.107 2.473-2.473 2.473s-2.473-1.107-2.473-2.473v-1.824h-1.824c-1.366 0-2.473-1.107-2.473-2.473s1.107-2.473 2.473-2.473h1.824v-1.824c0-1.366 1.107-2.473 2.473-2.473s2.473 1.107 2.473 2.473v1.824h1.824c1.366 0 2.473 1.107 2.473 2.473s-1.107 2.473-2.473 2.473z" fill="#70d6f9"/></g></g><g><g><circle cx="40.276" cy="3.377" fill="#87d147" r="3.377"/></g></g><g><g><circle cx="230.276" cy="226.373" fill="#f5c84c" r="3.377"/></g></g><g><g><path d="m199.276 77.406h-171.562c-1.381 0-2.5-1.119-2.5-2.5v-14.7c0-4.129 3.358-7.487 7.487-7.487h161.588c4.129 0 7.487 3.358 7.487 7.487v14.7c0 1.381-1.119 2.5-2.5 2.5zm-169.062-5h166.563v-12.2c0-1.371-1.116-2.487-2.487-2.487h-161.589c-1.371 0-2.487 1.116-2.487 2.487z"/></g></g><g><g><path d="m68.37 39.854c-1.381 0-2.5-1.119-2.5-2.5v-18.604c0-1.381 1.119-2.5 2.5-2.5s2.5 1.119 2.5 2.5v18.604c0 1.381-1.119 2.5-2.5 2.5z"/></g></g><g><g><path d="m213.852 218.969h-13.769c-1.381 0-2.5-1.119-2.5-2.5s1.119-2.5 2.5-2.5h13.769c1.371 0 2.487-1.116 2.487-2.487v-173.607c0-1.381 1.119-2.5 2.5-2.5s2.5 1.119 2.5 2.5v173.606c0 4.129-3.359 7.488-7.487 7.488z"/></g></g><g><g><path d="m47.276 57.156c-1.381 0-2.5-1.119-2.5-2.5v-16.781c0-1.381 1.119-2.5 2.5-2.5s2.5 1.119 2.5 2.5v16.781c0 1.381-1.119 2.5-2.5 2.5z"/></g></g><g><g><path d="m48.808 76.792c-1.381 0-2.5-1.119-2.5-2.5v-18.604c0-1.381 1.119-2.5 2.5-2.5s2.5 1.119 2.5 2.5v18.604c0 1.381-1.12 2.5-2.5 2.5z"/></g></g><g><g><path d="m61.5 94h-10c-1.381 0-2.5-1.119-2.5-2.5s1.119-2.5 2.5-2.5h10c1.381 0 2.5 1.119 2.5 2.5s-1.119 2.5-2.5 2.5z"/></g></g><g><g><path d="m72.008 198.893h-16.016c-1.381 0-2.5-1.119-2.5-2.5s1.119-2.5 2.5-2.5h16.016c1.381 0 2.5 1.119 2.5 2.5s-1.119 2.5-2.5 2.5z"/></g></g><g><g><path d="m80.016 209.085h-32.032c-1.381 0-2.5-1.119-2.5-2.5s1.119-2.5 2.5-2.5h32.032c1.381 0 2.5 1.119 2.5 2.5s-1.119 2.5-2.5 2.5z"/></g></g><g><g><path d="m80.016 219.276h-32.032c-1.381 0-2.5-1.119-2.5-2.5s1.119-2.5 2.5-2.5h32.032c1.381 0 2.5 1.119 2.5 2.5s-1.119 2.5-2.5 2.5z"/></g></g><g><g><path d="m80.016 229.469h-32.032c-1.381 0-2.5-1.119-2.5-2.5s1.119-2.5 2.5-2.5h32.032c1.381 0 2.5 1.119 2.5 2.5s-1.119 2.5-2.5 2.5z"/></g></g><g><g><path d="m80.016 239.66h-32.032c-1.381 0-2.5-1.119-2.5-2.5s1.119-2.5 2.5-2.5h32.032c1.381 0 2.5 1.119 2.5 2.5s-1.119 2.5-2.5 2.5z"/></g></g><g><g><path d="m121.008 198.893h-16.016c-1.381 0-2.5-1.119-2.5-2.5s1.119-2.5 2.5-2.5h16.016c1.381 0 2.5 1.119 2.5 2.5s-1.119 2.5-2.5 2.5z"/></g></g><g><g><path d="m129.016 209.085h-32.032c-1.381 0-2.5-1.119-2.5-2.5s1.119-2.5 2.5-2.5h32.032c1.381 0 2.5 1.119 2.5 2.5s-1.12 2.5-2.5 2.5z"/></g></g><g><g><path d="m129.016 219.276h-32.032c-1.381 0-2.5-1.119-2.5-2.5s1.119-2.5 2.5-2.5h32.032c1.381 0 2.5 1.119 2.5 2.5s-1.12 2.5-2.5 2.5z"/></g></g><g><g><path d="m129.016 229.469h-32.032c-1.381 0-2.5-1.119-2.5-2.5s1.119-2.5 2.5-2.5h32.032c1.381 0 2.5 1.119 2.5 2.5s-1.12 2.5-2.5 2.5z"/></g></g><g><g><path d="m129.016 239.66h-32.032c-1.381 0-2.5-1.119-2.5-2.5s1.119-2.5 2.5-2.5h32.032c1.381 0 2.5 1.119 2.5 2.5s-1.12 2.5-2.5 2.5z"/></g></g><g><g><path d="m170.008 198.893h-16.016c-1.381 0-2.5-1.119-2.5-2.5s1.119-2.5 2.5-2.5h16.016c1.381 0 2.5 1.119 2.5 2.5s-1.119 2.5-2.5 2.5z"/></g></g><g><g><path d="m178.016 209.085h-32.031c-1.381 0-2.5-1.119-2.5-2.5s1.119-2.5 2.5-2.5h32.031c1.381 0 2.5 1.119 2.5 2.5s-1.12 2.5-2.5 2.5z"/></g></g><g><g><path d="m178.016 219.276h-32.031c-1.381 0-2.5-1.119-2.5-2.5s1.119-2.5 2.5-2.5h32.031c1.381 0 2.5 1.119 2.5 2.5s-1.12 2.5-2.5 2.5z"/></g></g><g><g><path d="m178.016 229.469h-32.031c-1.381 0-2.5-1.119-2.5-2.5s1.119-2.5 2.5-2.5h32.031c1.381 0 2.5 1.119 2.5 2.5s-1.12 2.5-2.5 2.5z"/></g></g><g><g><path d="m178.016 239.66h-32.031c-1.381 0-2.5-1.119-2.5-2.5s1.119-2.5 2.5-2.5h32.031c1.381 0 2.5 1.119 2.5 2.5s-1.12 2.5-2.5 2.5z"/></g></g><g><g><path d="m79.737 188.255h-31.474c-2.647 0-4.802-2.154-4.802-4.802v-29.906c0-2.647 2.154-4.802 4.802-4.802h31.475c2.647 0 4.802 2.154 4.802 4.802v29.906c-.001 2.648-2.155 4.802-4.803 4.802zm-31.276-5h31.078v-29.51h-31.078zm31.276-29.51h.01z"/></g></g><g><g><path d="m128.737 188.255h-31.474c-2.647 0-4.802-2.154-4.802-4.802v-29.906c0-2.647 2.154-4.802 4.802-4.802h31.475c2.647 0 4.802 2.154 4.802 4.802v29.906c-.001 2.648-2.155 4.802-4.803 4.802zm-31.276-5h31.078v-29.51h-31.078zm31.276-29.51h.01z"/></g></g><g><g><path d="m177.737 188.255h-31.475c-2.647 0-4.802-2.154-4.802-4.802v-29.906c0-2.647 2.154-4.802 4.802-4.802h31.475c2.647 0 4.802 2.154 4.802 4.802v29.906c0 2.648-2.154 4.802-4.802 4.802zm-31.276-5h31.078v-29.51h-31.078zm31.276-29.51h.01z"/></g></g><g><g><path d="m54.496 187.934c-.64 0-1.28-.244-1.768-.732-.977-.977-.977-2.559 0-3.535l17.518-17.518c1.872-1.871 4.918-1.872 6.79-.001l6.613 6.613c.977.976.977 2.559 0 3.535-.977.977-2.559.977-3.536 0l-6.473-6.472-17.378 17.377c-.486.488-1.126.733-1.766.733z"/></g></g><g><g><path d="m66.685 175.165c-.64 0-1.28-.244-1.768-.732l-10.099-10.099-6.784 6.783c-.976.977-2.56.977-3.535 0-.977-.977-.977-2.559 0-3.535l6.924-6.924c1.872-1.871 4.918-1.872 6.79-.001l10.24 10.24c.977.977.977 2.559 0 3.535-.488.489-1.128.733-1.768.733z"/></g></g><g><g><path d="m103.699 187.73c-.64 0-1.28-.244-1.768-.732-.977-.977-.977-2.559 0-3.535l17.314-17.314c1.872-1.871 4.918-1.872 6.79-.001l6.629 6.63c.977.977.977 2.56 0 3.535-.977.977-2.559.977-3.535 0l-6.489-6.488-17.174 17.174c-.487.487-1.127.731-1.767.731z"/></g></g><g><g><path d="m115.549 175.029c-.64 0-1.28-.244-1.768-.732l-9.963-9.963-6.732 6.731c-.976.977-2.56.977-3.535 0-.977-.977-.977-2.559 0-3.535l6.872-6.872c1.872-1.871 4.918-1.872 6.79-.001l10.104 10.104c.977.977.977 2.56 0 3.535-.488.489-1.129.733-1.768.733z"/></g></g><g><g><path d="m152.621 187.809c-.64 0-1.279-.244-1.768-.732-.977-.977-.977-2.559 0-3.535l17.393-17.393c1.873-1.871 4.919-1.87 6.79-.001l6.439 6.439c.977.977.977 2.559 0 3.535s-2.559.977-3.535 0l-6.299-6.299-17.253 17.253c-.488.488-1.127.733-1.767.733z"/></g></g><g><g><path d="m164.72 175.2c-.64 0-1.279-.244-1.768-.732l-10.135-10.134-6.695 6.694c-.977.977-2.559.977-3.535 0s-.977-2.56 0-3.535l6.836-6.835c1.872-1.874 4.92-1.872 6.79 0l10.274 10.274c.977.977.977 2.559 0 3.535-.488.489-1.128.733-1.767.733z"/></g></g><g><g><path d="m198.5 138h-170c-1.381 0-2.5-1.119-2.5-2.5s1.119-2.5 2.5-2.5h170c1.381 0 2.5 1.119 2.5 2.5s-1.119 2.5-2.5 2.5z"/></g></g><g><g><path d="m147.291 123.044h-68.583c-5.192 0-9.417-4.225-9.417-9.417s4.224-9.416 9.416-9.416h68.584c5.192 0 9.416 4.224 9.416 9.416s-4.224 9.417-9.416 9.417zm-68.583-13.833c-2.435 0-4.416 1.981-4.416 4.416 0 2.436 1.981 4.417 4.417 4.417h68.583c2.436 0 4.417-1.981 4.417-4.417 0-2.435-1.981-4.416-4.416-4.416z"/></g></g><g><g><path d="m86.5 122c-1.381 0-2.5-1.119-2.5-2.5v-11.813c0-1.381 1.119-2.5 2.5-2.5s2.5 1.119 2.5 2.5v11.813c0 1.381-1.119 2.5-2.5 2.5z"/></g></g></g></g></svg>